G04*
G04 #@! TF.GenerationSoftware,Altium Limited,Altium Designer,21.0.9 (235)*
G04*
G04 Layer_Color=65535*
%FSTAX24Y24*%
%MOIN*%
G70*
G04*
G04 #@! TF.SameCoordinates,4053B660-B042-41B2-9039-F209D6E1977B*
G04*
G04*
G04 #@! TF.FilePolarity,Positive*
G04*
G01*
G75*
%ADD10C,0.0070*%
%ADD11C,0.0079*%
%ADD12C,0.0040*%
%ADD13C,0.0050*%
G36*
X037545Y030895D02*
Y031605D01*
X037195Y031255D01*
X037185D01*
X037545Y030895D01*
D02*
G37*
D10*
X039786Y031833D02*
G03*
X039792Y03175I-000645J-000083D01*
G01*
X03673Y03505D02*
X03703D01*
X03673Y03455D02*
Y03505D01*
Y03455D02*
X03703D01*
X03674Y03196D02*
X03704D01*
X03674Y03146D02*
Y03196D01*
Y03146D02*
X03704D01*
X03465Y03025D02*
Y03625D01*
X03605D02*
X03705D01*
Y03025D02*
Y03625D01*
X03465Y03025D02*
X03705D01*
X03465Y03625D02*
X03605D01*
X0379Y0305D02*
Y033D01*
Y0305D02*
X0404D01*
Y033D01*
X0379D02*
X0404D01*
D11*
X038756Y035595D02*
G03*
X03907Y035595I000157J0D01*
G01*
X0379D02*
X038756D01*
X03907D02*
X0399D01*
Y03365D02*
Y035595D01*
X0379Y03365D02*
Y035595D01*
Y03365D02*
X0399D01*
D12*
X041533Y035514D02*
X041715D01*
X041533Y035986D02*
X041715D01*
X041509Y034414D02*
X041691D01*
X041509Y034886D02*
X041691D01*
X041509Y033314D02*
X041691D01*
X041509Y033786D02*
X041691D01*
D13*
X04103Y035451D02*
X042218D01*
Y036049D01*
X04103D02*
X042218D01*
X04103Y035451D02*
Y036049D01*
X041006Y034351D02*
X042194D01*
Y034949D01*
X041006D02*
X042194D01*
X041006Y034351D02*
Y034949D01*
Y033251D02*
X042194D01*
Y033849D01*
X041006D02*
X042194D01*
X041006Y033251D02*
Y033849D01*
M02*
