G04*
G04 #@! TF.GenerationSoftware,Altium Limited,Altium Designer,21.0.9 (235)*
G04*
G04 Layer_Physical_Order=2*
G04 Layer_Color=16711680*
%FSTAX24Y24*%
%MOIN*%
G70*
G04*
G04 #@! TF.SameCoordinates,4053B660-B042-41B2-9039-F209D6E1977B*
G04*
G04*
G04 #@! TF.FilePolarity,Positive*
G04*
G01*
G75*
%ADD26O,0.0900X0.0750*%
%ADD27R,0.0900X0.0750*%
%ADD28C,0.0750*%
G36*
X0423Y029945D02*
X034472D01*
Y036394D01*
X0423D01*
Y029945D01*
D02*
G37*
%LPC*%
G36*
X040213Y032225D02*
X0402D01*
Y0318D01*
X040625D01*
Y031813D01*
X040593Y031933D01*
X04053Y032042D01*
X040442Y03213D01*
X040333Y032193D01*
X040213Y032225D01*
D02*
G37*
G36*
X0401D02*
X040087D01*
X039967Y032193D01*
X039858Y03213D01*
X03977Y032042D01*
X039707Y031933D01*
X039675Y031813D01*
Y0318D01*
X0401D01*
Y032225D01*
D02*
G37*
G36*
X036125Y036022D02*
X035975D01*
X035824Y036008D01*
X035679Y035964D01*
X035546Y035892D01*
X035429Y035796D01*
X035333Y035679D01*
X035261Y035546D01*
X035217Y035401D01*
X035203Y03525D01*
X035217Y035099D01*
X035261Y034954D01*
X035333Y034821D01*
X035391Y03475D01*
X035333Y034679D01*
X035261Y034546D01*
X035217Y034401D01*
X035203Y03425D01*
X035217Y034099D01*
X035261Y033954D01*
X035333Y033821D01*
X035391Y03375D01*
X035333Y033679D01*
X035261Y033546D01*
X035217Y033401D01*
X035203Y03325D01*
X035217Y033099D01*
X035261Y032954D01*
X035333Y032821D01*
X035391Y03275D01*
X035333Y032679D01*
X035261Y032546D01*
X035217Y032401D01*
X035203Y03225D01*
X035217Y032099D01*
X035261Y031954D01*
X035333Y031821D01*
X035429Y031704D01*
X0355Y031645D01*
Y0313D01*
X03605D01*
X0366D01*
Y031645D01*
X036671Y031704D01*
X036767Y031821D01*
X036839Y031954D01*
X036883Y032099D01*
X036897Y03225D01*
X036883Y032401D01*
X036839Y032546D01*
X036767Y032679D01*
X036709Y03275D01*
X036767Y032821D01*
X036839Y032954D01*
X036883Y033099D01*
X036897Y03325D01*
X036883Y033401D01*
X036839Y033546D01*
X036767Y033679D01*
X036709Y03375D01*
X036767Y033821D01*
X036839Y033954D01*
X036883Y034099D01*
X036897Y03425D01*
X036883Y034401D01*
X036839Y034546D01*
X036767Y034679D01*
X036709Y03475D01*
X036767Y034821D01*
X036839Y034954D01*
X036883Y035099D01*
X036897Y03525D01*
X036883Y035401D01*
X036839Y035546D01*
X036767Y035679D01*
X036671Y035796D01*
X036554Y035892D01*
X036421Y035964D01*
X036276Y036008D01*
X036125Y036022D01*
D02*
G37*
G36*
X040625Y0317D02*
X0402D01*
Y031275D01*
X040213D01*
X040333Y031307D01*
X040442Y03137D01*
X04053Y031458D01*
X040593Y031567D01*
X040625Y031687D01*
Y0317D01*
D02*
G37*
G36*
X0401D02*
X039675D01*
Y031687D01*
X039707Y031567D01*
X03977Y031458D01*
X039858Y03137D01*
X039967Y031307D01*
X040087Y031275D01*
X0401D01*
Y0317D01*
D02*
G37*
G36*
X038226Y032519D02*
X038074D01*
X037926Y032489D01*
X037786Y032431D01*
X03766Y032347D01*
X037553Y03224D01*
X037469Y032114D01*
X037411Y031974D01*
X037381Y031826D01*
Y031674D01*
X037411Y031526D01*
X037469Y031386D01*
X037553Y03126D01*
X03766Y031153D01*
X037786Y031069D01*
X037926Y031011D01*
X038074Y030981D01*
X038226D01*
X038374Y031011D01*
X038514Y031069D01*
X03864Y031153D01*
X038747Y03126D01*
X038831Y031386D01*
X038889Y031526D01*
X038919Y031674D01*
Y031826D01*
X038889Y031974D01*
X038831Y032114D01*
X038747Y03224D01*
X03864Y032347D01*
X038514Y032431D01*
X038374Y032489D01*
X038226Y032519D01*
D02*
G37*
G36*
X0366Y0312D02*
X0361D01*
Y030775D01*
X0366D01*
Y0312D01*
D02*
G37*
G36*
X036D02*
X0355D01*
Y030775D01*
X036D01*
Y0312D01*
D02*
G37*
%LPD*%
D26*
X03605Y03525D02*
D03*
Y03225D02*
D03*
Y03325D02*
D03*
Y03425D02*
D03*
D27*
Y03125D02*
D03*
D28*
X04015Y03175D02*
D03*
X03815D02*
D03*
M02*
