G04*
G04 #@! TF.GenerationSoftware,Altium Limited,Altium Designer,21.0.9 (235)*
G04*
G04 Layer_Physical_Order=1*
G04 Layer_Color=255*
%FSTAX24Y24*%
%MOIN*%
G70*
G04*
G04 #@! TF.SameCoordinates,4053B660-B042-41B2-9039-F209D6E1977B*
G04*
G04*
G04 #@! TF.FilePolarity,Positive*
G04*
G01*
G75*
G04:AMPARAMS|DCode=14|XSize=78.7mil|YSize=35.4mil|CornerRadius=0mil|HoleSize=0mil|Usage=FLASHONLY|Rotation=0.000|XOffset=0mil|YOffset=0mil|HoleType=Round|Shape=Octagon|*
%AMOCTAGOND14*
4,1,8,0.0394,-0.0089,0.0394,0.0089,0.0305,0.0177,-0.0305,0.0177,-0.0394,0.0089,-0.0394,-0.0089,-0.0305,-0.0177,0.0305,-0.0177,0.0394,-0.0089,0.0*
%
%ADD14OCTAGOND14*%

%ADD15O,0.0787X0.0354*%
%ADD16R,0.0354X0.0512*%
%ADD23C,0.0197*%
%ADD24C,0.0118*%
%ADD25C,0.0150*%
%ADD26O,0.0900X0.0750*%
%ADD27R,0.0900X0.0750*%
%ADD28C,0.0750*%
G36*
X040679Y036207D02*
X040064D01*
X040064Y036207D01*
X039946Y036191D01*
X039836Y036145D01*
X039741Y036073D01*
X039741Y036073D01*
X039653Y035985D01*
X039581Y03589D01*
X039547Y03581D01*
X039472Y035779D01*
X039352Y035687D01*
X039261Y035568D01*
X039203Y035429D01*
X039184Y03528D01*
X039203Y035131D01*
X039261Y034992D01*
X039282Y034965D01*
X039261Y034938D01*
X039203Y034799D01*
X039184Y03465D01*
X039203Y034501D01*
X039261Y034362D01*
X039282Y034335D01*
X039261Y034308D01*
X039203Y034169D01*
X039184Y03402D01*
X039203Y033871D01*
X039261Y033732D01*
X039352Y033613D01*
X039472Y033521D01*
X039547Y03349D01*
X039581Y03341D01*
X039653Y033315D01*
X039741Y033227D01*
X039741Y033227D01*
X039836Y033155D01*
X039946Y033109D01*
X040064Y033093D01*
X040064Y033093D01*
X040655D01*
Y0329D01*
X041478D01*
Y032246D01*
X04015D01*
X040022Y032229D01*
X039902Y03218D01*
X039799Y032101D01*
X03972Y031998D01*
X039671Y031878D01*
X039654Y03175D01*
Y030946D01*
X038306D01*
X038301Y030996D01*
X038374Y031011D01*
X038514Y031069D01*
X03864Y031153D01*
X038747Y03126D01*
X038831Y031386D01*
X038889Y031526D01*
X038919Y031674D01*
Y031826D01*
X038889Y031974D01*
X038831Y032114D01*
X038747Y03224D01*
X03864Y032347D01*
X038514Y032431D01*
X038374Y032489D01*
X038226Y032519D01*
X038074D01*
X037926Y032489D01*
X037786Y032431D01*
X03766Y032347D01*
X037553Y03224D01*
X037536Y032215D01*
X037484Y032211D01*
X037123Y032573D01*
X037028Y032645D01*
X036918Y032691D01*
X0368Y032707D01*
X0368Y032707D01*
X036745D01*
X036709Y03275D01*
X036745Y032793D01*
X03765D01*
X03765Y032793D01*
X037768Y032809D01*
X037878Y032855D01*
X037973Y032927D01*
X038173Y033127D01*
X038173Y033127D01*
X038245Y033222D01*
X038291Y033332D01*
X038307Y03345D01*
X038307Y03345D01*
Y033502D01*
X038354Y033521D01*
X038474Y033613D01*
X038565Y033732D01*
X038623Y033871D01*
X038642Y03402D01*
X038623Y034169D01*
X038565Y034308D01*
X038544Y034335D01*
X038565Y034362D01*
X038623Y034501D01*
X038642Y03465D01*
X038623Y034799D01*
X03857Y034927D01*
X038637Y034994D01*
Y035565D01*
X038352Y035851D01*
X037348D01*
X037219Y035722D01*
X036732D01*
X036671Y035796D01*
X036554Y035892D01*
X036421Y035964D01*
X036276Y036008D01*
X036125Y036022D01*
X035975D01*
X035824Y036008D01*
X035679Y035964D01*
X035546Y035892D01*
X035429Y035796D01*
X035333Y035679D01*
X035261Y035546D01*
X035217Y035401D01*
X035203Y03525D01*
X035217Y035099D01*
X035261Y034954D01*
X035333Y034821D01*
X035391Y03475D01*
X035333Y034679D01*
X035261Y034546D01*
X035217Y034401D01*
X035203Y03425D01*
X035217Y034099D01*
X035261Y033954D01*
X035333Y033821D01*
X035391Y03375D01*
X035333Y033679D01*
X035261Y033546D01*
X035217Y033401D01*
X035203Y03325D01*
X035217Y033099D01*
X035261Y032954D01*
X035333Y032821D01*
X035391Y03275D01*
X035333Y032679D01*
X035261Y032546D01*
X035217Y032401D01*
X035203Y03225D01*
X035217Y032099D01*
X035261Y031954D01*
X035333Y031821D01*
X035429Y031704D01*
X0355Y031645D01*
Y0313D01*
X03605D01*
X0366D01*
Y031645D01*
X036671Y031704D01*
X036699Y031705D01*
X036977Y031427D01*
X036977Y031427D01*
X037072Y031355D01*
X037182Y031309D01*
X0373Y031293D01*
X0373Y031293D01*
X037531D01*
X037553Y03126D01*
X03766Y031153D01*
X037786Y031069D01*
X037926Y031011D01*
X037999Y030996D01*
X037994Y030946D01*
X0366D01*
Y0312D01*
X03605D01*
X0355D01*
Y030775D01*
X035604D01*
Y030565D01*
X035621Y030437D01*
X03567Y030317D01*
X035749Y030214D01*
X035864Y030099D01*
X035967Y03002D01*
X036029Y029995D01*
X036019Y029945D01*
X034472D01*
Y036394D01*
X040679D01*
Y036207D01*
D02*
G37*
G36*
X0423Y031424D02*
Y029945D01*
X040231D01*
X040221Y029995D01*
X040283Y03002D01*
X040386Y030099D01*
X040501Y030214D01*
X04058Y030317D01*
X040629Y030437D01*
X040646Y030565D01*
Y031254D01*
X041859D01*
X041987Y031271D01*
X042107Y03132D01*
X04221Y031399D01*
X042253Y031443D01*
X0423Y031424D01*
D02*
G37*
D14*
X03785Y03528D02*
D03*
D15*
Y03465D02*
D03*
Y03402D02*
D03*
X039976Y03528D02*
D03*
Y03465D02*
D03*
Y03402D02*
D03*
D16*
X041998Y03575D02*
D03*
X04125D02*
D03*
X041974Y03465D02*
D03*
X041226D02*
D03*
X041974Y03355D02*
D03*
X041226D02*
D03*
D23*
X04015Y030565D02*
Y03175D01*
X036215Y03045D02*
X040035D01*
X0361Y030565D02*
Y0312D01*
Y030565D02*
X036215Y03045D01*
X040035D02*
X04015Y030565D01*
X03605Y03525D02*
X036065Y035265D01*
X041974Y031865D02*
Y03465D01*
X041859Y03175D02*
X041974Y031865D01*
X04015Y03175D02*
X041859D01*
X03605Y03125D02*
X0361Y0312D01*
X03605Y03425D02*
X03615Y03415D01*
X037835Y035265D02*
X03785Y03528D01*
X041986Y034662D02*
Y035738D01*
D24*
X036065Y035265D02*
X037835D01*
X036965Y03465D02*
X03785D01*
X03605Y03425D02*
X036735D01*
X03685Y034365D01*
Y034535D01*
X036965Y03465D01*
X03785Y03345D02*
Y03402D01*
X03605Y03325D02*
X03765D01*
X03785Y03345D01*
X0368Y03225D02*
X0373Y03175D01*
X03815D01*
X03605Y03225D02*
X0368D01*
X039976Y033638D02*
X040064Y03355D01*
X039976Y033638D02*
Y03402D01*
X041226Y03355D02*
X041226Y03355D01*
X040064Y03355D02*
X041226D01*
X039976Y03465D02*
X041226D01*
X041226Y03465D01*
X040064Y03575D02*
X04125D01*
X039976Y035662D02*
X040064Y03575D01*
X039976Y03528D02*
Y035662D01*
X0378Y03397D02*
X03785Y03402D01*
D25*
X041986Y035738D02*
X041998Y03575D01*
X041974Y03465D02*
X041986Y034662D01*
D26*
X03605Y03525D02*
D03*
Y03225D02*
D03*
Y03325D02*
D03*
Y03425D02*
D03*
D27*
Y03125D02*
D03*
D28*
X04015Y03175D02*
D03*
X03815D02*
D03*
M02*
