%TF.GenerationSoftware,Altium Limited,Altium Designer,23.2.1 (34)*%
G04 Layer_Physical_Order=2*
G04 Layer_Color=16711680*
%FSLAX45Y45*%
%MOMM*%
%TF.SameCoordinates,76BEBE9A-6656-4806-BAFE-41FAB228EB9C*%
%TF.FilePolarity,Positive*%
%TF.FileFunction,Copper,L2,Bot,Signal*%
%TF.Part,Single*%
G01*
G75*
%TA.AperFunction,Conductor*%
%ADD10C,1.39700*%
%ADD11C,0.88900*%
%TA.AperFunction,ComponentPad*%
%ADD12C,2.00000*%
%ADD13C,1.38100*%
%ADD14O,3.04800X2.41300*%
%ADD15C,2.03200*%
%ADD16R,2.03200X2.03200*%
%ADD17C,1.80000*%
%ADD18C,1.41000*%
%ADD19R,1.41000X1.41000*%
%ADD20C,2.54000*%
%ADD21R,2.54000X2.54000*%
%ADD22C,2.10000*%
%ADD23R,2.10000X2.10000*%
%ADD24O,1.50000X1.30000*%
%ADD25R,1.50000X1.30000*%
%TA.AperFunction,ViaPad*%
%ADD26C,1.77800*%
%TA.AperFunction,SMDPad,CuDef*%
%ADD27R,1.20000X1.40000*%
%ADD28R,1.40000X1.20000*%
%ADD29R,1.70000X2.50000*%
%ADD30O,2.25000X1.60000*%
%ADD31R,2.51850X1.11680*%
%TA.AperFunction,Conductor*%
%ADD32C,0.50800*%
D10*
X2537459Y2894017D02*
X2662743Y3019300D01*
X2537459Y2806700D02*
Y2894017D01*
X2662743Y3019300D02*
X2667000D01*
X2353039Y2622280D02*
X2537459Y2806700D01*
X2343340Y2622280D02*
X2353039D01*
X1905000Y1638300D02*
X1917700Y1651000D01*
X1892300D02*
X1905000Y1638300D01*
X4531450Y1754523D02*
X4546600Y1769673D01*
X4464766Y1519300D02*
X4531450Y1585984D01*
X4217000Y1519300D02*
X4464766D01*
X4531450Y1585984D02*
Y1754523D01*
D11*
X3136900Y3644900D02*
X3340100D01*
X3022600Y3530600D02*
X3136900Y3644900D01*
X3022600Y3416300D02*
Y3530600D01*
X5651500Y1384300D02*
Y1598923D01*
X5599423Y1651000D02*
X5651500Y1598923D01*
X4657860Y651430D02*
Y1270000D01*
X4762500Y1374640D02*
Y1384300D01*
X4657860Y1270000D02*
X4762500Y1374640D01*
X2706377Y431800D02*
X3080200D01*
X2654300Y483877D02*
Y623577D01*
Y483877D02*
X2706377Y431800D01*
X2413000Y864877D02*
X2654300Y623577D01*
X2490477Y177800D02*
X3080200D01*
X2438400Y229877D02*
Y368300D01*
Y229877D02*
X2490477Y177800D01*
X3620777Y787400D02*
X4229100D01*
X3568700Y229877D02*
Y735323D01*
X3620777Y787400D01*
X4229100Y785757D02*
X4309793D01*
X4217000Y1019300D02*
X4229100Y1007200D01*
Y785757D02*
Y1007200D01*
X4421760Y635000D02*
X4431759D01*
X4309793Y785757D02*
X4406209Y689341D01*
Y650550D02*
X4421760Y635000D01*
X4406209Y650550D02*
Y689341D01*
X1554675Y2082800D02*
X1943100D01*
X1776723Y768160D02*
X2038540D01*
X2438400Y368300D01*
X2413000Y864877D02*
Y1154423D01*
X2082800Y1206500D02*
X2360923D01*
X2413000Y1154423D01*
X4941577Y1651000D02*
X5599423D01*
X4889500Y1703077D02*
X4941577Y1651000D01*
X4889500Y1703077D02*
Y2006600D01*
X4910758Y2184400D02*
Y2277442D01*
Y2027858D02*
Y2184400D01*
X4546600Y2181200D02*
X4907558D01*
X4910758Y2184400D01*
X4803400Y2384800D02*
X4910758Y2277442D01*
X4889500Y2006600D02*
X4910758Y2027858D01*
X4803400Y2384800D02*
Y2641600D01*
X3568700Y229877D02*
X3620777Y177800D01*
X3930200D01*
X4425160Y438400D02*
X4431759Y445000D01*
X3936800Y438400D02*
X4425160D01*
X3930200Y431800D02*
X3936800Y438400D01*
X4431759Y445000D02*
X4432200Y445440D01*
X4641680D01*
X4642120Y445880D01*
X4642310Y635880D02*
X4657860Y651430D01*
X4642120Y635880D02*
X4642310D01*
X4546600Y1769673D02*
Y1781200D01*
X2286000Y3416300D02*
X3022600D01*
X1776723Y768160D02*
X1828800Y716083D01*
X990940Y768160D02*
X1776723D01*
X1828800Y444500D02*
Y716083D01*
X990940Y958160D02*
X1776723D01*
X1828800Y1010236D02*
Y1206500D01*
X1776723Y958160D02*
X1828800Y1010236D01*
Y444500D02*
X2082800D01*
X1574800D02*
X1828800D01*
X1320800D02*
X1574800D01*
X1283826Y1518070D02*
X1425710D01*
X1257300Y1544597D02*
Y2527333D01*
X1441260Y1492520D02*
Y1502520D01*
X1425710Y1518070D02*
X1441260Y1502520D01*
X1257300Y1544597D02*
X1283826Y1518070D01*
X1309377Y2579410D02*
X1543285D01*
X1257300Y2527333D02*
X1309377Y2579410D01*
X1543285D02*
X1554675Y2590800D01*
X1562067Y2598192D01*
X1554675Y2590800D02*
X1562100Y2583375D01*
X2343340Y2357317D02*
Y2622280D01*
X2259323Y2273300D02*
X2343340Y2357317D01*
X1614177Y2273300D02*
X2259323D01*
X1562100Y2325377D02*
Y2583375D01*
Y2325377D02*
X1614177Y2273300D01*
X1562067Y2598192D02*
Y2779990D01*
X1626877Y2844800D02*
X1701800D01*
X1562067Y2779990D02*
X1626877Y2844800D01*
X1701800D02*
X1844450Y2987450D01*
Y3168050D01*
X1902200Y3225800D01*
X2143680Y2631940D02*
X2153340Y2622280D01*
X2141569Y2634051D02*
X2143680Y2631940D01*
X2193646Y2890869D02*
X2268569D01*
X2141569Y2634051D02*
Y2838792D01*
X2193646Y2890869D01*
X2268569D02*
X2286000Y2908300D01*
X1892300Y2641600D02*
X1901960Y2631940D01*
X2143680D01*
X1931677Y3429000D02*
X2273300D01*
X1902200Y3225800D02*
X1931677Y3255277D01*
Y3429000D01*
X2273300D02*
X2286000Y3416300D01*
X1016000Y1525700D02*
X1028700Y1538400D01*
X963923Y2082800D02*
X1028700Y2018023D01*
Y1538400D02*
Y2018023D01*
X655125Y2082800D02*
X963923D01*
X1001600Y1511300D02*
X1016000Y1525700D01*
X110250Y3069350D02*
X366600Y3325700D01*
X1016000D01*
X110250Y382277D02*
Y3069350D01*
X162327Y330200D02*
X381000D01*
X110250Y382277D02*
X162327Y330200D01*
X381000Y2538723D02*
X433077Y2590800D01*
X381000Y838200D02*
Y2538723D01*
X433077Y2590800D02*
X655125D01*
D12*
X4889500Y2006600D02*
D03*
X5702300D02*
D03*
X1016000Y3325700D02*
D03*
Y1525700D02*
D03*
D13*
X3340100Y3644900D02*
D03*
X4340100D02*
D03*
D14*
X4217000Y3019300D02*
D03*
Y2519300D02*
D03*
Y2019300D02*
D03*
Y1519300D02*
D03*
Y1019300D02*
D03*
X2667000Y3019300D02*
D03*
Y2519300D02*
D03*
Y2019300D02*
D03*
Y1519300D02*
D03*
Y1019300D02*
D03*
D15*
X4762500Y1384300D02*
D03*
D16*
X5651500D02*
D03*
D17*
X2286000Y3416300D02*
D03*
Y2908300D02*
D03*
X5651500Y342900D02*
D03*
Y850900D02*
D03*
X381000Y330200D02*
D03*
Y838200D02*
D03*
D18*
X1320800Y1206500D02*
D03*
X1828800D02*
D03*
X1320800Y444500D02*
D03*
X1574800D02*
D03*
X1828800D02*
D03*
X2082800D02*
D03*
D19*
Y1206500D02*
D03*
D20*
X1892300Y1651000D02*
D03*
D21*
Y2641600D02*
D03*
D22*
X1552200Y3225800D02*
D03*
X5153400Y2641600D02*
D03*
D23*
X1902200Y3225800D02*
D03*
X4803400Y2641600D02*
D03*
D24*
X5765800Y2514600D02*
D03*
D25*
Y2768600D02*
D03*
D26*
X1943100Y2082800D02*
D03*
D27*
X1441260Y1492520D02*
D03*
X1631260D02*
D03*
X2153340Y2622280D02*
D03*
X2343340D02*
D03*
D28*
X4642120Y445880D02*
D03*
Y635880D02*
D03*
X4431759Y635000D02*
D03*
Y445000D02*
D03*
X990940Y768160D02*
D03*
Y958160D02*
D03*
D29*
X4546600Y1781200D02*
D03*
Y2181200D02*
D03*
D30*
X3080200Y431800D02*
D03*
Y177800D02*
D03*
X3930200D02*
D03*
Y431800D02*
D03*
D31*
X655125Y2590800D02*
D03*
Y2082800D02*
D03*
X1554675D02*
D03*
Y2590800D02*
D03*
D32*
X2053042Y1384300D02*
X2082800Y1354542D01*
X1873341Y1384300D02*
X2053042D01*
X2082800Y1206500D02*
Y1354542D01*
X1765121Y1492520D02*
X1873341Y1384300D01*
X1631260Y1492520D02*
X1765121D01*
%TF.MD5,cd4c3aeaecbbc3f2d7bcbffcd39ba759*%
M02*
