%TF.GenerationSoftware,Altium Limited,Altium Designer,23.2.1 (34)*%
G04 Layer_Color=32896*
%FSLAX45Y45*%
%MOMM*%
%TF.SameCoordinates,76BEBE9A-6656-4806-BAFE-41FAB228EB9C*%
%TF.FilePolarity,Positive*%
%TF.FileFunction,Legend,Bot*%
%TF.Part,Single*%
G01*
G75*
%TA.AperFunction,NonConductor*%
%ADD33C,0.25400*%
%ADD36C,0.17780*%
%ADD39C,0.20000*%
%ADD40C,0.15240*%
%ADD41C,0.07620*%
G36*
X3645200Y405090D02*
X3705780D01*
Y464800D01*
X3645200D01*
Y405090D01*
D02*
G37*
D33*
X2895559Y507975D02*
Y381017D01*
X2870167Y355625D01*
X2819383D01*
X2793992Y381017D01*
Y507975D01*
X2641641Y355625D02*
X2743208D01*
X2641641Y457192D01*
Y482583D01*
X2667033Y507975D01*
X2717816D01*
X2743208Y482583D01*
X1689059Y1638325D02*
Y1790675D01*
X1612883D01*
X1587492Y1765283D01*
Y1714500D01*
X1612883Y1689108D01*
X1689059D01*
X1638275D02*
X1587492Y1638325D01*
X1435141Y1790675D02*
X1536708D01*
Y1714500D01*
X1485925Y1739892D01*
X1460533D01*
X1435141Y1714500D01*
Y1663717D01*
X1460533Y1638325D01*
X1511316D01*
X1536708Y1663717D01*
X4508459Y127025D02*
Y279375D01*
X4432283D01*
X4406892Y253983D01*
Y203200D01*
X4432283Y177808D01*
X4508459D01*
X4457675D02*
X4406892Y127025D01*
X4279933D02*
Y279375D01*
X4356108Y203200D01*
X4254541D01*
X4838659Y139725D02*
Y292075D01*
X4762483D01*
X4737092Y266683D01*
Y215900D01*
X4762483Y190508D01*
X4838659D01*
X4787875D02*
X4737092Y139725D01*
X4686308Y266683D02*
X4660916Y292075D01*
X4610133D01*
X4584741Y266683D01*
Y241292D01*
X4610133Y215900D01*
X4635525D01*
X4610133D01*
X4584741Y190508D01*
Y165117D01*
X4610133Y139725D01*
X4660916D01*
X4686308Y165117D01*
X2324067Y2298725D02*
Y2451075D01*
X2247892D01*
X2222500Y2425683D01*
Y2374900D01*
X2247892Y2349508D01*
X2324067D01*
X2273283D02*
X2222500Y2298725D01*
X2171716D02*
X2120933D01*
X2146324D01*
Y2451075D01*
X2171716Y2425683D01*
X4648200Y2595831D02*
Y2443480D01*
X4572025D01*
X4546633Y2468872D01*
Y2570439D01*
X4572025Y2595831D01*
X4648200D01*
X4394282Y2443480D02*
X4495849D01*
X4394282Y2545047D01*
Y2570439D01*
X4419674Y2595831D01*
X4470457D01*
X4495849Y2570439D01*
X1498567Y3060675D02*
Y2908325D01*
X1422392D01*
X1397000Y2933717D01*
Y3035283D01*
X1422392Y3060675D01*
X1498567D01*
X1346216Y2908325D02*
X1295433D01*
X1320824D01*
Y3060675D01*
X1346216Y3035283D01*
X1029032Y602543D02*
X1054424Y627935D01*
X1105207D01*
X1130599Y602543D01*
Y500976D01*
X1105207Y475585D01*
X1054424D01*
X1029032Y500976D01*
X876681Y627935D02*
X927465Y602543D01*
X978248Y551760D01*
Y500976D01*
X952856Y475585D01*
X902073D01*
X876681Y500976D01*
Y526368D01*
X902073Y551760D01*
X978248D01*
D36*
X1513420Y1423940D02*
X1559140D01*
X1513420Y1561100D02*
X1559140D01*
X4710700Y518000D02*
Y563720D01*
X4573540Y518000D02*
Y563720D01*
X4363179Y517160D02*
Y562880D01*
X4500339Y517160D02*
Y562880D01*
X2225460Y2553700D02*
X2271180D01*
X2225460Y2690860D02*
X2271180D01*
X922360Y840320D02*
Y886040D01*
X1059520Y840320D02*
Y886040D01*
D39*
X3711255Y434800D02*
G03*
X3711255Y434800I-36055J0D01*
G01*
X1361700Y1402080D02*
X1495880D01*
X1361700D02*
Y1582420D01*
X1495880D01*
X1573380D02*
X1711700D01*
X1573380Y1402080D02*
X1711700D01*
Y1582420D01*
X4551680Y365440D02*
X4732020D01*
X4551680D02*
Y503760D01*
X4732020Y365440D02*
Y503760D01*
Y581260D02*
Y715440D01*
X4551680D02*
X4732020D01*
X4551680Y581260D02*
Y715440D01*
X4341859D02*
X4522199D01*
Y577120D02*
Y715440D01*
X4341859Y577120D02*
Y715440D01*
Y365440D02*
Y499620D01*
Y365440D02*
X4522199D01*
Y499620D01*
X4711700Y1612900D02*
Y2356200D01*
X4664100Y1612900D02*
X4711700D01*
X4572000Y2356200D02*
X4711700D01*
X4381500Y1612900D02*
X4429100D01*
X4572000Y2336800D02*
Y2356200D01*
Y2336800D02*
X4711700D01*
X4381500D02*
X4521200D01*
Y2356200D01*
X4381500Y1612900D02*
Y2356200D01*
X4521200D01*
X4496600Y2021200D02*
X4596600D01*
X4546600D02*
X4586600Y1951200D01*
X4496600D02*
X4546600Y2021200D01*
X4496600Y1951200D02*
X4586600D01*
X4546600Y2021200D02*
Y2031200D01*
Y1931200D02*
Y1951200D01*
X2072900Y2532380D02*
Y2712720D01*
X2211220D01*
X2072900Y2532380D02*
X2211220D01*
X2288720D02*
X2422900D01*
Y2712720D01*
X2288720D02*
X2422900D01*
X3790200Y74800D02*
Y534800D01*
X3220200Y74800D02*
X3790200D01*
X3220200D02*
Y534800D01*
X3790200D01*
X901700Y688340D02*
Y822780D01*
Y900280D02*
Y1038860D01*
X1079500Y900280D02*
Y1038860D01*
Y688340D02*
Y822780D01*
X901700Y1038860D02*
X1079500D01*
X901700Y688340D02*
X1079500D01*
D40*
X768350Y2171914D02*
Y2501686D01*
X1441450Y1908810D02*
Y1993686D01*
Y2171914D02*
Y2501686D01*
Y2679914D02*
Y2764790D01*
X768350D02*
X1441450D01*
X768350Y1908810D02*
Y1993686D01*
Y1908810D02*
X1441450D01*
X768350Y2679914D02*
Y2764790D01*
D41*
X1611825Y2795579D02*
X1527186Y2710940D01*
X1611825D02*
X1527186Y2795579D01*
X1611825Y2753259D02*
X1527186D01*
X1569505Y2710940D02*
Y2795579D01*
%TF.MD5,0dc24a4971852440fa3d206d8b1b164f*%
M02*
