%TF.GenerationSoftware,Altium Limited,Altium Designer,23.2.1 (34)*%
G04 Layer_Color=16711935*
%FSLAX45Y45*%
%MOMM*%
%TF.SameCoordinates,76BEBE9A-6656-4806-BAFE-41FAB228EB9C*%
%TF.FilePolarity,Negative*%
%TF.FileFunction,Soldermask,Bot*%
%TF.Part,Single*%
G01*
G75*
%TA.AperFunction,SMDPad,CuDef*%
%ADD31R,2.51850X1.11680*%
%TA.AperFunction,ComponentPad*%
%ADD42C,2.20320*%
%ADD43C,1.58420*%
%ADD44O,3.25120X2.61620*%
%ADD45C,2.23520*%
%ADD46R,2.23520X2.23520*%
%ADD47C,2.00320*%
%ADD48C,1.61320*%
%ADD49R,1.61320X1.61320*%
%ADD50C,2.74320*%
%ADD51R,2.74320X2.74320*%
%ADD52C,2.30320*%
%ADD53R,2.30320X2.30320*%
%ADD54O,1.70320X1.50320*%
%ADD55R,1.70320X1.50320*%
%TA.AperFunction,ViaPad*%
%ADD56C,1.98120*%
%TA.AperFunction,SMDPad,CuDef*%
%ADD57R,1.40320X1.60320*%
%ADD58R,1.60320X1.40320*%
%ADD59R,1.90320X2.70320*%
%ADD60O,2.45320X1.80320*%
D31*
X655125Y2590800D02*
D03*
Y2082800D02*
D03*
X1554675D02*
D03*
Y2590800D02*
D03*
D42*
X4889500Y2006600D02*
D03*
X5702300D02*
D03*
X1016000Y3325700D02*
D03*
Y1525700D02*
D03*
D43*
X3340100Y3644900D02*
D03*
X4340100D02*
D03*
D44*
X4217000Y3019300D02*
D03*
Y2519300D02*
D03*
Y2019300D02*
D03*
Y1519300D02*
D03*
Y1019300D02*
D03*
X2667000Y3019300D02*
D03*
Y2519300D02*
D03*
Y2019300D02*
D03*
Y1519300D02*
D03*
Y1019300D02*
D03*
D45*
X4762500Y1384300D02*
D03*
D46*
X5651500D02*
D03*
D47*
X2286000Y3416300D02*
D03*
Y2908300D02*
D03*
X5651500Y342900D02*
D03*
Y850900D02*
D03*
X381000Y330200D02*
D03*
Y838200D02*
D03*
D48*
X1320800Y1206500D02*
D03*
X1828800D02*
D03*
X1320800Y444500D02*
D03*
X1574800D02*
D03*
X1828800D02*
D03*
X2082800D02*
D03*
D49*
Y1206500D02*
D03*
D50*
X1892300Y1651000D02*
D03*
D51*
Y2641600D02*
D03*
D52*
X1552200Y3225800D02*
D03*
X5153400Y2641600D02*
D03*
D53*
X1902200Y3225800D02*
D03*
X4803400Y2641600D02*
D03*
D54*
X5765800Y2514600D02*
D03*
D55*
Y2768600D02*
D03*
D56*
X1943100Y2082800D02*
D03*
D57*
X1441260Y1492520D02*
D03*
X1631260D02*
D03*
X2153340Y2622280D02*
D03*
X2343340D02*
D03*
D58*
X4642120Y445880D02*
D03*
Y635880D02*
D03*
X4431759Y635000D02*
D03*
Y445000D02*
D03*
X990940Y768160D02*
D03*
Y958160D02*
D03*
D59*
X4546600Y1781200D02*
D03*
Y2181200D02*
D03*
D60*
X3080200Y431800D02*
D03*
Y177800D02*
D03*
X3930200D02*
D03*
Y431800D02*
D03*
%TF.MD5,f4e156c0b2545f563e3fd2ee1fc7145d*%
M02*
