%TF.GenerationSoftware,Altium Limited,Altium Designer,23.2.1 (34)*%
G04 Layer_Color=16711935*
%FSLAX45Y45*%
%MOMM*%
%TF.SameCoordinates,76BEBE9A-6656-4806-BAFE-41FAB228EB9C*%
%TF.FilePolarity,Positive*%
%TF.FileFunction,Other,Mechanical_13*%
%TF.Part,Single*%
G01*
G75*
%TA.AperFunction,NonConductor*%
%ADD34C,0.10000*%
%ADD41C,0.07620*%
%ADD61C,0.00000*%
%ADD62C,0.02540*%
%ADD63R,2.92000X0.61870*%
D34*
X4400600Y1751200D02*
X4692600D01*
X4400600Y2211200D02*
X4692600D01*
Y1751200D02*
Y2211200D01*
X4400600Y1751200D02*
Y2211200D01*
D41*
X1422400Y2723269D02*
X1337761Y2638630D01*
X1422400D02*
X1337761Y2723269D01*
X1422400Y2680949D02*
X1337761D01*
X1380080Y2638630D02*
Y2723269D01*
D61*
X1074420Y2752090D02*
G03*
X1135380Y2752090I30480J0D01*
G01*
D62*
X1428750Y1921510D02*
Y2752090D01*
X781050D02*
X1428750D01*
X781050Y1921510D02*
Y2752090D01*
Y1921510D02*
X1428750D01*
X584200Y2644140D02*
X781050D01*
X584200Y2537460D02*
Y2644140D01*
Y2537460D02*
X781050D01*
Y2644140D01*
X584200Y2136140D02*
X781050D01*
X584200Y2029460D02*
Y2136140D01*
Y2029460D02*
X781050D01*
Y2136140D01*
X1428750Y2029460D02*
X1625600D01*
Y2136140D01*
X1428750D02*
X1625600D01*
X1428750Y2029460D02*
Y2136140D01*
Y2537460D02*
X1625600D01*
Y2644140D01*
X1428750D02*
X1625600D01*
X1428750Y2537460D02*
Y2644140D01*
D63*
X4546600Y2180265D02*
D03*
%TF.MD5,82c22127c522d686007bd215602e67f0*%
M02*
