G04*
G04 #@! TF.GenerationSoftware,Altium Limited,Altium Designer,21.0.9 (235)*
G04*
G04 Layer_Color=255*
%FSTAX24Y24*%
%MOIN*%
G70*
G04*
G04 #@! TF.SameCoordinates,013E48BC-1F52-4242-9F7F-A7329D5E5ACC*
G04*
G04*
G04 #@! TF.FilePolarity,Positive*
G04*
G01*
G75*
%ADD20R,0.0630X0.0236*%
%ADD21R,0.0945X0.1299*%
%ADD22R,0.0945X0.0394*%
%ADD23R,0.0630X0.0709*%
%ADD24R,0.2953X0.1378*%
%ADD25O,0.0217X0.0531*%
%ADD26O,0.0531X0.0217*%
%ADD27R,0.0512X0.0354*%
%ADD28R,0.0354X0.0512*%
%ADD29R,0.0354X0.0374*%
%ADD54R,0.0591X0.0591*%
%ADD55C,0.0591*%
%ADD56C,0.0900*%
%ADD57R,0.0900X0.0900*%
%ADD58R,0.0984X0.0787*%
%ADD59O,0.0900X0.0750*%
%ADD60R,0.0900X0.0750*%
%ADD61R,0.0512X0.0591*%
%ADD62O,0.0512X0.0591*%
%ADD63C,0.0800*%
%ADD64O,0.0750X0.0900*%
%ADD65R,0.0750X0.0900*%
%ADD66C,0.0750*%
D20*
X028498Y0358D02*
D03*
Y0353D02*
D03*
Y0348D02*
D03*
Y0343D02*
D03*
X030702Y0358D02*
D03*
Y0353D02*
D03*
Y0348D02*
D03*
Y0343D02*
D03*
D21*
X033008Y02715D02*
D03*
D22*
X035292Y028056D02*
D03*
Y02715D02*
D03*
Y026244D02*
D03*
D23*
X033317Y031299D02*
D03*
X035167D02*
D03*
D24*
X034213Y035069D02*
D03*
Y032904D02*
D03*
D25*
X041848Y031884D02*
D03*
X042163D02*
D03*
X042478D02*
D03*
X042793D02*
D03*
X043107D02*
D03*
X043422D02*
D03*
X043737D02*
D03*
X044052D02*
D03*
Y028616D02*
D03*
X043737D02*
D03*
X043422D02*
D03*
X043107D02*
D03*
X042793D02*
D03*
X042478D02*
D03*
X042163D02*
D03*
X041848D02*
D03*
D26*
X044584Y031352D02*
D03*
Y031037D02*
D03*
Y030722D02*
D03*
Y030407D02*
D03*
Y030093D02*
D03*
Y029778D02*
D03*
Y029463D02*
D03*
Y029148D02*
D03*
X041316D02*
D03*
Y029463D02*
D03*
Y029778D02*
D03*
Y030093D02*
D03*
Y030407D02*
D03*
Y030722D02*
D03*
Y031037D02*
D03*
Y031352D02*
D03*
D27*
X03175Y0279D02*
D03*
Y027152D02*
D03*
X0449Y034174D02*
D03*
Y033426D02*
D03*
X0422Y027174D02*
D03*
Y026426D02*
D03*
X0405Y027174D02*
D03*
Y026426D02*
D03*
X04135Y027174D02*
D03*
Y026426D02*
D03*
X040157Y030108D02*
D03*
Y030856D02*
D03*
X04015Y029124D02*
D03*
Y028376D02*
D03*
X0431Y027174D02*
D03*
Y026426D02*
D03*
X04395Y0272D02*
D03*
Y026452D02*
D03*
D28*
X033026Y02505D02*
D03*
X033774D02*
D03*
D29*
X041274Y024392D02*
D03*
X0409Y023408D02*
D03*
X040526Y024392D02*
D03*
X038274Y024292D02*
D03*
X0379Y023308D02*
D03*
X037526Y024292D02*
D03*
X039774Y024342D02*
D03*
X0394Y023358D02*
D03*
X039026Y024342D02*
D03*
X042724Y024392D02*
D03*
X04235Y023408D02*
D03*
X041976Y024392D02*
D03*
X044174D02*
D03*
X0438Y023408D02*
D03*
X043426Y024392D02*
D03*
D54*
X041943Y040652D02*
D03*
D55*
X042943D02*
D03*
X041943Y039652D02*
D03*
X042943D02*
D03*
X041943Y038652D02*
D03*
X042943D02*
D03*
X041943Y037652D02*
D03*
X042943D02*
D03*
D56*
X032774Y037992D02*
D03*
X02975Y0316D02*
D03*
D57*
X034774Y037992D02*
D03*
X03175Y0316D02*
D03*
D58*
X0298Y02785D02*
D03*
Y02585D02*
D03*
D59*
X046831Y027974D02*
D03*
Y029974D02*
D03*
Y030974D02*
D03*
Y031974D02*
D03*
Y028974D02*
D03*
D60*
Y032974D02*
D03*
D61*
X03485Y0295D02*
D03*
D62*
X03385D02*
D03*
D63*
X038248Y020748D02*
D03*
X030748Y038898D02*
D03*
X038248Y042028D02*
D03*
X045731Y038948D02*
D03*
X048878Y031398D02*
D03*
X045733Y023912D02*
D03*
D64*
X03925Y03455D02*
D03*
X04225D02*
D03*
X04125D02*
D03*
X04025D02*
D03*
D65*
X04325D02*
D03*
D66*
X046891Y036958D02*
D03*
X044891D02*
D03*
X0387Y02915D02*
D03*
Y03115D02*
D03*
M02*
