G04*
G04 #@! TF.GenerationSoftware,Altium Limited,Altium Designer,21.0.9 (235)*
G04*
G04 Layer_Physical_Order=1*
G04 Layer_Color=255*
%FSTAX24Y24*%
%MOIN*%
G70*
G04*
G04 #@! TF.SameCoordinates,013E48BC-1F52-4242-9F7F-A7329D5E5ACC*
G04*
G04*
G04 #@! TF.FilePolarity,Positive*
G04*
G01*
G75*
%ADD15C,0.0118*%
%ADD20R,0.0630X0.0236*%
%ADD21R,0.0945X0.1299*%
%ADD22R,0.0945X0.0394*%
%ADD23R,0.0630X0.0709*%
%ADD24R,0.2953X0.1378*%
%ADD25O,0.0217X0.0531*%
%ADD26O,0.0531X0.0217*%
%ADD27R,0.0512X0.0354*%
%ADD28R,0.0354X0.0512*%
%ADD29R,0.0354X0.0374*%
%ADD53C,0.0197*%
%ADD54R,0.0591X0.0591*%
%ADD55C,0.0591*%
%ADD56C,0.0900*%
%ADD57R,0.0900X0.0900*%
%ADD58R,0.0984X0.0787*%
%ADD59O,0.0900X0.0750*%
%ADD60R,0.0900X0.0750*%
%ADD61R,0.0512X0.0591*%
%ADD62O,0.0512X0.0591*%
%ADD63C,0.0800*%
%ADD64O,0.0750X0.0900*%
%ADD65R,0.0750X0.0900*%
%ADD66C,0.0750*%
%ADD67C,0.0276*%
%ADD68C,0.0433*%
G36*
X038887Y04274D02*
X039522Y042686D01*
X040152Y042597D01*
X040777Y042473D01*
X041394Y042314D01*
X042001Y04212D01*
X042596Y041893D01*
X042683Y041854D01*
X042673Y041805D01*
X039053D01*
X039021Y041844D01*
X039042Y041949D01*
Y042106D01*
X039011Y042259D01*
X038951Y042404D01*
X038865Y042534D01*
X038754Y042644D01*
X038677Y042696D01*
X038692Y042745D01*
X038887Y04274D01*
D02*
G37*
G36*
X041548Y040702D02*
X041943D01*
Y040602D01*
X041548D01*
Y040256D01*
X041548Y040256D01*
X041548D01*
X041537Y040209D01*
X041504Y040187D01*
X041408Y040091D01*
X041408Y040091D01*
X038371D01*
X038335Y040111D01*
X0382Y040148D01*
X03806D01*
X037925Y040111D01*
X037804Y040041D01*
X037705Y039942D01*
X037635Y039821D01*
X037598Y039686D01*
Y039546D01*
X037635Y039411D01*
X037705Y03929D01*
X037804Y039191D01*
X037925Y039121D01*
X03806Y039085D01*
X0382D01*
X038335Y039121D01*
X038433Y039177D01*
X041423D01*
X041445Y039128D01*
X041408Y039091D01*
X041332Y038978D01*
X04128Y038853D01*
X041254Y038719D01*
Y038584D01*
X04128Y038451D01*
X041332Y038325D01*
X041408Y038212D01*
X041469Y038152D01*
X041408Y038091D01*
X041332Y037978D01*
X04128Y037853D01*
X041254Y037719D01*
Y037584D01*
X04128Y037451D01*
X041332Y037325D01*
X041408Y037212D01*
X041486Y037134D01*
Y036368D01*
X041486Y036368D01*
X041502Y03625D01*
X041547Y03614D01*
X04162Y036045D01*
X041689Y035976D01*
X041689Y035976D01*
X041784Y035904D01*
X041894Y035858D01*
X042012Y035843D01*
X042012Y035843D01*
X044D01*
X044067Y035804D01*
X044202Y035768D01*
X044342D01*
X044404Y035784D01*
X044443Y035754D01*
Y034745D01*
X04425D01*
Y03457D01*
X04425Y034569D01*
X044156Y034497D01*
X044156Y034497D01*
X044044Y034386D01*
X043972Y034291D01*
X043957Y034256D01*
X043725D01*
Y0345D01*
X04325D01*
Y03455D01*
X0432D01*
Y0351D01*
X042855D01*
X042796Y035171D01*
X042679Y035267D01*
X042546Y035339D01*
X042401Y035383D01*
X04225Y035397D01*
X042099Y035383D01*
X041954Y035339D01*
X041821Y035267D01*
X04175Y035209D01*
X041679Y035267D01*
X041546Y035339D01*
X041401Y035383D01*
X04125Y035397D01*
X041099Y035383D01*
X040954Y035339D01*
X040821Y035267D01*
X04075Y035209D01*
X040679Y035267D01*
X040546Y035339D01*
X040401Y035383D01*
X04025Y035397D01*
X040099Y035383D01*
X039954Y035339D01*
X039821Y035267D01*
X03975Y035209D01*
X039679Y035267D01*
X039546Y035339D01*
X039401Y035383D01*
X03925Y035397D01*
X039099Y035383D01*
X038954Y035339D01*
X038821Y035267D01*
X038704Y035171D01*
X038608Y035054D01*
X038536Y034921D01*
X038492Y034776D01*
X038478Y034625D01*
Y034475D01*
X038492Y034324D01*
X038536Y034179D01*
X038608Y034046D01*
X038704Y033929D01*
X038793Y033855D01*
Y033337D01*
X038793Y033337D01*
X038809Y033219D01*
X038855Y033109D01*
X038927Y033014D01*
X038996Y032945D01*
X038996Y032945D01*
X039091Y032872D01*
X039201Y032827D01*
X039319Y032811D01*
X039319Y032811D01*
X04185D01*
X041875Y032768D01*
X041867Y032754D01*
X041831Y032619D01*
Y032545D01*
X041717Y03253D01*
X041594Y03248D01*
X04149Y032399D01*
X041409Y032294D01*
X041359Y032172D01*
X041341Y032041D01*
Y031859D01*
X041159D01*
X041028Y031841D01*
X040933Y031802D01*
X040733D01*
X040677Y031834D01*
X040542Y03187D01*
X040402D01*
X040267Y031834D01*
X040146Y031764D01*
X040047Y031665D01*
X039977Y031544D01*
X039941Y031409D01*
Y031299D01*
X039909Y031286D01*
X039806Y031207D01*
X039728Y031104D01*
X039678Y030985D01*
X039661Y030856D01*
X039678Y030729D01*
X039679Y030719D01*
X039647Y030679D01*
X039508D01*
Y030565D01*
X039267D01*
X039248Y030611D01*
X039297Y03066D01*
X039381Y030786D01*
X039439Y030926D01*
X039469Y031074D01*
Y031226D01*
X039439Y031374D01*
X039381Y031514D01*
X039297Y03164D01*
X03919Y031747D01*
X039064Y031831D01*
X038924Y031889D01*
X038776Y031919D01*
X038624D01*
X038476Y031889D01*
X038336Y031831D01*
X03821Y031747D01*
X038103Y03164D01*
X038019Y031514D01*
X037961Y031374D01*
X037931Y031226D01*
Y031074D01*
X037961Y030926D01*
X038019Y030786D01*
X038103Y03066D01*
X03821Y030553D01*
X038243Y030531D01*
Y030296D01*
X038243Y030296D01*
X038259Y030178D01*
X038305Y030068D01*
X038377Y029973D01*
X038434Y029917D01*
X038424Y029868D01*
X038336Y029831D01*
X03821Y029747D01*
X038103Y02964D01*
X038019Y029514D01*
X037961Y029374D01*
X037931Y029226D01*
Y029074D01*
X037961Y028926D01*
X038019Y028786D01*
X038103Y02866D01*
X03821Y028553D01*
X038336Y028469D01*
X038476Y028411D01*
X038624Y028381D01*
X038776D01*
X038924Y028411D01*
X039026Y028453D01*
X039065Y028415D01*
X039028Y028327D01*
X039011Y028199D01*
Y027421D01*
X039019Y027364D01*
X038972Y027341D01*
X037906Y028407D01*
X037803Y028485D01*
X037683Y028535D01*
X037555Y028552D01*
X036158D01*
Y028646D01*
X035959D01*
X03594Y028692D01*
X036288Y029041D01*
X036387Y029D01*
X036505Y028976D01*
X036625D01*
X036743Y029D01*
X036854Y029046D01*
X036954Y029113D01*
X037039Y029198D01*
X037106Y029298D01*
X037152Y029409D01*
X037175Y029527D01*
Y029647D01*
X037152Y029765D01*
X037106Y029876D01*
X037101Y029883D01*
Y040813D01*
X041548D01*
Y040702D01*
D02*
G37*
G36*
X043744Y041341D02*
X044293Y041017D01*
X044822Y040663D01*
X045331Y04028D01*
X045818Y039869D01*
X045923Y03977D01*
X045899Y039723D01*
X045809Y039741D01*
X045653D01*
X045499Y039711D01*
X045355Y039651D01*
X045225Y039564D01*
X045114Y039454D01*
X045027Y039324D01*
X044968Y039179D01*
X044937Y039026D01*
Y038869D01*
X044968Y038716D01*
X045027Y038572D01*
X045114Y038442D01*
X045225Y038331D01*
X045355Y038244D01*
X045499Y038184D01*
X045653Y038154D01*
X045809D01*
X045962Y038184D01*
X046107Y038244D01*
X046237Y038331D01*
X046347Y038442D01*
X046434Y038572D01*
X046494Y038716D01*
X046525Y038869D01*
Y039026D01*
X046506Y039121D01*
X046552Y039145D01*
X046719Y038968D01*
X04713Y038481D01*
X047513Y037972D01*
X047867Y037443D01*
X048191Y036894D01*
X048483Y036328D01*
X048743Y035746D01*
X04897Y035151D01*
X049164Y034544D01*
X049323Y033927D01*
X049447Y033302D01*
X049536Y032672D01*
X04959Y032037D01*
X049595Y031843D01*
X049546Y031827D01*
X049494Y031904D01*
X049384Y032014D01*
X049254Y032101D01*
X049109Y032161D01*
X048956Y032191D01*
X0488D01*
X048646Y032161D01*
X048569Y032129D01*
X048528Y032157D01*
Y034567D01*
X048528Y034567D01*
X048512Y034685D01*
X048466Y034795D01*
X048394Y03489D01*
X048394Y03489D01*
X048187Y035097D01*
X048093Y035169D01*
X047982Y035215D01*
X047878Y035228D01*
X047724Y035382D01*
X04763Y035455D01*
X04752Y0355D01*
X047402Y035516D01*
X047402Y035516D01*
X045666D01*
X045599Y035554D01*
X045464Y035591D01*
X045357D01*
Y036344D01*
X045381Y036361D01*
X045488Y036468D01*
X045572Y036594D01*
X04563Y036733D01*
X045659Y036882D01*
Y037033D01*
X04563Y037182D01*
X045572Y037322D01*
X045488Y037448D01*
X045381Y037555D01*
X045255Y037639D01*
X045115Y037697D01*
X044966Y037726D01*
X044815D01*
X044667Y037697D01*
X044527Y037639D01*
X044401Y037555D01*
X044294Y037448D01*
X04421Y037322D01*
X044152Y037182D01*
X044122Y037033D01*
Y036882D01*
X044136Y036813D01*
X044067Y036794D01*
X044Y036756D01*
X0424D01*
Y037134D01*
X042443Y037177D01*
X042504Y037116D01*
X042617Y037041D01*
X042742Y036989D01*
X042875Y036963D01*
X043011D01*
X043144Y036989D01*
X043269Y037041D01*
X043382Y037116D01*
X043478Y037212D01*
X043553Y037325D01*
X043605Y037451D01*
X043632Y037584D01*
Y037719D01*
X043605Y037853D01*
X043553Y037978D01*
X043478Y038091D01*
X043417Y038152D01*
X043478Y038212D01*
X043553Y038325D01*
X043605Y038451D01*
X043632Y038584D01*
Y038719D01*
X043605Y038853D01*
X043553Y038978D01*
X043478Y039091D01*
X043417Y039152D01*
X043478Y039212D01*
X043553Y039325D01*
X043605Y039451D01*
X043632Y039584D01*
Y039719D01*
X043605Y039853D01*
X043553Y039978D01*
X043478Y040091D01*
X043417Y040152D01*
X043478Y040212D01*
X043553Y040325D01*
X043605Y040451D01*
X043632Y040584D01*
Y040719D01*
X043605Y040853D01*
X043553Y040978D01*
X043478Y041091D01*
X043439Y04113D01*
Y041194D01*
X043422Y041322D01*
X043373Y041442D01*
X043329Y041498D01*
X043362Y041538D01*
X043744Y041341D01*
D02*
G37*
G36*
X037819Y042696D02*
X037742Y042644D01*
X037632Y042534D01*
X037545Y042404D01*
X037485Y042259D01*
X037454Y042106D01*
Y041949D01*
X037475Y041844D01*
X037444Y041805D01*
X03686D01*
X036732Y041789D01*
X036612Y041739D01*
X036509Y04166D01*
X036509Y04166D01*
X036253Y041404D01*
X036174Y041301D01*
X036125Y041182D01*
X036108Y041053D01*
Y036191D01*
X036083Y036152D01*
X034768D01*
Y036251D01*
X035154Y036637D01*
X035233Y03674D01*
X035283Y03686D01*
X0353Y036988D01*
X0353Y036988D01*
Y037148D01*
X035617D01*
Y038836D01*
X03393D01*
Y037148D01*
X034196D01*
X034215Y037102D01*
X033921Y036808D01*
X033842Y036705D01*
X033792Y036585D01*
X033775Y036457D01*
Y036152D01*
X032343D01*
Y035565D01*
X032253D01*
X032167Y035651D01*
X032064Y03573D01*
X031945Y035779D01*
X031816Y035796D01*
X031411D01*
Y036312D01*
X029994D01*
Y035288D01*
Y034788D01*
Y034288D01*
Y033788D01*
X031254D01*
Y032444D01*
X030906D01*
Y03194D01*
X03086Y031921D01*
X03083Y031951D01*
X030727Y03203D01*
X030608Y032079D01*
X030479Y032096D01*
X02999D01*
X029962Y032113D01*
X029822Y03215D01*
X0298D01*
Y0316D01*
X0297D01*
Y03215D01*
X029678D01*
X029538Y032113D01*
X029471Y032074D01*
X029081D01*
X028994Y032161D01*
Y0343D01*
Y0348D01*
Y0353D01*
Y0358D01*
Y036423D01*
X032572D01*
X0327Y03644D01*
X03282Y036489D01*
X032923Y036568D01*
X033125Y03677D01*
X033203Y036873D01*
X033253Y036993D01*
X03327Y037121D01*
Y037195D01*
X033316Y037214D01*
X03333Y0372D01*
X033415Y037165D01*
Y037402D01*
Y037638D01*
X03333Y037603D01*
X033316Y037589D01*
X03327Y037609D01*
Y037752D01*
X033286Y03778D01*
X033324Y03792D01*
Y037942D01*
X032774D01*
X032224D01*
Y03792D01*
X032261Y03778D01*
X032277Y037752D01*
Y037416D01*
X028675D01*
X028648Y037466D01*
X028987Y037972D01*
X02937Y038481D01*
X029781Y038968D01*
X029934Y03913D01*
X02998Y039106D01*
X029954Y038976D01*
Y038819D01*
X029985Y038666D01*
X030045Y038522D01*
X030132Y038392D01*
X030242Y038281D01*
X030372Y038194D01*
X030517Y038134D01*
X03067Y038104D01*
X030826D01*
X03098Y038134D01*
X031124Y038194D01*
X031254Y038281D01*
X031365Y038392D01*
X031451Y038522D01*
X031511Y038666D01*
X031542Y038819D01*
Y038976D01*
X031511Y039129D01*
X031451Y039274D01*
X031365Y039404D01*
X031254Y039514D01*
X031124Y039601D01*
X03098Y039661D01*
X030826Y039691D01*
X03067D01*
X030539Y039665D01*
X030516Y039712D01*
X030682Y039869D01*
X031169Y04028D01*
X031678Y040663D01*
X032207Y041017D01*
X032756Y041341D01*
X033322Y041633D01*
X033904Y041893D01*
X034499Y04212D01*
X035106Y042314D01*
X035723Y042473D01*
X036348Y042597D01*
X036978Y042686D01*
X037613Y04274D01*
X037803Y042745D01*
X037819Y042696D01*
D02*
G37*
G36*
X049604Y036174D02*
X049554Y036163D01*
X049304Y036723D01*
X048988Y037335D01*
X048638Y037927D01*
X048256Y038499D01*
X047842Y039049D01*
X047398Y039575D01*
X046925Y040075D01*
X046425Y040548D01*
X045899Y040992D01*
X045349Y041406D01*
X044777Y041788D01*
X044185Y042138D01*
X043573Y042454D01*
X043013Y042704D01*
X043024Y042754D01*
X049604D01*
Y036174D01*
D02*
G37*
G36*
X033487Y042704D02*
X032927Y042454D01*
X032315Y042138D01*
X031723Y041788D01*
X031151Y041406D01*
X030601Y040992D01*
X030075Y040548D01*
X029575Y040075D01*
X029102Y039575D01*
X028658Y039049D01*
X028244Y038499D01*
X027862Y037927D01*
X027512Y037335D01*
X027196Y036723D01*
X026946Y036163D01*
X026896Y036174D01*
Y042754D01*
X033477D01*
X033487Y042704D01*
D02*
G37*
G36*
X04723Y033449D02*
X046881D01*
Y032974D01*
X046831D01*
Y032924D01*
X046281D01*
Y032579D01*
X04621Y032521D01*
X046169Y032471D01*
X045739D01*
X045405Y032805D01*
X045417Y032855D01*
X04555D01*
Y033603D01*
Y033717D01*
X04723D01*
Y033449D01*
D02*
G37*
G36*
X043606Y031237D02*
X043737Y03122D01*
X043868Y031237D01*
X043891Y031247D01*
X043929Y031229D01*
X043947Y031191D01*
X043937Y031168D01*
X04392Y031037D01*
X043931Y030954D01*
X043887Y030904D01*
X042396D01*
X042226Y031073D01*
X042124Y031152D01*
X042044Y031185D01*
X042057Y031234D01*
X042163Y03122D01*
X042294Y031237D01*
X04232Y031248D01*
X042347Y031237D01*
X042478Y03122D01*
X042609Y031237D01*
X042635Y031248D01*
X042661Y031237D01*
X042793Y03122D01*
X042924Y031237D01*
X04295Y031248D01*
X042976Y031237D01*
X043107Y03122D01*
X043239Y031237D01*
X043265Y031248D01*
X043291Y031237D01*
X043422Y03122D01*
X043553Y031237D01*
X04358Y031248D01*
X043606Y031237D01*
D02*
G37*
G36*
X046134Y031428D02*
X046113Y031404D01*
X046042Y03127D01*
X045998Y031125D01*
X045983Y030974D01*
X045998Y030824D01*
X046042Y030679D01*
X046113Y030545D01*
X046172Y030474D01*
X046136Y030431D01*
X045994D01*
X045994Y030431D01*
X045876Y030416D01*
X045822Y030393D01*
X045782Y030454D01*
Y031478D01*
X04611D01*
X046134Y031428D01*
D02*
G37*
G36*
X031254Y028471D02*
X0311D01*
Y028396D01*
X030686D01*
Y028637D01*
X02992D01*
X02991Y028687D01*
X029926Y028694D01*
X030029Y028773D01*
X030144Y028888D01*
X030223Y028991D01*
X030273Y029111D01*
X03029Y029239D01*
Y030222D01*
X030335Y030244D01*
X030392Y0302D01*
X030511Y03015D01*
X03064Y030134D01*
X030768Y03015D01*
X030888Y0302D01*
X030991Y030279D01*
X03107Y030382D01*
X031119Y030501D01*
X031136Y03063D01*
X031124Y030719D01*
X031157Y030756D01*
X031254D01*
Y028471D01*
D02*
G37*
G36*
X048421Y029722D02*
Y027209D01*
X047202D01*
X047194Y027259D01*
X047201Y027261D01*
X047335Y027332D01*
X047452Y027428D01*
X047548Y027545D01*
X047619Y027679D01*
X047663Y027824D01*
X047678Y027974D01*
X047663Y028125D01*
X047619Y02827D01*
X047548Y028404D01*
X04749Y028474D01*
X047548Y028545D01*
X047619Y028679D01*
X047663Y028824D01*
X047678Y028974D01*
X047663Y029125D01*
X047619Y02927D01*
X047548Y029404D01*
X04749Y029474D01*
X047525Y029518D01*
X047957D01*
X047957Y029518D01*
X048075Y029533D01*
X048185Y029579D01*
X04828Y029652D01*
X048371Y029743D01*
X048421Y029722D01*
D02*
G37*
G36*
X049595Y030952D02*
X04959Y030763D01*
X049536Y030128D01*
X049447Y029498D01*
X049384Y029181D01*
X049335Y029186D01*
Y030748D01*
X049384Y030781D01*
X049494Y030892D01*
X049546Y030968D01*
X049595Y030952D01*
D02*
G37*
G36*
X032594Y030756D02*
X032608Y030712D01*
Y030551D01*
X03342D01*
X033442Y030506D01*
X03342Y030477D01*
X033371Y030358D01*
X033354Y030229D01*
Y0295D01*
X033371Y029372D01*
X03342Y029252D01*
X033426Y029244D01*
X033424Y029233D01*
X033401Y029194D01*
X033288Y029179D01*
X033168Y02913D01*
X033066Y029051D01*
X032657Y028643D01*
X032578Y02854D01*
X032529Y02842D01*
X032512Y028292D01*
Y028193D01*
X0324D01*
Y028471D01*
X032246D01*
Y030756D01*
X032594D01*
D02*
G37*
G36*
X034426Y027646D02*
X033874D01*
Y028193D01*
X03392Y028204D01*
X034426D01*
Y027646D01*
D02*
G37*
G36*
X04621Y027428D02*
X046327Y027332D01*
X04646Y027261D01*
X046467Y027259D01*
X04646Y027209D01*
X044912D01*
X044912Y027209D01*
X044794Y027193D01*
X044683Y027147D01*
X044644Y027118D01*
X0446Y02714D01*
Y027518D01*
X046136D01*
X04621Y027428D01*
D02*
G37*
G36*
X028001Y036173D02*
Y0358D01*
Y0353D01*
Y0348D01*
Y0343D01*
Y031955D01*
X028018Y031827D01*
X028068Y031707D01*
X028147Y031604D01*
X028524Y031227D01*
X028627Y031148D01*
X028747Y031098D01*
X028875Y031081D01*
X029297D01*
Y02962D01*
X028452D01*
X028323Y029603D01*
X028204Y029554D01*
X028101Y029475D01*
X027986Y02936D01*
X027907Y029257D01*
X027857Y029137D01*
X02784Y029009D01*
Y026987D01*
X027791Y026976D01*
X027757Y027054D01*
X02753Y027649D01*
X027336Y028256D01*
X027177Y028873D01*
X027053Y029498D01*
X026964Y030128D01*
X02691Y030763D01*
X026896Y03128D01*
Y03152D01*
X02691Y032037D01*
X026964Y032672D01*
X027053Y033302D01*
X027177Y033927D01*
X027336Y034544D01*
X02753Y035151D01*
X027757Y035746D01*
X027952Y036183D01*
X028001Y036173D01*
D02*
G37*
G36*
X038115Y026793D02*
X038116Y026786D01*
X038097Y026741D01*
X037825D01*
X037696Y026724D01*
X037577Y026674D01*
X037526Y026636D01*
X037475Y026674D01*
X037356Y026724D01*
X037227Y026741D01*
X036158D01*
Y027465D01*
Y027559D01*
X037349D01*
X038115Y026793D01*
D02*
G37*
G36*
X028914Y027063D02*
X030686D01*
Y027404D01*
X0311D01*
Y027329D01*
X03124D01*
X031271Y02729D01*
X03127Y027279D01*
X031254Y027152D01*
Y026346D01*
X0298D01*
X0298Y026346D01*
X02978Y026344D01*
X029208D01*
Y026343D01*
X028833D01*
Y028628D01*
X028914D01*
Y027063D01*
D02*
G37*
G36*
X034426Y026559D02*
X034677D01*
X034719Y026541D01*
Y026294D01*
X035292D01*
Y026194D01*
X034719D01*
Y025948D01*
X034799D01*
Y025541D01*
X033814D01*
X033774Y025546D01*
X033647Y02553D01*
X033636Y025529D01*
X033597Y02556D01*
Y0257D01*
X033522D01*
Y026107D01*
X033874D01*
Y026654D01*
X034426D01*
Y026559D01*
D02*
G37*
G36*
X04837Y026253D02*
X048191Y025906D01*
X047867Y025357D01*
X047513Y024828D01*
X04713Y024319D01*
X046719Y023832D01*
X046531Y023633D01*
X046488Y02366D01*
X046496Y023681D01*
X046527Y023834D01*
Y023991D01*
X046496Y024144D01*
X046437Y024288D01*
X04635Y024418D01*
X046239Y024529D01*
X046109Y024616D01*
X045965Y024676D01*
X045811Y024706D01*
X045655D01*
X045502Y024676D01*
X045357Y024616D01*
X045343Y024606D01*
X045299Y02463D01*
Y026295D01*
X048344D01*
X04837Y026253D01*
D02*
G37*
G36*
X038829Y023031D02*
X038719D01*
X038584Y022995D01*
X038521Y022959D01*
X038471Y022972D01*
Y023711D01*
X038829D01*
Y023031D01*
D02*
G37*
G36*
X041779Y022827D02*
X041893D01*
Y022376D01*
X041427D01*
Y022511D01*
X041391Y022646D01*
X041352Y022713D01*
Y022827D01*
X041471D01*
Y023811D01*
X041779D01*
Y022827D01*
D02*
G37*
G36*
X040329D02*
X040439D01*
Y022713D01*
X0404Y022646D01*
X040364Y022511D01*
Y022376D01*
X039721D01*
X039708Y022424D01*
X039716Y022429D01*
X039815Y022528D01*
X039885Y022649D01*
X039919Y022777D01*
X039971D01*
Y023761D01*
X040329D01*
Y022827D01*
D02*
G37*
G36*
X03253Y0257D02*
X032455D01*
Y0244D01*
X033597D01*
Y024543D01*
X033638Y02457D01*
X033651Y024565D01*
X033779Y024548D01*
X033779Y024548D01*
X035255D01*
X035295Y024543D01*
X035424Y02456D01*
X035543Y024609D01*
X035646Y024688D01*
X035725Y024791D01*
X035775Y024911D01*
X035792Y025039D01*
X035792Y025039D01*
Y025748D01*
X037022D01*
X03703Y02574D01*
Y024292D01*
X037047Y024164D01*
X037096Y024044D01*
X037175Y023941D01*
X037278Y023862D01*
X037329Y023841D01*
Y022727D01*
X037447D01*
Y022569D01*
X037447Y022569D01*
X037462Y022451D01*
X037455Y022436D01*
X037374Y022415D01*
X037252Y022345D01*
X037153Y022246D01*
X037083Y022124D01*
X037047Y021989D01*
Y021953D01*
X036709D01*
X036642Y021991D01*
X036507Y022028D01*
X036367D01*
X036232Y021991D01*
X036111Y021921D01*
X036012Y021822D01*
X035942Y021701D01*
X035906Y021566D01*
Y021426D01*
X035942Y021291D01*
X036012Y02117D01*
X036111Y021071D01*
X036232Y021001D01*
X036367Y020965D01*
X036507D01*
X036642Y021001D01*
X036709Y021039D01*
X037465D01*
X037493Y020998D01*
X037485Y020979D01*
X037454Y020826D01*
Y020669D01*
X037485Y020516D01*
X037545Y020372D01*
X037632Y020242D01*
X037742Y020131D01*
X037784Y020103D01*
X037768Y020056D01*
X037613Y02006D01*
X036978Y020114D01*
X036348Y020203D01*
X035723Y020327D01*
X035106Y020486D01*
X034499Y02068D01*
X033904Y020907D01*
X033322Y021167D01*
X032756Y021459D01*
X032207Y021783D01*
X031678Y022137D01*
X031169Y02252D01*
X030682Y022931D01*
X030219Y023369D01*
X029781Y023832D01*
X02937Y024319D01*
X028987Y024828D01*
X028667Y025306D01*
X028691Y02535D01*
X029796D01*
X029823Y025354D01*
X031598D01*
X031727Y025371D01*
X031846Y02542D01*
X031949Y025499D01*
X032101Y025651D01*
X032101Y025651D01*
X03218Y025754D01*
X032229Y025873D01*
X032246Y026002D01*
X032246Y026002D01*
Y026107D01*
X03253D01*
Y0257D01*
D02*
G37*
G36*
X043445Y022312D02*
X043481Y022177D01*
X043551Y022056D01*
X04365Y021957D01*
X043771Y021887D01*
X043906Y02185D01*
X044046D01*
X044182Y021887D01*
X044248Y021925D01*
X044419D01*
X044434Y021877D01*
X044293Y021783D01*
X043744Y021459D01*
X043178Y021167D01*
X042596Y020907D01*
X042001Y02068D01*
X041394Y020486D01*
X040777Y020327D01*
X040152Y020203D01*
X039522Y020114D01*
X038887Y02006D01*
X038728Y020056D01*
X038712Y020103D01*
X038754Y020131D01*
X038865Y020242D01*
X038951Y020372D01*
X039011Y020516D01*
X039042Y020669D01*
Y020826D01*
X039011Y020979D01*
X039003Y020998D01*
X039031Y021039D01*
X042638D01*
X042638Y021039D01*
X042756Y021055D01*
X042866Y021101D01*
X04296Y021173D01*
X04303Y021242D01*
X04303Y021242D01*
X043102Y021337D01*
X043148Y021447D01*
X043163Y021565D01*
X043163Y021565D01*
Y022358D01*
X043445D01*
Y022312D01*
D02*
G37*
G36*
X049604Y026627D02*
Y020046D01*
X043024D01*
X043013Y020096D01*
X043573Y020346D01*
X044185Y020662D01*
X044777Y021012D01*
X045349Y021394D01*
X045899Y021808D01*
X046425Y022252D01*
X046925Y022725D01*
X047398Y023225D01*
X047842Y023751D01*
X048256Y024301D01*
X048638Y024873D01*
X048988Y025465D01*
X049304Y026077D01*
X049554Y026637D01*
X049604Y026627D01*
D02*
G37*
G36*
X027196Y026077D02*
X027512Y025465D01*
X027862Y024873D01*
X028244Y024301D01*
X028542Y023905D01*
X02852Y02386D01*
X028496D01*
X028409Y023824D01*
X028342Y023757D01*
X028307Y023672D01*
X028543D01*
Y023622D01*
X028593D01*
Y023385D01*
X028678Y02342D01*
X028745Y023487D01*
X028768Y023543D01*
X028826Y023552D01*
X029102Y023225D01*
X029575Y022725D01*
X030075Y022252D01*
X030601Y021808D01*
X031151Y021394D01*
X031723Y021012D01*
X032315Y020662D01*
X032927Y020346D01*
X033487Y020096D01*
X033477Y020046D01*
X026896D01*
Y026627D01*
X026946Y026637D01*
X027196Y026077D01*
D02*
G37*
%LPC*%
G36*
X03942Y037638D02*
Y037452D01*
X039607D01*
X039572Y037536D01*
X039505Y037603D01*
X03942Y037638D01*
D02*
G37*
G36*
X03932D02*
X039235Y037603D01*
X039168Y037536D01*
X039133Y037452D01*
X03932D01*
Y037638D01*
D02*
G37*
G36*
X039607Y037352D02*
X03942D01*
Y037165D01*
X039505Y0372D01*
X039572Y037267D01*
X039607Y037352D01*
D02*
G37*
G36*
X03932D02*
X039133D01*
X039168Y037267D01*
X039235Y0372D01*
X03932Y037165D01*
Y037352D01*
D02*
G37*
G36*
X043725Y0351D02*
X0433D01*
Y0346D01*
X043725D01*
Y0351D01*
D02*
G37*
G36*
X046953Y037433D02*
X046941D01*
Y037008D01*
X047366D01*
Y03702D01*
X047333Y037141D01*
X047271Y037249D01*
X047182Y037338D01*
X047074Y0374D01*
X046953Y037433D01*
D02*
G37*
G36*
X046841D02*
X046828D01*
X046707Y0374D01*
X046599Y037338D01*
X046511Y037249D01*
X046448Y037141D01*
X046416Y03702D01*
Y037008D01*
X046841D01*
Y037433D01*
D02*
G37*
G36*
X047366Y036908D02*
X046941D01*
Y036483D01*
X046953D01*
X047074Y036515D01*
X047182Y036578D01*
X047271Y036666D01*
X047333Y036774D01*
X047366Y036895D01*
Y036908D01*
D02*
G37*
G36*
X046841D02*
X046416D01*
Y036895D01*
X046448Y036774D01*
X046511Y036666D01*
X046599Y036578D01*
X046707Y036515D01*
X046828Y036483D01*
X046841D01*
Y036908D01*
D02*
G37*
G36*
X035483Y041575D02*
Y041389D01*
X03567D01*
X035635Y041473D01*
X035568Y04154D01*
X035483Y041575D01*
D02*
G37*
G36*
X035383D02*
X035298Y04154D01*
X035231Y041473D01*
X035196Y041389D01*
X035383D01*
Y041575D01*
D02*
G37*
G36*
X033515D02*
Y041389D01*
X033701D01*
X033666Y041473D01*
X033599Y04154D01*
X033515Y041575D01*
D02*
G37*
G36*
X033415D02*
X03333Y04154D01*
X033263Y041473D01*
X033228Y041389D01*
X033415D01*
Y041575D01*
D02*
G37*
G36*
X03567Y041289D02*
X035483D01*
Y041102D01*
X035568Y041137D01*
X035635Y041204D01*
X03567Y041289D01*
D02*
G37*
G36*
X035383D02*
X035196D01*
X035231Y041204D01*
X035298Y041137D01*
X035383Y041102D01*
Y041289D01*
D02*
G37*
G36*
X033701D02*
X033515D01*
Y041102D01*
X033599Y041137D01*
X033666Y041204D01*
X033701Y041289D01*
D02*
G37*
G36*
X033415D02*
X033228D01*
X033263Y041204D01*
X03333Y041137D01*
X033415Y041102D01*
Y041289D01*
D02*
G37*
G36*
X034499Y039607D02*
Y03942D01*
X034685D01*
X03465Y039505D01*
X034584Y039572D01*
X034499Y039607D01*
D02*
G37*
G36*
X034399D02*
X034314Y039572D01*
X034247Y039505D01*
X034212Y03942D01*
X034399D01*
Y039607D01*
D02*
G37*
G36*
X03253D02*
Y03942D01*
X032717D01*
X032682Y039505D01*
X032615Y039572D01*
X03253Y039607D01*
D02*
G37*
G36*
X03243D02*
X032346Y039572D01*
X032279Y039505D01*
X032244Y03942D01*
X03243D01*
Y039607D01*
D02*
G37*
G36*
X034685Y03932D02*
X034499D01*
Y039133D01*
X034584Y039168D01*
X03465Y039235D01*
X034685Y03932D01*
D02*
G37*
G36*
X034399D02*
X034212D01*
X034247Y039235D01*
X034314Y039168D01*
X034399Y039133D01*
Y03932D01*
D02*
G37*
G36*
X032717D02*
X03253D01*
Y039133D01*
X032615Y039168D01*
X032682Y039235D01*
X032717Y03932D01*
D02*
G37*
G36*
X03243D02*
X032244D01*
X032279Y039235D01*
X032346Y039168D01*
X03243Y039133D01*
Y03932D01*
D02*
G37*
G36*
X032846Y038542D02*
X032824D01*
Y038042D01*
X033324D01*
Y038065D01*
X033286Y038204D01*
X033214Y03833D01*
X033111Y038432D01*
X032986Y038505D01*
X032846Y038542D01*
D02*
G37*
G36*
X032724D02*
X032701D01*
X032561Y038505D01*
X032436Y038432D01*
X032334Y03833D01*
X032261Y038204D01*
X032224Y038065D01*
Y038042D01*
X032724D01*
Y038542D01*
D02*
G37*
G36*
X033515Y037638D02*
Y037452D01*
X033701D01*
X033666Y037536D01*
X033599Y037603D01*
X033515Y037638D01*
D02*
G37*
G36*
X033701Y037352D02*
X033515D01*
Y037165D01*
X033599Y0372D01*
X033666Y037267D01*
X033701Y037352D01*
D02*
G37*
G36*
X029578Y033701D02*
Y033515D01*
X029764D01*
X029729Y033599D01*
X029662Y033666D01*
X029578Y033701D01*
D02*
G37*
G36*
X029478D02*
X029393Y033666D01*
X029326Y033599D01*
X029291Y033515D01*
X029478D01*
Y033701D01*
D02*
G37*
G36*
X029764Y033415D02*
X029578D01*
Y033228D01*
X029662Y033263D01*
X029729Y03333D01*
X029764Y033415D01*
D02*
G37*
G36*
X029478D02*
X029291D01*
X029326Y03333D01*
X029393Y033263D01*
X029478Y033228D01*
Y033415D01*
D02*
G37*
G36*
X047294Y041575D02*
Y041389D01*
X047481D01*
X047446Y041473D01*
X047379Y04154D01*
X047294Y041575D01*
D02*
G37*
G36*
X047194D02*
X047109Y04154D01*
X047042Y041473D01*
X047007Y041389D01*
X047194D01*
Y041575D01*
D02*
G37*
G36*
X047481Y041289D02*
X047294D01*
Y041102D01*
X047379Y041137D01*
X047446Y041204D01*
X047481Y041289D01*
D02*
G37*
G36*
X047194D02*
X047007D01*
X047042Y041204D01*
X047109Y041137D01*
X047194Y041102D01*
Y041289D01*
D02*
G37*
G36*
X048278Y039607D02*
Y03942D01*
X048465D01*
X04843Y039505D01*
X048363Y039572D01*
X048278Y039607D01*
D02*
G37*
G36*
X048178D02*
X048094Y039572D01*
X048027Y039505D01*
X047992Y03942D01*
X048178D01*
Y039607D01*
D02*
G37*
G36*
X048465Y03932D02*
X048278D01*
Y039133D01*
X048363Y039168D01*
X04843Y039235D01*
X048465Y03932D01*
D02*
G37*
G36*
X048178D02*
X047992D01*
X048027Y039235D01*
X048094Y039168D01*
X048178Y039133D01*
Y03932D01*
D02*
G37*
G36*
X029578Y041575D02*
Y041389D01*
X029764D01*
X029729Y041473D01*
X029662Y04154D01*
X029578Y041575D01*
D02*
G37*
G36*
X029478D02*
X029393Y04154D01*
X029326Y041473D01*
X029291Y041389D01*
X029478D01*
Y041575D01*
D02*
G37*
G36*
X027609D02*
Y041389D01*
X027796D01*
X027761Y041473D01*
X027694Y04154D01*
X027609Y041575D01*
D02*
G37*
G36*
X027509D02*
X027424Y04154D01*
X027357Y041473D01*
X027322Y041389D01*
X027509D01*
Y041575D01*
D02*
G37*
G36*
X029764Y041289D02*
X029578D01*
Y041102D01*
X029662Y041137D01*
X029729Y041204D01*
X029764Y041289D01*
D02*
G37*
G36*
X029478D02*
X029291D01*
X029326Y041204D01*
X029393Y041137D01*
X029478Y041102D01*
Y041289D01*
D02*
G37*
G36*
X027796D02*
X027609D01*
Y041102D01*
X027694Y041137D01*
X027761Y041204D01*
X027796Y041289D01*
D02*
G37*
G36*
X027509D02*
X027322D01*
X027357Y041204D01*
X027424Y041137D01*
X027509Y041102D01*
Y041289D01*
D02*
G37*
G36*
X028593Y039607D02*
Y03942D01*
X02878D01*
X028745Y039505D01*
X028678Y039572D01*
X028593Y039607D01*
D02*
G37*
G36*
X028493D02*
X028409Y039572D01*
X028342Y039505D01*
X028307Y03942D01*
X028493D01*
Y039607D01*
D02*
G37*
G36*
X02878Y03932D02*
X028593D01*
Y039133D01*
X028678Y039168D01*
X028745Y039235D01*
X02878Y03932D01*
D02*
G37*
G36*
X028493D02*
X028307D01*
X028342Y039235D01*
X028409Y039168D01*
X028493Y039133D01*
Y03932D01*
D02*
G37*
G36*
X046781Y033449D02*
X046281D01*
Y033024D01*
X046781D01*
Y033449D01*
D02*
G37*
G36*
X027609Y033701D02*
Y033515D01*
X027796D01*
X027761Y033599D01*
X027694Y033666D01*
X027609Y033701D01*
D02*
G37*
G36*
X027509D02*
X027424Y033666D01*
X027357Y033599D01*
X027322Y033515D01*
X027509D01*
Y033701D01*
D02*
G37*
G36*
X027796Y033415D02*
X027609D01*
Y033228D01*
X027694Y033263D01*
X027761Y03333D01*
X027796Y033415D01*
D02*
G37*
G36*
X027509D02*
X027322D01*
X027357Y03333D01*
X027424Y033263D01*
X027509Y033228D01*
Y033415D01*
D02*
G37*
G36*
X027609Y029764D02*
Y029578D01*
X027796D01*
X027761Y029662D01*
X027694Y029729D01*
X027609Y029764D01*
D02*
G37*
G36*
X027509D02*
X027424Y029729D01*
X027357Y029662D01*
X027322Y029578D01*
X027509D01*
Y029764D01*
D02*
G37*
G36*
X027796Y029478D02*
X027609D01*
Y029291D01*
X027694Y029326D01*
X027761Y029393D01*
X027796Y029478D01*
D02*
G37*
G36*
X027509D02*
X027322D01*
X027357Y029393D01*
X027424Y029326D01*
X027509Y029291D01*
Y029478D01*
D02*
G37*
G36*
X036467Y023859D02*
Y023672D01*
X036654D01*
X036619Y023757D01*
X036552Y023824D01*
X036467Y023859D01*
D02*
G37*
G36*
X036367D02*
X036283Y023824D01*
X036216Y023757D01*
X036181Y023672D01*
X036367D01*
Y023859D01*
D02*
G37*
G36*
X034499D02*
Y023672D01*
X034685D01*
X03465Y023757D01*
X034584Y023824D01*
X034499Y023859D01*
D02*
G37*
G36*
X034399D02*
X034314Y023824D01*
X034247Y023757D01*
X034212Y023672D01*
X034399D01*
Y023859D01*
D02*
G37*
G36*
X030562D02*
Y023672D01*
X030748D01*
X030713Y023757D01*
X030647Y023824D01*
X030562Y023859D01*
D02*
G37*
G36*
X030462D02*
X030377Y023824D01*
X03031Y023757D01*
X030275Y023672D01*
X030462D01*
Y023859D01*
D02*
G37*
G36*
X036654Y023572D02*
X036467D01*
Y023385D01*
X036552Y02342D01*
X036619Y023487D01*
X036654Y023572D01*
D02*
G37*
G36*
X036367D02*
X036181D01*
X036216Y023487D01*
X036283Y02342D01*
X036367Y023385D01*
Y023572D01*
D02*
G37*
G36*
X034685D02*
X034499D01*
Y023385D01*
X034584Y02342D01*
X03465Y023487D01*
X034685Y023572D01*
D02*
G37*
G36*
X034399D02*
X034212D01*
X034247Y023487D01*
X034314Y02342D01*
X034399Y023385D01*
Y023572D01*
D02*
G37*
G36*
X030748D02*
X030562D01*
Y023385D01*
X030647Y02342D01*
X030713Y023487D01*
X030748Y023572D01*
D02*
G37*
G36*
X030462D02*
X030275D01*
X03031Y023487D01*
X030377Y02342D01*
X030462Y023385D01*
Y023572D01*
D02*
G37*
G36*
X048278Y023859D02*
Y023672D01*
X048465D01*
X04843Y023757D01*
X048363Y023824D01*
X048278Y023859D01*
D02*
G37*
G36*
X048178D02*
X048094Y023824D01*
X048027Y023757D01*
X047992Y023672D01*
X048178D01*
Y023859D01*
D02*
G37*
G36*
X048465Y023572D02*
X048278D01*
Y023385D01*
X048363Y02342D01*
X04843Y023487D01*
X048465Y023572D01*
D02*
G37*
G36*
X048178D02*
X047992D01*
X048027Y023487D01*
X048094Y02342D01*
X048178Y023385D01*
Y023572D01*
D02*
G37*
G36*
X047294Y02189D02*
Y021704D01*
X047481D01*
X047446Y021788D01*
X047379Y021855D01*
X047294Y02189D01*
D02*
G37*
G36*
X047194D02*
X047109Y021855D01*
X047042Y021788D01*
X047007Y021704D01*
X047194D01*
Y02189D01*
D02*
G37*
G36*
X047481Y021604D02*
X047294D01*
Y021417D01*
X047379Y021452D01*
X047446Y021519D01*
X047481Y021604D01*
D02*
G37*
G36*
X047194D02*
X047007D01*
X047042Y021519D01*
X047109Y021452D01*
X047194Y021417D01*
Y021604D01*
D02*
G37*
G36*
X028493Y023572D02*
X028307D01*
X028342Y023487D01*
X028409Y02342D01*
X028493Y023385D01*
Y023572D01*
D02*
G37*
G36*
X029578Y02189D02*
Y021704D01*
X029764D01*
X029729Y021788D01*
X029662Y021855D01*
X029578Y02189D01*
D02*
G37*
G36*
X029478D02*
X029393Y021855D01*
X029326Y021788D01*
X029291Y021704D01*
X029478D01*
Y02189D01*
D02*
G37*
G36*
X027609D02*
Y021704D01*
X027796D01*
X027761Y021788D01*
X027694Y021855D01*
X027609Y02189D01*
D02*
G37*
G36*
X027509D02*
X027424Y021855D01*
X027357Y021788D01*
X027322Y021704D01*
X027509D01*
Y02189D01*
D02*
G37*
G36*
X029764Y021604D02*
X029578D01*
Y021417D01*
X029662Y021452D01*
X029729Y021519D01*
X029764Y021604D01*
D02*
G37*
G36*
X029478D02*
X029291D01*
X029326Y021519D01*
X029393Y021452D01*
X029478Y021417D01*
Y021604D01*
D02*
G37*
G36*
X027796D02*
X027609D01*
Y021417D01*
X027694Y021452D01*
X027761Y021519D01*
X027796Y021604D01*
D02*
G37*
G36*
X027509D02*
X027322D01*
X027357Y021519D01*
X027424Y021452D01*
X027509Y021417D01*
Y021604D01*
D02*
G37*
%LPD*%
D15*
X03813Y039616D02*
X038148Y039634D01*
X041925D02*
X041943Y039652D01*
X038148Y039634D02*
X041925D01*
X037579Y021919D02*
X042234D01*
X04235Y022035D01*
X042566Y027874D02*
X042793D01*
X042496Y027943D02*
Y028597D01*
Y027943D02*
X042566Y027874D01*
X042478Y028616D02*
X042496Y028597D01*
X0405Y027174D02*
X040502Y027176D01*
Y027844D01*
X047402Y035059D02*
X047687Y034774D01*
X045394Y035059D02*
X047402D01*
X042012Y036299D02*
X044272D01*
X041943Y036368D02*
Y037652D01*
Y036368D02*
X042012Y036299D01*
X048071Y030089D02*
Y034567D01*
X047864Y034774D02*
X048071Y034567D01*
X047687Y034774D02*
X047864D01*
X038258Y025502D02*
X03873Y025974D01*
X038258Y024308D02*
Y025502D01*
X03873Y025974D02*
X040431D01*
X042776Y022815D02*
X043691D01*
X042707Y021565D02*
Y022746D01*
X042776Y022815D01*
X037973Y0225D02*
X038789D01*
X037904Y022569D02*
X037973Y0225D01*
X037904Y022569D02*
Y023304D01*
X0449Y034174D02*
Y036948D01*
X044891Y036958D02*
X0449Y036948D01*
X036437Y021496D02*
X042638D01*
X042707Y021565D01*
X043691Y022815D02*
X0438Y022924D01*
Y023408D01*
X044734Y022382D02*
X044843Y02249D01*
X043976Y022382D02*
X044734D01*
X044843Y02249D02*
Y026683D01*
X048878Y026909D02*
Y031398D01*
X044912Y026752D02*
X04872D01*
X048878Y026909D01*
X044843Y026683D02*
X044912Y026752D01*
X040896Y022441D02*
Y023404D01*
X0422Y025886D02*
Y026426D01*
X042131Y025817D02*
X0422Y025886D01*
X04126Y025344D02*
X041733Y025817D01*
X042131D01*
X04135Y025896D02*
Y026426D01*
X041153Y025699D02*
X04135Y025896D01*
X039843Y025699D02*
X041153D01*
X04126Y024406D02*
Y025344D01*
X039774Y024342D02*
Y02563D01*
X039843Y025699D01*
X040431Y025974D02*
X0405Y026044D01*
Y026426D01*
X0379Y023308D02*
X037904Y023304D01*
X03939Y022854D02*
Y023348D01*
X0394Y023358D01*
X040896Y023404D02*
X0409Y023408D01*
X047957Y029974D02*
X048071Y030089D01*
X046831Y029974D02*
X047957D01*
X043737Y028117D02*
X04388Y027974D01*
X046831D01*
X046033Y028819D02*
Y028819D01*
X045831Y028616D02*
X046033Y028819D01*
X044052Y028616D02*
X045831D01*
X046189Y028974D02*
X046831D01*
X046033Y028819D02*
X046189Y028974D01*
X045817Y029797D02*
X045994Y029974D01*
X045817Y029272D02*
Y029797D01*
X045994Y029974D02*
X046831D01*
X047539Y034174D02*
X047618D01*
X047087Y030992D02*
X047618D01*
X047687Y031061D01*
X047618Y034174D02*
X047687Y034105D01*
Y031061D02*
Y034105D01*
X047539Y034174D02*
X047539Y034174D01*
X0449Y034174D02*
X047539D01*
X043737Y028117D02*
Y028616D01*
X04235Y022035D02*
Y023408D01*
X034126Y031299D02*
X034195Y031368D01*
X033317Y031299D02*
X034126D01*
X034195Y031368D02*
Y032886D01*
X032458D02*
X034195D01*
X032224Y03312D02*
X032458Y032886D01*
X032224Y03312D02*
Y034409D01*
X031834Y0348D02*
X032224Y034409D01*
X030702Y0348D02*
X031834D01*
X044367Y032589D02*
Y034063D01*
X044479Y034174D01*
X042793Y031884D02*
Y032394D01*
X042303Y032549D02*
X042362D01*
X042638D01*
X042793Y032394D01*
X043099Y031892D02*
X043107Y031884D01*
X043091Y032894D02*
X043099Y032885D01*
Y031892D02*
Y032885D01*
X03925Y033337D02*
Y03455D01*
X043353Y033268D02*
X043422Y033199D01*
X03925Y033337D02*
X039319Y033268D01*
X043353D01*
X043422Y031884D02*
Y033199D01*
X04125Y033593D02*
Y03455D01*
Y033593D02*
X041319Y033524D01*
X043737Y031884D02*
Y033454D01*
X041319Y033524D02*
X043668D01*
X043737Y033454D01*
X044052Y031884D02*
Y03373D01*
X043983Y033799D02*
X044052Y03373D01*
X04225Y033868D02*
X042319Y033799D01*
X04225Y033868D02*
Y03455D01*
X042319Y033799D02*
X043983D01*
X044479Y034174D02*
X0449D01*
X045693Y029148D02*
X045817Y029272D01*
X042794Y028618D02*
Y029107D01*
X042795Y029108D01*
X042793Y028616D02*
X042794Y028618D01*
X040157Y0298D02*
Y030108D01*
X038888D02*
X040157D01*
Y0298D02*
X040495Y029463D01*
X041316D01*
X038258Y024308D02*
X038274Y024292D01*
X04126Y024406D02*
X041274Y024392D01*
X042717Y0244D02*
X042724Y024392D01*
X042717Y0244D02*
Y025285D01*
X0431Y025669D01*
Y026426D01*
X044174Y024392D02*
Y025491D01*
X04395Y025715D02*
X044174Y025491D01*
X04395Y025715D02*
Y026452D01*
X044584Y029148D02*
X045693D01*
X046829Y027976D02*
X046831Y027974D01*
X04395Y0272D02*
Y027657D01*
X043881Y027726D02*
X04395Y027657D01*
X043422Y027906D02*
X043602Y027726D01*
X043881D01*
X043422Y027906D02*
Y028616D01*
X0431Y027174D02*
X043107Y027182D01*
Y028616D01*
X042163Y027211D02*
X0422Y027174D01*
X042163Y027211D02*
Y028616D01*
X04135Y027174D02*
X041388Y027212D01*
Y028547D01*
X041457Y028616D02*
X041848D01*
X041388Y028547D02*
X041457Y028616D01*
X040479Y031346D02*
X041309D01*
X041316Y031352D01*
X040472Y031339D02*
X040479Y031346D01*
X0387Y030296D02*
Y03115D01*
Y030296D02*
X038888Y030108D01*
X040124Y02915D02*
X04015Y029124D01*
X0387Y02915D02*
X040124D01*
X040174Y029148D02*
X041316D01*
X04015Y029124D02*
X040174Y029148D01*
X030702Y0353D02*
X030707Y035305D01*
D20*
X028498Y0358D02*
D03*
Y0353D02*
D03*
Y0348D02*
D03*
Y0343D02*
D03*
X030702Y0358D02*
D03*
Y0353D02*
D03*
Y0348D02*
D03*
Y0343D02*
D03*
D21*
X033008Y02715D02*
D03*
D22*
X035292Y028056D02*
D03*
Y02715D02*
D03*
Y026244D02*
D03*
D23*
X033317Y031299D02*
D03*
X035167D02*
D03*
D24*
X034213Y035069D02*
D03*
Y032904D02*
D03*
D25*
X041848Y031884D02*
D03*
X042163D02*
D03*
X042478D02*
D03*
X042793D02*
D03*
X043107D02*
D03*
X043422D02*
D03*
X043737D02*
D03*
X044052D02*
D03*
Y028616D02*
D03*
X043737D02*
D03*
X043422D02*
D03*
X043107D02*
D03*
X042793D02*
D03*
X042478D02*
D03*
X042163D02*
D03*
X041848D02*
D03*
D26*
X044584Y031352D02*
D03*
Y031037D02*
D03*
Y030722D02*
D03*
Y030407D02*
D03*
Y030093D02*
D03*
Y029778D02*
D03*
Y029463D02*
D03*
Y029148D02*
D03*
X041316D02*
D03*
Y029463D02*
D03*
Y029778D02*
D03*
Y030093D02*
D03*
Y030407D02*
D03*
Y030722D02*
D03*
Y031037D02*
D03*
Y031352D02*
D03*
D27*
X03175Y0279D02*
D03*
Y027152D02*
D03*
X0449Y034174D02*
D03*
Y033426D02*
D03*
X0422Y027174D02*
D03*
Y026426D02*
D03*
X0405Y027174D02*
D03*
Y026426D02*
D03*
X04135Y027174D02*
D03*
Y026426D02*
D03*
X040157Y030108D02*
D03*
Y030856D02*
D03*
X04015Y029124D02*
D03*
Y028376D02*
D03*
X0431Y027174D02*
D03*
Y026426D02*
D03*
X04395Y0272D02*
D03*
Y026452D02*
D03*
D28*
X033026Y02505D02*
D03*
X033774D02*
D03*
D29*
X041274Y024392D02*
D03*
X0409Y023408D02*
D03*
X040526Y024392D02*
D03*
X038274Y024292D02*
D03*
X0379Y023308D02*
D03*
X037526Y024292D02*
D03*
X039774Y024342D02*
D03*
X0394Y023358D02*
D03*
X039026Y024342D02*
D03*
X042724Y024392D02*
D03*
X04235Y023408D02*
D03*
X041976Y024392D02*
D03*
X044174D02*
D03*
X0438Y023408D02*
D03*
X043426Y024392D02*
D03*
D53*
X038907Y026703D02*
X039715D01*
X037555Y028056D02*
X038907Y026703D01*
X035292Y028056D02*
X037555D01*
X041316Y030722D02*
X041875D01*
X039508Y027421D02*
Y028199D01*
X039685Y028376D01*
X04015D01*
X036604Y029626D02*
Y041053D01*
X03686Y041309D01*
X042828D01*
X042943Y040652D02*
Y041194D01*
X042828Y041309D02*
X042943Y041194D01*
X035292Y026244D02*
X037227D01*
X037526Y025946D01*
X037825Y026244D02*
X038243D01*
X037526Y024292D02*
Y025946D01*
X037825Y026244D01*
X038243D02*
X038268Y02627D01*
X043445Y025286D02*
X043465Y025305D01*
X043445Y024411D02*
Y025286D01*
X043426Y024392D02*
X043445Y024411D01*
X041976Y024392D02*
X042018Y024434D01*
Y02527D01*
X042059Y025311D01*
X039006Y02532D02*
X039016Y02531D01*
Y024352D02*
Y02531D01*
Y024352D02*
X039026Y024342D01*
X040529Y024395D02*
Y025302D01*
X040526Y024392D02*
X040529Y024395D01*
Y025302D02*
X040532Y025305D01*
X045498Y031974D02*
X045516Y031992D01*
X0449Y032608D02*
X045516Y031992D01*
X045285Y031762D02*
X045498Y031974D01*
X046831D01*
X0449Y032608D02*
Y033426D01*
X045285Y030098D02*
Y031762D01*
X035292Y026244D02*
X035295Y026241D01*
X03529Y025045D02*
X035295Y025039D01*
Y026241D01*
X033779Y025045D02*
X03529D01*
X033774Y02505D02*
X033779Y025045D01*
X032756Y03801D02*
X032774Y037992D01*
X035167Y03046D02*
Y031299D01*
X033965Y030344D02*
X035052D01*
X035167Y03046D01*
X03385Y030229D02*
X033965Y030344D01*
X03385Y0295D02*
Y030229D01*
X02975Y0316D02*
X030479D01*
X030595Y030675D02*
Y031485D01*
X030479Y0316D02*
X030595Y031485D01*
Y030675D02*
X03064Y03063D01*
X028337Y025962D02*
Y029009D01*
X028452Y029124D02*
X029678D01*
X028875Y031578D02*
X029728D01*
X028337Y029009D02*
X028452Y029124D01*
X029796Y025846D02*
X0298Y02585D01*
X028452Y025846D02*
X029796D01*
X028337Y025962D02*
X028452Y025846D01*
X029793Y029239D02*
Y031557D01*
X029678Y029124D02*
X029793Y029239D01*
X02975Y0316D02*
X029793Y031557D01*
X029728Y031578D02*
X02975Y0316D01*
X03175Y026002D02*
Y027152D01*
X031598Y02585D02*
X03175Y026002D01*
X0298Y02585D02*
X031598D01*
X028498Y031955D02*
Y0343D01*
Y031955D02*
X028875Y031578D01*
X032572Y036919D02*
X032774Y037121D01*
X028613Y036919D02*
X032572D01*
X032774Y037121D02*
Y037992D01*
X028498Y036804D02*
X028613Y036919D01*
X028498Y0358D02*
Y036804D01*
Y0353D02*
Y0358D01*
Y0348D02*
Y0353D01*
Y0343D02*
Y0348D01*
X036102Y029557D02*
Y034954D01*
X035292Y028746D02*
X036102Y029557D01*
X034213Y035069D02*
X035987D01*
X036102Y034954D01*
X034774Y037992D02*
X034803Y037963D01*
Y036988D02*
Y037963D01*
X034272Y036457D02*
X034803Y036988D01*
X034272Y035128D02*
Y036457D01*
X035292Y028056D02*
Y028746D01*
X036565Y029587D02*
X036604Y029626D01*
X034213Y035069D02*
X034272Y035128D01*
X032047Y035069D02*
X034213D01*
X030702Y0353D02*
X031816D01*
X032047Y035069D01*
X044584Y030093D02*
X04528D01*
X045285Y030098D01*
X044315Y029463D02*
X044584D01*
X043539Y029778D02*
X043844Y029472D01*
X044315D01*
X042055Y030362D02*
X0421Y030407D01*
X040764Y030722D02*
X041316D01*
Y030093D02*
X041875D01*
X042055Y030453D02*
Y030543D01*
X041875Y030722D02*
X042055Y030543D01*
X041875Y030093D02*
X042055Y030272D01*
Y030362D01*
Y030453D02*
X0421Y030407D01*
X044584D01*
X04063Y030856D02*
X040764Y030722D01*
X040157Y030856D02*
X04063D01*
X040728Y029911D02*
X040862Y029778D01*
X041316D01*
X040844Y030407D02*
X041316D01*
X040728Y030292D02*
X040844Y030407D01*
X040728Y029911D02*
Y030292D01*
X041316Y029778D02*
X043539D01*
X045152Y029463D02*
X045266Y029577D01*
X044584Y029463D02*
X045152D01*
X045266Y029577D02*
Y029977D01*
X030702Y0343D02*
X0316D01*
X03175Y03415D01*
Y0316D02*
Y03415D01*
X03465Y0287D02*
X03485Y0289D01*
Y0295D01*
X033417Y0287D02*
X03465D01*
X033008Y028292D02*
X033417Y0287D01*
X033008Y02715D02*
Y028292D01*
Y02715D02*
X035292D01*
X033026Y02505D02*
Y027132D01*
X033008Y02715D02*
X033026Y027132D01*
X03175Y0279D02*
Y0316D01*
X02985Y0279D02*
X03175D01*
X0298Y02785D02*
X02985Y0279D01*
D54*
X041943Y040652D02*
D03*
D55*
X042943D02*
D03*
X041943Y039652D02*
D03*
X042943D02*
D03*
X041943Y038652D02*
D03*
X042943D02*
D03*
X041943Y037652D02*
D03*
X042943D02*
D03*
D56*
X032774Y037992D02*
D03*
X02975Y0316D02*
D03*
D57*
X034774Y037992D02*
D03*
X03175Y0316D02*
D03*
D58*
X0298Y02785D02*
D03*
Y02585D02*
D03*
D59*
X046831Y027974D02*
D03*
Y029974D02*
D03*
Y030974D02*
D03*
Y031974D02*
D03*
Y028974D02*
D03*
D60*
Y032974D02*
D03*
D61*
X03485Y0295D02*
D03*
D62*
X03385D02*
D03*
D63*
X038248Y020748D02*
D03*
X030748Y038898D02*
D03*
X038248Y042028D02*
D03*
X045731Y038948D02*
D03*
X048878Y031398D02*
D03*
X045733Y023912D02*
D03*
D64*
X03925Y03455D02*
D03*
X04225D02*
D03*
X04125D02*
D03*
X04025D02*
D03*
D65*
X04325D02*
D03*
D66*
X046891Y036958D02*
D03*
X044891D02*
D03*
X0387Y02915D02*
D03*
Y03115D02*
D03*
D67*
X03937Y037402D02*
D03*
X035433Y041339D02*
D03*
X036417Y023622D02*
D03*
X033465Y041339D02*
D03*
X034449Y03937D02*
D03*
X033465Y037402D02*
D03*
X034449Y023622D02*
D03*
X03248Y03937D02*
D03*
X029528Y033465D02*
D03*
X030512Y023622D02*
D03*
X027559Y033465D02*
D03*
Y029528D02*
D03*
X03813Y039616D02*
D03*
X037579Y021919D02*
D03*
X042793Y027874D02*
D03*
X040502Y027844D02*
D03*
X045394Y035059D02*
D03*
X044272Y036299D02*
D03*
X038789Y0225D02*
D03*
X036437Y021496D02*
D03*
X043976Y022382D02*
D03*
X040896Y022441D02*
D03*
X03939Y022854D02*
D03*
X044367Y032589D02*
D03*
X042362Y032549D02*
D03*
X043091Y032894D02*
D03*
X042795Y029108D02*
D03*
X040472Y031339D02*
D03*
D68*
X039508Y027421D02*
D03*
X038268Y02627D02*
D03*
X043465Y025305D02*
D03*
X042059Y025311D02*
D03*
X039006Y02532D02*
D03*
X040532Y025305D02*
D03*
X039715Y026703D02*
D03*
X035295Y025039D02*
D03*
X03064Y03063D02*
D03*
X036565Y029587D02*
D03*
X045285Y030098D02*
D03*
X0421Y030407D02*
D03*
M02*
