G04*
G04 #@! TF.GenerationSoftware,Altium Limited,Altium Designer,21.0.9 (235)*
G04*
G04 Layer_Color=128*
%FSTAX24Y24*%
%MOIN*%
G70*
G04*
G04 #@! TF.SameCoordinates,013E48BC-1F52-4242-9F7F-A7329D5E5ACC*
G04*
G04*
G04 #@! TF.FilePolarity,Positive*
G04*
G01*
G75*
%ADD70C,0.0020*%
D70*
X041766Y040652D02*
X04212D01*
X041943Y040474D02*
Y040829D01*
X042766Y040652D02*
X04312D01*
X042943Y040474D02*
Y040829D01*
X041766Y039652D02*
X04212D01*
X041943Y039474D02*
Y039829D01*
X042766Y039652D02*
X04312D01*
X042943Y039474D02*
Y039829D01*
X041766Y038652D02*
X04212D01*
X041943Y038474D02*
Y038829D01*
X042766Y038652D02*
X04312D01*
X042943Y038474D02*
Y038829D01*
X041766Y037652D02*
X04212D01*
X041943Y037474D02*
Y037829D01*
X042766Y037652D02*
X04312D01*
X042943Y037474D02*
Y037829D01*
X032599Y037992D02*
X032949D01*
X032774Y037817D02*
Y038167D01*
X034599Y037992D02*
X034949D01*
X034774Y037817D02*
Y038167D01*
X029564Y02785D02*
X030036D01*
X0298Y027614D02*
Y028086D01*
X029564Y02585D02*
X030036D01*
X0298Y025614D02*
Y026086D01*
X029575Y0316D02*
X029925D01*
X02975Y031425D02*
Y031775D01*
X031575Y0316D02*
X031925D01*
X03175Y031425D02*
Y031775D01*
X046661Y027974D02*
X047001D01*
X046831Y027804D02*
Y028144D01*
X046661Y029974D02*
X047001D01*
X046831Y029804D02*
Y030144D01*
X046661Y030974D02*
X047001D01*
X046831Y030804D02*
Y031144D01*
X046661Y031974D02*
X047001D01*
X046831Y031804D02*
Y032144D01*
X046661Y032974D02*
X047001D01*
X046831Y032804D02*
Y033144D01*
X046661Y028974D02*
X047001D01*
X046831Y028804D02*
Y029144D01*
X034693Y0295D02*
X035007D01*
X03485Y029343D02*
Y029657D01*
X033693Y0295D02*
X034007D01*
X03385Y029343D02*
Y029657D01*
X038053Y020748D02*
X038443D01*
X038248Y020553D02*
Y020943D01*
X03908Y03455D02*
X03942D01*
X03925Y03438D02*
Y03472D01*
X04308Y03455D02*
X04342D01*
X04325Y03438D02*
Y03472D01*
X04208Y03455D02*
X04242D01*
X04225Y03438D02*
Y03472D01*
X04108Y03455D02*
X04142D01*
X04125Y03438D02*
Y03472D01*
X04008Y03455D02*
X04042D01*
X04025Y03438D02*
Y03472D01*
X030553Y038898D02*
X030943D01*
X030748Y038703D02*
Y039093D01*
X038053Y042028D02*
X038443D01*
X038248Y041833D02*
Y042223D01*
X045536Y038948D02*
X045926D01*
X045731Y038753D02*
Y039143D01*
X048683Y031398D02*
X049073D01*
X048878Y031203D02*
Y031593D01*
X045538Y023912D02*
X045928D01*
X045733Y023717D02*
Y024107D01*
X046736Y036958D02*
X047046D01*
X046891Y036803D02*
Y037113D01*
X044736Y036958D02*
X045046D01*
X044891Y036803D02*
Y037113D01*
X03853Y02915D02*
X03887D01*
X0387Y02898D02*
Y02932D01*
X03853Y03115D02*
X03887D01*
X0387Y03098D02*
Y03132D01*
X039291Y037402D02*
X039449D01*
X03937Y037323D02*
Y03748D01*
X035354Y041339D02*
X035512D01*
X035433Y04126D02*
Y041417D01*
X036339Y023622D02*
X036496D01*
X036417Y023543D02*
Y023701D01*
X033386Y041339D02*
X033543D01*
X033465Y04126D02*
Y041417D01*
X03437Y03937D02*
X034528D01*
X034449Y039291D02*
Y039449D01*
X033386Y037402D02*
X033543D01*
X033465Y037323D02*
Y03748D01*
X03437Y023622D02*
X034528D01*
X034449Y023543D02*
Y023701D01*
X032402Y03937D02*
X032559D01*
X03248Y039291D02*
Y039449D01*
X029449Y033465D02*
X029606D01*
X029528Y033386D02*
Y033543D01*
X030433Y023622D02*
X030591D01*
X030512Y023543D02*
Y023701D01*
X02748Y033465D02*
X027638D01*
X027559Y033386D02*
Y033543D01*
X02748Y029528D02*
X027638D01*
X027559Y029449D02*
Y029606D01*
X038051Y039616D02*
X038209D01*
X03813Y039537D02*
Y039695D01*
X0375Y021919D02*
X037657D01*
X037579Y021841D02*
Y021998D01*
X042714Y027874D02*
X042871D01*
X042793Y027795D02*
Y027953D01*
X03939Y027421D02*
X039626D01*
X039508Y027303D02*
Y027539D01*
X040423Y027844D02*
X040581D01*
X040502Y027766D02*
Y027923D01*
X045315Y035059D02*
X045472D01*
X045394Y03498D02*
Y035138D01*
X044193Y036299D02*
X04435D01*
X044272Y03622D02*
Y036378D01*
X03815Y02627D02*
X038386D01*
X038268Y026152D02*
Y026388D01*
X038711Y0225D02*
X038868D01*
X038789Y022421D02*
Y022579D01*
X036358Y021496D02*
X036516D01*
X036437Y021417D02*
Y021575D01*
X043898Y022382D02*
X044055D01*
X043976Y022303D02*
Y022461D01*
X040817Y022441D02*
X040974D01*
X040896Y022362D02*
Y02252D01*
X043346Y025305D02*
X043583D01*
X043465Y025187D02*
Y025423D01*
X041941Y025311D02*
X042177D01*
X042059Y025193D02*
Y025429D01*
X038888Y02532D02*
X039124D01*
X039006Y025202D02*
Y025438D01*
X040413Y025305D02*
X04065D01*
X040532Y025187D02*
Y025423D01*
X039596Y026703D02*
X039833D01*
X039715Y026585D02*
Y026821D01*
X039311Y022854D02*
X039469D01*
X03939Y022776D02*
Y022933D01*
X035177Y025039D02*
X035413D01*
X035295Y024921D02*
Y025157D01*
X030522Y03063D02*
X030758D01*
X03064Y030512D02*
Y030748D01*
X036447Y029587D02*
X036683D01*
X036565Y029469D02*
Y029705D01*
X044289Y032589D02*
X044446D01*
X044367Y03251D02*
Y032667D01*
X042283Y032549D02*
X042441D01*
X042362Y03247D02*
Y032628D01*
X043012Y032894D02*
X043169D01*
X043091Y032815D02*
Y032972D01*
X045167Y030098D02*
X045404D01*
X045285Y02998D02*
Y030217D01*
X042717Y029108D02*
X042874D01*
X042795Y02903D02*
Y029187D01*
X041982Y030407D02*
X042218D01*
X0421Y030289D02*
Y030526D01*
X040394Y031339D02*
X040551D01*
X040472Y03126D02*
Y031417D01*
M02*
