G04*
G04 #@! TF.GenerationSoftware,Altium Limited,Altium Designer,21.0.9 (235)*
G04*
G04 Layer_Color=255*
%FSTAX24Y24*%
%MOIN*%
G70*
G04*
G04 #@! TF.SameCoordinates,013E48BC-1F52-4242-9F7F-A7329D5E5ACC*
G04*
G04*
G04 #@! TF.FilePolarity,Positive*
G04*
G01*
G75*
%ADD54R,0.0591X0.0591*%
%ADD55C,0.0591*%
%ADD56C,0.0900*%
%ADD57R,0.0900X0.0900*%
%ADD58R,0.0984X0.0787*%
%ADD59O,0.0900X0.0750*%
%ADD60R,0.0900X0.0750*%
%ADD61R,0.0512X0.0591*%
%ADD62O,0.0512X0.0591*%
%ADD63C,0.0800*%
%ADD64O,0.0750X0.0900*%
%ADD65R,0.0750X0.0900*%
%ADD66C,0.0750*%
D54*
X041943Y040652D02*
D03*
D55*
X042943D02*
D03*
X041943Y039652D02*
D03*
X042943D02*
D03*
X041943Y038652D02*
D03*
X042943D02*
D03*
X041943Y037652D02*
D03*
X042943D02*
D03*
D56*
X032774Y037992D02*
D03*
X02975Y0316D02*
D03*
D57*
X034774Y037992D02*
D03*
X03175Y0316D02*
D03*
D58*
X0298Y02785D02*
D03*
Y02585D02*
D03*
D59*
X046831Y027974D02*
D03*
Y029974D02*
D03*
Y030974D02*
D03*
Y031974D02*
D03*
Y028974D02*
D03*
D60*
Y032974D02*
D03*
D61*
X03485Y0295D02*
D03*
D62*
X03385D02*
D03*
D63*
X038248Y020748D02*
D03*
X030748Y038898D02*
D03*
X038248Y042028D02*
D03*
X045731Y038948D02*
D03*
X048878Y031398D02*
D03*
X045733Y023912D02*
D03*
D64*
X03925Y03455D02*
D03*
X04225D02*
D03*
X04125D02*
D03*
X04025D02*
D03*
D65*
X04325D02*
D03*
D66*
X046891Y036958D02*
D03*
X044891D02*
D03*
X0387Y02915D02*
D03*
Y03115D02*
D03*
M02*
