G04*
G04 #@! TF.GenerationSoftware,Altium Limited,Altium Designer,21.0.9 (235)*
G04*
G04 Layer_Color=65535*
%FSTAX24Y24*%
%MOIN*%
G70*
G04*
G04 #@! TF.SameCoordinates,013E48BC-1F52-4242-9F7F-A7329D5E5ACC*
G04*
G04*
G04 #@! TF.FilePolarity,Positive*
G04*
G01*
G75*
%ADD10C,0.0039*%
%ADD11C,0.0098*%
%ADD12C,0.0236*%
%ADD13C,0.0070*%
%ADD14C,0.0079*%
%ADD15C,0.0118*%
%ADD16C,0.0040*%
%ADD17C,0.0050*%
%ADD18C,0.0080*%
%ADD19C,0.0100*%
G36*
X038764Y043028D02*
X038759D01*
X038757Y043028D01*
X038749Y043026D01*
X038742Y043023D01*
X038741D01*
X03874Y043022D01*
X038739Y043021D01*
X038737Y043019D01*
X038734Y043016D01*
X038732Y043013D01*
X038729Y043009D01*
X038726Y043005D01*
Y043004D01*
X038724Y043003D01*
X038723Y043D01*
X038722Y042996D01*
X03872Y04299D01*
X038717Y042982D01*
X038714Y042973D01*
X038712Y042967D01*
X03871Y042961D01*
X038611Y042677D01*
X038601D01*
X038521Y042903D01*
X038441Y042677D01*
X038432D01*
X038327Y04297D01*
Y04297D01*
X038326Y042971D01*
X038326Y042973D01*
X038325Y042975D01*
X038323Y042981D01*
X038321Y042987D01*
X038318Y042994D01*
X038316Y043D01*
X038314Y043005D01*
X038313Y043007D01*
X038312Y043009D01*
Y043009D01*
X038311Y04301D01*
X03831Y043012D01*
X038308Y043014D01*
X038304Y043019D01*
X038298Y043023D01*
X038297D01*
X038296Y043024D01*
X038294Y043025D01*
X038291Y043026D01*
X038288Y043027D01*
X038284Y043028D01*
X038279Y043028D01*
X038273D01*
Y043038D01*
X038404D01*
Y043028D01*
X038395D01*
X038392Y043028D01*
X03839D01*
X038383Y043026D01*
X038379Y043024D01*
X038377Y043022D01*
X038376D01*
X038376Y043021D01*
X038373Y043017D01*
X038371Y043013D01*
X03837Y04301D01*
X03837Y043006D01*
Y043006D01*
Y043005D01*
X03837Y043002D01*
X038371Y042998D01*
X038372Y042992D01*
X038374Y042985D01*
X038377Y042976D01*
X038379Y042971D01*
X038381Y042965D01*
X03845Y042767D01*
X038509Y042935D01*
X038498Y042965D01*
X03849Y042988D01*
Y042989D01*
X038489Y042991D01*
X038488Y042993D01*
X038487Y042996D01*
X038483Y043004D01*
X038478Y043011D01*
X038478Y043012D01*
X038475Y043014D01*
X038473Y043017D01*
X038469Y04302D01*
X038469D01*
X038468Y043021D01*
X038466Y043022D01*
X038461Y043024D01*
X038457Y043027D01*
X038456Y043027D01*
X038453Y043028D01*
X038448Y043028D01*
X038441D01*
Y043038D01*
X038578D01*
Y043028D01*
X038567D01*
X038564Y043028D01*
X038561D01*
X038554Y043026D01*
X03855Y043024D01*
X038547Y043022D01*
X038546Y043021D01*
X038544Y043017D01*
X038542Y043012D01*
X038541Y043009D01*
X03854Y043005D01*
Y043004D01*
Y043002D01*
X038541Y042999D01*
X038542Y042994D01*
X038543Y042988D01*
X038545Y04298D01*
X038549Y04297D01*
X038552Y042958D01*
X03862Y042767D01*
X038687Y042961D01*
Y042962D01*
X038687Y042963D01*
X038688Y042964D01*
X038688Y042967D01*
X038691Y042972D01*
X038693Y042979D01*
X038694Y042986D01*
X038697Y042994D01*
X038698Y043D01*
X038698Y043006D01*
Y043006D01*
Y043007D01*
X038698Y04301D01*
X038697Y043013D01*
X038694Y043017D01*
X038694Y043018D01*
X038692Y04302D01*
X038689Y043022D01*
X038685Y043024D01*
X038685D01*
X038684Y043025D01*
X038681Y043026D01*
X038678Y043027D01*
X038675Y043027D01*
X03867Y043028D01*
X038665Y043028D01*
X038659D01*
Y043038D01*
X038764D01*
Y043028D01*
D02*
G37*
G36*
X038262D02*
X038257D01*
X038254Y043028D01*
X038247Y043026D01*
X03824Y043023D01*
X038239D01*
X038238Y043022D01*
X038236Y043021D01*
X038235Y043019D01*
X038232Y043016D01*
X038229Y043013D01*
X038226Y043009D01*
X038223Y043005D01*
Y043004D01*
X038222Y043003D01*
X038221Y043D01*
X038219Y042996D01*
X038217Y04299D01*
X038214Y042982D01*
X038211Y042973D01*
X03821Y042967D01*
X038207Y042961D01*
X038109Y042677D01*
X038099D01*
X038018Y042903D01*
X037939Y042677D01*
X037929D01*
X037825Y04297D01*
Y04297D01*
X037824Y042971D01*
X037824Y042973D01*
X037823Y042975D01*
X037821Y042981D01*
X037819Y042987D01*
X037816Y042994D01*
X037814Y043D01*
X037812Y043005D01*
X03781Y043007D01*
X03781Y043009D01*
Y043009D01*
X037809Y04301D01*
X037808Y043012D01*
X037806Y043014D01*
X037802Y043019D01*
X037796Y043023D01*
X037795D01*
X037794Y043024D01*
X037792Y043025D01*
X037789Y043026D01*
X037786Y043027D01*
X037782Y043028D01*
X037777Y043028D01*
X037771D01*
Y043038D01*
X037902D01*
Y043028D01*
X037893D01*
X03789Y043028D01*
X037887D01*
X03788Y043026D01*
X037877Y043024D01*
X037874Y043022D01*
X037874D01*
X037873Y043021D01*
X037871Y043017D01*
X037868Y043013D01*
X037868Y04301D01*
X037867Y043006D01*
Y043006D01*
Y043005D01*
X037868Y043002D01*
X037869Y042998D01*
X03787Y042992D01*
X037872Y042985D01*
X037875Y042976D01*
X037877Y042971D01*
X037879Y042965D01*
X037948Y042767D01*
X038007Y042935D01*
X037996Y042965D01*
X037988Y042988D01*
Y042989D01*
X037987Y042991D01*
X037986Y042993D01*
X037985Y042996D01*
X037981Y043004D01*
X037976Y043011D01*
X037975Y043012D01*
X037973Y043014D01*
X03797Y043017D01*
X037967Y04302D01*
X037967D01*
X037966Y043021D01*
X037963Y043022D01*
X037959Y043024D01*
X037955Y043027D01*
X037953Y043027D01*
X037951Y043028D01*
X037946Y043028D01*
X037939D01*
Y043038D01*
X038076D01*
Y043028D01*
X038064D01*
X038062Y043028D01*
X038058D01*
X038051Y043026D01*
X038047Y043024D01*
X038045Y043022D01*
X038044Y043021D01*
X038041Y043017D01*
X038039Y043012D01*
X038039Y043009D01*
X038038Y043005D01*
Y043004D01*
Y043002D01*
X038039Y042999D01*
X03804Y042994D01*
X038041Y042988D01*
X038043Y04298D01*
X038046Y04297D01*
X03805Y042958D01*
X038118Y042767D01*
X038184Y042961D01*
Y042962D01*
X038185Y042963D01*
X038186Y042964D01*
X038186Y042967D01*
X038188Y042972D01*
X03819Y042979D01*
X038192Y042986D01*
X038194Y042994D01*
X038195Y043D01*
X038196Y043006D01*
Y043006D01*
Y043007D01*
X038195Y04301D01*
X038194Y043013D01*
X038192Y043017D01*
X038192Y043018D01*
X03819Y04302D01*
X038187Y043022D01*
X038183Y043024D01*
X038182D01*
X038181Y043025D01*
X038179Y043026D01*
X038176Y043027D01*
X038172Y043027D01*
X038168Y043028D01*
X038163Y043028D01*
X038157D01*
Y043038D01*
X038262D01*
Y043028D01*
D02*
G37*
G36*
X031113Y039954D02*
X031104D01*
Y039955D01*
X031104Y039956D01*
X031103Y039959D01*
X031101Y039963D01*
X0311Y039967D01*
X031098Y039972D01*
X031092Y039984D01*
X031086Y039997D01*
X031078Y040009D01*
X031068Y040021D01*
X031063Y040026D01*
X031058Y040031D01*
X031057Y040032D01*
X031057Y040032D01*
X031055Y040033D01*
X031053Y040035D01*
X03105Y040037D01*
X031047Y040039D01*
X031038Y040043D01*
X031028Y040048D01*
X031015Y040051D01*
X031002Y040054D01*
X030995Y040055D01*
X030981D01*
X030978Y040055D01*
X030975Y040054D01*
X030966Y040053D01*
X030956Y040051D01*
X030946Y040048D01*
X030935Y040043D01*
X030924Y040037D01*
X030923D01*
X030923Y040036D01*
X030919Y040034D01*
X030914Y04003D01*
X030908Y040024D01*
X030901Y040015D01*
X030893Y040006D01*
X030886Y039994D01*
X030879Y03998D01*
Y039979D01*
X030879Y039978D01*
X030878Y039976D01*
X030877Y039973D01*
X030876Y039969D01*
X030875Y039965D01*
X030873Y039959D01*
X030872Y039953D01*
X03087Y039947D01*
X030869Y039939D01*
X030867Y039931D01*
X030866Y039923D01*
X030865Y039914D01*
X030864Y039904D01*
X030864Y039883D01*
Y039883D01*
Y039881D01*
Y039878D01*
Y039875D01*
X030864Y039871D01*
Y039866D01*
X030865Y039861D01*
X030865Y039855D01*
X030867Y039842D01*
X03087Y039828D01*
X030873Y039813D01*
X030878Y0398D01*
Y039799D01*
X030879Y039798D01*
X03088Y039796D01*
X030881Y039794D01*
X030885Y039788D01*
X03089Y03978D01*
X030896Y039771D01*
X030904Y039763D01*
X030913Y039754D01*
X030924Y039746D01*
X030925D01*
X030926Y039746D01*
X030928Y039745D01*
X03093Y039743D01*
X030932Y039742D01*
X030936Y03974D01*
X030945Y039737D01*
X030955Y039734D01*
X030967Y03973D01*
X030981Y039728D01*
X030995Y039728D01*
X031001D01*
X031003Y039728D01*
X031007D01*
X031015Y039729D01*
X031025Y039731D01*
X031035Y039734D01*
X031045Y039737D01*
X031055Y039742D01*
X031055D01*
X031056Y039742D01*
X031057Y039743D01*
X031059Y039745D01*
X031065Y039749D01*
X031072Y039755D01*
X031076Y039758D01*
X03108Y039763D01*
X031085Y039768D01*
X03109Y039773D01*
X031096Y039779D01*
X031101Y039786D01*
X031107Y039793D01*
X031113Y039801D01*
X031121Y039795D01*
X03112Y039795D01*
X03112Y039793D01*
X031118Y039791D01*
X031116Y039788D01*
X031114Y039784D01*
X03111Y039779D01*
X031103Y039769D01*
X031094Y039758D01*
X031083Y039746D01*
X031072Y039735D01*
X031065Y03973D01*
X031059Y039726D01*
X031058D01*
X031057Y039725D01*
X031055Y039724D01*
X031053Y039723D01*
X031049Y039721D01*
X031045Y039719D01*
X031041Y039717D01*
X031035Y039716D01*
X031029Y039713D01*
X031023Y039711D01*
X031008Y039708D01*
X030993Y039706D01*
X030975Y039705D01*
X030971D01*
X030967Y039705D01*
X030961Y039706D01*
X030953Y039707D01*
X030945Y039708D01*
X030936Y03971D01*
X030925Y039713D01*
X030914Y039716D01*
X030904Y039721D01*
X030893Y039726D01*
X030881Y039732D01*
X03087Y03974D01*
X030859Y039748D01*
X030849Y039758D01*
X03084Y03977D01*
X030839Y03977D01*
X030838Y039772D01*
X030836Y039775D01*
X030834Y039778D01*
X030831Y039783D01*
X030828Y039788D01*
X030825Y039795D01*
X030822Y039802D01*
X030818Y03981D01*
X030816Y039818D01*
X030812Y039828D01*
X03081Y039838D01*
X030807Y039848D01*
X030806Y03986D01*
X030805Y039871D01*
X030804Y039883D01*
Y039884D01*
Y039885D01*
Y039889D01*
X030805Y039892D01*
Y039897D01*
X030805Y039902D01*
X030806Y039908D01*
X030807Y039915D01*
X03081Y03993D01*
X030814Y039947D01*
X03082Y039964D01*
X030823Y039972D01*
X030828Y03998D01*
X030828Y039981D01*
X030829Y039983D01*
X03083Y039985D01*
X030832Y039988D01*
X030834Y039991D01*
X030837Y039996D01*
X030845Y040006D01*
X030854Y040016D01*
X030865Y040028D01*
X030877Y040039D01*
X030892Y040049D01*
X030893Y04005D01*
X030894Y04005D01*
X030896Y040051D01*
X030899Y040053D01*
X030903Y040055D01*
X030908Y040057D01*
X030913Y040059D01*
X030919Y040062D01*
X030925Y040064D01*
X030932Y040066D01*
X030948Y04007D01*
X030964Y040073D01*
X030973Y040074D01*
X030986D01*
X030989Y040073D01*
X030992D01*
X030996Y040073D01*
X031006Y040072D01*
X031017Y040069D01*
X03103Y040066D01*
X031043Y040061D01*
X031057Y040055D01*
X031057D01*
X031059Y040054D01*
X031061Y040053D01*
X031063Y040052D01*
X031068Y04005D01*
X031071Y040049D01*
X031074D01*
X031077Y04005D01*
X031081Y040051D01*
X031085Y040054D01*
X031085Y040055D01*
X031086Y040055D01*
X031087Y040057D01*
X031089Y040059D01*
X03109Y040062D01*
X031092Y040066D01*
X031094Y040069D01*
X031095Y040074D01*
X031104D01*
X031113Y039954D01*
D02*
G37*
G36*
X045817Y039933D02*
X045807D01*
Y039933D01*
X045807Y039935D01*
X045806Y039937D01*
X045804Y039939D01*
X045803Y039943D01*
X045802Y039947D01*
X045797Y039956D01*
X045792Y039966D01*
X045786Y039977D01*
X045779Y039986D01*
X045772Y039995D01*
X045771Y039996D01*
X04577Y039996D01*
X045768Y039998D01*
X045766Y04D01*
X045763Y040002D01*
X045759Y040005D01*
X045755Y040008D01*
X04575Y04001D01*
X045744Y040013D01*
X045738Y040016D01*
X045724Y040021D01*
X045708Y040025D01*
X0457Y040025D01*
X045691Y040026D01*
X045688D01*
X045684Y040025D01*
X04568D01*
X045674Y040024D01*
X045668Y040023D01*
X045661Y040021D01*
X045653Y040019D01*
X045645Y040016D01*
X045636Y040013D01*
X045628Y040008D01*
X045619Y040003D01*
X045611Y039997D01*
X045603Y03999D01*
X045596Y039982D01*
X045589Y039972D01*
X045588Y039972D01*
X045588Y03997D01*
X045586Y039968D01*
X045584Y039964D01*
X045582Y03996D01*
X045579Y039955D01*
X045577Y039949D01*
X045575Y039942D01*
X045572Y039935D01*
X045569Y039926D01*
X045566Y039917D01*
X045564Y039908D01*
X045563Y039898D01*
X045561Y039887D01*
X04556Y039876D01*
X04556Y039865D01*
Y039864D01*
Y039862D01*
Y03986D01*
X04556Y039856D01*
Y039852D01*
X045561Y039847D01*
X045561Y039841D01*
X045562Y039835D01*
X045565Y03982D01*
X045568Y039805D01*
X045572Y039789D01*
X045579Y039773D01*
Y039772D01*
X04558Y039771D01*
X045581Y039769D01*
X045583Y039766D01*
X045584Y039763D01*
X045587Y039759D01*
X045593Y03975D01*
X0456Y03974D01*
X045608Y03973D01*
X045619Y03972D01*
X04563Y039712D01*
X04563D01*
X045631Y039711D01*
X045633Y03971D01*
X045635Y039709D01*
X045638Y039707D01*
X045642Y039706D01*
X04565Y039702D01*
X04566Y039699D01*
X045671Y039696D01*
X045682Y039694D01*
X045695Y039693D01*
X045698D01*
X045702Y039693D01*
X045707D01*
X045713Y039694D01*
X045719Y039695D01*
X045732Y039698D01*
X045733D01*
X045736Y039699D01*
X045739Y0397D01*
X045744Y039701D01*
X045749Y039703D01*
X045755Y039706D01*
X045768Y039712D01*
Y039815D01*
Y039816D01*
Y039816D01*
Y039819D01*
Y039824D01*
X045767Y039829D01*
X045767Y039835D01*
X045766Y039841D01*
X045765Y039846D01*
X045763Y039849D01*
Y03985D01*
X045763Y039851D01*
X045761Y039854D01*
X045756Y039858D01*
X045751Y039862D01*
X04575D01*
X045749Y039862D01*
X045747Y039864D01*
X045744Y039864D01*
X04574Y039865D01*
X045735Y039866D01*
X045729Y039866D01*
X045721D01*
Y039876D01*
X045858D01*
Y039866D01*
X045848D01*
X045845Y039866D01*
X04584Y039865D01*
X045836Y039863D01*
X045831Y03986D01*
X045827Y039857D01*
X045824Y039853D01*
Y039852D01*
X045823Y03985D01*
X045822Y039848D01*
X045821Y039844D01*
X04582Y039839D01*
X045819Y039832D01*
X045819Y039825D01*
Y039815D01*
Y039706D01*
X045818D01*
X045818Y039706D01*
X045816Y039705D01*
X045814Y039704D01*
X045808Y039701D01*
X0458Y039697D01*
X045791Y039693D01*
X045781Y039689D01*
X04577Y039686D01*
X045759Y039683D01*
X045759D01*
X045758Y039682D01*
X045756D01*
X045754Y039682D01*
X045751Y039681D01*
X045748Y039681D01*
X04574Y039679D01*
X045731Y039677D01*
X04572Y039676D01*
X045708Y039676D01*
X045695Y039675D01*
X04569D01*
X045685Y039676D01*
X045678Y039676D01*
X04567Y039677D01*
X04566Y039678D01*
X045649Y039681D01*
X045637Y039683D01*
X045625Y039687D01*
X045612Y039691D01*
X045599Y039696D01*
X045586Y039703D01*
X045573Y03971D01*
X045561Y039719D01*
X04555Y039729D01*
X04554Y039741D01*
X045539Y039741D01*
X045538Y039743D01*
X045536Y039746D01*
X045534Y039749D01*
X04553Y039754D01*
X045527Y03976D01*
X045524Y039766D01*
X04552Y039773D01*
X045516Y039781D01*
X045513Y03979D01*
X04551Y039799D01*
X045506Y039809D01*
X045504Y039819D01*
X045502Y039831D01*
X045501Y039842D01*
X0455Y039854D01*
Y039854D01*
Y039856D01*
Y039858D01*
X045501Y039862D01*
Y039866D01*
X045501Y039871D01*
X045502Y039877D01*
X045503Y039883D01*
X045506Y039896D01*
X04551Y039912D01*
X045515Y039927D01*
X045522Y039943D01*
X045523Y039944D01*
X045523Y039945D01*
X045525Y039948D01*
X045527Y039951D01*
X04553Y039956D01*
X045533Y039961D01*
X045537Y039966D01*
X045541Y039972D01*
X045552Y039985D01*
X045564Y039998D01*
X045578Y04001D01*
X045587Y040016D01*
X045595Y040021D01*
X045595Y040022D01*
X045596Y040022D01*
X045599Y040024D01*
X045602Y040025D01*
X045605Y040027D01*
X04561Y040028D01*
X045615Y040031D01*
X045621Y040033D01*
X045627Y040035D01*
X045634Y040037D01*
X045649Y04004D01*
X045667Y040043D01*
X045686Y040044D01*
X045693D01*
X045698Y040044D01*
X045703D01*
X045709Y040043D01*
X045721Y040041D01*
X045721D01*
X045724Y04004D01*
X045727Y040039D01*
X045732Y040038D01*
X045739Y040036D01*
X045747Y040034D01*
X045755Y040031D01*
X045766Y040027D01*
X045766D01*
X045768Y040026D01*
X045771Y040026D01*
X045773Y040025D01*
X04578Y040023D01*
X045783Y040022D01*
X045786D01*
X045788Y040022D01*
X04579Y040024D01*
X045793Y040026D01*
X045794Y040027D01*
X045794Y040028D01*
X045795Y04003D01*
X045796Y040033D01*
X045797Y040036D01*
X045797Y040039D01*
X045798Y040044D01*
X045808D01*
X045817Y039933D01*
D02*
G37*
G36*
X031637Y040056D02*
X031632D01*
X031629Y040055D01*
X031622Y040054D01*
X031614Y04005D01*
X031614D01*
X031613Y040049D01*
X031611Y040048D01*
X031609Y040047D01*
X031607Y040044D01*
X031604Y040041D01*
X031601Y040037D01*
X031598Y040032D01*
Y040032D01*
X031597Y04003D01*
X031596Y040027D01*
X031594Y040024D01*
X031592Y040018D01*
X031589Y04001D01*
X031586Y040001D01*
X031584Y039995D01*
X031582Y039989D01*
X031484Y039705D01*
X031474D01*
X031393Y03993D01*
X031314Y039705D01*
X031304D01*
X031199Y039997D01*
Y039998D01*
X031199Y039999D01*
X031198Y040001D01*
X031198Y040003D01*
X031196Y040008D01*
X031193Y040014D01*
X031191Y040021D01*
X031189Y040027D01*
X031186Y040033D01*
X031185Y040035D01*
X031185Y040036D01*
Y040037D01*
X031184Y040038D01*
X031183Y040039D01*
X031181Y040042D01*
X031177Y040047D01*
X031171Y040051D01*
X03117D01*
X031169Y040051D01*
X031167Y040053D01*
X031164Y040054D01*
X031161Y040054D01*
X031156Y040055D01*
X031151Y040056D01*
X031146D01*
Y040066D01*
X031276D01*
Y040056D01*
X031268D01*
X031265Y040055D01*
X031262D01*
X031255Y040053D01*
X031252Y040051D01*
X031249Y040049D01*
X031249D01*
X031248Y040048D01*
X031246Y040045D01*
X031243Y040041D01*
X031243Y040037D01*
X031242Y040034D01*
Y040033D01*
Y040032D01*
X031243Y04003D01*
X031244Y040026D01*
X031245Y04002D01*
X031247Y040013D01*
X03125Y040004D01*
X031251Y039998D01*
X031254Y039992D01*
X031323Y039795D01*
X031382Y039963D01*
X031371Y039992D01*
X031363Y040016D01*
Y040016D01*
X031362Y040018D01*
X031361Y040021D01*
X031359Y040024D01*
X031356Y040031D01*
X031351Y040039D01*
X03135Y04004D01*
X031348Y040042D01*
X031345Y040044D01*
X031342Y040047D01*
X031341D01*
X031341Y040048D01*
X031338Y04005D01*
X031334Y040052D01*
X031329Y040054D01*
X031328Y040055D01*
X031326Y040055D01*
X031321Y040056D01*
X031314D01*
Y040066D01*
X031451D01*
Y040056D01*
X031439D01*
X031436Y040055D01*
X031433D01*
X031426Y040053D01*
X031422Y040051D01*
X031419Y040049D01*
X031418Y040048D01*
X031416Y040045D01*
X031414Y040039D01*
X031413Y040036D01*
X031413Y040032D01*
Y040032D01*
Y04003D01*
X031413Y040026D01*
X031415Y040021D01*
X031416Y040015D01*
X031418Y040007D01*
X031421Y039997D01*
X031425Y039986D01*
X031493Y039794D01*
X031559Y039989D01*
Y039989D01*
X03156Y03999D01*
X03156Y039992D01*
X031561Y039994D01*
X031563Y04D01*
X031565Y040006D01*
X031567Y040014D01*
X031569Y040021D01*
X03157Y040028D01*
X031571Y040033D01*
Y040034D01*
Y040035D01*
X03157Y040037D01*
X031569Y040041D01*
X031567Y040044D01*
X031566Y040045D01*
X031565Y040048D01*
X031561Y04005D01*
X031558Y040052D01*
X031557D01*
X031556Y040053D01*
X031554Y040053D01*
X031551Y040054D01*
X031547Y040055D01*
X031543Y040055D01*
X031537Y040056D01*
X031532D01*
Y040066D01*
X031637D01*
Y040056D01*
D02*
G37*
G36*
X04378Y036839D02*
X043784D01*
X043791Y036838D01*
X043798Y036837D01*
X043806Y036835D01*
X043816Y036834D01*
X043825Y036831D01*
X043835Y036828D01*
X043845Y036824D01*
X043855Y03682D01*
X043866Y036815D01*
X043876Y036809D01*
X043886Y036802D01*
X043895Y036794D01*
X043896Y036794D01*
X043898Y036792D01*
X0439Y036789D01*
X043904Y036785D01*
X043908Y03678D01*
X043913Y036773D01*
X043918Y036765D01*
X043923Y036757D01*
X043928Y036746D01*
X043933Y036735D01*
X043938Y036722D01*
X043942Y036709D01*
X043946Y036694D01*
X043948Y036677D01*
X04395Y03666D01*
X04395Y036641D01*
Y036485D01*
X043941D01*
Y036502D01*
X04394Y036505D01*
X043939Y03651D01*
X043937Y036515D01*
X043935Y03652D01*
X043931Y036525D01*
X043926Y036529D01*
X043926Y03653D01*
X043925Y03653D01*
X043922Y036531D01*
X043919Y036532D01*
X043913Y036533D01*
X043907Y036534D01*
X043899Y036535D01*
X043888D01*
X04366D01*
X043659D01*
X043658D01*
X043657D01*
X043655D01*
X043649Y036534D01*
X043643Y036534D01*
X043635Y036533D01*
X043629Y036532D01*
X043623Y03653D01*
X043621Y036528D01*
X043619Y036527D01*
X043618Y036527D01*
X043617Y036526D01*
X043615Y036523D01*
X043613Y03652D01*
X043611Y036516D01*
X043609Y036511D01*
X043608Y036505D01*
X043608Y036498D01*
Y036485D01*
X043598D01*
Y036641D01*
X043598Y036647D01*
X043599Y036655D01*
X043599Y036663D01*
X0436Y036672D01*
X043602Y036692D01*
X043605Y036711D01*
X04361Y03673D01*
X043612Y036739D01*
X043616Y036747D01*
Y036748D01*
X043617Y036749D01*
X043618Y036751D01*
X043619Y036754D01*
X043621Y036758D01*
X043623Y036762D01*
X04363Y036771D01*
X043638Y036782D01*
X043649Y036793D01*
X043661Y036804D01*
X043668Y036809D01*
X043676Y036814D01*
X043676Y036815D01*
X043677Y036815D01*
X04368Y036816D01*
X043683Y036818D01*
X043687Y03682D01*
X043692Y036822D01*
X043698Y036824D01*
X043704Y036827D01*
X04371Y036829D01*
X043718Y036831D01*
X043726Y036833D01*
X043734Y036835D01*
X043753Y036838D01*
X043763Y036839D01*
X043772D01*
X043774D01*
X043776D01*
X04378Y036839D01*
D02*
G37*
G36*
X043608Y036451D02*
X043608Y036448D01*
X043609Y036443D01*
X043611Y036437D01*
X043614Y036432D01*
X043617Y036427D01*
X043621Y036423D01*
X043622D01*
X043623Y036422D01*
X043626Y036421D01*
X043629Y03642D01*
X043634Y036419D01*
X04364Y036419D01*
X043649Y036418D01*
X043659D01*
X043956D01*
Y036408D01*
X043673Y036176D01*
X043889D01*
X04389D01*
X043891D01*
X043893D01*
X043895D01*
X0439Y036176D01*
X043907Y036177D01*
X043914Y036177D01*
X04392Y036178D01*
X043926Y03618D01*
X043929Y036181D01*
X04393Y036182D01*
X043931Y036183D01*
X043932Y036184D01*
X043934Y036187D01*
X043935Y03619D01*
X043937Y036194D01*
X043939Y0362D01*
X04394Y036206D01*
X043941Y036213D01*
Y036226D01*
X04395D01*
Y036103D01*
X043941D01*
Y036118D01*
X04394Y036122D01*
X043939Y036127D01*
X043937Y036133D01*
X043935Y036138D01*
X043932Y036143D01*
X043928Y036147D01*
X043927Y036147D01*
X043926Y036148D01*
X043923Y036149D01*
X04392Y03615D01*
X043914Y036151D01*
X043908Y036152D01*
X0439Y036153D01*
X043889D01*
X043644D01*
X043644Y036152D01*
X043641Y03615D01*
X043638Y036147D01*
X043635Y036144D01*
X043627Y036136D01*
X043624Y036132D01*
X043621Y036129D01*
X043621Y036128D01*
X04362Y036127D01*
X043619Y036125D01*
X043617Y036123D01*
X043616Y03612D01*
X043614Y036116D01*
X043612Y036111D01*
X04361Y036106D01*
Y036105D01*
X04361Y036104D01*
X043609Y036103D01*
X043609Y0361D01*
Y036097D01*
X043608Y036093D01*
X043608Y036089D01*
Y036083D01*
X043598D01*
Y036178D01*
X043861Y036395D01*
X043659D01*
X043658D01*
X043657D01*
X043656D01*
X043654D01*
X043649Y036394D01*
X043642Y036394D01*
X043635Y036393D01*
X043628Y036391D01*
X043622Y03639D01*
X04362Y036388D01*
X043618Y036387D01*
X043618Y036386D01*
X043617Y036385D01*
X043615Y036383D01*
X043613Y036379D01*
X043611Y036375D01*
X043609Y03637D01*
X043608Y036364D01*
X043608Y036356D01*
Y036344D01*
X043598D01*
Y036468D01*
X043608D01*
Y036451D01*
D02*
G37*
G36*
X043768Y036072D02*
X043768Y036069D01*
X043769Y036065D01*
X043771Y03606D01*
X043774Y036056D01*
X043777Y036051D01*
X043781Y036048D01*
X043782D01*
X043783Y036047D01*
X043786Y036046D01*
X043789Y036046D01*
X043795Y036045D01*
X043801Y036044D01*
X043809Y036043D01*
X043819D01*
X043928D01*
Y036042D01*
X043928Y036042D01*
X043929Y03604D01*
X04393Y036038D01*
X043933Y036032D01*
X043937Y036024D01*
X043941Y036015D01*
X043944Y036005D01*
X043948Y035994D01*
X043951Y035984D01*
Y035983D01*
X043952Y035982D01*
Y035981D01*
X043952Y035979D01*
X043953Y035976D01*
X043953Y035973D01*
X043955Y035964D01*
X043956Y035955D01*
X043958Y035944D01*
X043958Y035932D01*
X043959Y035919D01*
Y035915D01*
X043958Y035909D01*
X043958Y035902D01*
X043956Y035894D01*
X043955Y035884D01*
X043953Y035873D01*
X04395Y035861D01*
X043947Y035849D01*
X043943Y035837D01*
X043937Y035824D01*
X043931Y03581D01*
X043924Y035798D01*
X043915Y035786D01*
X043905Y035774D01*
X043893Y035764D01*
X043893Y035763D01*
X043891Y035762D01*
X043888Y03576D01*
X043884Y035758D01*
X04388Y035755D01*
X043874Y035751D01*
X043868Y035748D01*
X04386Y035744D01*
X043853Y035741D01*
X043844Y035737D01*
X043835Y035734D01*
X043825Y035731D01*
X043815Y035729D01*
X043803Y035726D01*
X043792Y035725D01*
X04378Y035725D01*
X04378D01*
X043778D01*
X043776D01*
X043772Y035725D01*
X043768D01*
X043763Y035726D01*
X043757Y035726D01*
X043751Y035727D01*
X043738Y03573D01*
X043722Y035734D01*
X043706Y035739D01*
X043691Y035747D01*
X04369Y035747D01*
X043688Y035748D01*
X043686Y035749D01*
X043682Y035751D01*
X043678Y035754D01*
X043673Y035757D01*
X043668Y035761D01*
X043662Y035766D01*
X043649Y035776D01*
X043636Y035789D01*
X043623Y035803D01*
X043618Y035811D01*
X043612Y035819D01*
X043612Y03582D01*
X043611Y035821D01*
X04361Y035823D01*
X043609Y035826D01*
X043607Y03583D01*
X043605Y035834D01*
X043603Y035839D01*
X043601Y035845D01*
X043599Y035851D01*
X043597Y035858D01*
X043593Y035874D01*
X043591Y035891D01*
X04359Y03591D01*
Y035917D01*
X04359Y035922D01*
Y035927D01*
X043591Y035933D01*
X043593Y035945D01*
Y035946D01*
X043593Y035948D01*
X043594Y035952D01*
X043596Y035957D01*
X043598Y035963D01*
X0436Y035971D01*
X043603Y03598D01*
X043606Y03599D01*
Y035991D01*
X043608Y035992D01*
X043608Y035995D01*
X043609Y035998D01*
X043611Y036004D01*
X043612Y036007D01*
Y03601D01*
X043611Y036012D01*
X04361Y036015D01*
X043608Y036017D01*
X043606Y036018D01*
X043605Y036018D01*
X043604Y03602D01*
X043601Y03602D01*
X043598Y036021D01*
X043594Y036022D01*
X04359Y036022D01*
Y03603D01*
X043245Y035685D01*
Y035695D01*
X042895Y036045D01*
X043605D01*
X043592Y036032D01*
X043701Y036041D01*
Y036032D01*
X0437D01*
X043699Y036031D01*
X043697Y03603D01*
X043694Y036029D01*
X043691Y036028D01*
X043687Y036026D01*
X043678Y036022D01*
X043668Y036017D01*
X043657Y036011D01*
X043647Y036004D01*
X043639Y035996D01*
X043638Y035996D01*
X043638Y035994D01*
X043636Y035993D01*
X043634Y035991D01*
X043632Y035987D01*
X043629Y035984D01*
X043626Y035979D01*
X043623Y035974D01*
X043621Y035969D01*
X043618Y035962D01*
X043613Y035949D01*
X043609Y035933D01*
X043609Y035925D01*
X043608Y035915D01*
Y035913D01*
X043609Y035909D01*
Y035904D01*
X04361Y035899D01*
X043611Y035892D01*
X043612Y035885D01*
X043615Y035878D01*
X043617Y035869D01*
X043621Y035861D01*
X043626Y035852D01*
X043631Y035844D01*
X043637Y035836D01*
X043644Y035827D01*
X043652Y03582D01*
X043662Y035813D01*
X043662Y035813D01*
X043664Y035812D01*
X043666Y03581D01*
X04367Y035809D01*
X043674Y035807D01*
X043679Y035804D01*
X043685Y035801D01*
X043692Y035799D01*
X043699Y035796D01*
X043708Y035793D01*
X043717Y035791D01*
X043726Y035789D01*
X043736Y035787D01*
X043747Y035785D01*
X043758Y035785D01*
X043769Y035784D01*
X04377D01*
X043771D01*
X043774D01*
X043778Y035785D01*
X043782D01*
X043787Y035785D01*
X043793Y035786D01*
X043799Y035786D01*
X043813Y035789D01*
X043829Y035792D01*
X043845Y035797D01*
X043861Y035803D01*
X043861D01*
X043863Y035804D01*
X043865Y035805D01*
X043867Y035807D01*
X043871Y035809D01*
X043875Y035811D01*
X043884Y035817D01*
X043894Y035825D01*
X043904Y035833D01*
X043914Y035843D01*
X043922Y035854D01*
Y035855D01*
X043923Y035856D01*
X043924Y035857D01*
X043925Y03586D01*
X043926Y035862D01*
X043928Y035866D01*
X043931Y035874D01*
X043935Y035884D01*
X043938Y035895D01*
X04394Y035907D01*
X043941Y035919D01*
Y035922D01*
X043941Y035926D01*
Y035931D01*
X04394Y035937D01*
X043939Y035943D01*
X043936Y035957D01*
Y035958D01*
X043935Y03596D01*
X043934Y035963D01*
X043932Y035968D01*
X043931Y035974D01*
X043928Y03598D01*
X043922Y035992D01*
X043819D01*
X043818D01*
X043818D01*
X043815D01*
X04381D01*
X043805Y035992D01*
X043799Y035991D01*
X043793Y035991D01*
X043788Y03599D01*
X043784Y035988D01*
X043784D01*
X043783Y035987D01*
X04378Y035985D01*
X043776Y035981D01*
X043772Y035975D01*
Y035975D01*
X043771Y035974D01*
X04377Y035971D01*
X04377Y035969D01*
X043769Y035964D01*
X043768Y035959D01*
X043768Y035953D01*
Y035946D01*
X043758D01*
Y036082D01*
X043768D01*
Y036072D01*
D02*
G37*
G36*
X046264Y035287D02*
X046255D01*
Y035287D01*
Y035288D01*
X046254Y03529D01*
X046253Y035293D01*
X046252Y035299D01*
X046251Y035307D01*
X046248Y035316D01*
X046245Y035325D01*
X046242Y035334D01*
X046238Y035342D01*
X046237Y035343D01*
X046235Y035346D01*
X046233Y03535D01*
X046229Y035354D01*
X046224Y035359D01*
X046218Y035365D01*
X046211Y03537D01*
X046203Y035375D01*
X046202Y035376D01*
X046199Y035377D01*
X046195Y035379D01*
X046189Y035382D01*
X046182Y035384D01*
X046174Y035386D01*
X046165Y035387D01*
X046157Y035388D01*
X046152D01*
X046147Y035387D01*
X046141Y035386D01*
X046134Y035383D01*
X046126Y035381D01*
X046119Y035376D01*
X046112Y035371D01*
X046111Y03537D01*
X046109Y035368D01*
X046107Y035364D01*
X046103Y03536D01*
X0461Y035354D01*
X046097Y035348D01*
X046095Y035341D01*
X046095Y035333D01*
Y035333D01*
Y03533D01*
X046095Y035328D01*
X046096Y035323D01*
X046097Y035319D01*
X046099Y035314D01*
X046102Y035309D01*
X046105Y035304D01*
X046107Y035303D01*
X046108Y035301D01*
X046109Y0353D01*
X046111Y035298D01*
X046114Y035296D01*
X046117Y035293D01*
X046121Y03529D01*
X046126Y035287D01*
X046132Y035282D01*
X046138Y035279D01*
X046145Y035274D01*
X046153Y035269D01*
X046162Y035263D01*
X046171Y035258D01*
X046182Y035252D01*
X046183Y035251D01*
X046185Y035251D01*
X046187Y035249D01*
X046191Y035247D01*
X046194Y035245D01*
X046199Y035242D01*
X046209Y035236D01*
X046221Y03523D01*
X046232Y035223D01*
X046241Y035217D01*
X046246Y035214D01*
X04625Y035211D01*
X046251Y03521D01*
X046253Y035208D01*
X046256Y035205D01*
X04626Y035202D01*
X046265Y035197D01*
X046269Y035191D01*
X046274Y035185D01*
X046278Y035178D01*
X046279Y035176D01*
X04628Y035174D01*
X046281Y03517D01*
X046283Y035166D01*
X046285Y035159D01*
X046286Y035152D01*
X046287Y035145D01*
X046288Y035137D01*
Y035137D01*
Y035135D01*
Y035133D01*
X046287Y035131D01*
X046287Y035127D01*
X046286Y035123D01*
X046284Y035114D01*
X04628Y035103D01*
X046278Y035097D01*
X046275Y035091D01*
X046271Y035085D01*
X046267Y03508D01*
X046262Y035074D01*
X046257Y035068D01*
X046256Y035068D01*
X046255Y035067D01*
X046253Y035066D01*
X046251Y035064D01*
X046248Y035062D01*
X046244Y035059D01*
X04624Y035056D01*
X046235Y035054D01*
X046229Y035051D01*
X046223Y035049D01*
X04621Y035044D01*
X046194Y03504D01*
X046186Y03504D01*
X046176Y035039D01*
X046171D01*
X046167Y03504D01*
X046163D01*
X046158Y03504D01*
X046147Y035042D01*
X046147D01*
X046146Y035043D01*
X046144D01*
X04614Y035044D01*
X046136Y035045D01*
X04613Y035046D01*
X046123Y035049D01*
X046114Y035051D01*
X046113Y035052D01*
X04611Y035052D01*
X046106Y035054D01*
X046101Y035056D01*
X046096Y035057D01*
X04609Y035058D01*
X046086Y035059D01*
X046083Y03506D01*
X046081D01*
X046079Y035059D01*
X046075Y035058D01*
X046072Y035055D01*
X046072Y035055D01*
X046071Y035054D01*
X04607Y035052D01*
X046069Y03505D01*
X046068Y035047D01*
X046067Y035044D01*
X046067Y035039D01*
X046057D01*
Y03516D01*
X046067D01*
Y035159D01*
X046067Y035158D01*
Y035156D01*
X046068Y035154D01*
X046068Y035151D01*
X046069Y035147D01*
X046072Y035139D01*
X046074Y035129D01*
X046077Y03512D01*
X046081Y035111D01*
X046085Y035103D01*
X046085Y035102D01*
X046087Y035099D01*
X04609Y035096D01*
X046093Y035092D01*
X046098Y035087D01*
X046104Y035082D01*
X046111Y035076D01*
X04612Y035072D01*
X04612D01*
X046121Y035071D01*
X046124Y03507D01*
X046128Y035068D01*
X046135Y035066D01*
X046143Y035063D01*
X046151Y035061D01*
X046161Y03506D01*
X046171Y03506D01*
X046174D01*
X046176Y03506D01*
X046182Y035061D01*
X04619Y035062D01*
X046198Y035064D01*
X046206Y035067D01*
X046215Y035071D01*
X046222Y035076D01*
X046223Y035077D01*
X046226Y03508D01*
X046228Y035083D01*
X046232Y035088D01*
X046235Y035094D01*
X046239Y035101D01*
X046241Y035109D01*
X046241Y035117D01*
Y035118D01*
Y03512D01*
X046241Y035122D01*
X04624Y035126D01*
X04624Y035129D01*
X046238Y035134D01*
X046236Y035139D01*
X046234Y035144D01*
X046233Y035144D01*
X046233Y035146D01*
X04623Y035149D01*
X046228Y035152D01*
X046226Y035156D01*
X046222Y035159D01*
X046217Y035164D01*
X046212Y035168D01*
X046211Y035169D01*
X04621Y03517D01*
X046206Y035172D01*
X046201Y035175D01*
X046198Y035178D01*
X046194Y03518D01*
X046189Y035183D01*
X046184Y035186D01*
X046178Y035189D01*
X046171Y035193D01*
X046164Y035197D01*
X046156Y035202D01*
X046156Y035202D01*
X046154Y035203D01*
X046152Y035204D01*
X046149Y035206D01*
X046145Y035208D01*
X046141Y03521D01*
X046131Y035216D01*
X046121Y035222D01*
X04611Y035229D01*
X0461Y035236D01*
X046096Y035239D01*
X046092Y035242D01*
X046091Y035242D01*
X046089Y035245D01*
X046085Y035248D01*
X046081Y035252D01*
X046076Y035257D01*
X046072Y035263D01*
X046067Y035269D01*
X046063Y035275D01*
X046062Y035276D01*
X046061Y035279D01*
X04606Y035282D01*
X046058Y035287D01*
X046056Y035293D01*
X046055Y0353D01*
X046054Y035307D01*
X046053Y035315D01*
Y035316D01*
Y035317D01*
Y035319D01*
X046054Y035322D01*
X046054Y035325D01*
X046055Y035329D01*
X046057Y035337D01*
X04606Y035348D01*
X046065Y035359D01*
X046068Y035364D01*
X046073Y03537D01*
X046077Y035375D01*
X046082Y035381D01*
X046083Y035381D01*
X046083Y035382D01*
X046085Y035383D01*
X046087Y035385D01*
X04609Y035387D01*
X046093Y035389D01*
X046098Y035392D01*
X046102Y035395D01*
X046113Y0354D01*
X046126Y035404D01*
X04614Y035407D01*
X046148Y035408D01*
X046156Y035408D01*
X046161D01*
X046167Y035408D01*
X046174Y035407D01*
X046183Y035405D01*
X046193Y035402D01*
X046204Y035399D01*
X046216Y035394D01*
X046216D01*
X046218Y035393D01*
X046221Y035393D01*
X046224Y035392D01*
X04623Y035389D01*
X046234Y035389D01*
X046236Y035388D01*
X046238D01*
X04624Y035389D01*
X046244Y03539D01*
X046247Y035392D01*
X046248Y035393D01*
X046249Y035394D01*
X04625Y035395D01*
X046251Y035398D01*
X046252Y035401D01*
X046253Y035404D01*
X046255Y035408D01*
X046264D01*
Y035287D01*
D02*
G37*
G36*
X046628Y035318D02*
X046618D01*
Y035319D01*
X046617Y035322D01*
X046616Y035325D01*
X046615Y03533D01*
X046613Y03534D01*
X046612Y035345D01*
X04661Y035349D01*
X046609Y03535D01*
X046608Y035351D01*
X046607Y035354D01*
X046604Y035357D01*
X046601Y035361D01*
X046597Y035364D01*
X046593Y035368D01*
X046588Y035371D01*
X046588Y035371D01*
X046586Y035372D01*
X046583Y035373D01*
X046579Y035375D01*
X046574Y035376D01*
X046568Y035377D01*
X046561Y035378D01*
X046553Y035378D01*
X046504D01*
Y035109D01*
Y035108D01*
Y035107D01*
Y035105D01*
Y035103D01*
X046505Y035098D01*
X046505Y035091D01*
X046506Y035084D01*
X046507Y035078D01*
X046508Y035072D01*
X046509Y035069D01*
X046511Y035068D01*
X046511Y035067D01*
X046512Y035066D01*
X046515Y035064D01*
X046518Y035063D01*
X046523Y035061D01*
X046528Y035059D01*
X046534Y035058D01*
X046541Y035057D01*
X046554D01*
Y035048D01*
X046404D01*
Y035057D01*
X04642D01*
X046424Y035058D01*
X046429Y035059D01*
X046434Y035061D01*
X04644Y035063D01*
X046445Y035066D01*
X046448Y03507D01*
X046449Y035071D01*
X046449Y035072D01*
X046451Y035075D01*
X046452Y035078D01*
X046453Y035084D01*
X046453Y03509D01*
X046454Y035098D01*
Y035109D01*
Y035378D01*
X046404D01*
X046398Y035378D01*
X046387Y035377D01*
X046381Y035376D01*
X046377Y035375D01*
X046376D01*
X046375Y035374D01*
X046372Y035372D01*
X046369Y03537D01*
X046365Y035368D01*
X046361Y035364D01*
X046357Y03536D01*
X046353Y035356D01*
X046353Y035355D01*
X046352Y035353D01*
X04635Y03535D01*
X046348Y035346D01*
X046347Y03534D01*
X046345Y035334D01*
X046343Y035326D01*
X046342Y035318D01*
X046333D01*
X046336Y0354D01*
X046624D01*
X046628Y035318D01*
D02*
G37*
G36*
X045822Y0354D02*
X045828D01*
X045834Y035399D01*
X045848Y035398D01*
X045861Y035396D01*
X045874Y035394D01*
X04588Y035393D01*
X045885Y035392D01*
X045886D01*
X045886Y035391D01*
X04589Y03539D01*
X045895Y035388D01*
X045901Y035385D01*
X045908Y035381D01*
X045916Y035376D01*
X045924Y035369D01*
X045931Y035362D01*
X045931Y03536D01*
X045933Y035358D01*
X045937Y035353D01*
X04594Y035347D01*
X045943Y035339D01*
X045947Y03533D01*
X045949Y03532D01*
X045949Y035309D01*
Y035309D01*
Y035307D01*
Y035306D01*
X045949Y035304D01*
X045948Y035298D01*
X045947Y03529D01*
X045944Y035281D01*
X045941Y035272D01*
X045935Y035262D01*
X045928Y035253D01*
X045927Y035252D01*
X045924Y035249D01*
X045919Y035245D01*
X045912Y03524D01*
X045903Y035234D01*
X045891Y035228D01*
X045878Y035223D01*
X045862Y035219D01*
X045936Y035118D01*
X045936Y035117D01*
X045937Y035116D01*
X045938Y035115D01*
X04594Y035113D01*
X045944Y035107D01*
X04595Y035099D01*
X045957Y035091D01*
X045964Y035084D01*
X045971Y035077D01*
X045975Y035074D01*
X045978Y035072D01*
X045979Y035071D01*
X045981Y03507D01*
X045985Y035068D01*
X045991Y035066D01*
X045998Y035063D01*
X046006Y035061D01*
X046015Y035059D01*
X046025Y035057D01*
Y035048D01*
X045931D01*
X045811Y035212D01*
X045803D01*
X045796Y035212D01*
X045778D01*
X045775Y035212D01*
Y03511D01*
Y035109D01*
Y035108D01*
Y035107D01*
Y035104D01*
X045776Y035099D01*
X045776Y035092D01*
X045777Y035085D01*
X045778Y035078D01*
X04578Y035073D01*
X045781Y03507D01*
X045782Y035068D01*
X045783Y035068D01*
X045784Y035067D01*
X045787Y035065D01*
X04579Y035063D01*
X045794Y035061D01*
X045799Y035059D01*
X045805Y035058D01*
X045812Y035057D01*
X045825D01*
Y035048D01*
X045675D01*
Y035057D01*
X045692D01*
X045696Y035058D01*
X0457Y035059D01*
X045706Y035061D01*
X045711Y035063D01*
X045716Y035067D01*
X04572Y035072D01*
Y035072D01*
X045721Y035073D01*
X045722Y035076D01*
X045723Y035079D01*
X045724Y035085D01*
X045724Y035091D01*
X045725Y035099D01*
Y03511D01*
Y035338D01*
Y035339D01*
Y03534D01*
Y035341D01*
Y035343D01*
X045725Y035349D01*
X045724Y035356D01*
X045724Y035363D01*
X045722Y035369D01*
X045721Y035375D01*
X045719Y035377D01*
X045718Y035379D01*
X045717Y03538D01*
X045716Y035381D01*
X045713Y035383D01*
X045711Y035385D01*
X045706Y035387D01*
X045701Y035389D01*
X045695Y03539D01*
X045688Y03539D01*
X045675D01*
Y0354D01*
X045817D01*
X045822Y0354D01*
D02*
G37*
G36*
X048696Y033201D02*
X048687D01*
Y033201D01*
X048686Y033202D01*
X048685Y033204D01*
X048684Y033207D01*
X048683Y033211D01*
X048681Y033215D01*
X048677Y033224D01*
X048672Y033234D01*
X048666Y033244D01*
X048659Y033254D01*
X048651Y033263D01*
X048651Y033263D01*
X04865Y033264D01*
X048648Y033266D01*
X048646Y033268D01*
X048642Y03327D01*
X048639Y033273D01*
X048634Y033275D01*
X048629Y033278D01*
X048624Y033281D01*
X048617Y033284D01*
X048604Y033289D01*
X048588Y033292D01*
X04858Y033293D01*
X04857Y033293D01*
X048568D01*
X048564Y033293D01*
X048559D01*
X048554Y033292D01*
X048547Y033291D01*
X04854Y033289D01*
X048533Y033287D01*
X048524Y033284D01*
X048516Y03328D01*
X048508Y033276D01*
X048499Y033271D01*
X048491Y033265D01*
X048482Y033257D01*
X048475Y033249D01*
X048468Y03324D01*
X048468Y033239D01*
X048467Y033238D01*
X048466Y033236D01*
X048464Y033232D01*
X048462Y033227D01*
X048459Y033222D01*
X048456Y033216D01*
X048454Y033209D01*
X048451Y033202D01*
X048449Y033194D01*
X048446Y033185D01*
X048444Y033176D01*
X048442Y033166D01*
X04844Y033155D01*
X04844Y033144D01*
X048439Y033132D01*
Y033132D01*
Y03313D01*
Y033127D01*
X04844Y033124D01*
Y033119D01*
X04844Y033114D01*
X048441Y033108D01*
X048442Y033102D01*
X048444Y033088D01*
X048448Y033072D01*
X048452Y033056D01*
X048458Y033041D01*
Y03304D01*
X04846Y033039D01*
X048461Y033037D01*
X048462Y033034D01*
X048464Y03303D01*
X048466Y033026D01*
X048472Y033018D01*
X04848Y033007D01*
X048488Y032998D01*
X048498Y032988D01*
X048509Y03298D01*
X04851D01*
X048511Y032979D01*
X048512Y032978D01*
X048515Y032977D01*
X048517Y032975D01*
X048521Y032973D01*
X048529Y03297D01*
X048539Y032966D01*
X04855Y032964D01*
X048562Y032961D01*
X048574Y03296D01*
X048577D01*
X048581Y032961D01*
X048586D01*
X048592Y032961D01*
X048598Y032963D01*
X048612Y032965D01*
X048613D01*
X048615Y032966D01*
X048618Y032967D01*
X048623Y032969D01*
X048629Y032971D01*
X048635Y032973D01*
X048647Y03298D01*
Y033083D01*
Y033083D01*
Y033084D01*
Y033087D01*
Y033091D01*
X048647Y033097D01*
X048646Y033103D01*
X048646Y033108D01*
X048645Y033113D01*
X048643Y033117D01*
Y033118D01*
X048642Y033119D01*
X04864Y033122D01*
X048636Y033126D01*
X04863Y03313D01*
X04863D01*
X048629Y03313D01*
X048627Y033131D01*
X048624Y033132D01*
X04862Y033133D01*
X048615Y033133D01*
X048609Y033134D01*
X048601D01*
Y033144D01*
X048737D01*
Y033134D01*
X048728D01*
X048724Y033133D01*
X04872Y033132D01*
X048715Y033131D01*
X048711Y033128D01*
X048706Y033125D01*
X048703Y03312D01*
Y03312D01*
X048703Y033118D01*
X048701Y033116D01*
X048701Y033112D01*
X0487Y033107D01*
X048699Y0331D01*
X048698Y033093D01*
Y033083D01*
Y032974D01*
X048698D01*
X048697Y032973D01*
X048695Y032972D01*
X048693Y032971D01*
X048687Y032969D01*
X04868Y032965D01*
X04867Y032961D01*
X04866Y032957D01*
X04865Y032954D01*
X048639Y032951D01*
X048638D01*
X048638Y03295D01*
X048636D01*
X048634Y032949D01*
X048631Y032949D01*
X048628Y032948D01*
X04862Y032947D01*
X04861Y032945D01*
X048599Y032944D01*
X048587Y032943D01*
X048574Y032943D01*
X04857D01*
X048564Y032943D01*
X048557Y032944D01*
X048549Y032945D01*
X048539Y032946D01*
X048528Y032948D01*
X048516Y032951D01*
X048504Y032954D01*
X048492Y032959D01*
X048479Y032964D01*
X048466Y032971D01*
X048453Y032978D01*
X048441Y032987D01*
X048429Y032997D01*
X048419Y033008D01*
X048419Y033009D01*
X048417Y033011D01*
X048415Y033013D01*
X048413Y033017D01*
X04841Y033022D01*
X048407Y033028D01*
X048403Y033034D01*
X048399Y033041D01*
X048396Y033049D01*
X048392Y033058D01*
X048389Y033067D01*
X048386Y033077D01*
X048384Y033087D01*
X048381Y033099D01*
X04838Y033109D01*
X04838Y033121D01*
Y033122D01*
Y033124D01*
Y033126D01*
X04838Y03313D01*
Y033133D01*
X048381Y033138D01*
X048381Y033144D01*
X048383Y03315D01*
X048385Y033164D01*
X048389Y033179D01*
X048395Y033195D01*
X048402Y033211D01*
X048402Y033212D01*
X048403Y033213D01*
X048404Y033216D01*
X048407Y033219D01*
X048409Y033224D01*
X048413Y033228D01*
X048416Y033234D01*
X048421Y03324D01*
X048431Y033252D01*
X048444Y033266D01*
X048458Y033278D01*
X048466Y033284D01*
X048474Y033289D01*
X048475Y03329D01*
X048476Y03329D01*
X048478Y033291D01*
X048481Y033293D01*
X048485Y033295D01*
X04849Y033296D01*
X048494Y033298D01*
X0485Y033301D01*
X048506Y033303D01*
X048514Y033305D01*
X048529Y033308D01*
X048546Y033311D01*
X048565Y033312D01*
X048573D01*
X048577Y033311D01*
X048582D01*
X048588Y033311D01*
X0486Y033309D01*
X048601D01*
X048603Y033308D01*
X048607Y033307D01*
X048612Y033306D01*
X048618Y033304D01*
X048626Y033302D01*
X048635Y033299D01*
X048645Y033295D01*
X048646D01*
X048647Y033294D01*
X04865Y033293D01*
X048653Y033292D01*
X048659Y033291D01*
X048662Y03329D01*
X048665D01*
X048667Y03329D01*
X04867Y033291D01*
X048672Y033294D01*
X048673Y033295D01*
X048674Y033296D01*
X048675Y033298D01*
X048675Y033301D01*
X048676Y033303D01*
X048677Y033307D01*
X048677Y033312D01*
X048687D01*
X048696Y033201D01*
D02*
G37*
G36*
X049123Y033294D02*
X049107D01*
X049103Y033293D01*
X049098Y033292D01*
X049092Y033291D01*
X049087Y033288D01*
X049082Y033285D01*
X049078Y03328D01*
Y03328D01*
X049077Y033279D01*
X049077Y033276D01*
X049075Y033273D01*
X049074Y033268D01*
X049074Y033261D01*
X049073Y033253D01*
Y033243D01*
Y032946D01*
X049063D01*
X048831Y033229D01*
Y033012D01*
Y033012D01*
Y033011D01*
Y033009D01*
Y033007D01*
X048831Y033001D01*
X048832Y032995D01*
X048832Y032988D01*
X048834Y032981D01*
X048835Y032976D01*
X048836Y032973D01*
X048837Y032971D01*
X048838Y032971D01*
X04884Y03297D01*
X048842Y032968D01*
X048845Y032966D01*
X048849Y032964D01*
X048855Y032963D01*
X048861Y032961D01*
X048868Y032961D01*
X048881D01*
Y032951D01*
X048758D01*
Y032961D01*
X048773D01*
X048777Y032961D01*
X048782Y032963D01*
X048788Y032964D01*
X048793Y032966D01*
X048798Y03297D01*
X048802Y032974D01*
X048802Y032975D01*
X048803Y032976D01*
X048804Y032978D01*
X048805Y032982D01*
X048806Y032987D01*
X048807Y032994D01*
X048808Y033002D01*
Y033012D01*
Y033257D01*
X048807Y033258D01*
X048805Y03326D01*
X048802Y033263D01*
X048799Y033267D01*
X048791Y033274D01*
X048787Y033278D01*
X048784Y03328D01*
X048783Y033281D01*
X048782Y033281D01*
X048781Y033283D01*
X048778Y033284D01*
X048775Y033286D01*
X048771Y033287D01*
X048766Y03329D01*
X048761Y033291D01*
X04876D01*
X048759Y033292D01*
X048758Y033292D01*
X048755Y033293D01*
X048752D01*
X048748Y033293D01*
X048744Y033294D01*
X048739D01*
Y033304D01*
X048834D01*
X04905Y03304D01*
Y033243D01*
Y033243D01*
Y033244D01*
Y033246D01*
Y033248D01*
X049049Y033253D01*
X049049Y03326D01*
X049048Y033267D01*
X049046Y033273D01*
X049045Y033279D01*
X049043Y033281D01*
X049042Y033283D01*
X049042Y033284D01*
X04904Y033285D01*
X049038Y033286D01*
X049034Y033289D01*
X04903Y033291D01*
X049025Y033292D01*
X049019Y033293D01*
X049012Y033294D01*
X049D01*
Y033304D01*
X049123D01*
Y033294D01*
D02*
G37*
G36*
X049303Y033303D02*
X04931Y033303D01*
X049318Y033302D01*
X049327Y033302D01*
X049347Y033299D01*
X049366Y033296D01*
X049386Y033292D01*
X049394Y033289D01*
X049402Y033286D01*
X049403D01*
X049404Y033285D01*
X049406Y033284D01*
X04941Y033283D01*
X049413Y03328D01*
X049417Y033278D01*
X049426Y033272D01*
X049437Y033263D01*
X049448Y033253D01*
X049459Y03324D01*
X049464Y033233D01*
X049469Y033226D01*
X04947Y033225D01*
X04947Y033224D01*
X049471Y033221D01*
X049473Y033218D01*
X049475Y033214D01*
X049477Y033209D01*
X049479Y033204D01*
X049482Y033198D01*
X049484Y033191D01*
X049486Y033184D01*
X049488Y033176D01*
X04949Y033167D01*
X049493Y033149D01*
X049494Y033139D01*
Y033129D01*
Y033128D01*
Y033126D01*
X049494Y033122D01*
Y033117D01*
X049493Y033111D01*
X049492Y033103D01*
X04949Y033095D01*
X049489Y033086D01*
X049486Y033077D01*
X049483Y033067D01*
X049479Y033056D01*
X049475Y033046D01*
X04947Y033036D01*
X049464Y033026D01*
X049457Y033016D01*
X049449Y033006D01*
X049449Y033006D01*
X049447Y033004D01*
X049444Y033001D01*
X04944Y032998D01*
X049435Y032994D01*
X049428Y032989D01*
X04942Y032984D01*
X049412Y032979D01*
X049401Y032973D01*
X04939Y032969D01*
X049377Y032964D01*
X049364Y03296D01*
X049349Y032956D01*
X049333Y032953D01*
X049315Y032952D01*
X049297Y032951D01*
X04914D01*
Y032961D01*
X049157D01*
X049161Y032961D01*
X049165Y032963D01*
X04917Y032964D01*
X049175Y032967D01*
X04918Y03297D01*
X049184Y032975D01*
X049185Y032976D01*
X049185Y032977D01*
X049186Y03298D01*
X049187Y032983D01*
X049188Y032988D01*
X049189Y032995D01*
X04919Y033003D01*
Y033013D01*
Y033242D01*
Y033242D01*
Y033243D01*
Y033245D01*
Y033247D01*
X04919Y033252D01*
X049189Y033259D01*
X049188Y033266D01*
X049187Y033273D01*
X049185Y033279D01*
X049184Y033281D01*
X049182Y033283D01*
X049182Y033283D01*
X049181Y033284D01*
X049178Y033286D01*
X049175Y033289D01*
X049171Y03329D01*
X049166Y033292D01*
X04916Y033293D01*
X049153Y033294D01*
X04914D01*
Y033304D01*
X049296D01*
X049303Y033303D01*
D02*
G37*
G36*
X045696Y033019D02*
X045686D01*
X045336Y032669D01*
Y033379D01*
X045696Y033019D01*
D02*
G37*
G36*
X049197Y032575D02*
X049196D01*
X049194Y032575D01*
X04919Y032574D01*
X049186Y032573D01*
X049177Y032569D01*
X049172Y032566D01*
X049168Y032563D01*
X049168Y032563D01*
X049166Y032561D01*
X049164Y032558D01*
X04916Y032554D01*
X049156Y032548D01*
X049153Y032542D01*
X049148Y032533D01*
X049144Y032524D01*
X049022Y032224D01*
X049012D01*
X04888Y032528D01*
Y032529D01*
X048879Y032529D01*
X048878Y032532D01*
X048876Y032536D01*
X048874Y032541D01*
X048871Y032545D01*
X048869Y03255D01*
X048867Y032554D01*
X048865Y032557D01*
X048865Y032557D01*
X048864Y032558D01*
X048861Y032561D01*
X048856Y032565D01*
X048849Y032569D01*
X048848D01*
X048847Y032569D01*
X048845Y032571D01*
X048842Y032572D01*
X048839Y032573D01*
X048834Y032574D01*
X048829Y032575D01*
X048823Y032575D01*
Y032585D01*
X048968D01*
Y032575D01*
X048967D01*
X048964Y032575D01*
X04896Y032574D01*
X048955Y032573D01*
X048949Y032572D01*
X048945Y032571D01*
X04894Y032569D01*
X048936Y032567D01*
X048936D01*
X048935Y032566D01*
X048933Y032562D01*
X04893Y032558D01*
X04893Y032555D01*
X048929Y032551D01*
Y032551D01*
Y032549D01*
X04893Y032546D01*
X048931Y032542D01*
X048932Y032536D01*
X048934Y032529D01*
X048937Y032521D01*
X048941Y032511D01*
X049031Y032304D01*
X049114Y032508D01*
Y032509D01*
X049115Y032509D01*
X049115Y032511D01*
X049116Y032513D01*
X049118Y032519D01*
X04912Y032525D01*
X049123Y032532D01*
X049125Y032539D01*
X049126Y032545D01*
X049126Y03255D01*
Y032551D01*
Y032551D01*
X049125Y032555D01*
X049123Y03256D01*
X049121Y032562D01*
X049119Y032565D01*
X049118Y032565D01*
X049117Y032566D01*
X049115Y032567D01*
X049113Y032568D01*
X049109Y03257D01*
X049105Y032572D01*
X0491Y032573D01*
X049093Y032574D01*
X049092Y032575D01*
X049091D01*
X049089Y032575D01*
Y032585D01*
X049197D01*
Y032575D01*
D02*
G37*
G36*
X048763Y032541D02*
X048657D01*
X048634Y032494D01*
X048634D01*
X048637Y032493D01*
X04864Y032492D01*
X048645Y032491D01*
X048651Y03249D01*
X048658Y032488D01*
X048666Y032486D01*
X048674Y032483D01*
X048691Y032477D01*
X048701Y032472D01*
X048709Y032467D01*
X048719Y032462D01*
X048727Y032456D01*
X048736Y032449D01*
X048744Y032442D01*
X048744Y032442D01*
X048745Y032441D01*
X048747Y032438D01*
X048749Y032436D01*
X048752Y032432D01*
X048755Y032429D01*
X048758Y032424D01*
X048761Y032419D01*
X048764Y032413D01*
X048768Y032406D01*
X048773Y032392D01*
X048775Y032384D01*
X048777Y032377D01*
X048778Y032368D01*
X048779Y032359D01*
Y032359D01*
Y032358D01*
Y032357D01*
Y032354D01*
X048778Y032349D01*
X048777Y032342D01*
X048776Y032334D01*
X048774Y032325D01*
X048771Y032317D01*
X048767Y032307D01*
X048767Y032306D01*
X048765Y032304D01*
X048763Y032299D01*
X048759Y032294D01*
X048755Y032287D01*
X04875Y032281D01*
X048744Y032274D01*
X048738Y032267D01*
X048738Y032266D01*
X048735Y032264D01*
X048732Y032262D01*
X048727Y032258D01*
X048722Y032253D01*
X048715Y032249D01*
X048708Y032245D01*
X048701Y032241D01*
X0487D01*
X048699Y03224D01*
X048698Y03224D01*
X048696Y032239D01*
X04869Y032236D01*
X048681Y032234D01*
X048672Y032231D01*
X048662Y032229D01*
X048651Y032227D01*
X048639Y032227D01*
X048634D01*
X048628Y032227D01*
X048621Y032228D01*
X048614Y032229D01*
X048606Y032231D01*
X048599Y032234D01*
X048593Y032237D01*
X048592Y032238D01*
X048591Y032239D01*
X048589Y032241D01*
X048586Y032244D01*
X048583Y032248D01*
X048581Y032252D01*
X048579Y032256D01*
X048579Y032261D01*
Y032262D01*
Y032262D01*
X048579Y032265D01*
X048581Y032269D01*
X048584Y032274D01*
X048585D01*
X048585Y032275D01*
X048589Y032276D01*
X048593Y032278D01*
X0486Y032279D01*
X048604D01*
X048608Y032278D01*
X048612Y032277D01*
X048613Y032276D01*
X048614Y032276D01*
X048615Y032275D01*
X048618Y032274D01*
X048621Y032272D01*
X048625Y032269D01*
X048629Y032266D01*
X04863Y032266D01*
X048632Y032264D01*
X048636Y032262D01*
X048641Y03226D01*
X048647Y032257D01*
X048654Y032255D01*
X048661Y032254D01*
X048668Y032253D01*
X048671D01*
X048673Y032254D01*
X048679Y032254D01*
X048686Y032256D01*
X048695Y032259D01*
X048703Y032263D01*
X048713Y032269D01*
X048721Y032276D01*
X048722Y032277D01*
X048722Y032277D01*
X048725Y032281D01*
X048729Y032285D01*
X048733Y032292D01*
X048737Y0323D01*
X048741Y03231D01*
X048744Y03232D01*
X048745Y032326D01*
Y032332D01*
Y032333D01*
Y032334D01*
Y032335D01*
X048744Y032337D01*
X048744Y032343D01*
X048742Y032352D01*
X04874Y032361D01*
X048736Y032371D01*
X048731Y032381D01*
X048724Y032391D01*
Y032392D01*
X048723Y032393D01*
X04872Y032396D01*
X048716Y032401D01*
X048709Y032407D01*
X048701Y032414D01*
X048691Y032422D01*
X04868Y032429D01*
X048667Y032435D01*
X048667D01*
X048666Y032435D01*
X048664Y032436D01*
X048662Y032436D01*
X048659Y032437D01*
X048656Y032438D01*
X048651Y03244D01*
X048647Y032441D01*
X048642Y032442D01*
X048636Y032443D01*
X048623Y032445D01*
X048608Y032447D01*
X04859Y032448D01*
X048657Y032585D01*
X048784D01*
X048763Y032541D01*
D02*
G37*
G36*
X049862Y031449D02*
X049697Y031329D01*
Y031321D01*
X049698Y031314D01*
Y031296D01*
X049697Y031293D01*
X0498D01*
X049801D01*
X049802D01*
X049803D01*
X049805D01*
X049811Y031294D01*
X049817Y031294D01*
X049825Y031295D01*
X049832Y031296D01*
X049837Y031298D01*
X04984Y031299D01*
X049841Y0313D01*
X049842Y031301D01*
X049843Y031302D01*
X049845Y031305D01*
X049847Y031308D01*
X049849Y031312D01*
X049851Y031317D01*
X049852Y031323D01*
X049852Y03133D01*
Y031343D01*
X049862D01*
Y031193D01*
X049852D01*
Y03121D01*
X049852Y031214D01*
X049851Y031218D01*
X049849Y031224D01*
X049846Y031229D01*
X049843Y031234D01*
X049838Y031238D01*
X049838D01*
X049837Y031239D01*
X049834Y03124D01*
X049831Y031241D01*
X049825Y031242D01*
X049819Y031242D01*
X04981Y031243D01*
X0498D01*
X049572D01*
X049571D01*
X04957D01*
X049568D01*
X049566D01*
X049561Y031243D01*
X049554Y031242D01*
X049547Y031242D01*
X049541Y03124D01*
X049535Y031238D01*
X049532Y031237D01*
X049531Y031236D01*
X04953Y031235D01*
X049529Y031234D01*
X049527Y031231D01*
X049525Y031229D01*
X049523Y031224D01*
X049521Y031219D01*
X04952Y031213D01*
X049519Y031206D01*
Y031193D01*
X049509D01*
Y031335D01*
X04951Y03134D01*
Y031346D01*
X049511Y031352D01*
X049512Y031366D01*
X049513Y031379D01*
X049516Y031392D01*
X049517Y031398D01*
X049518Y031403D01*
Y031404D01*
X049519Y031404D01*
X04952Y031408D01*
X049522Y031413D01*
X049525Y031419D01*
X049529Y031426D01*
X049534Y031434D01*
X049541Y031442D01*
X049548Y031449D01*
X049549Y031449D01*
X049552Y031451D01*
X049557Y031455D01*
X049563Y031458D01*
X049571Y031461D01*
X049579Y031464D01*
X04959Y031467D01*
X049601Y031467D01*
X049601D01*
X049602D01*
X049604D01*
X049606Y031467D01*
X049612Y031466D01*
X04962Y031464D01*
X049629Y031462D01*
X049638Y031458D01*
X049648Y031453D01*
X049657Y031446D01*
X049658Y031445D01*
X049661Y031442D01*
X049665Y031437D01*
X04967Y03143D01*
X049675Y031421D01*
X049681Y031409D01*
X049686Y031396D01*
X049691Y03138D01*
X049792Y031454D01*
X049792Y031454D01*
X049793Y031455D01*
X049795Y031456D01*
X049797Y031458D01*
X049803Y031462D01*
X049811Y031468D01*
X049819Y031475D01*
X049826Y031482D01*
X049833Y031489D01*
X049836Y031493D01*
X049838Y031496D01*
X049839Y031497D01*
X04984Y031499D01*
X049842Y031503D01*
X049844Y031509D01*
X049847Y031516D01*
X049849Y031523D01*
X049851Y031533D01*
X049852Y031543D01*
X049862D01*
Y031449D01*
D02*
G37*
G36*
X048971Y030641D02*
X048961D01*
Y030642D01*
Y030643D01*
X048961Y030644D01*
X04896Y030647D01*
X048959Y030653D01*
X048957Y030661D01*
X048955Y03067D01*
X048952Y030679D01*
X048949Y030689D01*
X048944Y030697D01*
X048944Y030698D01*
X048942Y0307D01*
X048939Y030704D01*
X048936Y030709D01*
X048931Y030714D01*
X048925Y030719D01*
X048918Y030725D01*
X04891Y030729D01*
X048909Y03073D01*
X048906Y030732D01*
X048902Y030733D01*
X048896Y030736D01*
X048889Y030738D01*
X048881Y03074D01*
X048872Y030742D01*
X048863Y030742D01*
X048859D01*
X048854Y030741D01*
X048848Y03074D01*
X048841Y030738D01*
X048833Y030735D01*
X048826Y030731D01*
X048819Y030725D01*
X048818Y030725D01*
X048816Y030722D01*
X048813Y030719D01*
X04881Y030714D01*
X048807Y030709D01*
X048804Y030702D01*
X048802Y030695D01*
X048801Y030687D01*
Y030687D01*
Y030685D01*
X048802Y030682D01*
X048803Y030678D01*
X048804Y030673D01*
X048806Y030668D01*
X048808Y030663D01*
X048812Y030658D01*
X048813Y030657D01*
X048814Y030656D01*
X048815Y030655D01*
X048818Y030653D01*
X04882Y03065D01*
X048824Y030648D01*
X048828Y030644D01*
X048833Y030641D01*
X048838Y030637D01*
X048844Y030633D01*
X048851Y030628D01*
X04886Y030623D01*
X048868Y030618D01*
X048878Y030612D01*
X048889Y030606D01*
X04889Y030606D01*
X048891Y030605D01*
X048894Y030603D01*
X048897Y030602D01*
X048901Y0306D01*
X048906Y030597D01*
X048916Y030591D01*
X048927Y030584D01*
X048938Y030578D01*
X048948Y030571D01*
X048952Y030568D01*
X048956Y030565D01*
X048957Y030565D01*
X04896Y030562D01*
X048963Y03056D01*
X048967Y030556D01*
X048972Y030551D01*
X048976Y030545D01*
X048981Y030539D01*
X048985Y030532D01*
X048985Y030531D01*
X048986Y030529D01*
X048988Y030525D01*
X04899Y03052D01*
X048991Y030514D01*
X048993Y030507D01*
X048994Y030499D01*
X048994Y030491D01*
Y030491D01*
Y03049D01*
Y030488D01*
X048994Y030485D01*
X048993Y030481D01*
X048993Y030477D01*
X048991Y030468D01*
X048987Y030457D01*
X048985Y030452D01*
X048981Y030446D01*
X048978Y03044D01*
X048974Y030434D01*
X048969Y030428D01*
X048963Y030423D01*
X048963Y030422D01*
X048962Y030422D01*
X04896Y03042D01*
X048958Y030418D01*
X048955Y030416D01*
X048951Y030413D01*
X048946Y030411D01*
X048942Y030408D01*
X048936Y030406D01*
X04893Y030403D01*
X048916Y030398D01*
X048901Y030395D01*
X048892Y030394D01*
X048883Y030394D01*
X048878D01*
X048874Y030394D01*
X048869D01*
X048865Y030395D01*
X048854Y030396D01*
X048854D01*
X048853Y030397D01*
X04885D01*
X048847Y030398D01*
X048843Y030399D01*
X048837Y030401D01*
X04883Y030403D01*
X048821Y030406D01*
X04882Y030406D01*
X048817Y030407D01*
X048813Y030408D01*
X048808Y03041D01*
X048802Y030411D01*
X048797Y030413D01*
X048792Y030413D01*
X048789Y030414D01*
X048788D01*
X048785Y030413D01*
X048782Y030412D01*
X048779Y03041D01*
X048778Y030409D01*
X048778Y030408D01*
X048777Y030406D01*
X048776Y030404D01*
X048775Y030401D01*
X048774Y030398D01*
X048773Y030394D01*
X048764D01*
Y030514D01*
X048773D01*
Y030514D01*
X048774Y030513D01*
Y030511D01*
X048774Y030508D01*
X048775Y030505D01*
X048776Y030501D01*
X048778Y030493D01*
X04878Y030484D01*
X048784Y030474D01*
X048788Y030465D01*
X048791Y030457D01*
X048792Y030456D01*
X048794Y030454D01*
X048796Y03045D01*
X0488Y030446D01*
X048805Y030441D01*
X048811Y030436D01*
X048818Y030431D01*
X048826Y030426D01*
X048827D01*
X048827Y030425D01*
X048831Y030424D01*
X048835Y030422D01*
X048842Y03042D01*
X048849Y030418D01*
X048858Y030416D01*
X048867Y030414D01*
X048878Y030414D01*
X048881D01*
X048883Y030414D01*
X048889Y030415D01*
X048896Y030416D01*
X048904Y030418D01*
X048913Y030421D01*
X048921Y030425D01*
X048929Y030431D01*
X04893Y030431D01*
X048932Y030434D01*
X048935Y030437D01*
X048939Y030442D01*
X048942Y030448D01*
X048945Y030455D01*
X048948Y030463D01*
X048948Y030472D01*
Y030472D01*
Y030474D01*
X048948Y030477D01*
X048947Y03048D01*
X048946Y030484D01*
X048945Y030488D01*
X048943Y030493D01*
X04894Y030498D01*
X04894Y030499D01*
X048939Y0305D01*
X048937Y030503D01*
X048935Y030506D01*
X048932Y03051D01*
X048928Y030514D01*
X048924Y030518D01*
X048919Y030523D01*
X048918Y030523D01*
X048916Y030524D01*
X048913Y030526D01*
X048908Y03053D01*
X048904Y030532D01*
X048901Y030535D01*
X048896Y030537D01*
X048891Y03054D01*
X048885Y030543D01*
X048878Y030547D01*
X048871Y030551D01*
X048863Y030556D01*
X048862Y030556D01*
X048861Y030557D01*
X048859Y030558D01*
X048856Y03056D01*
X048852Y030562D01*
X048848Y030565D01*
X048838Y030571D01*
X048827Y030577D01*
X048816Y030584D01*
X048807Y03059D01*
X048802Y030594D01*
X048798Y030596D01*
X048797Y030597D01*
X048795Y030599D01*
X048792Y030602D01*
X048788Y030606D01*
X048783Y030611D01*
X048778Y030617D01*
X048773Y030623D01*
X04877Y03063D01*
X048769Y030631D01*
X048768Y030633D01*
X048766Y030637D01*
X048765Y030642D01*
X048763Y030647D01*
X048761Y030654D01*
X04876Y030661D01*
X04876Y030669D01*
Y03067D01*
Y030671D01*
Y030673D01*
X04876Y030676D01*
X048761Y030679D01*
X048761Y030683D01*
X048764Y030692D01*
X048767Y030702D01*
X048772Y030713D01*
X048775Y030719D01*
X048779Y030725D01*
X048784Y030729D01*
X048789Y030735D01*
X048789Y030735D01*
X04879Y030736D01*
X048791Y030738D01*
X048794Y030739D01*
X048797Y030742D01*
X0488Y030744D01*
X048804Y030746D01*
X048809Y030749D01*
X04882Y030754D01*
X048832Y030758D01*
X048847Y030762D01*
X048855Y030762D01*
X048863Y030763D01*
X048868D01*
X048873Y030762D01*
X048881Y030761D01*
X04889Y03076D01*
X0489Y030757D01*
X048911Y030754D01*
X048922Y030749D01*
X048923D01*
X048925Y030748D01*
X048927Y030747D01*
X048931Y030746D01*
X048937Y030744D01*
X04894Y030743D01*
X048943Y030743D01*
X048944D01*
X048947Y030743D01*
X048951Y030744D01*
X048954Y030746D01*
X048955Y030747D01*
X048956Y030748D01*
X048957Y03075D01*
X048958Y030752D01*
X048959Y030755D01*
X04896Y030758D01*
X048961Y030763D01*
X048971D01*
Y030641D01*
D02*
G37*
G36*
X049335Y030672D02*
X049324D01*
Y030673D01*
X049324Y030676D01*
X049323Y03068D01*
X049322Y030684D01*
X04932Y030695D01*
X049318Y030699D01*
X049317Y030703D01*
X049316Y030704D01*
X049315Y030705D01*
X049313Y030708D01*
X049311Y030711D01*
X049308Y030715D01*
X049304Y030719D01*
X0493Y030722D01*
X049295Y030725D01*
X049294Y030726D01*
X049293Y030726D01*
X049289Y030727D01*
X049286Y030729D01*
X049281Y030731D01*
X049275Y030732D01*
X049267Y030732D01*
X04926Y030733D01*
X049211D01*
Y030463D01*
Y030463D01*
Y030461D01*
Y03046D01*
Y030458D01*
X049211Y030452D01*
X049212Y030446D01*
X049212Y030438D01*
X049213Y030432D01*
X049215Y030426D01*
X049216Y030424D01*
X049217Y030422D01*
X049218Y030422D01*
X049219Y03042D01*
X049222Y030419D01*
X049225Y030417D01*
X049229Y030415D01*
X049234Y030413D01*
X049241Y030412D01*
X049248Y030412D01*
X04926D01*
Y030402D01*
X049111D01*
Y030412D01*
X049127D01*
X049131Y030412D01*
X049136Y030413D01*
X049141Y030415D01*
X049146Y030417D01*
X049151Y03042D01*
X049155Y030425D01*
X049156Y030425D01*
X049156Y030426D01*
X049157Y030429D01*
X049158Y030432D01*
X049159Y030438D01*
X04916Y030444D01*
X049161Y030453D01*
Y030463D01*
Y030733D01*
X04911D01*
X049105Y030732D01*
X049093Y030731D01*
X049088Y03073D01*
X049083Y030729D01*
X049083D01*
X049081Y030728D01*
X049079Y030727D01*
X049075Y030725D01*
X049072Y030722D01*
X049068Y030719D01*
X049064Y030715D01*
X04906Y03071D01*
X049059Y030709D01*
X049058Y030707D01*
X049057Y030704D01*
X049055Y0307D01*
X049053Y030695D01*
X049051Y030688D01*
X04905Y03068D01*
X049049Y030672D01*
X049039D01*
X049043Y030755D01*
X049331D01*
X049335Y030672D01*
D02*
G37*
G36*
X048529Y030754D02*
X048535D01*
X048541Y030754D01*
X048554Y030752D01*
X048568Y030751D01*
X048581Y030749D01*
X048587Y030748D01*
X048592Y030746D01*
X048593D01*
X048593Y030745D01*
X048596Y030744D01*
X048601Y030742D01*
X048608Y030739D01*
X048615Y030735D01*
X048623Y03073D01*
X04863Y030723D01*
X048637Y030716D01*
X048638Y030715D01*
X04864Y030712D01*
X048643Y030707D01*
X048647Y030701D01*
X04865Y030693D01*
X048653Y030685D01*
X048655Y030674D01*
X048656Y030663D01*
Y030663D01*
Y030662D01*
Y03066D01*
X048655Y030658D01*
X048655Y030652D01*
X048653Y030644D01*
X048651Y030636D01*
X048647Y030626D01*
X048642Y030616D01*
X048635Y030607D01*
X048634Y030606D01*
X048631Y030603D01*
X048625Y030599D01*
X048618Y030594D01*
X04861Y030589D01*
X048598Y030583D01*
X048584Y030578D01*
X048569Y030573D01*
X048642Y030472D01*
X048643Y030472D01*
X048643Y030471D01*
X048645Y030469D01*
X048647Y030467D01*
X048651Y030461D01*
X048657Y030453D01*
X048664Y030446D01*
X048671Y030438D01*
X048678Y030431D01*
X048682Y030428D01*
X048685Y030426D01*
X048686Y030425D01*
X048688Y030424D01*
X048692Y030422D01*
X048697Y03042D01*
X048705Y030417D01*
X048712Y030415D01*
X048721Y030413D01*
X048732Y030412D01*
Y030402D01*
X048637D01*
X048518Y030567D01*
X04851D01*
X048503Y030566D01*
X048485D01*
X048482Y030567D01*
Y030464D01*
Y030464D01*
Y030463D01*
Y030461D01*
Y030459D01*
X048482Y030453D01*
X048483Y030447D01*
X048483Y03044D01*
X048485Y030432D01*
X048487Y030427D01*
X048488Y030424D01*
X048489Y030423D01*
X048489Y030422D01*
X048491Y030421D01*
X048493Y030419D01*
X048497Y030417D01*
X0485Y030415D01*
X048505Y030413D01*
X048511Y030412D01*
X048518Y030412D01*
X048532D01*
Y030402D01*
X048382D01*
Y030412D01*
X048399D01*
X048403Y030412D01*
X048407Y030413D01*
X048412Y030415D01*
X048417Y030418D01*
X048422Y030421D01*
X048427Y030426D01*
Y030426D01*
X048428Y030428D01*
X048428Y03043D01*
X048429Y030434D01*
X04843Y030439D01*
X048431Y030446D01*
X048432Y030454D01*
Y030464D01*
Y030692D01*
Y030693D01*
Y030694D01*
Y030696D01*
Y030698D01*
X048432Y030703D01*
X048431Y03071D01*
X04843Y030717D01*
X048429Y030723D01*
X048427Y030729D01*
X048426Y030732D01*
X048424Y030733D01*
X048424Y030734D01*
X048423Y030735D01*
X04842Y030737D01*
X048417Y030739D01*
X048413Y030741D01*
X048408Y030743D01*
X048402Y030744D01*
X048395Y030745D01*
X048382D01*
Y030755D01*
X048523D01*
X048529Y030754D01*
D02*
G37*
G36*
X03909Y030035D02*
X0383D01*
Y030265D01*
X03909D01*
Y030035D01*
D02*
G37*
G36*
X048536Y029942D02*
X048528D01*
Y029942D01*
Y029943D01*
X048528Y029945D01*
X048527Y029947D01*
X048526Y029952D01*
X048525Y029958D01*
X048523Y029965D01*
X048521Y029973D01*
X048518Y02998D01*
X048514Y029987D01*
X048514Y029987D01*
X048513Y029989D01*
X048511Y029992D01*
X048507Y029996D01*
X048504Y03D01*
X048499Y030005D01*
X048493Y030009D01*
X048487Y030013D01*
X048486Y030013D01*
X048484Y030015D01*
X04848Y030016D01*
X048476Y030018D01*
X04847Y03002D01*
X048464Y030021D01*
X048457Y030022D01*
X04845Y030023D01*
X048446D01*
X048442Y030022D01*
X048437Y030021D01*
X048431Y030019D01*
X048425Y030017D01*
X04842Y030014D01*
X048414Y030009D01*
X048414Y030009D01*
X048412Y030007D01*
X04841Y030004D01*
X048407Y030001D01*
X048404Y029996D01*
X048402Y029991D01*
X0484Y029985D01*
X0484Y029979D01*
Y029979D01*
Y029977D01*
X0484Y029975D01*
X048401Y029971D01*
X048402Y029968D01*
X048403Y029964D01*
X048406Y02996D01*
X048409Y029956D01*
X04841Y029955D01*
X04841Y029954D01*
X048411Y029953D01*
X048413Y029951D01*
X048415Y029949D01*
X048418Y029947D01*
X048421Y029945D01*
X048425Y029942D01*
X04843Y029939D01*
X048435Y029936D01*
X04844Y029932D01*
X048447Y029928D01*
X048454Y029923D01*
X048462Y029919D01*
X04847Y029914D01*
X048471Y029914D01*
X048472Y029913D01*
X048474Y029912D01*
X048477Y029911D01*
X04848Y029909D01*
X048483Y029907D01*
X048492Y029902D01*
X048501Y029897D01*
X04851Y029891D01*
X048518Y029886D01*
X048521Y029883D01*
X048524Y029881D01*
X048525Y029881D01*
X048527Y029879D01*
X048529Y029877D01*
X048532Y029874D01*
X048536Y02987D01*
X04854Y029865D01*
X048544Y02986D01*
X048547Y029855D01*
X048547Y029854D01*
X048548Y029852D01*
X048549Y029849D01*
X048551Y029845D01*
X048552Y02984D01*
X048553Y029835D01*
X048554Y029828D01*
X048555Y029822D01*
Y029822D01*
Y029821D01*
Y029819D01*
X048554Y029817D01*
X048554Y029814D01*
X048553Y029811D01*
X048552Y029804D01*
X048549Y029795D01*
X048547Y02979D01*
X048544Y029786D01*
X048541Y029781D01*
X048538Y029776D01*
X048534Y029772D01*
X04853Y029767D01*
X048529Y029767D01*
X048528Y029766D01*
X048527Y029765D01*
X048525Y029764D01*
X048523Y029762D01*
X04852Y02976D01*
X048516Y029758D01*
X048512Y029756D01*
X048508Y029754D01*
X048503Y029752D01*
X048492Y029748D01*
X04848Y029745D01*
X048473Y029745D01*
X048466Y029744D01*
X048461D01*
X048458Y029745D01*
X048455D01*
X048451Y029745D01*
X048442Y029746D01*
X048442D01*
X048441Y029747D01*
X048439D01*
X048437Y029748D01*
X048433Y029748D01*
X048428Y02975D01*
X048423Y029752D01*
X048416Y029754D01*
X048415Y029754D01*
X048413Y029755D01*
X048409Y029756D01*
X048405Y029757D01*
X048401Y029758D01*
X048396Y029759D01*
X048393Y02976D01*
X04839Y02976D01*
X048389D01*
X048387Y02976D01*
X048385Y029759D01*
X048382Y029757D01*
X048382Y029756D01*
X048381Y029755D01*
X04838Y029754D01*
X04838Y029752D01*
X048379Y02975D01*
X048378Y029748D01*
X048378Y029744D01*
X04837D01*
Y029841D01*
X048378D01*
Y02984D01*
X048378Y029839D01*
Y029838D01*
X048379Y029836D01*
X048379Y029833D01*
X04838Y02983D01*
X048382Y029824D01*
X048383Y029816D01*
X048386Y029808D01*
X048389Y029801D01*
X048392Y029795D01*
X048393Y029794D01*
X048394Y029792D01*
X048396Y02979D01*
X048399Y029786D01*
X048403Y029782D01*
X048408Y029778D01*
X048414Y029774D01*
X04842Y02977D01*
X048421D01*
X048421Y029769D01*
X048424Y029769D01*
X048427Y029767D01*
X048432Y029765D01*
X048438Y029763D01*
X048445Y029762D01*
X048453Y029761D01*
X048461Y02976D01*
X048464D01*
X048466Y029761D01*
X04847Y029761D01*
X048476Y029762D01*
X048483Y029764D01*
X04849Y029766D01*
X048496Y029769D01*
X048502Y029774D01*
X048503Y029774D01*
X048505Y029776D01*
X048507Y029779D01*
X04851Y029783D01*
X048513Y029788D01*
X048515Y029793D01*
X048517Y0298D01*
X048518Y029807D01*
Y029807D01*
Y029808D01*
X048517Y029811D01*
X048517Y029813D01*
X048516Y029816D01*
X048515Y02982D01*
X048514Y029824D01*
X048511Y029828D01*
X048511Y029828D01*
X048511Y029829D01*
X048509Y029831D01*
X048507Y029834D01*
X048505Y029837D01*
X048502Y02984D01*
X048498Y029844D01*
X048494Y029847D01*
X048493Y029848D01*
X048492Y029849D01*
X04849Y02985D01*
X048485Y029853D01*
X048483Y029855D01*
X04848Y029857D01*
X048476Y029859D01*
X048472Y029861D01*
X048467Y029864D01*
X048462Y029867D01*
X048456Y02987D01*
X048449Y029874D01*
X048449Y029874D01*
X048448Y029875D01*
X048446Y029876D01*
X048444Y029877D01*
X048441Y029879D01*
X048437Y029881D01*
X048429Y029886D01*
X048421Y02989D01*
X048412Y029896D01*
X048404Y029901D01*
X048401Y029904D01*
X048398Y029906D01*
X048397Y029907D01*
X048395Y029908D01*
X048393Y029911D01*
X048389Y029914D01*
X048386Y029918D01*
X048382Y029923D01*
X048378Y029928D01*
X048375Y029933D01*
X048374Y029934D01*
X048373Y029936D01*
X048372Y029939D01*
X048371Y029942D01*
X048369Y029947D01*
X048368Y029953D01*
X048367Y029958D01*
X048367Y029965D01*
Y029965D01*
Y029966D01*
Y029968D01*
X048367Y02997D01*
X048368Y029973D01*
X048368Y029976D01*
X04837Y029983D01*
X048372Y029991D01*
X048376Y03D01*
X048379Y030004D01*
X048383Y030009D01*
X048386Y030013D01*
X04839Y030017D01*
X04839Y030018D01*
X048391Y030018D01*
X048392Y030019D01*
X048394Y030021D01*
X048396Y030022D01*
X048399Y030024D01*
X048403Y030026D01*
X048406Y030029D01*
X048415Y030033D01*
X048425Y030036D01*
X048436Y030039D01*
X048443Y030039D01*
X048449Y03004D01*
X048453D01*
X048458Y030039D01*
X048464Y030038D01*
X048471Y030037D01*
X048479Y030035D01*
X048488Y030032D01*
X048497Y030028D01*
X048497D01*
X048499Y030027D01*
X048501Y030027D01*
X048504Y030026D01*
X048509Y030024D01*
X048511Y030024D01*
X048514Y030023D01*
X048514D01*
X048517Y030024D01*
X04852Y030025D01*
X048522Y030026D01*
X048523Y030027D01*
X048524Y030028D01*
X048525Y030029D01*
X048525Y030031D01*
X048526Y030033D01*
X048527Y030036D01*
X048528Y03004D01*
X048536D01*
Y029942D01*
D02*
G37*
G36*
X04884Y029944D02*
X048833D01*
Y029944D01*
X048833Y029946D01*
X048832Y029948D01*
X048831Y029951D01*
X04883Y029954D01*
X048828Y029958D01*
X048824Y029967D01*
X048819Y029978D01*
X048813Y029988D01*
X048805Y029998D01*
X048801Y030001D01*
X048796Y030005D01*
X048796Y030006D01*
X048795Y030006D01*
X048794Y030007D01*
X048792Y030008D01*
X04879Y03001D01*
X048787Y030012D01*
X048781Y030015D01*
X048772Y030019D01*
X048762Y030022D01*
X048751Y030024D01*
X048746Y030025D01*
X048735D01*
X048733Y030024D01*
X048729Y030024D01*
X048723Y030023D01*
X048715Y030021D01*
X048706Y030019D01*
X048698Y030015D01*
X048689Y03001D01*
X048688D01*
X048688Y030009D01*
X048685Y030008D01*
X048681Y030004D01*
X048676Y029999D01*
X04867Y029993D01*
X048664Y029985D01*
X048659Y029975D01*
X048653Y029964D01*
Y029964D01*
X048653Y029963D01*
X048652Y029961D01*
X048652Y029959D01*
X04865Y029956D01*
X04865Y029952D01*
X048648Y029948D01*
X048647Y029943D01*
X048646Y029938D01*
X048645Y029932D01*
X048644Y029925D01*
X048643Y029918D01*
X048642Y029911D01*
X048641Y029904D01*
X048641Y029887D01*
Y029887D01*
Y029885D01*
Y029883D01*
Y02988D01*
X048641Y029877D01*
Y029873D01*
X048642Y029869D01*
X048642Y029864D01*
X048644Y029854D01*
X048646Y029842D01*
X048649Y029831D01*
X048653Y02982D01*
Y02982D01*
X048653Y029819D01*
X048654Y029818D01*
X048655Y029816D01*
X048658Y029811D01*
X048662Y029804D01*
X048667Y029797D01*
X048673Y02979D01*
X048681Y029783D01*
X048689Y029777D01*
X04869D01*
X048691Y029777D01*
X048692Y029776D01*
X048694Y029775D01*
X048696Y029774D01*
X048699Y029773D01*
X048706Y02977D01*
X048714Y029767D01*
X048724Y029765D01*
X048734Y029763D01*
X048746Y029762D01*
X04875D01*
X048753Y029763D01*
X048755D01*
X048762Y029764D01*
X04877Y029765D01*
X048778Y029767D01*
X048786Y02977D01*
X048794Y029774D01*
X048794D01*
X048795Y029774D01*
X048796Y029775D01*
X048797Y029776D01*
X048802Y029779D01*
X048807Y029784D01*
X048811Y029787D01*
X048814Y02979D01*
X048818Y029794D01*
X048822Y029799D01*
X048826Y029804D01*
X048831Y029809D01*
X048835Y029814D01*
X04884Y029821D01*
X048847Y029817D01*
X048846Y029816D01*
X048846Y029815D01*
X048844Y029813D01*
X048843Y029811D01*
X048841Y029807D01*
X048838Y029804D01*
X048832Y029796D01*
X048825Y029786D01*
X048816Y029777D01*
X048807Y029769D01*
X048802Y029765D01*
X048797Y029761D01*
X048796D01*
X048795Y02976D01*
X048794Y029759D01*
X048792Y029759D01*
X048789Y029757D01*
X048786Y029756D01*
X048782Y029754D01*
X048778Y029753D01*
X048773Y029751D01*
X048768Y029749D01*
X048757Y029747D01*
X048744Y029745D01*
X04873Y029744D01*
X048727D01*
X048723Y029745D01*
X048719Y029745D01*
X048712Y029746D01*
X048706Y029747D01*
X048698Y029748D01*
X04869Y029751D01*
X048681Y029753D01*
X048673Y029757D01*
X048664Y029761D01*
X048655Y029766D01*
X048646Y029772D01*
X048637Y029779D01*
X048629Y029787D01*
X048622Y029796D01*
X048621Y029797D01*
X04862Y029798D01*
X048619Y0298D01*
X048617Y029803D01*
X048615Y029807D01*
X048612Y029811D01*
X04861Y029816D01*
X048608Y029822D01*
X048604Y029828D01*
X048602Y029835D01*
X0486Y029843D01*
X048598Y029851D01*
X048596Y029859D01*
X048594Y029868D01*
X048594Y029877D01*
X048593Y029887D01*
Y029887D01*
Y029889D01*
Y029891D01*
X048594Y029894D01*
Y029898D01*
X048594Y029902D01*
X048595Y029907D01*
X048595Y029913D01*
X048598Y029925D01*
X048601Y029938D01*
X048606Y029951D01*
X048608Y029958D01*
X048612Y029965D01*
X048612Y029965D01*
X048613Y029967D01*
X048614Y029968D01*
X048615Y02997D01*
X048617Y029974D01*
X04862Y029977D01*
X048625Y029985D01*
X048633Y029994D01*
X048642Y030003D01*
X048652Y030012D01*
X048663Y03002D01*
X048664Y03002D01*
X048665Y030021D01*
X048667Y030022D01*
X048669Y030023D01*
X048672Y030024D01*
X048676Y030026D01*
X04868Y030028D01*
X048685Y03003D01*
X04869Y030032D01*
X048696Y030033D01*
X048708Y030036D01*
X048721Y030039D01*
X048729Y03004D01*
X048739D01*
X048741Y030039D01*
X048743D01*
X048747Y030039D01*
X048754Y030038D01*
X048764Y030036D01*
X048774Y030033D01*
X048785Y030029D01*
X048795Y030024D01*
X048796D01*
X048797Y030023D01*
X048799Y030023D01*
X0488Y030022D01*
X048805Y030021D01*
X048806Y03002D01*
X048809D01*
X048812Y03002D01*
X048815Y030022D01*
X048818Y030024D01*
X048818Y030024D01*
X048819Y030025D01*
X048819Y030026D01*
X048821Y030028D01*
X048822Y03003D01*
X048823Y030033D01*
X048825Y030036D01*
X048826Y03004D01*
X048833D01*
X04884Y029944D01*
D02*
G37*
G36*
X049136Y030025D02*
X049134D01*
X049132Y030025D01*
X04913D01*
X049125Y030024D01*
X049119Y030022D01*
X049118D01*
X049118Y030022D01*
X049116Y030021D01*
X049114Y03002D01*
X049111Y030019D01*
X049108Y030017D01*
X0491Y030013D01*
X0491Y030013D01*
X049099Y030012D01*
X049097Y030011D01*
X049093Y030008D01*
X04909Y030005D01*
X049085Y030001D01*
X04908Y029998D01*
X049074Y029992D01*
X049074Y029992D01*
X049073Y029991D01*
X049071Y029989D01*
X049069Y029987D01*
X049067Y029985D01*
X049065Y029983D01*
X049062Y02998D01*
X049059Y029977D01*
X049054Y029973D01*
X04905Y029968D01*
X049045Y029963D01*
X049038Y029956D01*
X049032Y02995D01*
X048989Y029908D01*
X049093Y029804D01*
X049093Y029804D01*
X049094Y029803D01*
X049096Y029802D01*
X049097Y0298D01*
X049102Y029796D01*
X049108Y02979D01*
X049115Y029784D01*
X049122Y029778D01*
X049129Y029773D01*
X049136Y029769D01*
X049137Y029768D01*
X049139Y029767D01*
X049143Y029766D01*
X049148Y029764D01*
X049153Y029762D01*
X049159Y02976D01*
X049166Y029759D01*
X049173Y029759D01*
Y029751D01*
X049038D01*
Y029759D01*
X04904D01*
X049042Y029759D01*
X049045D01*
X049051Y02976D01*
X049053Y029761D01*
X049055Y029762D01*
X049056D01*
X049056Y029763D01*
X049059Y029765D01*
X04906Y029768D01*
X049061Y02977D01*
X049061Y029772D01*
Y029772D01*
Y029773D01*
X049061Y029775D01*
X04906Y029777D01*
X049059Y02978D01*
X049059Y029781D01*
X049058Y029782D01*
X049056Y029784D01*
X049055Y029786D01*
X049052Y029788D01*
X049049Y029791D01*
X049046Y029795D01*
X048949Y029892D01*
Y0298D01*
Y0298D01*
Y0298D01*
Y029797D01*
Y029793D01*
X048949Y029789D01*
Y029784D01*
X04895Y029779D01*
X048951Y029775D01*
X048951Y029772D01*
X048952Y029771D01*
X048953Y029769D01*
X048956Y029766D01*
X04896Y029763D01*
X048961D01*
X048962Y029762D01*
X048964Y029762D01*
X048966Y029761D01*
X048969Y02976D01*
X048972Y029759D01*
X048976Y029759D01*
X048979Y029759D01*
X048989D01*
Y029751D01*
X048869D01*
Y029759D01*
X048882D01*
X048885Y029759D01*
X048888Y02976D01*
X048892Y029761D01*
X048896Y029763D01*
X0489Y029765D01*
X048904Y029769D01*
X048904Y029769D01*
X048905Y02977D01*
X048906Y029772D01*
X048906Y029775D01*
X048907Y029779D01*
X048908Y029785D01*
X048909Y029792D01*
Y029796D01*
Y0298D01*
Y029983D01*
Y029984D01*
Y029984D01*
Y029987D01*
Y02999D01*
X048909Y029994D01*
X048908Y029999D01*
X048908Y030004D01*
X048907Y030008D01*
X048906Y030011D01*
Y030012D01*
X048906Y030012D01*
X048904Y030014D01*
X048902Y030017D01*
X0489Y030019D01*
X048898Y03002D01*
X048897Y03002D01*
X048896Y030021D01*
X048894Y030022D01*
X048892Y030022D01*
X048889Y030023D01*
X048886Y030024D01*
X048882Y030025D01*
X048869D01*
Y030033D01*
X048989D01*
Y030025D01*
X048977D01*
X048976Y030025D01*
X048973D01*
X048967Y030023D01*
X048964Y030022D01*
X04896Y03002D01*
X04896D01*
X048959Y03002D01*
X048957Y030018D01*
X048954Y030015D01*
X048951Y03001D01*
Y03001D01*
X048951Y030009D01*
X04895Y030007D01*
Y030005D01*
X04895Y030001D01*
X048949Y029996D01*
X048949Y02999D01*
Y029983D01*
Y029897D01*
X048949Y029897D01*
X04895Y029897D01*
X048951Y029899D01*
X048954Y029901D01*
X048958Y029905D01*
X048962Y029909D01*
X048969Y029915D01*
X048973Y029919D01*
X048977Y029923D01*
X048978Y029923D01*
X04898Y029925D01*
X048983Y029928D01*
X048987Y029932D01*
X048992Y029936D01*
X048997Y029942D01*
X049003Y029947D01*
X04901Y029953D01*
X049023Y029966D01*
X049029Y029972D01*
X049035Y029978D01*
X04904Y029984D01*
X049045Y02999D01*
X049049Y029994D01*
X049052Y029998D01*
X049052Y029999D01*
X049053Y03D01*
X049054Y030001D01*
X049055Y030003D01*
X049056Y030008D01*
X049057Y030011D01*
Y030013D01*
Y030013D01*
Y030014D01*
X049057Y030016D01*
X049055Y030019D01*
X049053Y030021D01*
X049052Y030022D01*
X049051Y030022D01*
X049049Y030023D01*
X049048Y030024D01*
X049045Y030025D01*
X049042Y030025D01*
X049032D01*
Y030033D01*
X049136D01*
Y030025D01*
D02*
G37*
G36*
X049125Y028879D02*
X049117D01*
Y028879D01*
Y02888D01*
X049117Y028882D01*
X049117Y028884D01*
X049116Y028889D01*
X049114Y028895D01*
X049113Y028902D01*
X04911Y02891D01*
X049107Y028917D01*
X049104Y028924D01*
X049103Y028925D01*
X049102Y028926D01*
X0491Y028929D01*
X049097Y028933D01*
X049093Y028937D01*
X049088Y028942D01*
X049083Y028946D01*
X049076Y02895D01*
X049076Y02895D01*
X049073Y028952D01*
X04907Y028953D01*
X049065Y028955D01*
X049059Y028957D01*
X049053Y028958D01*
X049046Y028959D01*
X049039Y02896D01*
X049036D01*
X049032Y028959D01*
X049027Y028958D01*
X049021Y028956D01*
X049015Y028954D01*
X049009Y028951D01*
X049003Y028946D01*
X049003Y028946D01*
X049001Y028944D01*
X048999Y028941D01*
X048996Y028938D01*
X048994Y028933D01*
X048992Y028928D01*
X04899Y028922D01*
X048989Y028916D01*
Y028916D01*
Y028914D01*
X04899Y028912D01*
X048991Y028908D01*
X048992Y028905D01*
X048993Y028901D01*
X048995Y028897D01*
X048998Y028893D01*
X048999Y028892D01*
X049Y028891D01*
X049001Y02889D01*
X049003Y028888D01*
X049005Y028886D01*
X049008Y028884D01*
X049011Y028882D01*
X049015Y028879D01*
X049019Y028876D01*
X049024Y028873D01*
X04903Y028869D01*
X049036Y028865D01*
X049043Y02886D01*
X049051Y028856D01*
X04906Y028851D01*
X04906Y028851D01*
X049062Y02885D01*
X049064Y028849D01*
X049066Y028848D01*
X049069Y028846D01*
X049073Y028844D01*
X049081Y028839D01*
X04909Y028834D01*
X049099Y028828D01*
X049107Y028823D01*
X04911Y028821D01*
X049114Y028818D01*
X049114Y028818D01*
X049116Y028816D01*
X049119Y028814D01*
X049122Y028811D01*
X049126Y028807D01*
X049129Y028802D01*
X049133Y028797D01*
X049136Y028792D01*
X049137Y028791D01*
X049138Y028789D01*
X049139Y028786D01*
X04914Y028782D01*
X049142Y028777D01*
X049143Y028772D01*
X049144Y028765D01*
X049144Y028759D01*
Y028759D01*
Y028758D01*
Y028756D01*
X049144Y028754D01*
X049143Y028751D01*
X049143Y028748D01*
X049141Y028741D01*
X049138Y028732D01*
X049136Y028727D01*
X049134Y028723D01*
X049131Y028718D01*
X049128Y028713D01*
X049124Y028709D01*
X049119Y028704D01*
X049119Y028704D01*
X049118Y028703D01*
X049117Y028702D01*
X049115Y028701D01*
X049112Y028699D01*
X049109Y028697D01*
X049106Y028695D01*
X049102Y028693D01*
X049097Y028691D01*
X049093Y028689D01*
X049082Y028685D01*
X049069Y028682D01*
X049062Y028682D01*
X049055Y028681D01*
X049051D01*
X049048Y028682D01*
X049044D01*
X04904Y028682D01*
X049032Y028683D01*
X049031D01*
X049031Y028684D01*
X049029D01*
X049026Y028685D01*
X049023Y028685D01*
X049018Y028687D01*
X049012Y028689D01*
X049005Y028691D01*
X049004Y028691D01*
X049002Y028692D01*
X048999Y028693D01*
X048995Y028694D01*
X04899Y028695D01*
X048986Y028696D01*
X048982Y028697D01*
X04898Y028697D01*
X048979D01*
X048977Y028697D01*
X048974Y028696D01*
X048972Y028694D01*
X048971Y028693D01*
X048971Y028692D01*
X04897Y028691D01*
X048969Y028689D01*
X048968Y028687D01*
X048968Y028685D01*
X048967Y028681D01*
X048959D01*
Y028778D01*
X048967D01*
Y028777D01*
X048968Y028776D01*
Y028775D01*
X048968Y028773D01*
X048968Y02877D01*
X048969Y028767D01*
X048971Y028761D01*
X048973Y028753D01*
X048975Y028745D01*
X048979Y028738D01*
X048982Y028732D01*
X048982Y028731D01*
X048983Y028729D01*
X048986Y028727D01*
X048989Y028723D01*
X048993Y028719D01*
X048997Y028715D01*
X049003Y028711D01*
X04901Y028707D01*
X04901D01*
X04901Y028706D01*
X049013Y028706D01*
X049017Y028704D01*
X049022Y028702D01*
X049028Y0287D01*
X049035Y028699D01*
X049042Y028698D01*
X049051Y028697D01*
X049053D01*
X049055Y028698D01*
X04906Y028698D01*
X049065Y028699D01*
X049072Y028701D01*
X049079Y028703D01*
X049086Y028706D01*
X049092Y028711D01*
X049093Y028711D01*
X049094Y028713D01*
X049097Y028716D01*
X0491Y02872D01*
X049102Y028725D01*
X049105Y02873D01*
X049107Y028737D01*
X049107Y028744D01*
Y028744D01*
Y028745D01*
X049107Y028748D01*
X049106Y02875D01*
X049106Y028753D01*
X049104Y028757D01*
X049103Y028761D01*
X049101Y028765D01*
X0491Y028765D01*
X0491Y028766D01*
X049098Y028768D01*
X049097Y028771D01*
X049094Y028774D01*
X049091Y028777D01*
X049088Y028781D01*
X049083Y028784D01*
X049083Y028785D01*
X049082Y028786D01*
X049079Y028787D01*
X049075Y02879D01*
X049072Y028792D01*
X049069Y028794D01*
X049065Y028796D01*
X049061Y028798D01*
X049056Y028801D01*
X049051Y028804D01*
X049045Y028807D01*
X049039Y028811D01*
X049038Y028811D01*
X049037Y028812D01*
X049035Y028813D01*
X049033Y028814D01*
X04903Y028816D01*
X049027Y028818D01*
X049019Y028823D01*
X04901Y028828D01*
X049002Y028833D01*
X048994Y028838D01*
X04899Y028841D01*
X048987Y028843D01*
X048986Y028844D01*
X048985Y028845D01*
X048982Y028848D01*
X048979Y028851D01*
X048975Y028855D01*
X048971Y02886D01*
X048967Y028865D01*
X048964Y02887D01*
X048964Y028871D01*
X048963Y028873D01*
X048961Y028876D01*
X04896Y028879D01*
X048959Y028884D01*
X048958Y02889D01*
X048957Y028895D01*
X048956Y028902D01*
Y028902D01*
Y028903D01*
Y028905D01*
X048957Y028907D01*
X048957Y02891D01*
X048958Y028913D01*
X048959Y02892D01*
X048962Y028928D01*
X048966Y028937D01*
X048968Y028941D01*
X048972Y028946D01*
X048975Y02895D01*
X048979Y028954D01*
X04898Y028955D01*
X04898Y028955D01*
X048982Y028956D01*
X048984Y028958D01*
X048986Y028959D01*
X048989Y028961D01*
X048992Y028963D01*
X048996Y028966D01*
X049004Y02897D01*
X049014Y028973D01*
X049026Y028976D01*
X049032Y028976D01*
X049039Y028977D01*
X049043D01*
X049047Y028976D01*
X049053Y028975D01*
X04906Y028974D01*
X049069Y028972D01*
X049077Y028969D01*
X049086Y028965D01*
X049087D01*
X049088Y028964D01*
X04909Y028964D01*
X049093Y028963D01*
X049098Y028961D01*
X049101Y028961D01*
X049103Y02896D01*
X049104D01*
X049106Y028961D01*
X049109Y028962D01*
X049112Y028963D01*
X049112Y028964D01*
X049113Y028965D01*
X049114Y028966D01*
X049115Y028968D01*
X049116Y02897D01*
X049117Y028973D01*
X049117Y028977D01*
X049125D01*
Y028879D01*
D02*
G37*
G36*
X048779Y028962D02*
X048766D01*
X048763Y028962D01*
X048759Y028961D01*
X048755Y028959D01*
X04875Y028957D01*
X048746Y028955D01*
X048743Y028951D01*
Y028951D01*
X048743Y02895D01*
X048742Y028948D01*
X048741Y028945D01*
X04874Y028941D01*
X04874Y028936D01*
X048739Y028929D01*
Y028921D01*
Y028737D01*
Y028736D01*
Y028735D01*
Y028734D01*
Y028732D01*
X048739Y028728D01*
X04874Y028723D01*
X04874Y028717D01*
X048742Y028712D01*
X048743Y028707D01*
X048744Y028705D01*
X048745Y028704D01*
X048745Y028703D01*
X048746Y028703D01*
X048748Y028701D01*
X048751Y0287D01*
X048754Y028698D01*
X048758Y028697D01*
X048764Y028696D01*
X048769Y028696D01*
X048779D01*
Y028688D01*
X048659D01*
Y028696D01*
X048672D01*
X048675Y028696D01*
X048679Y028697D01*
X048683Y028698D01*
X048687Y0287D01*
X048691Y028703D01*
X048694Y028706D01*
X048695Y028706D01*
X048695Y028707D01*
X048696Y02871D01*
X048697Y028712D01*
X048698Y028716D01*
X048698Y028722D01*
X048699Y028728D01*
Y028737D01*
Y028925D01*
X04859Y028688D01*
X048583D01*
X048475Y028925D01*
Y028737D01*
Y028736D01*
Y028735D01*
Y028734D01*
Y028732D01*
X048475Y028728D01*
X048476Y028723D01*
X048476Y028717D01*
X048477Y028712D01*
X048478Y028707D01*
X048479Y028705D01*
X04848Y028704D01*
X04848Y028703D01*
X048481Y028703D01*
X048483Y028701D01*
X048486Y0287D01*
X04849Y028698D01*
X048494Y028697D01*
X048499Y028696D01*
X048505Y028696D01*
X048515D01*
Y028688D01*
X048416D01*
Y028696D01*
X048429D01*
X048432Y028696D01*
X048436Y028697D01*
X04844Y028698D01*
X048445Y0287D01*
X048448Y028703D01*
X048451Y028706D01*
X048452Y028706D01*
X048452Y028707D01*
X048453Y02871D01*
X048454Y028712D01*
X048455Y028716D01*
X048455Y028722D01*
X048456Y028728D01*
Y028737D01*
Y028921D01*
Y028922D01*
Y028924D01*
Y028927D01*
X048456Y028931D01*
X048455Y02894D01*
X048453Y028944D01*
X048452Y028948D01*
Y028948D01*
X048451Y028949D01*
X048449Y028951D01*
X048446Y028955D01*
X048444Y028956D01*
X048441Y028958D01*
X048441D01*
X04844Y028959D01*
X048438Y028959D01*
X048435Y02896D01*
X048431Y028961D01*
X048427Y028961D01*
X048422Y028962D01*
X048416D01*
Y02897D01*
X048497D01*
X048598Y028749D01*
X048699Y02897D01*
X048779D01*
Y028962D01*
D02*
G37*
G36*
X048919D02*
X048906D01*
X048903Y028962D01*
X048899Y028961D01*
X048895Y028959D01*
X048891Y028958D01*
X048887Y028955D01*
X048884Y028952D01*
Y028951D01*
X048883Y02895D01*
X048882Y028948D01*
X048882Y028945D01*
X048881Y028941D01*
X04888Y028935D01*
X048879Y028928D01*
X048879Y02892D01*
Y028737D01*
Y028737D01*
Y028737D01*
Y028734D01*
Y02873D01*
X048879Y028726D01*
Y028721D01*
X04888Y028716D01*
X048881Y028712D01*
X048882Y028709D01*
X048882Y028708D01*
X048883Y028706D01*
X048886Y028703D01*
X048888Y028702D01*
X04889Y0287D01*
X04889D01*
X048892Y028699D01*
X048893Y028699D01*
X048895Y028698D01*
X048899Y028697D01*
X048902Y028696D01*
X048905Y028696D01*
X048909Y028696D01*
X048919D01*
Y028688D01*
X048799D01*
Y028696D01*
X048812D01*
X048815Y028696D01*
X048818Y028697D01*
X048823Y028698D01*
X048826Y0287D01*
X04883Y028702D01*
X048834Y028706D01*
X048834Y028706D01*
X048835Y028707D01*
X048836Y028709D01*
X048836Y028712D01*
X048837Y028716D01*
X048838Y028722D01*
X048839Y028729D01*
Y028733D01*
Y028737D01*
Y02892D01*
Y028921D01*
Y028921D01*
Y028924D01*
Y028927D01*
X048839Y028932D01*
X048838Y028936D01*
X048838Y028941D01*
X048837Y028945D01*
X048836Y028948D01*
Y028949D01*
X048836Y028949D01*
X048834Y028951D01*
X048832Y028954D01*
X04883Y028956D01*
X048828Y028957D01*
X048827Y028957D01*
X048826Y028958D01*
X048824Y028959D01*
X048822Y028959D01*
X048819Y02896D01*
X048816Y028961D01*
X048812Y028962D01*
X048799D01*
Y02897D01*
X048919D01*
Y028962D01*
D02*
G37*
G36*
X049328Y028976D02*
X049332D01*
X049336Y028975D01*
X049342Y028974D01*
X049348Y028973D01*
X049355Y028971D01*
X049362Y028969D01*
X04937Y028966D01*
X049377Y028963D01*
X049385Y028959D01*
X049394Y028954D01*
X049402Y028949D01*
X049409Y028942D01*
X049417Y028935D01*
X049418Y028934D01*
X049419Y028933D01*
X049421Y02893D01*
X049424Y028927D01*
X049427Y028923D01*
X04943Y028918D01*
X049434Y028912D01*
X049438Y028906D01*
X049441Y028899D01*
X049445Y02889D01*
X049448Y028882D01*
X049452Y028873D01*
X049454Y028863D01*
X049456Y028852D01*
X049457Y028841D01*
X049458Y02883D01*
Y028829D01*
Y028828D01*
X049457Y028824D01*
Y02882D01*
X049457Y028814D01*
X049456Y028807D01*
X049454Y0288D01*
X049453Y028793D01*
X04945Y028785D01*
X049448Y028776D01*
X049445Y028767D01*
X049441Y028758D01*
X049436Y028749D01*
X049431Y02874D01*
X049424Y028732D01*
X049417Y028723D01*
X049417Y028723D01*
X049416Y028722D01*
X049413Y02872D01*
X04941Y028717D01*
X049406Y028714D01*
X049402Y02871D01*
X049396Y028706D01*
X04939Y028703D01*
X049383Y028698D01*
X049375Y028695D01*
X049367Y028691D01*
X049359Y028688D01*
X04935Y028685D01*
X04934Y028683D01*
X049329Y028682D01*
X049319Y028681D01*
X049316D01*
X049313Y028682D01*
X049309Y028682D01*
X049304Y028682D01*
X049298Y028683D01*
X049292Y028685D01*
X049285Y028686D01*
X049277Y028689D01*
X04927Y028691D01*
X049261Y028695D01*
X049253Y028699D01*
X049245Y028703D01*
X049237Y028709D01*
X049229Y028715D01*
X049221Y028722D01*
X049221Y028723D01*
X049219Y028724D01*
X049218Y028727D01*
X049215Y02873D01*
X049212Y028734D01*
X049209Y028739D01*
X049205Y028744D01*
X049201Y028751D01*
X049198Y028758D01*
X049194Y028767D01*
X049191Y028775D01*
X049188Y028785D01*
X049185Y028795D01*
X049183Y028806D01*
X049182Y028817D01*
X049182Y02883D01*
Y028831D01*
Y028833D01*
X049182Y028836D01*
X049183Y028841D01*
X049183Y028847D01*
X049184Y028853D01*
X049186Y028861D01*
X049187Y028869D01*
X04919Y028877D01*
X049193Y028886D01*
X049197Y028895D01*
X049201Y028904D01*
X049206Y028914D01*
X049212Y028922D01*
X049219Y028931D01*
X049227Y028939D01*
X049228Y02894D01*
X049229Y028941D01*
X049231Y028943D01*
X049234Y028945D01*
X049238Y028948D01*
X049243Y028951D01*
X049248Y028955D01*
X049254Y028958D01*
X049261Y028961D01*
X049268Y028965D01*
X049276Y028968D01*
X049284Y028971D01*
X049293Y028973D01*
X049302Y028975D01*
X049312Y028976D01*
X049322Y028977D01*
X049325D01*
X049328Y028976D01*
D02*
G37*
G36*
X049278Y027954D02*
X04927D01*
Y027954D01*
Y027955D01*
X04927Y027956D01*
X04927Y027959D01*
X049269Y027963D01*
X049267Y02797D01*
X049266Y027977D01*
X049263Y027984D01*
X04926Y027992D01*
X049257Y027998D01*
X049256Y027999D01*
X049255Y028001D01*
X049253Y028004D01*
X04925Y028008D01*
X049246Y028012D01*
X049241Y028016D01*
X049236Y028021D01*
X049229Y028025D01*
X049228Y028025D01*
X049226Y028026D01*
X049223Y028028D01*
X049218Y02803D01*
X049212Y028032D01*
X049206Y028033D01*
X049199Y028034D01*
X049192Y028035D01*
X049189D01*
X049185Y028034D01*
X04918Y028033D01*
X049174Y028031D01*
X049168Y028029D01*
X049162Y028026D01*
X049156Y028021D01*
X049156Y028021D01*
X049154Y028019D01*
X049152Y028016D01*
X049149Y028012D01*
X049147Y028008D01*
X049145Y028003D01*
X049143Y027997D01*
X049142Y027991D01*
Y027991D01*
Y027989D01*
X049143Y027987D01*
X049144Y027983D01*
X049145Y02798D01*
X049146Y027976D01*
X049148Y027972D01*
X049151Y027967D01*
X049152Y027967D01*
X049153Y027966D01*
X049154Y027965D01*
X049156Y027963D01*
X049158Y027961D01*
X049161Y027959D01*
X049164Y027956D01*
X049168Y027954D01*
X049172Y02795D01*
X049177Y027947D01*
X049183Y027943D01*
X049189Y027939D01*
X049196Y027935D01*
X049204Y027931D01*
X049213Y027926D01*
X049213Y027925D01*
X049214Y027925D01*
X049217Y027924D01*
X049219Y027922D01*
X049222Y027921D01*
X049226Y027918D01*
X049234Y027914D01*
X049243Y027908D01*
X049252Y027903D01*
X04926Y027898D01*
X049263Y027895D01*
X049267Y027893D01*
X049267Y027893D01*
X049269Y027891D01*
X049272Y027889D01*
X049275Y027886D01*
X049279Y027882D01*
X049282Y027877D01*
X049286Y027872D01*
X049289Y027866D01*
X04929Y027866D01*
X049291Y027864D01*
X049292Y027861D01*
X049293Y027857D01*
X049294Y027852D01*
X049296Y027846D01*
X049297Y02784D01*
X049297Y027834D01*
Y027834D01*
Y027833D01*
Y027831D01*
X049297Y027829D01*
X049296Y027826D01*
X049296Y027823D01*
X049294Y027815D01*
X049291Y027807D01*
X049289Y027802D01*
X049287Y027797D01*
X049284Y027793D01*
X04928Y027788D01*
X049277Y027783D01*
X049272Y027779D01*
X049272Y027779D01*
X049271Y027778D01*
X04927Y027777D01*
X049268Y027776D01*
X049265Y027774D01*
X049262Y027772D01*
X049259Y027769D01*
X049255Y027768D01*
X04925Y027766D01*
X049246Y027763D01*
X049235Y027759D01*
X049222Y027757D01*
X049215Y027756D01*
X049208Y027756D01*
X049204D01*
X049201Y027756D01*
X049197D01*
X049193Y027757D01*
X049185Y027758D01*
X049184D01*
X049183Y027759D01*
X049182D01*
X049179Y027759D01*
X049176Y02776D01*
X049171Y027762D01*
X049165Y027763D01*
X049158Y027766D01*
X049157Y027766D01*
X049155Y027766D01*
X049152Y027768D01*
X049148Y027769D01*
X049143Y02777D01*
X049139Y027771D01*
X049135Y027772D01*
X049133Y027772D01*
X049132D01*
X04913Y027772D01*
X049127Y027771D01*
X049124Y027769D01*
X049124Y027768D01*
X049124Y027767D01*
X049123Y027766D01*
X049122Y027764D01*
X049121Y027762D01*
X049121Y027759D01*
X04912Y027756D01*
X049112D01*
Y027852D01*
X04912D01*
Y027852D01*
X049121Y027851D01*
Y027849D01*
X049121Y027848D01*
X049121Y027845D01*
X049122Y027842D01*
X049124Y027835D01*
X049126Y027828D01*
X049128Y02782D01*
X049131Y027813D01*
X049135Y027807D01*
X049135Y027806D01*
X049136Y027804D01*
X049138Y027801D01*
X049142Y027798D01*
X049145Y027794D01*
X04915Y02779D01*
X049156Y027786D01*
X049162Y027782D01*
X049163D01*
X049163Y027781D01*
X049166Y02778D01*
X049169Y027779D01*
X049175Y027777D01*
X049181Y027775D01*
X049188Y027773D01*
X049195Y027773D01*
X049204Y027772D01*
X049206D01*
X049208Y027773D01*
X049213Y027773D01*
X049218Y027774D01*
X049225Y027776D01*
X049232Y027778D01*
X049239Y027781D01*
X049245Y027786D01*
X049246Y027786D01*
X049247Y027788D01*
X049249Y027791D01*
X049253Y027795D01*
X049255Y0278D01*
X049258Y027805D01*
X04926Y027811D01*
X04926Y027818D01*
Y027819D01*
Y02782D01*
X04926Y027822D01*
X049259Y027825D01*
X049259Y027828D01*
X049257Y027832D01*
X049256Y027835D01*
X049254Y027839D01*
X049253Y02784D01*
X049253Y027841D01*
X049251Y027843D01*
X049249Y027846D01*
X049247Y027849D01*
X049244Y027852D01*
X049241Y027856D01*
X049236Y027859D01*
X049236Y027859D01*
X049235Y02786D01*
X049232Y027862D01*
X049228Y027865D01*
X049225Y027866D01*
X049222Y027869D01*
X049218Y027871D01*
X049214Y027873D01*
X049209Y027876D01*
X049204Y027879D01*
X049198Y027882D01*
X049192Y027886D01*
X049191Y027886D01*
X04919Y027887D01*
X049188Y027887D01*
X049186Y027889D01*
X049183Y027891D01*
X04918Y027893D01*
X049172Y027897D01*
X049163Y027902D01*
X049155Y027908D01*
X049147Y027913D01*
X049143Y027916D01*
X04914Y027918D01*
X049139Y027918D01*
X049138Y02792D01*
X049135Y027923D01*
X049131Y027926D01*
X049128Y02793D01*
X049124Y027935D01*
X04912Y027939D01*
X049117Y027945D01*
X049117Y027946D01*
X049116Y027947D01*
X049114Y02795D01*
X049113Y027954D01*
X049112Y027959D01*
X04911Y027964D01*
X04911Y02797D01*
X049109Y027977D01*
Y027977D01*
Y027978D01*
Y02798D01*
X04911Y027982D01*
X04911Y027984D01*
X04911Y027988D01*
X049112Y027995D01*
X049115Y028003D01*
X049119Y028012D01*
X049121Y028016D01*
X049125Y028021D01*
X049128Y028025D01*
X049132Y028029D01*
X049133Y028029D01*
X049133Y02803D01*
X049135Y028031D01*
X049137Y028033D01*
X049139Y028034D01*
X049142Y028036D01*
X049145Y028038D01*
X049149Y02804D01*
X049157Y028044D01*
X049167Y028048D01*
X049179Y02805D01*
X049185Y028051D01*
X049192Y028051D01*
X049196D01*
X0492Y028051D01*
X049206Y02805D01*
X049213Y028049D01*
X049221Y028047D01*
X04923Y028044D01*
X049239Y02804D01*
X04924D01*
X049241Y028039D01*
X049243Y028039D01*
X049246Y028038D01*
X049251Y028036D01*
X049254Y028036D01*
X049256Y028035D01*
X049257D01*
X049259Y028036D01*
X049262Y028036D01*
X049265Y028038D01*
X049265Y028039D01*
X049266Y02804D01*
X049267Y028041D01*
X049268Y028043D01*
X049269Y028045D01*
X04927Y028048D01*
X04927Y028051D01*
X049278D01*
Y027954D01*
D02*
G37*
G36*
X048767Y028037D02*
X048753D01*
X04875Y028036D01*
X048746Y028036D01*
X048742Y028034D01*
X048738Y028032D01*
X048734Y028029D01*
X048731Y028026D01*
Y028026D01*
X04873Y028025D01*
X048729Y028022D01*
X048729Y02802D01*
X048728Y028016D01*
X048727Y028011D01*
X048726Y028004D01*
Y027996D01*
Y027811D01*
Y027811D01*
Y02781D01*
Y027809D01*
Y027807D01*
X048727Y027803D01*
X048727Y027797D01*
X048728Y027792D01*
X048729Y027787D01*
X04873Y027782D01*
X048731Y02778D01*
X048732Y027779D01*
X048732Y027778D01*
X048733Y027777D01*
X048736Y027776D01*
X048738Y027775D01*
X048742Y027773D01*
X048746Y027772D01*
X048751Y027771D01*
X048757Y02777D01*
X048767D01*
Y027762D01*
X048646D01*
Y02777D01*
X04866D01*
X048663Y027771D01*
X048667Y027772D01*
X04867Y027773D01*
X048675Y027775D01*
X048679Y027777D01*
X048682Y027781D01*
X048682Y027781D01*
X048683Y027782D01*
X048684Y027784D01*
X048684Y027787D01*
X048685Y027791D01*
X048686Y027797D01*
X048687Y027803D01*
Y027811D01*
Y028D01*
X048578Y027762D01*
X048571D01*
X048462Y028D01*
Y027811D01*
Y027811D01*
Y02781D01*
Y027809D01*
Y027807D01*
X048462Y027803D01*
X048463Y027797D01*
X048463Y027792D01*
X048464Y027787D01*
X048465Y027782D01*
X048466Y02778D01*
X048467Y027779D01*
X048468Y027778D01*
X048469Y027777D01*
X048471Y027776D01*
X048473Y027775D01*
X048477Y027773D01*
X048481Y027772D01*
X048486Y027771D01*
X048492Y02777D01*
X048502D01*
Y027762D01*
X048403D01*
Y02777D01*
X048417D01*
X04842Y027771D01*
X048424Y027772D01*
X048427Y027773D01*
X048432Y027775D01*
X048436Y027777D01*
X048439Y027781D01*
X048439Y027781D01*
X04844Y027782D01*
X048441Y027784D01*
X048441Y027787D01*
X048442Y027791D01*
X048443Y027797D01*
X048444Y027803D01*
Y027811D01*
Y027996D01*
Y027997D01*
Y027999D01*
Y028002D01*
X048443Y028006D01*
X048442Y028015D01*
X048441Y028019D01*
X048439Y028022D01*
Y028023D01*
X048439Y028023D01*
X048437Y028026D01*
X048434Y028029D01*
X048431Y028031D01*
X048428Y028033D01*
X048428D01*
X048427Y028033D01*
X048425Y028034D01*
X048422Y028035D01*
X048419Y028036D01*
X048414Y028036D01*
X04841Y028037D01*
X048403D01*
Y028045D01*
X048484D01*
X048586Y027824D01*
X048687Y028045D01*
X048767D01*
Y028037D01*
D02*
G37*
G36*
X049451D02*
X049438D01*
X049435Y028036D01*
X049431Y028036D01*
X049427Y028034D01*
X049423Y028033D01*
X049419Y02803D01*
X049416Y028026D01*
Y028026D01*
X049415Y028025D01*
X049414Y028023D01*
X049413Y02802D01*
X049412Y028016D01*
X049412Y02801D01*
X049411Y028003D01*
X049411Y027995D01*
Y027812D01*
Y027812D01*
Y027811D01*
Y027809D01*
Y027805D01*
X049411Y027801D01*
Y027796D01*
X049412Y027791D01*
X049412Y027787D01*
X049413Y027784D01*
X049414Y027783D01*
X049415Y027781D01*
X049418Y027778D01*
X049419Y027776D01*
X049422Y027775D01*
X049422D01*
X049423Y027774D01*
X049425Y027774D01*
X049427Y027773D01*
X04943Y027772D01*
X049433Y027771D01*
X049437Y027771D01*
X04944Y02777D01*
X049451D01*
Y027762D01*
X049331D01*
Y02777D01*
X049343D01*
X049346Y027771D01*
X04935Y027772D01*
X049354Y027773D01*
X049358Y027775D01*
X049362Y027777D01*
X049366Y02778D01*
X049366Y027781D01*
X049367Y027782D01*
X049367Y027784D01*
X049368Y027787D01*
X049369Y027791D01*
X04937Y027797D01*
X049371Y027804D01*
Y027808D01*
Y027812D01*
Y027995D01*
Y027995D01*
Y027996D01*
Y027998D01*
Y028002D01*
X04937Y028006D01*
X04937Y028011D01*
X04937Y028015D01*
X049369Y02802D01*
X049368Y028023D01*
Y028023D01*
X049367Y028024D01*
X049366Y028026D01*
X049364Y028029D01*
X049362Y02803D01*
X04936Y028032D01*
X049359Y028032D01*
X049358Y028033D01*
X049356Y028033D01*
X049354Y028034D01*
X049351Y028035D01*
X049348Y028036D01*
X049344Y028037D01*
X049331D01*
Y028045D01*
X049451D01*
Y028037D01*
D02*
G37*
G36*
X048936Y028051D02*
X04894D01*
X048945Y02805D01*
X04895Y028049D01*
X048957Y028048D01*
X048963Y028046D01*
X048971Y028044D01*
X048978Y028041D01*
X048986Y028038D01*
X048994Y028034D01*
X049002Y028029D01*
X04901Y028023D01*
X049018Y028017D01*
X049026Y028009D01*
X049026Y028009D01*
X049027Y028008D01*
X04903Y028005D01*
X049032Y028002D01*
X049035Y027998D01*
X049038Y027993D01*
X049042Y027987D01*
X049046Y027981D01*
X04905Y027974D01*
X049054Y027965D01*
X049057Y027957D01*
X04906Y027948D01*
X049062Y027938D01*
X049065Y027927D01*
X049066Y027916D01*
X049066Y027905D01*
Y027904D01*
Y027902D01*
X049066Y027899D01*
Y027894D01*
X049065Y027889D01*
X049064Y027882D01*
X049063Y027875D01*
X049061Y027867D01*
X049059Y027859D01*
X049056Y027851D01*
X049053Y027842D01*
X049049Y027833D01*
X049044Y027824D01*
X049039Y027815D01*
X049033Y027807D01*
X049026Y027798D01*
X049025Y027798D01*
X049024Y027797D01*
X049022Y027794D01*
X049018Y027792D01*
X049014Y027789D01*
X04901Y027785D01*
X049004Y027781D01*
X048998Y027777D01*
X048991Y027773D01*
X048984Y027769D01*
X048976Y027766D01*
X048967Y027762D01*
X048958Y02776D01*
X048948Y027758D01*
X048938Y027756D01*
X048927Y027756D01*
X048925D01*
X048922Y027756D01*
X048918Y027757D01*
X048913Y027757D01*
X048907Y027758D01*
X0489Y027759D01*
X048893Y027761D01*
X048886Y027763D01*
X048878Y027766D01*
X04887Y027769D01*
X048861Y027773D01*
X048853Y027778D01*
X048845Y027783D01*
X048837Y02779D01*
X048829Y027797D01*
X048829Y027797D01*
X048828Y027799D01*
X048826Y027801D01*
X048823Y027804D01*
X04882Y027809D01*
X048817Y027814D01*
X048813Y027819D01*
X04881Y027826D01*
X048806Y027833D01*
X048803Y027842D01*
X048799Y02785D01*
X048796Y02786D01*
X048794Y02787D01*
X048792Y027881D01*
X048791Y027892D01*
X04879Y027904D01*
Y027905D01*
Y027908D01*
X048791Y027911D01*
X048791Y027916D01*
X048791Y027922D01*
X048793Y027928D01*
X048794Y027936D01*
X048796Y027943D01*
X048798Y027952D01*
X048801Y027961D01*
X048805Y02797D01*
X048809Y027979D01*
X048815Y027988D01*
X048821Y027997D01*
X048828Y028006D01*
X048836Y028014D01*
X048836Y028015D01*
X048837Y028016D01*
X04884Y028018D01*
X048843Y02802D01*
X048847Y028023D01*
X048851Y028026D01*
X048857Y028029D01*
X048862Y028033D01*
X048869Y028036D01*
X048876Y02804D01*
X048884Y028043D01*
X048892Y028046D01*
X048902Y028048D01*
X048911Y02805D01*
X048921Y028051D01*
X048931Y028051D01*
X048934D01*
X048936Y028051D01*
D02*
G37*
G36*
X046642Y024112D02*
X046652D01*
X046663Y024111D01*
X046674Y02411D01*
X046685Y024108D01*
X046696Y024106D01*
X046696D01*
X046697Y024105D01*
X046699Y024105D01*
X046702Y024104D01*
X046705Y024103D01*
X046709Y024102D01*
X046717Y024098D01*
X046727Y024094D01*
X046737Y024088D01*
X046746Y024081D01*
X046755Y024073D01*
X046756Y024072D01*
X046758Y024068D01*
X046762Y024063D01*
X046765Y024057D01*
X046769Y024049D01*
X046773Y02404D01*
X046775Y02403D01*
X046776Y024018D01*
Y024018D01*
Y024017D01*
Y024014D01*
X046775Y024009D01*
X046774Y024002D01*
X046772Y023995D01*
X046769Y023987D01*
X046765Y023979D01*
X046759Y023971D01*
X046759Y02397D01*
X046756Y023967D01*
X046753Y023963D01*
X046747Y023959D01*
X046741Y023954D01*
X046733Y023949D01*
X046723Y023944D01*
X046712Y02394D01*
X046712D01*
X046714Y023939D01*
X046715Y023939D01*
X046718Y023938D01*
X046724Y023937D01*
X046733Y023934D01*
X046741Y02393D01*
X04675Y023926D01*
X046759Y023921D01*
X046767Y023915D01*
X046767D01*
X046768Y023914D01*
X04677Y023911D01*
X046775Y023906D01*
X04678Y023899D01*
X046784Y02389D01*
X046788Y02388D01*
X046791Y023869D01*
X046792Y023863D01*
Y023856D01*
Y023856D01*
Y023855D01*
Y023852D01*
X046791Y023847D01*
X04679Y02384D01*
X046788Y023832D01*
X046785Y023824D01*
X046781Y023815D01*
X046775Y023806D01*
X046775Y023805D01*
X046773Y023802D01*
X046769Y023798D01*
X046763Y023793D01*
X046757Y023787D01*
X046749Y023781D01*
X04674Y023776D01*
X04673Y023771D01*
X046729D01*
X046729Y02377D01*
X046727Y02377D01*
X046724Y023769D01*
X046721Y023768D01*
X046718Y023767D01*
X046713Y023766D01*
X046708Y023765D01*
X046702Y023764D01*
X046696Y023763D01*
X046688Y023763D01*
X04668Y023761D01*
X046672Y023761D01*
X046662Y02376D01*
X046652Y02376D01*
X046476D01*
Y02377D01*
X046492D01*
X046496Y02377D01*
X0465Y023771D01*
X046506Y023773D01*
X04651Y023776D01*
X046515Y023779D01*
X04652Y023783D01*
X04652Y023784D01*
X046521Y023786D01*
X046522Y023788D01*
X046523Y023792D01*
X046524Y023797D01*
X046525Y023804D01*
X046526Y023812D01*
Y023822D01*
Y02405D01*
Y024051D01*
Y024052D01*
Y024054D01*
Y024056D01*
X046525Y024061D01*
X046525Y024068D01*
X046524Y024074D01*
X046522Y024081D01*
X046521Y024087D01*
X046519Y02409D01*
X046518Y024091D01*
X046518Y024092D01*
X046516Y024093D01*
X046514Y024095D01*
X04651Y024097D01*
X046507Y024099D01*
X046501Y024101D01*
X046495Y024102D01*
X046488Y024103D01*
X046476D01*
Y024113D01*
X046638D01*
X046642Y024112D01*
D02*
G37*
G36*
X038672Y020105D02*
X038671D01*
X038668Y020104D01*
X038665Y020103D01*
X038661Y020102D01*
X038652Y020098D01*
X038647Y020096D01*
X038643Y020093D01*
X038643Y020092D01*
X038641Y020091D01*
X038638Y020088D01*
X038635Y020083D01*
X038631Y020078D01*
X038628Y020071D01*
X038623Y020063D01*
X038619Y020054D01*
X038496Y019754D01*
X038487D01*
X038354Y020058D01*
Y020058D01*
X038354Y020059D01*
X038353Y020061D01*
X038351Y020065D01*
X038349Y02007D01*
X038346Y020075D01*
X038344Y02008D01*
X038342Y020084D01*
X03834Y020086D01*
X03834Y020087D01*
X038339Y020088D01*
X038336Y020091D01*
X03833Y020095D01*
X038324Y020098D01*
X038323D01*
X038322Y020099D01*
X03832Y0201D01*
X038317Y020101D01*
X038314Y020102D01*
X038309Y020103D01*
X038304Y020104D01*
X038298Y020105D01*
Y020115D01*
X038443D01*
Y020105D01*
X038442D01*
X038439Y020104D01*
X038435Y020104D01*
X03843Y020103D01*
X038424Y020102D01*
X038419Y0201D01*
X038415Y020098D01*
X038411Y020096D01*
X038411D01*
X03841Y020095D01*
X038408Y020092D01*
X038405Y020088D01*
X038405Y020084D01*
X038404Y020081D01*
Y02008D01*
Y020079D01*
X038405Y020076D01*
X038406Y020071D01*
X038407Y020065D01*
X038409Y020059D01*
X038412Y02005D01*
X038416Y020041D01*
X038506Y019834D01*
X038589Y020038D01*
Y020038D01*
X03859Y020039D01*
X03859Y020041D01*
X038591Y020043D01*
X038593Y020048D01*
X038595Y020054D01*
X038597Y020061D01*
X0386Y020068D01*
X038601Y020074D01*
X038601Y02008D01*
Y02008D01*
Y020081D01*
X0386Y020085D01*
X038598Y020089D01*
X038596Y020091D01*
X038594Y020094D01*
X038593Y020095D01*
X038592Y020095D01*
X03859Y020096D01*
X038588Y020098D01*
X038584Y0201D01*
X038579Y020101D01*
X038575Y020103D01*
X038568Y020104D01*
X038567Y020104D01*
X038566D01*
X038564Y020105D01*
Y020115D01*
X038672D01*
Y020105D01*
D02*
G37*
G36*
X037919Y019824D02*
Y019824D01*
Y019823D01*
Y019822D01*
Y019819D01*
Y019815D01*
X037919Y019809D01*
Y019802D01*
X03792Y019796D01*
X03792Y019791D01*
X037921Y019787D01*
Y019787D01*
X037922Y019786D01*
X037923Y019783D01*
X037926Y01978D01*
X037931Y019776D01*
X037932D01*
X037933Y019775D01*
X037935Y019775D01*
X037938Y019774D01*
X037942Y019773D01*
X037948Y019772D01*
X037955Y019772D01*
X037963D01*
Y019762D01*
X03783D01*
Y019772D01*
X037839D01*
X037843Y019772D01*
X037849Y019773D01*
X037854Y019774D01*
X037859Y019775D01*
X037862Y019776D01*
X037863D01*
X037863Y019776D01*
X037866Y019779D01*
X03787Y019782D01*
X037872Y019786D01*
Y019787D01*
X037873Y019788D01*
X037873Y01979D01*
X037874Y019793D01*
X037875Y019798D01*
X037875Y019805D01*
X037876Y019813D01*
Y019819D01*
Y019824D01*
Y020014D01*
Y020015D01*
Y020016D01*
Y020018D01*
Y02002D01*
Y020027D01*
X037875Y020035D01*
Y020043D01*
X037875Y020052D01*
X037874Y020058D01*
X037873Y020061D01*
X037873Y020064D01*
Y020064D01*
X037872Y020065D01*
X037871Y020068D01*
X037869Y020072D01*
X037866Y020076D01*
X037865Y020076D01*
X037863Y020078D01*
X037859Y020079D01*
X037855Y020079D01*
X037853D01*
X037851Y020079D01*
X037848Y020078D01*
X037844Y020078D01*
X03784Y020076D01*
X037834Y020074D01*
X037828Y020072D01*
X037824Y02008D01*
X03791Y020122D01*
X037919D01*
Y019824D01*
D02*
G37*
G36*
X038267Y020112D02*
X038265D01*
X038263Y020111D01*
X038261D01*
X038255Y02011D01*
X038247Y020108D01*
X038238Y020107D01*
X038228Y020104D01*
X038219Y020101D01*
X03821Y020097D01*
X038209Y020097D01*
X038207Y020096D01*
X038202Y020093D01*
X038197Y02009D01*
X03819Y020085D01*
X038183Y02008D01*
X038175Y020074D01*
X038167Y020066D01*
X038166Y020065D01*
X038164Y020062D01*
X03816Y020059D01*
X038155Y020053D01*
X03815Y020046D01*
X038144Y020038D01*
X038138Y020029D01*
X038132Y02002D01*
Y020019D01*
X038132Y020019D01*
X038131Y020017D01*
X03813Y020015D01*
X038127Y02001D01*
X038124Y020002D01*
X038121Y019994D01*
X038117Y019983D01*
X038113Y019972D01*
X038109Y019959D01*
X03811Y019959D01*
X038111Y01996D01*
X038113Y019961D01*
X038116Y019963D01*
X038119Y019965D01*
X038123Y019967D01*
X038127Y019969D01*
X038133Y019972D01*
X038144Y019976D01*
X038157Y019981D01*
X03817Y019983D01*
X038177Y019984D01*
X038187D01*
X03819Y019984D01*
X038193Y019983D01*
X038197Y019983D01*
X038205Y019981D01*
X038215Y019977D01*
X038226Y019972D01*
X038231Y019969D01*
X038237Y019965D01*
X038242Y01996D01*
X038247Y019955D01*
X038247Y019954D01*
X038248Y019954D01*
X03825Y019952D01*
X038251Y019949D01*
X038253Y019947D01*
X038256Y019943D01*
X038258Y01994D01*
X038261Y019935D01*
X038266Y019924D01*
X038269Y019911D01*
X038273Y019897D01*
X038273Y019889D01*
X038274Y019881D01*
Y01988D01*
Y019878D01*
Y019876D01*
X038273Y019873D01*
Y019869D01*
X038272Y019865D01*
X038272Y019859D01*
X03827Y019854D01*
X038267Y019841D01*
X038262Y019828D01*
X038259Y019821D01*
X038256Y019814D01*
X038251Y019807D01*
X038246Y0198D01*
X038246Y019799D01*
X038245Y019798D01*
X038243Y019796D01*
X03824Y019793D01*
X038237Y019789D01*
X038233Y019786D01*
X038229Y019782D01*
X038223Y019778D01*
X038218Y019774D01*
X038211Y01977D01*
X038204Y019766D01*
X038197Y019763D01*
X038189Y01976D01*
X03818Y019758D01*
X038171Y019757D01*
X038161Y019756D01*
X038158D01*
X038155Y019757D01*
X038152D01*
X038149Y019757D01*
X03814Y019759D01*
X038131Y019762D01*
X03812Y019766D01*
X03811Y019772D01*
X038105Y019775D01*
X0381Y01978D01*
X0381Y01978D01*
X038098Y019782D01*
X038096Y019785D01*
X038092Y019788D01*
X038089Y019793D01*
X038085Y019798D01*
X03808Y019805D01*
X038075Y019812D01*
X038071Y019821D01*
X038067Y019829D01*
X038062Y01984D01*
X038059Y01985D01*
X038055Y019862D01*
X038053Y019874D01*
X038051Y019887D01*
X038051Y0199D01*
Y019901D01*
Y019902D01*
Y019905D01*
X038051Y019908D01*
Y019913D01*
X038052Y019918D01*
X038053Y019923D01*
X038053Y019929D01*
X038055Y019943D01*
X038059Y019958D01*
X038063Y019975D01*
X038069Y01999D01*
Y019991D01*
X038071Y019993D01*
X038072Y019995D01*
X038073Y019997D01*
X038075Y020001D01*
X038077Y020006D01*
X038084Y020016D01*
X038091Y020027D01*
X038101Y02004D01*
X038111Y020053D01*
X038124Y020066D01*
X038124Y020066D01*
X038125Y020067D01*
X038127Y020069D01*
X03813Y020071D01*
X038133Y020074D01*
X038137Y020077D01*
X038145Y020084D01*
X038156Y020091D01*
X038167Y020098D01*
X038179Y020105D01*
X038191Y02011D01*
X038192D01*
X038193Y020111D01*
X038195Y020112D01*
X038197Y020112D01*
X038203Y020114D01*
X038211Y020116D01*
X03822Y020118D01*
X03823Y02012D01*
X038241Y020121D01*
X038251Y020122D01*
X038267D01*
Y020112D01*
D02*
G37*
G36*
X042072Y036579D02*
X042073Y036576D01*
X042074Y036568D01*
X042078Y036561D01*
Y036561D01*
X042079Y036559D01*
X04208Y036558D01*
X042081Y036556D01*
X042084Y036553D01*
X042087Y036551D01*
X042091Y036548D01*
X042096Y036545D01*
X042096D01*
X042098Y036544D01*
X042101Y036542D01*
X042104Y036541D01*
X04211Y036539D01*
X042118Y036536D01*
X042127Y036533D01*
X042133Y036531D01*
X042139Y036529D01*
X042423Y036431D01*
Y03642D01*
X042198Y03634D01*
X042423Y03626D01*
Y036251D01*
X042131Y036146D01*
X04213D01*
X042129Y036146D01*
X042127Y036145D01*
X042125Y036144D01*
X04212Y036142D01*
X042114Y03614D01*
X042107Y036137D01*
X042101Y036135D01*
X042095Y036133D01*
X042093Y036132D01*
X042092Y036131D01*
X042091D01*
X04209Y03613D01*
X042089Y036129D01*
X042086Y036128D01*
X042081Y036123D01*
X042077Y036117D01*
Y036117D01*
X042077Y036116D01*
X042075Y036113D01*
X042074Y036111D01*
X042074Y036107D01*
X042073Y036103D01*
X042072Y036098D01*
Y036093D01*
X042062D01*
Y036223D01*
X042072D01*
Y036214D01*
X042073Y036212D01*
Y036209D01*
X042075Y036202D01*
X042077Y036199D01*
X042079Y036196D01*
Y036195D01*
X04208Y036195D01*
X042083Y036193D01*
X042087Y03619D01*
X042091Y036189D01*
X042094Y036189D01*
X042095D01*
X042096D01*
X042098Y036189D01*
X042102Y03619D01*
X042108Y036191D01*
X042115Y036194D01*
X042124Y036196D01*
X042129Y036198D01*
X042135Y0362D01*
X042333Y036269D01*
X042165Y036328D01*
X042135Y036318D01*
X042112Y036309D01*
X042111D01*
X04211Y036308D01*
X042107Y036307D01*
X042104Y036306D01*
X042097Y036302D01*
X042089Y036297D01*
X042088Y036297D01*
X042086Y036295D01*
X042084Y036292D01*
X042081Y036289D01*
Y036288D01*
X04208Y036288D01*
X042078Y036285D01*
X042076Y03628D01*
X042074Y036276D01*
X042073Y036275D01*
X042073Y036272D01*
X042072Y036267D01*
Y03626D01*
X042062D01*
Y036397D01*
X042072D01*
Y036386D01*
X042073Y036383D01*
Y03638D01*
X042075Y036373D01*
X042077Y036369D01*
X042079Y036366D01*
X04208Y036365D01*
X042083Y036363D01*
X042089Y036361D01*
X042092Y03636D01*
X042096Y03636D01*
X042096D01*
X042098D01*
X042102Y03636D01*
X042107Y036361D01*
X042113Y036362D01*
X042121Y036364D01*
X042131Y036368D01*
X042142Y036372D01*
X042334Y036439D01*
X042139Y036506D01*
X042139D01*
X042138Y036506D01*
X042136Y036507D01*
X042134Y036508D01*
X042128Y03651D01*
X042122Y036512D01*
X042114Y036514D01*
X042107Y036516D01*
X0421Y036517D01*
X042095Y036517D01*
X042094D01*
X042093D01*
X042091Y036517D01*
X042087Y036516D01*
X042084Y036514D01*
X042083Y036513D01*
X04208Y036511D01*
X042078Y036508D01*
X042076Y036504D01*
Y036504D01*
X042075Y036503D01*
X042075Y0365D01*
X042074Y036497D01*
X042073Y036494D01*
X042073Y03649D01*
X042072Y036484D01*
Y036479D01*
X042062D01*
Y036583D01*
X042072D01*
Y036579D01*
D02*
G37*
G36*
X042332Y036057D02*
X042336Y036057D01*
X04234Y036056D01*
X042349Y036054D01*
X04236Y03605D01*
X042365Y036048D01*
X042371Y036045D01*
X042377Y036041D01*
X042383Y036037D01*
X042389Y036032D01*
X042394Y036027D01*
X042395Y036026D01*
X042395Y036025D01*
X042397Y036023D01*
X042399Y036021D01*
X042401Y036018D01*
X042404Y036014D01*
X042406Y03601D01*
X042408Y036005D01*
X042411Y035999D01*
X042414Y035993D01*
X042419Y03598D01*
X042422Y035964D01*
X042423Y035956D01*
X042423Y035946D01*
Y035941D01*
X042423Y035937D01*
Y035933D01*
X042422Y035928D01*
X042421Y035917D01*
Y035917D01*
X04242Y035916D01*
Y035914D01*
X042419Y03591D01*
X042418Y035906D01*
X042416Y0359D01*
X042414Y035893D01*
X042411Y035884D01*
X042411Y035883D01*
X04241Y03588D01*
X042408Y035876D01*
X042407Y035871D01*
X042406Y035865D01*
X042404Y03586D01*
X042404Y035856D01*
X042403Y035852D01*
Y035851D01*
X042404Y035849D01*
X042405Y035845D01*
X042407Y035842D01*
X042408Y035841D01*
X042409Y035841D01*
X042411Y03584D01*
X042413Y035839D01*
X042416Y035838D01*
X042419Y035837D01*
X042423Y035837D01*
Y035827D01*
X042303D01*
Y035837D01*
X042303D01*
X042304Y035837D01*
X042306D01*
X042309Y035838D01*
X042312Y035838D01*
X042316Y035839D01*
X042324Y035841D01*
X042333Y035844D01*
X042343Y035847D01*
X042352Y035851D01*
X04236Y035855D01*
X04236Y035855D01*
X042363Y035857D01*
X042366Y035859D01*
X042371Y035863D01*
X042376Y035868D01*
X042381Y035874D01*
X042386Y035881D01*
X042391Y035889D01*
Y03589D01*
X042392Y035891D01*
X042393Y035894D01*
X042395Y035898D01*
X042397Y035905D01*
X042399Y035912D01*
X042401Y035921D01*
X042402Y03593D01*
X042403Y035941D01*
Y035944D01*
X042402Y035946D01*
X042402Y035952D01*
X042401Y035959D01*
X042399Y035968D01*
X042396Y035976D01*
X042392Y035984D01*
X042386Y035992D01*
X042386Y035993D01*
X042383Y035995D01*
X04238Y035998D01*
X042375Y036002D01*
X042369Y036005D01*
X042362Y036009D01*
X042354Y036011D01*
X042345Y036011D01*
X042345D01*
X042343D01*
X04234Y036011D01*
X042337Y03601D01*
X042333Y03601D01*
X042329Y036008D01*
X042324Y036006D01*
X042319Y036004D01*
X042318Y036003D01*
X042317Y036003D01*
X042314Y036D01*
X042311Y035998D01*
X042307Y035995D01*
X042303Y035992D01*
X042299Y035987D01*
X042294Y035982D01*
X042294Y035981D01*
X042293Y03598D01*
X042291Y035976D01*
X042287Y035971D01*
X042285Y035968D01*
X042282Y035964D01*
X04228Y035959D01*
X042277Y035954D01*
X042274Y035948D01*
X04227Y035941D01*
X042265Y035934D01*
X042261Y035926D01*
X042261Y035926D01*
X04226Y035924D01*
X042259Y035922D01*
X042257Y035919D01*
X042255Y035915D01*
X042252Y035911D01*
X042246Y035901D01*
X04224Y035891D01*
X042233Y03588D01*
X042227Y03587D01*
X042223Y035865D01*
X042221Y035862D01*
X04222Y035861D01*
X042218Y035858D01*
X042215Y035855D01*
X042211Y035851D01*
X042206Y035846D01*
X0422Y035841D01*
X042194Y035837D01*
X042187Y035833D01*
X042186Y035832D01*
X042184Y035831D01*
X04218Y035829D01*
X042175Y035828D01*
X04217Y035826D01*
X042163Y035824D01*
X042156Y035823D01*
X042147Y035823D01*
X042147D01*
X042146D01*
X042144D01*
X042141Y035823D01*
X042138Y035824D01*
X042134Y035824D01*
X042125Y035827D01*
X042115Y03583D01*
X042104Y035835D01*
X042098Y035838D01*
X042092Y035843D01*
X042087Y035847D01*
X042082Y035852D01*
X042081Y035852D01*
X042081Y035853D01*
X042079Y035855D01*
X042078Y035857D01*
X042075Y03586D01*
X042073Y035863D01*
X042071Y035868D01*
X042068Y035872D01*
X042063Y035883D01*
X042059Y035895D01*
X042055Y03591D01*
X042055Y035918D01*
X042054Y035926D01*
Y035931D01*
X042055Y035936D01*
X042056Y035944D01*
X042057Y035953D01*
X04206Y035963D01*
X042063Y035974D01*
X042068Y035986D01*
Y035986D01*
X042069Y035988D01*
X04207Y03599D01*
X042071Y035994D01*
X042073Y036D01*
X042074Y036004D01*
X042074Y036006D01*
Y036007D01*
X042074Y03601D01*
X042073Y036014D01*
X042071Y036017D01*
X04207Y036018D01*
X042069Y036019D01*
X042067Y03602D01*
X042065Y036021D01*
X042062Y036022D01*
X042059Y036023D01*
X042054Y036024D01*
Y036034D01*
X042176D01*
Y036024D01*
X042175D01*
X042174D01*
X042173Y036024D01*
X04217Y036023D01*
X042164Y036022D01*
X042156Y036021D01*
X042147Y036018D01*
X042138Y036015D01*
X042128Y036012D01*
X04212Y036007D01*
X042119Y036007D01*
X042117Y036005D01*
X042113Y036003D01*
X042108Y035999D01*
X042103Y035994D01*
X042098Y035988D01*
X042092Y035981D01*
X042087Y035973D01*
X042087Y035972D01*
X042085Y035969D01*
X042084Y035965D01*
X042081Y035959D01*
X042079Y035952D01*
X042077Y035944D01*
X042075Y035935D01*
X042075Y035927D01*
Y035922D01*
X042076Y035917D01*
X042077Y035911D01*
X042079Y035904D01*
X042082Y035896D01*
X042086Y035889D01*
X042092Y035882D01*
X042092Y035881D01*
X042095Y035879D01*
X042098Y035876D01*
X042103Y035873D01*
X042108Y03587D01*
X042115Y035867D01*
X042122Y035865D01*
X042129Y035864D01*
X04213D01*
X042132D01*
X042135Y035865D01*
X042139Y035866D01*
X042144Y035867D01*
X042149Y035869D01*
X042154Y035871D01*
X042159Y035875D01*
X04216Y035876D01*
X042161Y035877D01*
X042162Y035879D01*
X042164Y035881D01*
X042167Y035883D01*
X042169Y035887D01*
X042173Y035891D01*
X042176Y035896D01*
X04218Y035901D01*
X042184Y035907D01*
X042189Y035915D01*
X042194Y035923D01*
X042199Y035932D01*
X042205Y035941D01*
X042211Y035952D01*
X042211Y035953D01*
X042212Y035954D01*
X042214Y035957D01*
X042215Y03596D01*
X042217Y035964D01*
X04222Y035969D01*
X042226Y035979D01*
X042233Y03599D01*
X042239Y036001D01*
X042246Y036011D01*
X042249Y036016D01*
X042252Y036019D01*
X042252Y036021D01*
X042255Y036023D01*
X042257Y036026D01*
X042261Y03603D01*
X042266Y036035D01*
X042272Y036039D01*
X042278Y036044D01*
X042285Y036048D01*
X042286Y036048D01*
X042288Y036049D01*
X042292Y036051D01*
X042297Y036053D01*
X042303Y036054D01*
X04231Y036056D01*
X042318Y036057D01*
X042325Y036058D01*
X042326D01*
X042327D01*
X042329D01*
X042332Y036057D01*
D02*
G37*
G36*
X041313Y036518D02*
X041319Y036517D01*
X041327Y036515D01*
X041336Y036512D01*
X041344Y036507D01*
X041354Y036502D01*
X041355Y036502D01*
X041358Y036499D01*
X041362Y036495D01*
X041367Y03649D01*
X041373Y036484D01*
X041379Y036476D01*
X041384Y036467D01*
X041389Y036457D01*
Y036456D01*
X041389Y036456D01*
X04139Y036453D01*
X04139Y036451D01*
X041391Y036448D01*
X041392Y036445D01*
X041393Y03644D01*
X041394Y036435D01*
X041395Y036429D01*
X041396Y036422D01*
X041397Y036415D01*
X041398Y036407D01*
X041399Y036398D01*
X041399Y036389D01*
X0414Y036379D01*
Y036202D01*
X04139D01*
Y036219D01*
X041389Y036222D01*
X041388Y036227D01*
X041386Y036232D01*
X041384Y036237D01*
X041381Y036242D01*
X041376Y036247D01*
X041376Y036247D01*
X041374Y036248D01*
X041372Y036249D01*
X041368Y03625D01*
X041362Y036251D01*
X041356Y036251D01*
X041348Y036253D01*
X041337D01*
X041109D01*
X041109D01*
X041108D01*
X041106D01*
X041104D01*
X041098Y036252D01*
X041092Y036251D01*
X041085Y036251D01*
X041078Y036249D01*
X041073Y036248D01*
X04107Y036246D01*
X041068Y036245D01*
X041068Y036244D01*
X041067Y036243D01*
X041064Y036241D01*
X041062Y036237D01*
X041061Y036233D01*
X041058Y036228D01*
X041057Y036222D01*
X041057Y036215D01*
Y036202D01*
X041047D01*
Y036365D01*
X041047Y036369D01*
Y036379D01*
X041049Y03639D01*
X04105Y036401D01*
X041051Y036412D01*
X041053Y036422D01*
Y036423D01*
X041054Y036424D01*
X041055Y036426D01*
X041055Y036429D01*
X041056Y036432D01*
X041058Y036436D01*
X041061Y036444D01*
X041065Y036454D01*
X041071Y036464D01*
X041079Y036473D01*
X041087Y036482D01*
X041088Y036483D01*
X041091Y036485D01*
X041096Y036488D01*
X041103Y036492D01*
X04111Y036496D01*
X04112Y036499D01*
X04113Y036502D01*
X041141Y036503D01*
X041142D01*
X041142D01*
X041146D01*
X041151Y036502D01*
X041157Y0365D01*
X041164Y036499D01*
X041172Y036495D01*
X041181Y036492D01*
X041189Y036486D01*
X04119Y036486D01*
X041192Y036483D01*
X041196Y03648D01*
X0412Y036474D01*
X041205Y036468D01*
X041211Y036459D01*
X041215Y03645D01*
X041219Y036439D01*
Y036439D01*
X04122Y03644D01*
X041221Y036442D01*
X041221Y036445D01*
X041223Y036451D01*
X041225Y036459D01*
X041229Y036468D01*
X041234Y036477D01*
X041239Y036486D01*
X041245Y036493D01*
Y036494D01*
X041246Y036494D01*
X041249Y036497D01*
X041254Y036502D01*
X041261Y036506D01*
X041269Y036511D01*
X041279Y036515D01*
X04129Y036518D01*
X041296Y036519D01*
X041303D01*
X041304D01*
X041304D01*
X041307D01*
X041313Y036518D01*
D02*
G37*
G36*
X040423Y036458D02*
X040258Y036339D01*
Y036331D01*
X040259Y036324D01*
Y036306D01*
X040258Y036303D01*
X040361D01*
X040362D01*
X040363D01*
X040364D01*
X040366D01*
X040372Y036303D01*
X040378Y036304D01*
X040386Y036305D01*
X040393Y036306D01*
X040398Y036308D01*
X040401Y036309D01*
X040402Y03631D01*
X040403Y036311D01*
X040404Y036312D01*
X040406Y036314D01*
X040408Y036318D01*
X04041Y036321D01*
X040412Y036326D01*
X040413Y036332D01*
X040413Y036339D01*
Y036353D01*
X040423D01*
Y036203D01*
X040413D01*
Y03622D01*
X040413Y036224D01*
X040412Y036228D01*
X04041Y036234D01*
X040407Y036238D01*
X040404Y036243D01*
X040399Y036248D01*
X040399D01*
X040398Y036249D01*
X040395Y036249D01*
X040392Y03625D01*
X040386Y036252D01*
X04038Y036252D01*
X040371Y036253D01*
X040361D01*
X040133D01*
X040132D01*
X040131D01*
X040129D01*
X040127D01*
X040122Y036253D01*
X040115Y036252D01*
X040108Y036252D01*
X040102Y03625D01*
X040096Y036248D01*
X040093Y036247D01*
X040092Y036246D01*
X040091Y036245D01*
X04009Y036244D01*
X040088Y036241D01*
X040086Y036238D01*
X040084Y036234D01*
X040082Y036229D01*
X040081Y036223D01*
X04008Y036216D01*
Y036203D01*
X040071D01*
Y036344D01*
X040071Y03635D01*
Y036356D01*
X040072Y036362D01*
X040073Y036376D01*
X040074Y036389D01*
X040077Y036402D01*
X040078Y036408D01*
X040079Y036413D01*
Y036414D01*
X04008Y036414D01*
X040081Y036418D01*
X040083Y036422D01*
X040086Y036429D01*
X04009Y036436D01*
X040095Y036444D01*
X040102Y036451D01*
X040109Y036458D01*
X04011Y036459D01*
X040113Y036461D01*
X040118Y036464D01*
X040124Y036468D01*
X040132Y036471D01*
X04014Y036474D01*
X040151Y036477D01*
X040162Y036477D01*
X040162D01*
X040163D01*
X040165D01*
X040167Y036477D01*
X040173Y036476D01*
X040181Y036474D01*
X04019Y036472D01*
X040199Y036468D01*
X040209Y036463D01*
X040218Y036456D01*
X040219Y036455D01*
X040222Y036452D01*
X040226Y036446D01*
X040231Y036439D01*
X040237Y036431D01*
X040243Y036419D01*
X040247Y036406D01*
X040252Y03639D01*
X040353Y036463D01*
X040353Y036464D01*
X040354Y036464D01*
X040356Y036466D01*
X040358Y036468D01*
X040364Y036472D01*
X040372Y036478D01*
X04038Y036485D01*
X040387Y036492D01*
X040394Y036499D01*
X040397Y036503D01*
X040399Y036506D01*
X0404Y036507D01*
X040401Y036509D01*
X040403Y036513D01*
X040405Y036519D01*
X040408Y036526D01*
X04041Y036533D01*
X040412Y036543D01*
X040413Y036553D01*
X040423D01*
Y036458D01*
D02*
G37*
G36*
X039258Y036537D02*
X039258Y036534D01*
X039259Y036529D01*
X039261Y036525D01*
X039264Y03652D01*
X039267Y036516D01*
X039271Y036513D01*
X039272D01*
X039274Y036512D01*
X039276Y036511D01*
X03928Y03651D01*
X039285Y036509D01*
X039292Y036508D01*
X039299Y036508D01*
X039309D01*
X039418D01*
Y036507D01*
X039418Y036507D01*
X039419Y036505D01*
X03942Y036503D01*
X039423Y036497D01*
X039427Y036489D01*
X039431Y03648D01*
X039435Y03647D01*
X039438Y036459D01*
X039441Y036448D01*
Y036448D01*
X039442Y036447D01*
Y036445D01*
X039442Y036443D01*
X039443Y03644D01*
X039443Y036437D01*
X039445Y036429D01*
X039447Y03642D01*
X039448Y036409D01*
X039448Y036397D01*
X039449Y036384D01*
Y036379D01*
X039448Y036374D01*
X039448Y036367D01*
X039447Y036359D01*
X039446Y036349D01*
X039443Y036338D01*
X039441Y036326D01*
X039437Y036314D01*
X039433Y036301D01*
X039428Y036288D01*
X039421Y036275D01*
X039414Y036262D01*
X039405Y03625D01*
X039395Y036239D01*
X039383Y036229D01*
X039383Y036228D01*
X039381Y036227D01*
X039378Y036225D01*
X039375Y036223D01*
X03937Y036219D01*
X039364Y036216D01*
X039358Y036213D01*
X039351Y036209D01*
X039343Y036205D01*
X039334Y036202D01*
X039325Y036199D01*
X039315Y036195D01*
X039305Y036193D01*
X039293Y036191D01*
X039282Y03619D01*
X03927Y036189D01*
X03927D01*
X039268D01*
X039266D01*
X039262Y03619D01*
X039258D01*
X039253Y03619D01*
X039247Y036191D01*
X039241Y036192D01*
X039228Y036195D01*
X039212Y036199D01*
X039197Y036204D01*
X039181Y036211D01*
X03918Y036212D01*
X039179Y036212D01*
X039176Y036214D01*
X039173Y036216D01*
X039168Y036219D01*
X039163Y036222D01*
X039158Y036226D01*
X039152Y03623D01*
X039139Y036241D01*
X039126Y036253D01*
X039114Y036267D01*
X039108Y036276D01*
X039103Y036284D01*
X039102Y036284D01*
X039102Y036285D01*
X0391Y036288D01*
X039099Y036291D01*
X039097Y036294D01*
X039096Y036299D01*
X039093Y036304D01*
X039091Y03631D01*
X039089Y036316D01*
X039087Y036323D01*
X039084Y036338D01*
X039081Y036356D01*
X03908Y036375D01*
Y036382D01*
X03908Y036387D01*
Y036392D01*
X039081Y036398D01*
X039083Y03641D01*
Y03641D01*
X039084Y036413D01*
X039085Y036416D01*
X039086Y036421D01*
X039088Y036428D01*
X03909Y036436D01*
X039093Y036444D01*
X039097Y036455D01*
Y036455D01*
X039098Y036457D01*
X039098Y03646D01*
X039099Y036462D01*
X039101Y036469D01*
X039102Y036472D01*
Y036475D01*
X039102Y036476D01*
X0391Y036479D01*
X039098Y036482D01*
X039097Y036483D01*
X039096Y036483D01*
X039094Y036484D01*
X039091Y036485D01*
X039088Y036486D01*
X039085Y036486D01*
X03908Y036487D01*
Y036497D01*
X039191Y036506D01*
Y036496D01*
X039191D01*
X039189Y036496D01*
X039187Y036495D01*
X039185Y036493D01*
X039181Y036492D01*
X039177Y036491D01*
X039168Y036486D01*
X039158Y036481D01*
X039147Y036475D01*
X039138Y036468D01*
X039129Y036461D01*
X039128Y03646D01*
X039128Y036459D01*
X039126Y036457D01*
X039124Y036455D01*
X039122Y036452D01*
X039119Y036448D01*
X039116Y036444D01*
X039114Y036439D01*
X039111Y036433D01*
X039108Y036427D01*
X039103Y036413D01*
X039099Y036397D01*
X039099Y036389D01*
X039098Y03638D01*
Y036377D01*
X039099Y036373D01*
Y036369D01*
X0391Y036363D01*
X039101Y036357D01*
X039103Y03635D01*
X039105Y036342D01*
X039108Y036334D01*
X039111Y036325D01*
X039116Y036317D01*
X039121Y036308D01*
X039127Y0363D01*
X039134Y036292D01*
X039143Y036285D01*
X039152Y036278D01*
X039152Y036277D01*
X039154Y036277D01*
X039156Y036275D01*
X03916Y036273D01*
X039164Y036271D01*
X039169Y036268D01*
X039175Y036266D01*
X039182Y036264D01*
X039189Y036261D01*
X039198Y036258D01*
X039207Y036255D01*
X039216Y036253D01*
X039226Y036252D01*
X039237Y03625D01*
X039248Y036249D01*
X039259Y036249D01*
X03926D01*
X039262D01*
X039264D01*
X039268Y036249D01*
X039272D01*
X039277Y03625D01*
X039283Y03625D01*
X039289Y036251D01*
X039304Y036254D01*
X039319Y036257D01*
X039335Y036261D01*
X039351Y036268D01*
X039352D01*
X039353Y036269D01*
X039355Y03627D01*
X039358Y036272D01*
X039361Y036273D01*
X039365Y036276D01*
X039374Y036282D01*
X039384Y036289D01*
X039394Y036297D01*
X039404Y036308D01*
X039412Y036319D01*
Y036319D01*
X039413Y03632D01*
X039414Y036322D01*
X039415Y036324D01*
X039417Y036327D01*
X039418Y036331D01*
X039422Y036339D01*
X039425Y036349D01*
X039428Y03636D01*
X03943Y036371D01*
X039431Y036384D01*
Y036387D01*
X039431Y036391D01*
Y036396D01*
X03943Y036402D01*
X039429Y036408D01*
X039426Y036421D01*
Y036422D01*
X039425Y036425D01*
X039424Y036428D01*
X039423Y036433D01*
X039421Y036438D01*
X039418Y036444D01*
X039412Y036457D01*
X039309D01*
X039308D01*
X039308D01*
X039305D01*
X0393D01*
X039295Y036456D01*
X039289Y036456D01*
X039283Y036455D01*
X039278Y036454D01*
X039275Y036452D01*
X039274D01*
X039273Y036452D01*
X03927Y03645D01*
X039266Y036445D01*
X039262Y03644D01*
Y036439D01*
X039262Y036438D01*
X03926Y036436D01*
X03926Y036433D01*
X039259Y036429D01*
X039258Y036424D01*
X039258Y036418D01*
Y03641D01*
X039248D01*
Y036547D01*
X039258D01*
Y036537D01*
D02*
G37*
%LPC*%
G36*
X043775Y03678D02*
X043774D01*
X043771D01*
X043768D01*
X043763Y036779D01*
X043757Y036778D01*
X04375Y036777D01*
X043741Y036776D01*
X043733Y036775D01*
X043724Y036772D01*
X043715Y03677D01*
X043705Y036766D01*
X043695Y036763D01*
X043686Y036758D01*
X043677Y036753D01*
X043668Y036747D01*
X04366Y03674D01*
X043659Y036739D01*
X043658Y036738D01*
X043656Y036736D01*
X043653Y036733D01*
X04365Y036729D01*
X043646Y036724D01*
X043643Y036718D01*
X043639Y036712D01*
X043635Y036705D01*
X043631Y036697D01*
X043627Y036689D01*
X043624Y03668D01*
X043621Y03667D01*
X043619Y03666D01*
X043618Y036649D01*
X043617Y036638D01*
Y036633D01*
X043618Y036629D01*
X043618Y036622D01*
X043619Y036614D01*
X043621Y036605D01*
X043622Y036596D01*
X043625Y036585D01*
X043925D01*
Y036585D01*
X043925Y036586D01*
Y036588D01*
X043926Y03659D01*
X043927Y036596D01*
X043928Y036604D01*
X04393Y036612D01*
X043931Y036622D01*
X043931Y036631D01*
X043932Y03664D01*
Y036643D01*
X043931Y036646D01*
Y03665D01*
X043931Y036655D01*
X04393Y036661D01*
X043929Y036668D01*
X043926Y036675D01*
X043924Y036682D01*
X043922Y036691D01*
X043918Y036699D01*
X043914Y036707D01*
X04391Y036716D01*
X043904Y036724D01*
X043898Y036732D01*
X04389Y03674D01*
X043889Y03674D01*
X043888Y036741D01*
X043885Y036744D01*
X043882Y036746D01*
X043878Y036749D01*
X043872Y036752D01*
X043866Y036756D01*
X043859Y03676D01*
X043852Y036763D01*
X043843Y036767D01*
X043834Y03677D01*
X043823Y036774D01*
X043812Y036776D01*
X0438Y036778D01*
X043788Y036779D01*
X043775Y03678D01*
D02*
G37*
G36*
X045815Y035381D02*
X045809D01*
X045805Y03538D01*
X045799Y03538D01*
X045792Y035378D01*
X045784Y035377D01*
X045775Y035376D01*
Y035229D01*
X045781D01*
X045783Y035228D01*
X045794D01*
X045797Y035229D01*
X045802D01*
X045806Y035229D01*
X045817Y035231D01*
X045829Y035234D01*
X045842Y035238D01*
X045854Y035243D01*
X045859Y035246D01*
X045864Y03525D01*
X045865D01*
X045865Y035251D01*
X045868Y035254D01*
X045872Y035259D01*
X045877Y035265D01*
X045882Y035274D01*
X045886Y035283D01*
X045889Y035294D01*
X04589Y0353D01*
Y035306D01*
Y035306D01*
Y035307D01*
Y035309D01*
X045889Y035311D01*
X045889Y035317D01*
X045887Y035325D01*
X045885Y035334D01*
X045881Y035343D01*
X045876Y035352D01*
X045869Y03536D01*
X045868Y035361D01*
X045865Y035363D01*
X045861Y035366D01*
X045855Y03537D01*
X045847Y035374D01*
X045838Y035377D01*
X045827Y03538D01*
X045815Y035381D01*
D02*
G37*
G36*
X049293Y033284D02*
X049288D01*
X049284Y033284D01*
X049277Y033283D01*
X049269Y033283D01*
X049261Y033281D01*
X049251Y033279D01*
X04924Y033277D01*
Y032977D01*
X04924D01*
X049241Y032976D01*
X049243D01*
X049245Y032976D01*
X049251Y032975D01*
X049259Y032973D01*
X049268Y032972D01*
X049277Y032971D01*
X049286Y03297D01*
X049295Y03297D01*
X049298D01*
X049301Y03297D01*
X049305D01*
X04931Y032971D01*
X049316Y032972D01*
X049323Y032973D01*
X04933Y032975D01*
X049338Y032977D01*
X049346Y03298D01*
X049354Y032983D01*
X049363Y032988D01*
X049371Y032992D01*
X049379Y032998D01*
X049387Y033004D01*
X049395Y033012D01*
X049395Y033012D01*
X049396Y033014D01*
X049399Y033016D01*
X049401Y033019D01*
X049404Y033024D01*
X049407Y033029D01*
X049411Y033035D01*
X049415Y033042D01*
X049418Y03305D01*
X049422Y033059D01*
X049425Y033068D01*
X049429Y033078D01*
X049431Y033089D01*
X049433Y033101D01*
X049434Y033114D01*
X049435Y033127D01*
Y033128D01*
Y03313D01*
Y033134D01*
X049434Y033139D01*
X049434Y033145D01*
X049433Y033152D01*
X049431Y03316D01*
X04943Y033168D01*
X049428Y033178D01*
X049425Y033187D01*
X049422Y033196D01*
X049418Y033206D01*
X049413Y033215D01*
X049408Y033225D01*
X049402Y033233D01*
X049395Y033242D01*
X049394Y033242D01*
X049393Y033243D01*
X049391Y033245D01*
X049388Y033248D01*
X049384Y033251D01*
X049379Y033255D01*
X049374Y033259D01*
X049367Y033263D01*
X04936Y033267D01*
X049352Y033271D01*
X049344Y033274D01*
X049335Y033278D01*
X049325Y03328D01*
X049315Y033283D01*
X049304Y033284D01*
X049293Y033284D01*
D02*
G37*
G36*
X04961Y031408D02*
X049604D01*
X049603D01*
X049602D01*
X049601D01*
X049598Y031407D01*
X049592Y031407D01*
X049585Y031405D01*
X049576Y031403D01*
X049567Y031399D01*
X049558Y031394D01*
X04955Y031387D01*
X049549Y031386D01*
X049547Y031383D01*
X049543Y031379D01*
X04954Y031373D01*
X049536Y031365D01*
X049532Y031356D01*
X04953Y031345D01*
X049529Y031333D01*
Y031327D01*
X04953Y031323D01*
X04953Y031317D01*
X049531Y03131D01*
X049532Y031302D01*
X049534Y031293D01*
X049681D01*
Y031298D01*
X049681Y031301D01*
Y031312D01*
X049681Y031315D01*
Y03132D01*
X04968Y031324D01*
X049679Y031335D01*
X049676Y031347D01*
X049672Y03136D01*
X049667Y031372D01*
X049663Y031377D01*
X04966Y031382D01*
Y031383D01*
X049659Y031383D01*
X049656Y031386D01*
X049651Y03139D01*
X049644Y031395D01*
X049636Y0314D01*
X049627Y031404D01*
X049616Y031407D01*
X04961Y031408D01*
D02*
G37*
G36*
X048522Y030735D02*
X048516D01*
X048511Y030734D01*
X048505Y030734D01*
X048499Y030733D01*
X048491Y030732D01*
X048482Y03073D01*
Y030583D01*
X048487D01*
X04849Y030583D01*
X048501D01*
X048504Y030583D01*
X048509D01*
X048513Y030584D01*
X048524Y030585D01*
X048536Y030588D01*
X048548Y030592D01*
X04856Y030597D01*
X048566Y030601D01*
X048571Y030604D01*
X048571D01*
X048572Y030606D01*
X048575Y030608D01*
X048579Y030613D01*
X048584Y03062D01*
X048588Y030628D01*
X048593Y030637D01*
X048595Y030648D01*
X048596Y030654D01*
Y03066D01*
Y030661D01*
Y030662D01*
Y030663D01*
X048596Y030666D01*
X048595Y030672D01*
X048594Y030679D01*
X048592Y030688D01*
X048588Y030697D01*
X048583Y030706D01*
X048576Y030714D01*
X048575Y030715D01*
X048572Y030717D01*
X048568Y030721D01*
X048562Y030725D01*
X048554Y030728D01*
X048545Y030732D01*
X048534Y030734D01*
X048522Y030735D01*
D02*
G37*
G36*
X049319Y028962D02*
X049315D01*
X049312Y028961D01*
X049309Y028961D01*
X049305Y02896D01*
X049297Y028958D01*
X049287Y028955D01*
X049282Y028952D01*
X049277Y02895D01*
X049272Y028946D01*
X049267Y028942D01*
X049262Y028938D01*
X049258Y028933D01*
X049257Y028933D01*
X049256Y028932D01*
X049255Y02893D01*
X049253Y028927D01*
X049251Y028923D01*
X049249Y028919D01*
X049246Y028914D01*
X049244Y028907D01*
X049241Y0289D01*
X049239Y028893D01*
X049236Y028884D01*
X049234Y028875D01*
X049232Y028865D01*
X049231Y028855D01*
X04923Y028843D01*
X049229Y028831D01*
Y02883D01*
Y028828D01*
Y028824D01*
X04923Y028819D01*
X04923Y028814D01*
X049231Y028807D01*
X049232Y0288D01*
X049233Y028791D01*
X049235Y028783D01*
X049236Y028774D01*
X049239Y028765D01*
X049242Y028756D01*
X049245Y028748D01*
X049249Y028739D01*
X049253Y028731D01*
X049259Y028724D01*
X049259Y028723D01*
X04926Y028723D01*
X049261Y028721D01*
X049263Y02872D01*
X049265Y028717D01*
X049268Y028715D01*
X049271Y028713D01*
X049275Y02871D01*
X049283Y028705D01*
X049294Y0287D01*
X049299Y028699D01*
X049305Y028697D01*
X049312Y028696D01*
X049319Y028696D01*
X049322D01*
X049325Y028696D01*
X049329Y028697D01*
X049332Y028698D01*
X049337Y028699D01*
X049342Y0287D01*
X049347Y028702D01*
X049352Y028703D01*
X049357Y028706D01*
X049363Y028709D01*
X049368Y028713D01*
X049374Y028717D01*
X049379Y028722D01*
X049384Y028727D01*
X049384Y028727D01*
X049385Y028728D01*
X049387Y02873D01*
X049388Y028733D01*
X04939Y028736D01*
X049392Y028741D01*
X049395Y028745D01*
X049397Y028751D01*
X0494Y028757D01*
X049402Y028765D01*
X049404Y028772D01*
X049406Y028781D01*
X049408Y028791D01*
X049409Y028801D01*
X04941Y028813D01*
X04941Y028825D01*
Y028826D01*
Y028828D01*
Y028832D01*
X04941Y028837D01*
X049409Y028843D01*
X049409Y02885D01*
X049408Y028857D01*
X049407Y028866D01*
X049403Y028883D01*
X049401Y028892D01*
X049398Y028901D01*
X049395Y02891D01*
X049391Y028918D01*
X049387Y028926D01*
X049381Y028933D01*
X049381Y028934D01*
X049381Y028935D01*
X049379Y028936D01*
X049377Y028938D01*
X049375Y02894D01*
X049372Y028942D01*
X049369Y028945D01*
X049365Y028948D01*
X049361Y02895D01*
X049356Y028952D01*
X049351Y028955D01*
X049345Y028957D01*
X049339Y028959D01*
X049333Y02896D01*
X049326Y028961D01*
X049319Y028962D01*
D02*
G37*
G36*
X048927Y028036D02*
X048923D01*
X048921Y028036D01*
X048917Y028036D01*
X048914Y028035D01*
X048905Y028033D01*
X048895Y028029D01*
X04889Y028027D01*
X048885Y028025D01*
X04888Y028021D01*
X048875Y028017D01*
X048871Y028013D01*
X048866Y028008D01*
X048866Y028008D01*
X048865Y028006D01*
X048864Y028005D01*
X048862Y028001D01*
X04886Y027998D01*
X048857Y027994D01*
X048855Y027988D01*
X048852Y027982D01*
X048849Y027975D01*
X048847Y027968D01*
X048844Y027959D01*
X048842Y02795D01*
X04884Y02794D01*
X048839Y027929D01*
X048838Y027918D01*
X048838Y027905D01*
Y027904D01*
Y027902D01*
Y027899D01*
X048838Y027894D01*
X048839Y027888D01*
X04884Y027882D01*
X04884Y027874D01*
X048841Y027866D01*
X048843Y027858D01*
X048845Y027849D01*
X048847Y02784D01*
X04885Y027831D01*
X048854Y027822D01*
X048857Y027814D01*
X048862Y027806D01*
X048867Y027799D01*
X048868Y027798D01*
X048868Y027797D01*
X048869Y027796D01*
X048871Y027794D01*
X048874Y027792D01*
X048876Y02779D01*
X048879Y027787D01*
X048883Y027785D01*
X048892Y02778D01*
X048902Y027775D01*
X048908Y027773D01*
X048914Y027772D01*
X04892Y027771D01*
X048927Y027771D01*
X048931D01*
X048934Y027771D01*
X048937Y027772D01*
X048941Y027773D01*
X048945Y027773D01*
X04895Y027775D01*
X048955Y027776D01*
X048961Y027778D01*
X048966Y027781D01*
X048972Y027784D01*
X048977Y027787D01*
X048982Y027792D01*
X048988Y027797D01*
X048993Y027802D01*
X048993Y027802D01*
X048994Y027803D01*
X048995Y027805D01*
X048996Y027808D01*
X048999Y027811D01*
X049001Y027815D01*
X049003Y02782D01*
X049006Y027826D01*
X049008Y027832D01*
X04901Y027839D01*
X049013Y027847D01*
X049015Y027856D01*
X049016Y027866D01*
X049017Y027876D01*
X049018Y027887D01*
X049019Y0279D01*
Y027901D01*
Y027903D01*
Y027907D01*
X049018Y027911D01*
X049018Y027918D01*
X049017Y027925D01*
X049017Y027932D01*
X049015Y02794D01*
X049012Y027958D01*
X04901Y027967D01*
X049006Y027976D01*
X049003Y027985D01*
X048999Y027993D01*
X048995Y028001D01*
X04899Y028008D01*
X048989Y028008D01*
X048989Y028009D01*
X048988Y028011D01*
X048986Y028012D01*
X048983Y028015D01*
X048981Y028017D01*
X048977Y028019D01*
X048974Y028022D01*
X048969Y028025D01*
X048965Y028027D01*
X048959Y02803D01*
X048954Y028032D01*
X048947Y028034D01*
X048941Y028035D01*
X048934Y028036D01*
X048927Y028036D01*
D02*
G37*
G36*
X046631Y024095D02*
X046617D01*
X046613Y024095D01*
X046607D01*
X046599Y024093D01*
X046591Y024092D01*
X046584Y024091D01*
X046575Y024089D01*
Y023954D01*
X046577D01*
X046579Y023954D01*
X046581Y023953D01*
X046585Y023953D01*
X046589D01*
X046597Y023951D01*
X046605D01*
X046609Y023951D01*
X046634D01*
X046638Y023951D01*
X046646Y023952D01*
X046655Y023953D01*
X046664Y023954D01*
X046674Y023956D01*
X046681Y023959D01*
X046682Y023959D01*
X046685Y02396D01*
X046688Y023962D01*
X046692Y023965D01*
X046697Y023968D01*
X046702Y023973D01*
X046707Y023978D01*
X046711Y023984D01*
X046711Y023984D01*
X046712Y023986D01*
X046714Y02399D01*
X046716Y023995D01*
X046718Y024D01*
X04672Y024006D01*
X046721Y024013D01*
X046721Y02402D01*
Y024021D01*
Y024022D01*
Y024024D01*
X046721Y024026D01*
X04672Y024031D01*
X046718Y024039D01*
X046715Y024047D01*
X04671Y024056D01*
X046704Y024065D01*
X0467Y024069D01*
X046696Y024073D01*
X046695D01*
X046694Y024074D01*
X046693Y024075D01*
X046691Y024077D01*
X046688Y024078D01*
X046685Y02408D01*
X046681Y024082D01*
X046677Y024084D01*
X046672Y024086D01*
X046667Y024088D01*
X046661Y02409D01*
X046654Y024092D01*
X046647Y024093D01*
X046639Y024094D01*
X046631Y024095D01*
D02*
G37*
G36*
X046621Y023932D02*
X046603D01*
X046593Y023932D01*
X04659D01*
X046587Y023931D01*
X046581Y023931D01*
X046575Y02393D01*
Y023785D01*
X046577D01*
X046578Y023784D01*
X04658Y023784D01*
X046586Y023783D01*
X046594Y023782D01*
X046603Y023781D01*
X046613Y023779D01*
X046624Y023779D01*
X046635Y023778D01*
X046639D01*
X046643Y023779D01*
X046647D01*
X046651Y023779D01*
X046662Y023781D01*
X046674Y023783D01*
X046686Y023787D01*
X046697Y023792D01*
X046708Y023799D01*
X046708D01*
X046709Y0238D01*
X046711Y023803D01*
X046716Y023807D01*
X04672Y023814D01*
X046724Y023822D01*
X046729Y02383D01*
X046732Y023841D01*
X046733Y023846D01*
Y023852D01*
Y023853D01*
Y023855D01*
X046732Y023859D01*
X046731Y023864D01*
X04673Y02387D01*
X046728Y023877D01*
X046724Y023884D01*
X046721Y023891D01*
X04672Y023892D01*
X046718Y023894D01*
X046716Y023897D01*
X046712Y023902D01*
X046706Y023907D01*
X0467Y023912D01*
X046692Y023917D01*
X046684Y023921D01*
X046683D01*
X046682Y023921D01*
X046681Y023922D01*
X046679Y023923D01*
X046674Y023925D01*
X046667Y023927D01*
X046657Y023929D01*
X046647Y023931D01*
X046634Y023932D01*
X046621Y023932D01*
D02*
G37*
G36*
X038159Y019962D02*
X038155D01*
X038152Y019961D01*
X038146Y01996D01*
X038138Y019958D01*
X038137D01*
X038136Y019957D01*
X038133Y019955D01*
X03813Y019954D01*
X038125Y019951D01*
X038119Y019948D01*
X038113Y019944D01*
X038105Y01994D01*
Y019939D01*
Y019938D01*
X038104Y019936D01*
Y019934D01*
X038103Y019928D01*
X038103Y019919D01*
X038102Y019911D01*
X038101Y019901D01*
X0381Y019892D01*
Y019883D01*
Y019882D01*
Y019879D01*
X038101Y019874D01*
X038101Y019867D01*
X038102Y019859D01*
X038104Y019849D01*
X038106Y01984D01*
X038109Y019829D01*
Y019828D01*
X038109Y019828D01*
X03811Y019826D01*
X03811Y019824D01*
X038113Y019819D01*
X038116Y019812D01*
X03812Y019805D01*
X038125Y019797D01*
X03813Y01979D01*
X038137Y019783D01*
X038137Y019782D01*
X038139Y019781D01*
X038142Y019779D01*
X038145Y019777D01*
X03815Y019775D01*
X038156Y019772D01*
X038162Y019771D01*
X038169Y019771D01*
X03817D01*
X038173Y019771D01*
X038177Y019772D01*
X038183Y019774D01*
X038189Y019776D01*
X038196Y01978D01*
X038202Y019785D01*
X038209Y019792D01*
X03821Y019793D01*
X038212Y019795D01*
X038215Y0198D01*
X038219Y019807D01*
X038222Y019816D01*
X038225Y019827D01*
X038227Y019839D01*
X038227Y019853D01*
Y019853D01*
Y019855D01*
Y019857D01*
Y01986D01*
X038227Y019864D01*
X038226Y019869D01*
X038225Y019879D01*
X038223Y019891D01*
X03822Y019904D01*
X038215Y019917D01*
X038209Y019929D01*
Y01993D01*
X038209Y019931D01*
X038208Y019932D01*
X038206Y019934D01*
X038202Y01994D01*
X038197Y019946D01*
X03819Y019952D01*
X038181Y019957D01*
X038176Y019959D01*
X03817Y01996D01*
X038165Y019961D01*
X038159Y019962D01*
D02*
G37*
G36*
X041313Y036459D02*
X041308D01*
X041307D01*
X041304D01*
X0413Y036459D01*
X041295Y036458D01*
X041289Y036457D01*
X041283Y036455D01*
X041276Y036451D01*
X041269Y036447D01*
X041267Y036447D01*
X041265Y036445D01*
X041262Y036443D01*
X041258Y036439D01*
X041253Y036433D01*
X041248Y036427D01*
X041243Y036419D01*
X041239Y03641D01*
Y03641D01*
X041238Y036409D01*
X041237Y036408D01*
X041237Y036406D01*
X041235Y0364D01*
X041233Y036393D01*
X041231Y036384D01*
X041229Y036374D01*
X041228Y036361D01*
X041227Y036348D01*
Y03633D01*
X041228Y03632D01*
Y036316D01*
X041228Y036314D01*
X041229Y036308D01*
X04123Y036302D01*
X041374D01*
Y036304D01*
X041375Y036305D01*
X041376Y036307D01*
X041377Y036313D01*
X041378Y036321D01*
X041379Y03633D01*
X04138Y03634D01*
X041381Y036351D01*
X041381Y036362D01*
Y036366D01*
X041381Y036369D01*
Y036374D01*
X04138Y036378D01*
X041378Y036388D01*
X041376Y0364D01*
X041372Y036412D01*
X041367Y036424D01*
X04136Y036434D01*
Y036435D01*
X041359Y036435D01*
X041356Y036438D01*
X041352Y036443D01*
X041346Y036447D01*
X041338Y036451D01*
X041329Y036456D01*
X041319Y036458D01*
X041313Y036459D01*
D02*
G37*
G36*
X041139Y036448D02*
X041139D01*
X041138D01*
X041136D01*
X041134Y036447D01*
X041128Y036447D01*
X041121Y036445D01*
X041112Y036442D01*
X041104Y036437D01*
X041095Y036431D01*
X041091Y036427D01*
X041086Y036422D01*
Y036422D01*
X041085Y036421D01*
X041084Y03642D01*
X041083Y036417D01*
X041081Y036415D01*
X041079Y036412D01*
X041077Y036408D01*
X041075Y036404D01*
X041073Y036399D01*
X041071Y036393D01*
X041069Y036387D01*
X041068Y036381D01*
X041067Y036374D01*
X041065Y036366D01*
X041064Y036357D01*
Y036344D01*
X041065Y036339D01*
Y036333D01*
X041066Y036326D01*
X041067Y036318D01*
X041068Y03631D01*
X04107Y036302D01*
X041205D01*
Y036304D01*
X041206Y036306D01*
X041206Y036308D01*
X041207Y036311D01*
Y036315D01*
X041208Y036323D01*
Y036332D01*
X041209Y036336D01*
Y036361D01*
X041208Y036364D01*
X041207Y036373D01*
X041207Y036382D01*
X041205Y036391D01*
X041204Y0364D01*
X041201Y036408D01*
X0412Y036409D01*
X041199Y036411D01*
X041198Y036415D01*
X041195Y036419D01*
X041191Y036424D01*
X041187Y036429D01*
X041182Y036434D01*
X041176Y036438D01*
X041175Y036438D01*
X041173Y036439D01*
X041169Y036441D01*
X041165Y036443D01*
X041159Y036445D01*
X041153Y036446D01*
X041146Y036447D01*
X041139Y036448D01*
D02*
G37*
G36*
X040171Y036418D02*
X040165D01*
X040164D01*
X040163D01*
X040162D01*
X04016Y036417D01*
X040153Y036416D01*
X040146Y036415D01*
X040137Y036413D01*
X040128Y036409D01*
X040119Y036404D01*
X040111Y036397D01*
X04011Y036396D01*
X040108Y036393D01*
X040104Y036389D01*
X040101Y036383D01*
X040097Y036375D01*
X040093Y036366D01*
X040091Y036355D01*
X04009Y036343D01*
Y036337D01*
X040091Y036332D01*
X040091Y036326D01*
X040092Y03632D01*
X040093Y036312D01*
X040095Y036303D01*
X040242D01*
Y036308D01*
X040243Y036311D01*
Y036322D01*
X040242Y036325D01*
Y03633D01*
X040241Y036334D01*
X04024Y036345D01*
X040237Y036357D01*
X040233Y036369D01*
X040228Y036381D01*
X040224Y036387D01*
X040221Y036392D01*
Y036392D01*
X04022Y036393D01*
X040217Y036396D01*
X040212Y0364D01*
X040205Y036405D01*
X040197Y036409D01*
X040188Y036414D01*
X040177Y036416D01*
X040171Y036418D01*
D02*
G37*
%LPD*%
D10*
X030179Y034403D02*
G03*
X030181Y0344I-000018J-000012D01*
G01*
X033317Y030728D02*
X035167D01*
X033317Y03187D02*
X035167D01*
Y030728D02*
Y030925D01*
Y031673D02*
Y03187D01*
X033317Y031673D02*
Y03187D01*
Y030728D02*
Y030925D01*
X033765Y030728D02*
Y031849D01*
X033886Y030728D02*
Y031866D01*
X034007Y030728D02*
Y031868D01*
X032736Y03223D02*
X035689Y032215D01*
Y035758D01*
X032736D02*
X035689D01*
X032736Y03223D02*
Y035758D01*
D11*
X035341Y025831D02*
G03*
X035341Y025831I-000049J0D01*
G01*
X041365Y031677D02*
G03*
X041365Y031677I-000049J0D01*
G01*
D12*
X042261Y031057D02*
G03*
X042261Y031057I-000118J0D01*
G01*
D13*
X046527Y03704D02*
G03*
X046532Y036958I-000645J-000083D01*
G01*
X039532Y031458D02*
G03*
X0378Y03145I-000866J-000006D01*
G01*
Y02885D02*
G03*
X039531Y02885I000865J000035D01*
G01*
X045851Y028234D02*
X046151D01*
Y028734D01*
X045851D02*
X046151D01*
X045861Y032224D02*
X046161D01*
Y032724D01*
X045861D02*
X046161D01*
X046831Y026974D02*
X048231D01*
X045831Y033974D02*
X048231D01*
X045831Y026974D02*
Y033974D01*
Y026974D02*
X046831D01*
X048231D02*
Y033974D01*
X03945Y03523D02*
Y03553D01*
Y03523D02*
X03995D01*
Y03553D01*
X04254Y03524D02*
Y03554D01*
Y03524D02*
X04304D01*
Y03554D01*
X03825Y03315D02*
X04425D01*
X03825Y03455D02*
Y03555D01*
X04425D01*
Y03315D02*
Y03555D01*
X03825Y03315D02*
Y03455D01*
X044641Y035708D02*
Y038208D01*
Y035708D02*
X047141D01*
Y038208D01*
X044641D02*
X047141D01*
X03953Y0288D02*
Y03145D01*
X0378Y02885D02*
Y03145D01*
X03832Y03035D02*
X03907D01*
X03871D02*
Y03065D01*
X03832Y02994D02*
X03906D01*
X03871Y02963D02*
Y02994D01*
D14*
X041443Y037152D02*
X043443D01*
X041443Y041152D02*
X043443D01*
Y037152D02*
Y041152D01*
X041443Y037152D02*
Y041152D01*
X033599Y028469D02*
X034701D01*
X033599Y025831D02*
X034701D01*
X033599D02*
Y028469D01*
X034701Y025831D02*
Y028469D01*
X041749Y029049D02*
X044151D01*
X041749Y031451D02*
X044151D01*
Y029049D02*
Y031451D01*
X041749Y029049D02*
Y031451D01*
X040388Y023408D02*
Y024048D01*
X041412Y023408D02*
Y024048D01*
X041235Y023408D02*
X041412D01*
X040388D02*
X040565D01*
X037388Y023308D02*
Y023948D01*
X038412Y023308D02*
Y023948D01*
X038235Y023308D02*
X038412D01*
X037388D02*
X037565D01*
X038888Y023358D02*
Y023998D01*
X039912Y023358D02*
Y023998D01*
X039735Y023358D02*
X039912D01*
X038888D02*
X039065D01*
X041838Y023408D02*
Y024048D01*
X042862Y023408D02*
Y024048D01*
X042685Y023408D02*
X042862D01*
X041838D02*
X042015D01*
X043288D02*
Y024048D01*
X044312Y023408D02*
Y024048D01*
X044135Y023408D02*
X044312D01*
X043288D02*
X043465D01*
D15*
X02979Y03429D02*
Y034297D01*
X029417D02*
X02979D01*
Y034057D02*
Y03429D01*
X02941Y03429D02*
X029417Y034297D01*
X02941Y034046D02*
Y03429D01*
X028813Y034046D02*
X030387D01*
Y036054D01*
X028813D02*
X030387D01*
X028813Y034046D02*
Y036054D01*
D16*
X031986Y027435D02*
Y027617D01*
X031514Y027435D02*
Y027617D01*
X033309Y025286D02*
X033491D01*
X033309Y024814D02*
X033491D01*
X045136Y033709D02*
Y033891D01*
X044664Y033709D02*
Y033891D01*
X042436Y026709D02*
Y026891D01*
X041964Y026709D02*
Y026891D01*
X040736Y026709D02*
Y026891D01*
X040264Y026709D02*
Y026891D01*
X041586Y026709D02*
Y026891D01*
X041114Y026709D02*
Y026891D01*
X039921Y030392D02*
Y030573D01*
X040394Y030392D02*
Y030573D01*
X040386Y028659D02*
Y028841D01*
X039914Y028659D02*
Y028841D01*
X043336Y026709D02*
Y026891D01*
X042864Y026709D02*
Y026891D01*
X044186Y026735D02*
Y026917D01*
X043714Y026735D02*
Y026917D01*
D17*
X032049Y026932D02*
Y02812D01*
X031451D02*
X032049D01*
X031451Y026932D02*
Y02812D01*
Y026932D02*
X032049D01*
X032806Y025349D02*
X033994D01*
X032806Y024751D02*
Y025349D01*
Y024751D02*
X033994D01*
Y025349D01*
X045199Y033206D02*
Y034395D01*
X044601D02*
X045199D01*
X044601Y033206D02*
Y034395D01*
Y033206D02*
X045199D01*
X042499Y026206D02*
Y027394D01*
X041901D02*
X042499D01*
X041901Y026206D02*
Y027394D01*
Y026206D02*
X042499D01*
X040799D02*
Y027394D01*
X040201D02*
X040799D01*
X040201Y026206D02*
Y027394D01*
Y026206D02*
X040799D01*
X041649D02*
Y027394D01*
X041051D02*
X041649D01*
X041051Y026206D02*
Y027394D01*
Y026206D02*
X041649D01*
X039858Y029888D02*
Y031077D01*
Y029888D02*
X040457D01*
Y031077D01*
X039858D02*
X040457D01*
X040449Y028156D02*
Y029344D01*
X039851D02*
X040449D01*
X039851Y028156D02*
Y029344D01*
Y028156D02*
X040449D01*
X043399Y026206D02*
Y027394D01*
X042801D02*
X043399D01*
X042801Y026206D02*
Y027394D01*
Y026206D02*
X043399D01*
X044249Y026232D02*
Y02742D01*
X043651D02*
X044249D01*
X043651Y026232D02*
Y02742D01*
Y026232D02*
X044249D01*
D18*
X043159Y037052D02*
X043243Y036968D01*
Y036802D01*
X043159Y036718D01*
X043076D01*
X042993Y036802D01*
X04291Y036718D01*
X042826D01*
X042743Y036802D01*
Y036968D01*
X042826Y037052D01*
X04291D01*
X042993Y036968D01*
X043076Y037052D01*
X043159D01*
X042993Y036968D02*
Y036802D01*
X042243Y037052D02*
Y036718D01*
X042159D01*
X041826Y037052D01*
X041743D01*
Y041452D02*
Y041285D01*
Y041368D01*
X042243D01*
X042159Y041452D01*
X042743Y041318D02*
Y041652D01*
X043076Y041318D01*
X043159D01*
X043243Y041402D01*
Y041568D01*
X043159Y041652D01*
D19*
X039805Y032662D02*
Y032162D01*
X039905Y032062D01*
X040105D01*
X040205Y032162D01*
Y032662D01*
X040805Y032062D02*
X040405D01*
X040805Y032462D01*
Y032562D01*
X040705Y032662D01*
X040505D01*
X040405Y032562D01*
X029246Y037032D02*
Y036532D01*
X029346Y036432D01*
X029546D01*
X029646Y036532D01*
Y037032D01*
X029846Y036432D02*
X030046D01*
X029946D01*
Y037032D01*
X029846Y036932D01*
X033015Y036845D02*
Y036245D01*
X033415D01*
X033615D02*
X033815D01*
X033715D01*
Y036845D01*
X033615Y036745D01*
X03587Y031442D02*
Y030842D01*
X03617D01*
X03627Y030942D01*
Y031342D01*
X03617Y031442D01*
X03587D01*
X03647Y030842D02*
X03667D01*
X03657D01*
Y031442D01*
X03647Y031342D01*
X037052Y025693D02*
X036652D01*
X036452Y025893D01*
X036652Y026093D01*
X037052D01*
X036752D01*
Y025693D01*
X037052Y026293D02*
X036452D01*
X036652Y026493D01*
X036452Y026693D01*
X037052D01*
X036552Y027293D02*
X036452Y027193D01*
Y026993D01*
X036552Y026893D01*
X036652D01*
X036752Y026993D01*
Y027193D01*
X036852Y027293D01*
X036952D01*
X037052Y027193D01*
Y026993D01*
X036952Y026893D01*
X037052Y027493D02*
Y027693D01*
Y027593D01*
X036452D01*
X036552Y027493D01*
M02*
