G04*
G04 #@! TF.GenerationSoftware,Altium Limited,Altium Designer,21.0.9 (235)*
G04*
G04 Layer_Color=2752767*
%FSTAX24Y24*%
%MOIN*%
G70*
G04*
G04 #@! TF.SameCoordinates,013E48BC-1F52-4242-9F7F-A7329D5E5ACC*
G04*
G04*
G04 #@! TF.FilePolarity,Positive*
G04*
G01*
G75*
%ADD70C,0.0020*%
%ADD71C,0.0027*%
D70*
X041863Y040572D02*
Y040732D01*
X042023D01*
Y040572D01*
X041863D01*
X042863D02*
Y040732D01*
X043023D01*
Y040572D01*
X042863D01*
X041863Y039572D02*
Y039732D01*
X042023D01*
Y039572D01*
X041863D01*
X042863D02*
Y039732D01*
X043023D01*
Y039572D01*
X042863D01*
X041863Y038572D02*
Y038732D01*
X042023D01*
Y038572D01*
X041863D01*
X042863D02*
Y038732D01*
X043023D01*
Y038572D01*
X042863D01*
X041863Y037572D02*
Y037732D01*
X042023D01*
Y037572D01*
X041863D01*
X042863D02*
Y037732D01*
X043023D01*
Y037572D01*
X042863D01*
X0298Y02777D02*
X02972Y02793D01*
X02988D01*
X0298Y02777D01*
Y02577D02*
X02972Y02593D01*
X02988D01*
X0298Y02577D01*
X046831Y027894D02*
X046871Y027934D01*
X046911D01*
X046871Y027974D01*
X046911Y028014D01*
X046871D01*
X046831Y028054D01*
X046791Y028014D01*
X046751D01*
X046791Y027974D01*
X046751Y027934D01*
X046791D01*
X046831Y027894D01*
Y029894D02*
X046871Y029934D01*
X046911D01*
X046871Y029974D01*
X046911Y030014D01*
X046871D01*
X046831Y030054D01*
X046791Y030014D01*
X046751D01*
X046791Y029974D01*
X046751Y029934D01*
X046791D01*
X046831Y029894D01*
Y030894D02*
X046871Y030934D01*
X046911D01*
X046871Y030974D01*
X046911Y031014D01*
X046871D01*
X046831Y031054D01*
X046791Y031014D01*
X046751D01*
X046791Y030974D01*
X046751Y030934D01*
X046791D01*
X046831Y030894D01*
Y031894D02*
X046871Y031934D01*
X046911D01*
X046871Y031974D01*
X046911Y032014D01*
X046871D01*
X046831Y032054D01*
X046791Y032014D01*
X046751D01*
X046791Y031974D01*
X046751Y031934D01*
X046791D01*
X046831Y031894D01*
Y032894D02*
X046871Y032934D01*
X046911D01*
X046871Y032974D01*
X046911Y033014D01*
X046871D01*
X046831Y033054D01*
X046791Y033014D01*
X046751D01*
X046791Y032974D01*
X046751Y032934D01*
X046791D01*
X046831Y032894D01*
Y028894D02*
X046871Y028934D01*
X046911D01*
X046871Y028974D01*
X046911Y029014D01*
X046871D01*
X046831Y029054D01*
X046791Y029014D01*
X046751D01*
X046791Y028974D01*
X046751Y028934D01*
X046791D01*
X046831Y028894D01*
X03477Y02942D02*
X03481Y0295D01*
X03477Y02958D01*
X03485Y02954D01*
X03493Y02958D01*
X03489Y0295D01*
X03493Y02942D01*
X03485Y02946D01*
X03477Y02942D01*
X03377D02*
X03381Y0295D01*
X03377Y02958D01*
X03385Y02954D01*
X03393Y02958D01*
X03389Y0295D01*
X03393Y02942D01*
X03385Y02946D01*
X03377Y02942D01*
X038208Y020708D02*
Y020668D01*
X038288D01*
Y020708D01*
X038328D01*
Y020788D01*
X038288D01*
Y020828D01*
X038208D01*
Y020788D01*
X038168D01*
Y020708D01*
X038208D01*
X03925Y03447D02*
X03929Y03451D01*
X03933D01*
X03929Y03455D01*
X03933Y03459D01*
X03929D01*
X03925Y03463D01*
X03921Y03459D01*
X03917D01*
X03921Y03455D01*
X03917Y03451D01*
X03921D01*
X03925Y03447D01*
X04325D02*
X04329Y03451D01*
X04333D01*
X04329Y03455D01*
X04333Y03459D01*
X04329D01*
X04325Y03463D01*
X04321Y03459D01*
X04317D01*
X04321Y03455D01*
X04317Y03451D01*
X04321D01*
X04325Y03447D01*
X04225D02*
X04229Y03451D01*
X04233D01*
X04229Y03455D01*
X04233Y03459D01*
X04229D01*
X04225Y03463D01*
X04221Y03459D01*
X04217D01*
X04221Y03455D01*
X04217Y03451D01*
X04221D01*
X04225Y03447D01*
X04125D02*
X04129Y03451D01*
X04133D01*
X04129Y03455D01*
X04133Y03459D01*
X04129D01*
X04125Y03463D01*
X04121Y03459D01*
X04117D01*
X04121Y03455D01*
X04117Y03451D01*
X04121D01*
X04125Y03447D01*
X04025D02*
X04029Y03451D01*
X04033D01*
X04029Y03455D01*
X04033Y03459D01*
X04029D01*
X04025Y03463D01*
X04021Y03459D01*
X04017D01*
X04021Y03455D01*
X04017Y03451D01*
X04021D01*
X04025Y03447D01*
X030708Y038858D02*
Y038818D01*
X030788D01*
Y038858D01*
X030828D01*
Y038938D01*
X030788D01*
Y038978D01*
X030708D01*
Y038938D01*
X030668D01*
Y038858D01*
X030708D01*
X038208Y041988D02*
Y041948D01*
X038288D01*
Y041988D01*
X038328D01*
Y042068D01*
X038288D01*
Y042108D01*
X038208D01*
Y042068D01*
X038168D01*
Y041988D01*
X038208D01*
X045691Y038908D02*
Y038868D01*
X045771D01*
Y038908D01*
X045811D01*
Y038988D01*
X045771D01*
Y039028D01*
X045691D01*
Y038988D01*
X045651D01*
Y038908D01*
X045691D01*
X048838Y031358D02*
Y031318D01*
X048918D01*
Y031358D01*
X048958D01*
Y031438D01*
X048918D01*
Y031478D01*
X048838D01*
Y031438D01*
X048798D01*
Y031358D01*
X048838D01*
X045693Y023872D02*
Y023832D01*
X045773D01*
Y023872D01*
X045813D01*
Y023952D01*
X045773D01*
Y023992D01*
X045693D01*
Y023952D01*
X045653D01*
Y023872D01*
X045693D01*
X046811Y036878D02*
X046851D01*
X046891Y036918D01*
X046931Y036878D01*
X046971D01*
Y036918D01*
X046931Y036958D01*
X046971Y036998D01*
Y037038D01*
X046931D01*
X046891Y036998D01*
X046851Y037038D01*
X046811D01*
Y036998D01*
X046851Y036958D01*
X046811Y036918D01*
Y036878D01*
X044811D02*
X044851D01*
X044891Y036918D01*
X044931Y036878D01*
X044971D01*
Y036918D01*
X044931Y036958D01*
X044971Y036998D01*
Y037038D01*
X044931D01*
X044891Y036998D01*
X044851Y037038D01*
X044811D01*
Y036998D01*
X044851Y036958D01*
X044811Y036918D01*
Y036878D01*
X0387Y02907D02*
X03874Y02911D01*
X03878D01*
X03874Y02915D01*
X03878Y02919D01*
X03874D01*
X0387Y02923D01*
X03866Y02919D01*
X03862D01*
X03866Y02915D01*
X03862Y02911D01*
X03866D01*
X0387Y02907D01*
Y03107D02*
X03874Y03111D01*
X03878D01*
X03874Y03115D01*
X03878Y03119D01*
X03874D01*
X0387Y03123D01*
X03866Y03119D01*
X03862D01*
X03866Y03115D01*
X03862Y03111D01*
X03866D01*
X0387Y03107D01*
X03929Y037402D02*
X03937Y037482D01*
X03945Y037402D01*
X03937Y037322D01*
X03929Y037402D01*
X035353Y041339D02*
X035433Y041419D01*
X035513Y041339D01*
X035433Y041259D01*
X035353Y041339D01*
X036337Y023622D02*
X036417Y023702D01*
X036497Y023622D01*
X036417Y023542D01*
X036337Y023622D01*
X033385Y041339D02*
X033465Y041419D01*
X033545Y041339D01*
X033465Y041259D01*
X033385Y041339D01*
X034369Y03937D02*
X034449Y03945D01*
X034529Y03937D01*
X034449Y03929D01*
X034369Y03937D01*
X033385Y037402D02*
X033465Y037482D01*
X033545Y037402D01*
X033465Y037322D01*
X033385Y037402D01*
X034369Y023622D02*
X034449Y023702D01*
X034529Y023622D01*
X034449Y023542D01*
X034369Y023622D01*
X0324Y03937D02*
X03248Y03945D01*
X03256Y03937D01*
X03248Y03929D01*
X0324Y03937D01*
X029448Y033465D02*
X029528Y033545D01*
X029608Y033465D01*
X029528Y033385D01*
X029448Y033465D01*
X030432Y023622D02*
X030512Y023702D01*
X030592Y023622D01*
X030512Y023542D01*
X030432Y023622D01*
X027479Y033465D02*
X027559Y033545D01*
X027639Y033465D01*
X027559Y033385D01*
X027479Y033465D01*
Y029528D02*
X027559Y029608D01*
X027639Y029528D01*
X027559Y029448D01*
X027479Y029528D01*
X03805Y039616D02*
X03813Y039696D01*
X03821Y039616D01*
X03813Y039536D01*
X03805Y039616D01*
X037499Y021919D02*
X037579Y021999D01*
X037659Y021919D01*
X037579Y021839D01*
X037499Y021919D01*
X042713Y027874D02*
X042793Y027954D01*
X042873Y027874D01*
X042793Y027794D01*
X042713Y027874D01*
X039428Y027341D02*
Y027501D01*
X039588D01*
Y027341D01*
X039428D01*
X039468Y027381D02*
Y027461D01*
X039548D01*
Y027381D01*
X039468D01*
X040422Y027844D02*
X040502Y027924D01*
X040582Y027844D01*
X040502Y027764D01*
X040422Y027844D01*
X045314Y035059D02*
X045394Y035139D01*
X045474Y035059D01*
X045394Y034979D01*
X045314Y035059D01*
X044192Y036299D02*
X044272Y036379D01*
X044352Y036299D01*
X044272Y036219D01*
X044192Y036299D01*
X038188Y02619D02*
Y02635D01*
X038348D01*
Y02619D01*
X038188D01*
X038228Y02623D02*
Y02631D01*
X038308D01*
Y02623D01*
X038228D01*
X038709Y0225D02*
X038789Y02258D01*
X038869Y0225D01*
X038789Y02242D01*
X038709Y0225D01*
X036357Y021496D02*
X036437Y021576D01*
X036517Y021496D01*
X036437Y021416D01*
X036357Y021496D01*
X043896Y022382D02*
X043976Y022462D01*
X044056Y022382D01*
X043976Y022302D01*
X043896Y022382D01*
X040816Y022441D02*
X040896Y022521D01*
X040976Y022441D01*
X040896Y022361D01*
X040816Y022441D01*
X043385Y025225D02*
Y025385D01*
X043545D01*
Y025225D01*
X043385D01*
X043425Y025265D02*
Y025345D01*
X043505D01*
Y025265D01*
X043425D01*
X041979Y025231D02*
Y025391D01*
X042139D01*
Y025231D01*
X041979D01*
X042019Y025271D02*
Y025351D01*
X042099D01*
Y025271D01*
X042019D01*
X038926Y02524D02*
Y0254D01*
X039086D01*
Y02524D01*
X038926D01*
X038966Y02528D02*
Y02536D01*
X039046D01*
Y02528D01*
X038966D01*
X040451Y025225D02*
Y025385D01*
X040612D01*
Y025225D01*
X040451D01*
X040491Y025265D02*
Y025345D01*
X040571D01*
Y025265D01*
X040491D01*
X039635Y026623D02*
Y026783D01*
X039795D01*
Y026623D01*
X039635D01*
X039675Y026663D02*
Y026743D01*
X039755D01*
Y026663D01*
X039675D01*
X03931Y022854D02*
X03939Y022934D01*
X03947Y022854D01*
X03939Y022774D01*
X03931Y022854D01*
X035215Y024959D02*
Y025119D01*
X035375D01*
Y024959D01*
X035215D01*
X035255Y024999D02*
Y025079D01*
X035335D01*
Y024999D01*
X035255D01*
X03056Y03055D02*
Y03071D01*
X03072D01*
Y03055D01*
X03056D01*
X0306Y03059D02*
Y03067D01*
X03068D01*
Y03059D01*
X0306D01*
X036485Y029507D02*
Y029667D01*
X036645D01*
Y029507D01*
X036485D01*
X036525Y029547D02*
Y029627D01*
X036605D01*
Y029547D01*
X036525D01*
X044287Y032589D02*
X044367Y032669D01*
X044447Y032589D01*
X044367Y032509D01*
X044287Y032589D01*
X042282Y032549D02*
X042362Y032629D01*
X042442Y032549D01*
X042362Y032469D01*
X042282Y032549D01*
X043011Y032894D02*
X043091Y032974D01*
X043171Y032894D01*
X043091Y032814D01*
X043011Y032894D01*
X045205Y030018D02*
Y030178D01*
X045365D01*
Y030018D01*
X045205D01*
X045245Y030058D02*
Y030138D01*
X045325D01*
Y030058D01*
X045245D01*
X042715Y029108D02*
X042795Y029188D01*
X042875Y029108D01*
X042795Y029028D01*
X042715Y029108D01*
X04202Y030327D02*
Y030487D01*
X04218D01*
Y030327D01*
X04202D01*
X04206Y030367D02*
Y030447D01*
X04214D01*
Y030367D01*
X04206D01*
X040392Y031339D02*
X040472Y031419D01*
X040552Y031339D01*
X040472Y031259D01*
X040392Y031339D01*
D71*
X032854Y037992D02*
G03*
X032854Y037992I-00008J0D01*
G01*
X034854D02*
G03*
X034854Y037992I-00008J0D01*
G01*
X02983Y0316D02*
G03*
X02983Y0316I-00008J0D01*
G01*
X03183D02*
G03*
X03183Y0316I-00008J0D01*
G01*
M02*
