M48
;Layer_Color=9474304
;FILE_FORMAT=2:4
INCH,LZ
;TYPE=PLATED
T1F00S00C0.0157
T2F00S00C0.0236
T3F00S00C0.0310
T4F00S00C0.0315
T5F00S00C0.0340
T6F00S00C0.0350
T7F00S00C0.0354
T8F00S00C0.0390
T9F00S00C0.0472
%
T01
X036437Y021496
X037579Y021919
X038789Y0225
X03939Y022854
X040896Y022441
X043976Y022382
X042793Y027874
X042795Y029108
X040502Y027844
X036417Y023622
X034449
X030512
X027559Y029528
Y033465
X029528
X033465Y037402
X034449Y03937
X03248
X033465Y041339
X035433
X03813Y039616
X03937Y037402
X044272Y036299
X045394Y035059
X044367Y032589
X043091Y032894
X042362Y032549
X040472Y031339
T02
X035295Y025039
X039006Y02532
X040532Y025305
X042059Y025311
X043465Y025305
X039715Y026703
X039508Y027421
X038268Y02627
X036565Y029587
X0421Y030407
X045285Y030098
X03064Y03063
T03
X044891Y036958
X046891
T04
X03385Y0295
X03485
T05
X0387Y02915
Y03115
X046831Y030974
Y029974
Y028974
Y027974
Y031974
Y032974
X04325Y03455
X04225
X04125
X04025
X03925
T06
X02975Y0316
X03175
X032774Y037992
X034774
T07
X041943Y037652
Y038652
Y039652
Y040652
X042943
Y039652
Y038652
Y037652
T08
X038248Y020748
X045733Y023912
X030748Y038898
X038248Y042028
X045731Y038948
X048878Y031398
T09
X0298Y02585
Y02785
M30
