G04*
G04 #@! TF.GenerationSoftware,Altium Limited,Altium Designer,21.0.9 (235)*
G04*
G04 Layer_Color=16711935*
%FSTAX24Y24*%
%MOIN*%
G70*
G04*
G04 #@! TF.SameCoordinates,7FC3A568-097F-4849-A274-7F7CC5E3089F*
G04*
G04*
G04 #@! TF.FilePolarity,Positive*
G04*
G01*
G75*
%ADD21C,0.0039*%
%ADD23C,0.0030*%
%ADD103C,0.0000*%
%ADD104C,0.0010*%
D21*
X047067Y039646D02*
G03*
X047067Y039646I-000197J0D01*
G01*
X047224Y039291D02*
Y042047D01*
X044468Y039291D02*
Y042047D01*
Y039291D02*
X047224D01*
X044468Y042047D02*
X047224D01*
D23*
X037293Y016815D02*
X03696Y017148D01*
X037293D02*
X03696Y016815D01*
X037293Y016982D02*
X03696D01*
X037127Y017148D02*
Y016815D01*
D103*
X036163Y016702D02*
G03*
X035923Y016702I-00012J0D01*
G01*
D104*
X037318D02*
Y019972D01*
X034768Y016702D02*
X037318D01*
X034768D02*
Y019972D01*
X037318D01*
X033993Y017127D02*
X034768D01*
X033993D02*
Y017547D01*
X034768D01*
Y017127D02*
Y017547D01*
X033993Y019127D02*
X034768D01*
X033993D02*
Y019547D01*
X034768D01*
Y019127D02*
Y019547D01*
X037318D02*
X038093D01*
Y019127D02*
Y019547D01*
X037318Y019127D02*
X038093D01*
X037318D02*
Y019547D01*
Y017547D02*
X038093D01*
Y017127D02*
Y017547D01*
X037318Y017127D02*
X038093D01*
X037318D02*
Y017547D01*
M02*
