G04*
G04 #@! TF.GenerationSoftware,Altium Limited,Altium Designer,21.0.9 (235)*
G04*
G04 Layer_Color=255*
%FSTAX24Y24*%
%MOIN*%
G70*
G04*
G04 #@! TF.SameCoordinates,7FC3A568-097F-4849-A274-7F7CC5E3089F*
G04*
G04*
G04 #@! TF.FilePolarity,Positive*
G04*
G01*
G75*
%ADD74R,0.0906X0.0906*%
%ADD75C,0.0906*%
%ADD76O,0.0591X0.0512*%
%ADD77R,0.0591X0.0512*%
%ADD78R,0.0800X0.0800*%
%ADD79C,0.0800*%
%ADD80R,0.0512X0.0591*%
%ADD81O,0.0512X0.0591*%
%ADD82O,0.0900X0.0600*%
%ADD83R,0.0900X0.0600*%
%ADD84R,0.0591X0.0591*%
%ADD85C,0.0591*%
%ADD86C,0.0850*%
%ADD87C,0.0555*%
%ADD88R,0.0555X0.0555*%
%ADD89C,0.0700*%
%ADD90R,0.0591X0.0591*%
%ADD91C,0.1299*%
%ADD92R,0.1201X0.0965*%
%ADD93O,0.1201X0.0965*%
%ADD94C,0.0787*%
%ADD95R,0.0984X0.0787*%
%ADD96O,0.0750X0.0900*%
%ADD97R,0.0750X0.0900*%
%ADD98C,0.0750*%
%ADD99R,0.0800X0.0800*%
D74*
X042687Y035522D02*
D03*
D75*
X040718D02*
D03*
D76*
X045837Y033923D02*
D03*
D77*
Y032923D02*
D03*
D78*
X044327Y029823D02*
D03*
X049537Y029872D02*
D03*
X044285Y035512D02*
D03*
D79*
X040827Y029823D02*
D03*
X046037Y029872D02*
D03*
X047785Y035512D02*
D03*
X050522Y020409D02*
D03*
D80*
X046289Y027904D02*
D03*
D81*
X047289D02*
D03*
D82*
X044272Y027185D02*
D03*
Y026185D02*
D03*
X041272D02*
D03*
D83*
Y027185D02*
D03*
D84*
X049337Y022972D02*
D03*
X038907Y035846D02*
D03*
D85*
X047337Y022972D02*
D03*
X041004Y019317D02*
D03*
X037907Y035846D02*
D03*
X040325Y042772D02*
D03*
X041325D02*
D03*
X040325Y041772D02*
D03*
X041325D02*
D03*
X040325Y040772D02*
D03*
X041325D02*
D03*
X040325Y039772D02*
D03*
D86*
X045276Y022205D02*
D03*
X041276D02*
D03*
D87*
X045579Y020128D02*
D03*
X047579D02*
D03*
X045579Y017128D02*
D03*
X046579D02*
D03*
X047579D02*
D03*
X048579D02*
D03*
D88*
Y020128D02*
D03*
D89*
X043602Y019884D02*
D03*
Y017884D02*
D03*
X037124Y021466D02*
D03*
X030124D02*
D03*
D90*
X041004Y017317D02*
D03*
X041325Y039772D02*
D03*
D91*
X030827Y014705D02*
D03*
X050295Y046004D02*
D03*
X031378Y046112D02*
D03*
X049783Y014774D02*
D03*
D92*
X03125Y024754D02*
D03*
D93*
X032825D02*
D03*
X0344D02*
D03*
X035974D02*
D03*
X037549D02*
D03*
Y029872D02*
D03*
X035974D02*
D03*
X0344D02*
D03*
X032825D02*
D03*
X03125D02*
D03*
D94*
X049523Y026053D02*
D03*
X046323D02*
D03*
D95*
X03128Y017356D02*
D03*
Y019356D02*
D03*
D96*
X042496Y046073D02*
D03*
X044496D02*
D03*
X045496D02*
D03*
X046496D02*
D03*
X043496D02*
D03*
X036061Y035679D02*
D03*
X034061D02*
D03*
X033061D02*
D03*
X032061D02*
D03*
X035061D02*
D03*
D97*
X047496Y046073D02*
D03*
X031061Y035679D02*
D03*
D98*
X050098Y042673D02*
D03*
Y040673D02*
D03*
X049606Y03547D02*
D03*
Y03747D02*
D03*
D99*
X050522Y016909D02*
D03*
M02*
