G04*
G04 #@! TF.GenerationSoftware,Altium Limited,Altium Designer,21.0.9 (235)*
G04*
G04 Layer_Color=8421504*
%FSTAX24Y24*%
%MOIN*%
G70*
G04*
G04 #@! TF.SameCoordinates,7FC3A568-097F-4849-A274-7F7CC5E3089F*
G04*
G04*
G04 #@! TF.FilePolarity,Positive*
G04*
G01*
G75*
%ADD26R,0.0512X0.0354*%
%ADD27R,0.0354X0.0512*%
%ADD28R,0.0945X0.1299*%
%ADD29R,0.0945X0.0394*%
%ADD30R,0.0600X0.0600*%
%ADD31R,0.0630X0.0709*%
%ADD32R,0.0992X0.0440*%
%ADD33O,0.0531X0.0217*%
%ADD34O,0.0217X0.0531*%
D26*
X04874Y042382D02*
D03*
Y04313D02*
D03*
Y040709D02*
D03*
Y041457D02*
D03*
X044242Y033652D02*
D03*
Y032904D02*
D03*
D27*
X047785Y036693D02*
D03*
X047037D02*
D03*
X04126Y028455D02*
D03*
X042008D02*
D03*
X043947Y028435D02*
D03*
X043199D02*
D03*
X038553Y020866D02*
D03*
X037805D02*
D03*
X043583Y016703D02*
D03*
X044331D02*
D03*
X044528Y02437D02*
D03*
X045276D02*
D03*
D28*
X050217Y033031D02*
D03*
D29*
X047933Y032126D02*
D03*
Y033031D02*
D03*
Y033937D02*
D03*
D30*
X045901Y031329D02*
D03*
X044331Y031339D02*
D03*
D31*
X042943Y024587D02*
D03*
X041093D02*
D03*
D32*
X034273Y017337D02*
D03*
Y019337D02*
D03*
X037814D02*
D03*
Y017337D02*
D03*
D33*
X04748Y039567D02*
D03*
Y039882D02*
D03*
Y040197D02*
D03*
Y040512D02*
D03*
Y040827D02*
D03*
Y041142D02*
D03*
Y041457D02*
D03*
Y041772D02*
D03*
X044213D02*
D03*
Y041457D02*
D03*
Y041142D02*
D03*
Y040827D02*
D03*
Y040512D02*
D03*
Y040197D02*
D03*
Y039882D02*
D03*
Y039567D02*
D03*
D34*
X046949Y042303D02*
D03*
X046634D02*
D03*
X046319D02*
D03*
X046004D02*
D03*
X045689D02*
D03*
X045374D02*
D03*
X045059D02*
D03*
X044744D02*
D03*
Y039035D02*
D03*
X045059D02*
D03*
X045374D02*
D03*
X045689D02*
D03*
X046004D02*
D03*
X046319D02*
D03*
X046634D02*
D03*
X046949D02*
D03*
M02*
