G04*
G04 #@! TF.GenerationSoftware,Altium Limited,Altium Designer,21.0.9 (235)*
G04*
G04 Layer_Physical_Order=2*
G04 Layer_Color=16711680*
%FSTAX24Y24*%
%MOIN*%
G70*
G04*
G04 #@! TF.SameCoordinates,7FC3A568-097F-4849-A274-7F7CC5E3089F*
G04*
G04*
G04 #@! TF.FilePolarity,Positive*
G04*
G01*
G75*
%ADD69C,0.0315*%
%ADD70C,0.0157*%
%ADD71C,0.0197*%
%ADD72C,0.0394*%
%ADD73C,0.0276*%
%ADD74R,0.0906X0.0906*%
%ADD75C,0.0906*%
%ADD76O,0.0591X0.0512*%
%ADD77R,0.0591X0.0512*%
%ADD78R,0.0800X0.0800*%
%ADD79C,0.0800*%
%ADD80R,0.0512X0.0591*%
%ADD81O,0.0512X0.0591*%
%ADD82O,0.0900X0.0600*%
%ADD83R,0.0900X0.0600*%
%ADD84R,0.0591X0.0591*%
%ADD85C,0.0591*%
%ADD86C,0.0850*%
%ADD87C,0.0555*%
%ADD88R,0.0555X0.0555*%
%ADD89C,0.0700*%
%ADD90R,0.0591X0.0591*%
%ADD91C,0.1299*%
%ADD92R,0.1201X0.0965*%
%ADD93O,0.1201X0.0965*%
%ADD94C,0.0787*%
%ADD95R,0.0984X0.0787*%
%ADD96O,0.0750X0.0900*%
%ADD97R,0.0750X0.0900*%
%ADD98C,0.0750*%
%ADD99R,0.0800X0.0800*%
%ADD100C,0.0276*%
%ADD101C,0.0472*%
%ADD102C,0.0315*%
G36*
X049655Y046828D02*
X049616Y0468D01*
X049499Y046684D01*
X049403Y046551D01*
X049328Y046404D01*
X049278Y046248D01*
X049252Y046086D01*
Y045922D01*
X049278Y04576D01*
X049328Y045603D01*
X049403Y045457D01*
X049499Y045324D01*
X049616Y045208D01*
X049748Y045112D01*
X049895Y045037D01*
X050051Y044986D01*
X050213Y044961D01*
X050377D01*
X05054Y044986D01*
X050665Y045027D01*
X050715Y044992D01*
X050715Y043215D01*
X050665Y043194D01*
X050588Y04327D01*
X050463Y043354D01*
X050323Y043412D01*
X050174Y043442D01*
X050023D01*
X049874Y043412D01*
X049734Y043354D01*
X049608Y04327D01*
X049501Y043163D01*
X049417Y043037D01*
X049359Y042897D01*
X04933Y042749D01*
Y042598D01*
X049359Y042449D01*
X049417Y042309D01*
X049501Y042183D01*
X049608Y042076D01*
X049734Y041992D01*
X049874Y041934D01*
X050023Y041905D01*
X050174D01*
X050323Y041934D01*
X050463Y041992D01*
X050588Y042076D01*
X050665Y042152D01*
X050715Y042132D01*
Y041215D01*
X050665Y041194D01*
X050588Y04127D01*
X050463Y041354D01*
X050323Y041412D01*
X050174Y041442D01*
X050023D01*
X049874Y041412D01*
X049734Y041354D01*
X049608Y04127D01*
X049501Y041163D01*
X049417Y041037D01*
X049359Y040897D01*
X04933Y040749D01*
Y040598D01*
X049359Y040449D01*
X049417Y040309D01*
X049501Y040183D01*
X049608Y040076D01*
X049734Y039992D01*
X049874Y039934D01*
X050023Y039905D01*
X050174D01*
X050323Y039934D01*
X050463Y039992D01*
X050588Y040076D01*
X050665Y040152D01*
X050715Y040132D01*
X050715Y030945D01*
X049429D01*
Y031027D01*
X049405Y031148D01*
X049357Y031263D01*
X049355Y031266D01*
Y035017D01*
X049398Y035042D01*
X049423Y035028D01*
X049544Y034995D01*
X049556D01*
Y03547D01*
Y035945D01*
X049544D01*
X049423Y035913D01*
X049315Y035851D01*
X049226Y035762D01*
X049224Y035759D01*
X049162Y035751D01*
X049008Y035905D01*
X048893Y035993D01*
X048759Y036049D01*
X048615Y036068D01*
X048352D01*
X048322Y036098D01*
Y036752D01*
X048303Y036891D01*
X048281Y036944D01*
X048303Y036994D01*
X049D01*
X049009Y03698D01*
X049116Y036873D01*
X049242Y036789D01*
X049382Y036731D01*
X049531Y036702D01*
X049682D01*
X049831Y036731D01*
X04997Y036789D01*
X050096Y036873D01*
X050203Y03698D01*
X050288Y037106D01*
X050345Y037246D01*
X050375Y037395D01*
Y037546D01*
X050345Y037695D01*
X050288Y037835D01*
X050203Y03796D01*
X050096Y038068D01*
X04997Y038152D01*
X049831Y03821D01*
X049682Y038239D01*
X049531D01*
X049382Y03821D01*
X049242Y038152D01*
X049116Y038068D01*
X049009Y03796D01*
X049Y037947D01*
X048042D01*
X04776Y038229D01*
Y039982D01*
X04781Y039992D01*
X047828Y039949D01*
X047907Y039846D01*
X04801Y039767D01*
X048129Y039717D01*
X048258Y0397D01*
X048386Y039717D01*
X048506Y039767D01*
X048609Y039846D01*
X048688Y039949D01*
X048737Y040068D01*
X048754Y040197D01*
Y041161D01*
X048754Y041161D01*
X048737Y04129D01*
X048688Y04141D01*
X048609Y041512D01*
X048609Y041512D01*
X048607Y041515D01*
Y04212D01*
X048647Y042218D01*
X048666Y042362D01*
Y044026D01*
X048647Y044169D01*
X048592Y044304D01*
X048503Y044419D01*
X048052Y04487D01*
Y04505D01*
X048102Y045071D01*
X048178Y045039D01*
Y045276D01*
Y045512D01*
X048102Y045481D01*
X048052Y045501D01*
Y046073D01*
X048033Y046217D01*
X047978Y046351D01*
X047971Y046359D01*
Y046623D01*
X047541D01*
X047496Y046629D01*
X047451Y046623D01*
X047101D01*
X047042Y046694D01*
X046925Y04679D01*
X046858Y046826D01*
X04687Y046876D01*
X04964D01*
X049655Y046828D01*
D02*
G37*
G36*
X042067Y045356D02*
X0422Y045284D01*
X042345Y04524D01*
X042496Y045225D01*
X042647Y04524D01*
X042792Y045284D01*
X042925Y045356D01*
X04297Y045392D01*
X04302Y045368D01*
Y043248D01*
X041919D01*
Y045412D01*
X041969Y045436D01*
X042067Y045356D01*
D02*
G37*
G36*
X045061Y043241D02*
X045164Y043172D01*
X045279Y043125D01*
X045401Y0431D01*
X045525D01*
X045646Y043125D01*
X045757Y04317D01*
X045771Y043165D01*
X045807Y043143D01*
Y043038D01*
X045845Y042897D01*
X045882Y042833D01*
Y042061D01*
X044998D01*
X044973Y04209D01*
Y043259D01*
X045023Y043279D01*
X045061Y043241D01*
D02*
G37*
G36*
X046413Y040624D02*
Y037589D01*
X046431Y03745D01*
X046485Y037321D01*
X04657Y03721D01*
X047249Y03653D01*
Y036098D01*
X047169Y036018D01*
X047082Y035888D01*
X047022Y035743D01*
X046992Y03559D01*
Y035434D01*
X047022Y03528D01*
X047082Y035136D01*
X047169Y035006D01*
X047279Y034895D01*
X047409Y034808D01*
X047554Y034749D01*
X047707Y034718D01*
X047864D01*
X048017Y034749D01*
X048161Y034808D01*
X048199Y034834D01*
X048243Y03481D01*
Y034232D01*
X048197Y034213D01*
X048094Y034316D01*
X047979Y034405D01*
X047845Y03446D01*
X047701Y034479D01*
X041304D01*
Y035492D01*
X041285Y035636D01*
X041255Y03571D01*
Y036786D01*
X041704Y037235D01*
X041789Y037346D01*
X041811Y0374D01*
X041843Y037475D01*
X041861Y037614D01*
Y039075D01*
X041919D01*
Y040272D01*
X042181D01*
X042212Y040222D01*
X042169Y040119D01*
X042151Y03998D01*
Y036368D01*
X041841D01*
Y034675D01*
X043533D01*
Y034718D01*
X045079D01*
Y035228D01*
X045125Y035247D01*
X045141Y035231D01*
X045226Y035196D01*
Y035433D01*
Y03567D01*
X045141Y035635D01*
X045125Y035619D01*
X045079Y035638D01*
Y036306D01*
X043533D01*
Y036368D01*
X043223D01*
Y039758D01*
X04407Y040606D01*
X045643D01*
X045676Y040584D01*
X045791Y040536D01*
X045912Y040512D01*
X046036D01*
X046158Y040536D01*
X046273Y040584D01*
X046363Y040644D01*
X046413Y040624D01*
D02*
G37*
G36*
X039789Y038756D02*
X039375Y038342D01*
X03929Y038231D01*
X039236Y038101D01*
X039218Y037963D01*
Y036242D01*
X038957D01*
Y035846D01*
Y035451D01*
X039218D01*
Y033085D01*
X039236Y032946D01*
X03929Y032817D01*
X039375Y032706D01*
X039536Y032544D01*
X039647Y032459D01*
X039777Y032405D01*
X039915Y032387D01*
X045148D01*
Y032274D01*
X046526D01*
Y033367D01*
X047387D01*
Y030945D01*
X029984D01*
Y039075D01*
X039789Y039075D01*
Y038756D01*
D02*
G37*
%LPC*%
G36*
X048278Y045512D02*
Y045326D01*
X048465D01*
X04843Y04541D01*
X048363Y045477D01*
X048278Y045512D01*
D02*
G37*
G36*
X048465Y045226D02*
X048278D01*
Y045039D01*
X048363Y045074D01*
X04843Y045141D01*
X048465Y045226D01*
D02*
G37*
G36*
X049263Y039607D02*
Y03942D01*
X049449D01*
X049414Y039505D01*
X049347Y039572D01*
X049263Y039607D01*
D02*
G37*
G36*
X049163D02*
X049078Y039572D01*
X049011Y039505D01*
X048976Y03942D01*
X049163D01*
Y039607D01*
D02*
G37*
G36*
X049449Y03932D02*
X049263D01*
Y039133D01*
X049347Y039168D01*
X049414Y039235D01*
X049449Y03932D01*
D02*
G37*
G36*
X049163D02*
X048976D01*
X049011Y039235D01*
X049078Y039168D01*
X049163Y039133D01*
Y03932D01*
D02*
G37*
G36*
X049669Y035945D02*
X049656D01*
Y03552D01*
X050081D01*
Y035533D01*
X050049Y035654D01*
X049986Y035762D01*
X049898Y035851D01*
X04979Y035913D01*
X049669Y035945D01*
D02*
G37*
G36*
X050081Y03542D02*
X049656D01*
Y034995D01*
X049669D01*
X04979Y035028D01*
X049898Y03509D01*
X049986Y035179D01*
X050049Y035287D01*
X050081Y035408D01*
Y03542D01*
D02*
G37*
G36*
X045326Y03567D02*
Y035483D01*
X045512D01*
X045477Y035568D01*
X04541Y035635D01*
X045326Y03567D01*
D02*
G37*
G36*
X045512Y035383D02*
X045326D01*
Y035196D01*
X04541Y035231D01*
X045477Y035298D01*
X045512Y035383D01*
D02*
G37*
G36*
X036136Y038071D02*
X03599D01*
X03585Y038033D01*
X035725Y037961D01*
X035622Y037858D01*
X035549Y037732D01*
X035512Y037592D01*
Y037447D01*
X035549Y037307D01*
X035585Y037244D01*
Y036383D01*
X035535Y036359D01*
X03549Y036396D01*
X035357Y036468D01*
X035212Y036512D01*
X035061Y036527D01*
X03491Y036512D01*
X034765Y036468D01*
X034632Y036396D01*
X034561Y036338D01*
X03449Y036396D01*
X034357Y036468D01*
X034212Y036512D01*
X034061Y036527D01*
X03391Y036512D01*
X033765Y036468D01*
X033632Y036396D01*
X033561Y036338D01*
X03349Y036396D01*
X033357Y036468D01*
X033212Y036512D01*
X033061Y036527D01*
X03291Y036512D01*
X032765Y036468D01*
X032632Y036396D01*
X032561Y036338D01*
X03249Y036396D01*
X032357Y036468D01*
X032212Y036512D01*
X032061Y036527D01*
X03191Y036512D01*
X031864Y036498D01*
X03183Y036523D01*
Y036523D01*
X030292D01*
Y034835D01*
X03183D01*
Y034835D01*
X031864Y034861D01*
X03191Y034847D01*
X032061Y034832D01*
X032212Y034847D01*
X032357Y034891D01*
X03249Y034962D01*
X032561Y03502D01*
X032632Y034962D01*
X032765Y034891D01*
X03291Y034847D01*
X033061Y034832D01*
X033212Y034847D01*
X033357Y034891D01*
X03349Y034962D01*
X033561Y03502D01*
X033632Y034962D01*
X033765Y034891D01*
X03391Y034847D01*
X034061Y034832D01*
X034212Y034847D01*
X034357Y034891D01*
X03449Y034962D01*
X034561Y03502D01*
X034632Y034962D01*
X034765Y034891D01*
X03491Y034847D01*
X035061Y034832D01*
X035212Y034847D01*
X035357Y034891D01*
X03549Y034962D01*
X035561Y03502D01*
X035632Y034962D01*
X035765Y034891D01*
X03591Y034847D01*
X036061Y034832D01*
X036212Y034847D01*
X036357Y034891D01*
X03649Y034962D01*
X036607Y035058D01*
X036703Y035175D01*
X036775Y035309D01*
X036819Y035453D01*
X036833Y035604D01*
Y035754D01*
X036819Y035905D01*
X036775Y03605D01*
X036703Y036183D01*
X036607Y0363D01*
X036539Y036357D01*
Y037241D01*
X036577Y037307D01*
X036614Y037447D01*
Y037592D01*
X036577Y037732D01*
X036504Y037858D01*
X036401Y037961D01*
X036276Y038033D01*
X036136Y038071D01*
D02*
G37*
G36*
X037975Y036535D02*
X03784D01*
X037707Y036509D01*
X037581Y036457D01*
X037468Y036382D01*
X037372Y036286D01*
X037297Y036173D01*
X037245Y036047D01*
X037218Y035914D01*
Y035779D01*
X037245Y035645D01*
X037297Y03552D01*
X037372Y035407D01*
X037468Y035311D01*
X037581Y035236D01*
X037707Y035184D01*
X03784Y035157D01*
X037975D01*
X038108Y035184D01*
X038234Y035236D01*
X038347Y035311D01*
X038443Y035407D01*
X038464Y035439D01*
X038512Y035451D01*
Y035451D01*
X038512Y035451D01*
X038857D01*
Y035846D01*
Y036242D01*
X038512D01*
X038512Y036242D01*
Y036242D01*
X038465Y036253D01*
X038443Y036286D01*
X038347Y036382D01*
X038234Y036457D01*
X038108Y036509D01*
X037975Y036535D01*
D02*
G37*
G36*
X036467Y033701D02*
Y033515D01*
X036654D01*
X036619Y033599D01*
X036552Y033666D01*
X036467Y033701D01*
D02*
G37*
G36*
X036367D02*
X036283Y033666D01*
X036216Y033599D01*
X036181Y033515D01*
X036367D01*
Y033701D01*
D02*
G37*
G36*
X034499D02*
Y033515D01*
X034685D01*
X03465Y033599D01*
X034584Y033666D01*
X034499Y033701D01*
D02*
G37*
G36*
X034399D02*
X034314Y033666D01*
X034247Y033599D01*
X034212Y033515D01*
X034399D01*
Y033701D01*
D02*
G37*
G36*
X03253D02*
Y033515D01*
X032717D01*
X032682Y033599D01*
X032615Y033666D01*
X03253Y033701D01*
D02*
G37*
G36*
X03243D02*
X032346Y033666D01*
X032279Y033599D01*
X032244Y033515D01*
X03243D01*
Y033701D01*
D02*
G37*
G36*
X036654Y033415D02*
X036467D01*
Y033228D01*
X036552Y033263D01*
X036619Y03333D01*
X036654Y033415D01*
D02*
G37*
G36*
X036367D02*
X036181D01*
X036216Y03333D01*
X036283Y033263D01*
X036367Y033228D01*
Y033415D01*
D02*
G37*
G36*
X034685D02*
X034499D01*
Y033228D01*
X034584Y033263D01*
X03465Y03333D01*
X034685Y033415D01*
D02*
G37*
G36*
X034399D02*
X034212D01*
X034247Y03333D01*
X034314Y033263D01*
X034399Y033228D01*
Y033415D01*
D02*
G37*
G36*
X032717D02*
X03253D01*
Y033228D01*
X032615Y033263D01*
X032682Y03333D01*
X032717Y033415D01*
D02*
G37*
G36*
X03243D02*
X032244D01*
X032279Y03333D01*
X032346Y033263D01*
X03243Y033228D01*
Y033415D01*
D02*
G37*
G36*
X043357Y031733D02*
Y031546D01*
X043544D01*
X043509Y031631D01*
X043442Y031698D01*
X043357Y031733D01*
D02*
G37*
G36*
X043257D02*
X043172Y031698D01*
X043106Y031631D01*
X04307Y031546D01*
X043257D01*
Y031733D01*
D02*
G37*
G36*
X041389D02*
Y031546D01*
X041575D01*
X04154Y031631D01*
X041473Y031698D01*
X041389Y031733D01*
D02*
G37*
G36*
X041289D02*
X041204Y031698D01*
X041137Y031631D01*
X041102Y031546D01*
X041289D01*
Y031733D01*
D02*
G37*
G36*
X03942D02*
Y031546D01*
X039607D01*
X039572Y031631D01*
X039505Y031698D01*
X03942Y031733D01*
D02*
G37*
G36*
X03932D02*
X039235Y031698D01*
X039168Y031631D01*
X039133Y031546D01*
X03932D01*
Y031733D01*
D02*
G37*
G36*
X037452D02*
Y031546D01*
X037638D01*
X037603Y031631D01*
X037536Y031698D01*
X037452Y031733D01*
D02*
G37*
G36*
X037352D02*
X037267Y031698D01*
X0372Y031631D01*
X037165Y031546D01*
X037352D01*
Y031733D01*
D02*
G37*
G36*
X035483D02*
Y031546D01*
X03567D01*
X035635Y031631D01*
X035568Y031698D01*
X035483Y031733D01*
D02*
G37*
G36*
X035383D02*
X035298Y031698D01*
X035231Y031631D01*
X035196Y031546D01*
X035383D01*
Y031733D01*
D02*
G37*
G36*
X033515D02*
Y031546D01*
X033701D01*
X033666Y031631D01*
X033599Y031698D01*
X033515Y031733D01*
D02*
G37*
G36*
X033415D02*
X03333Y031698D01*
X033263Y031631D01*
X033228Y031546D01*
X033415D01*
Y031733D01*
D02*
G37*
G36*
X031546D02*
Y031546D01*
X031733D01*
X031698Y031631D01*
X031631Y031698D01*
X031546Y031733D01*
D02*
G37*
G36*
X031446D02*
X031361Y031698D01*
X031294Y031631D01*
X031259Y031546D01*
X031446D01*
Y031733D01*
D02*
G37*
G36*
X043544Y031446D02*
X043357D01*
Y031259D01*
X043442Y031294D01*
X043509Y031361D01*
X043544Y031446D01*
D02*
G37*
G36*
X043257D02*
X04307D01*
X043106Y031361D01*
X043172Y031294D01*
X043257Y031259D01*
Y031446D01*
D02*
G37*
G36*
X041575D02*
X041389D01*
Y031259D01*
X041473Y031294D01*
X04154Y031361D01*
X041575Y031446D01*
D02*
G37*
G36*
X041289D02*
X041102D01*
X041137Y031361D01*
X041204Y031294D01*
X041289Y031259D01*
Y031446D01*
D02*
G37*
G36*
X039607D02*
X03942D01*
Y031259D01*
X039505Y031294D01*
X039572Y031361D01*
X039607Y031446D01*
D02*
G37*
G36*
X03932D02*
X039133D01*
X039168Y031361D01*
X039235Y031294D01*
X03932Y031259D01*
Y031446D01*
D02*
G37*
G36*
X037638D02*
X037452D01*
Y031259D01*
X037536Y031294D01*
X037603Y031361D01*
X037638Y031446D01*
D02*
G37*
G36*
X037352D02*
X037165D01*
X0372Y031361D01*
X037267Y031294D01*
X037352Y031259D01*
Y031446D01*
D02*
G37*
G36*
X03567D02*
X035483D01*
Y031259D01*
X035568Y031294D01*
X035635Y031361D01*
X03567Y031446D01*
D02*
G37*
G36*
X035383D02*
X035196D01*
X035231Y031361D01*
X035298Y031294D01*
X035383Y031259D01*
Y031446D01*
D02*
G37*
G36*
X033701D02*
X033515D01*
Y031259D01*
X033599Y031294D01*
X033666Y031361D01*
X033701Y031446D01*
D02*
G37*
G36*
X033415D02*
X033228D01*
X033263Y031361D01*
X03333Y031294D01*
X033415Y031259D01*
Y031446D01*
D02*
G37*
G36*
X031733D02*
X031546D01*
Y031259D01*
X031631Y031294D01*
X031698Y031361D01*
X031733Y031446D01*
D02*
G37*
G36*
X031446D02*
X031259D01*
X031294Y031361D01*
X031361Y031294D01*
X031446Y031259D01*
Y031446D01*
D02*
G37*
%LPD*%
D69*
X045837Y033923D02*
X047701D01*
X040933D02*
X045837D01*
X033366Y015591D02*
Y021823D01*
X031427Y022008D02*
X033182D01*
X033366Y021823D01*
X033009Y022697D02*
X037254D01*
X038819Y021132D01*
X032825Y022881D02*
X033009Y022697D01*
X032825Y022881D02*
Y024754D01*
X031265Y02217D02*
X031427Y022008D01*
X03125Y022185D02*
Y024754D01*
X04811Y042362D02*
Y044026D01*
X047496Y04464D02*
X04811Y044026D01*
X047496Y04464D02*
Y046073D01*
X040748Y034108D02*
Y035492D01*
Y034108D02*
X040933Y033923D01*
X040718Y035522D02*
X040748Y035492D01*
X047785Y035512D02*
X048615D01*
X048799Y030965D02*
Y035327D01*
X048615Y035512D02*
X048799Y035327D01*
X047701Y033923D02*
X047943Y033681D01*
Y028661D02*
Y033681D01*
X040827Y028915D02*
X04108Y028661D01*
X047943D01*
X047758Y027904D02*
X047943Y028088D01*
X047289Y027904D02*
X047758D01*
X047943Y028088D02*
Y028661D01*
X040827Y028915D02*
Y029823D01*
X043589Y024449D02*
X043897D01*
X043435Y024604D02*
Y027001D01*
X043897Y024449D02*
X043927Y024419D01*
X043435Y024604D02*
X043589Y024449D01*
X04362Y027185D02*
X044272D01*
X043435Y027001D02*
X04362Y027185D01*
X041274Y022207D02*
Y026183D01*
X041272Y026185D02*
X041274Y026183D01*
Y022207D02*
X041276Y022205D01*
X046306Y02607D02*
X046323Y026053D01*
X046306Y02607D02*
Y027887D01*
X046289Y027904D02*
X046306Y027887D01*
X047313Y022996D02*
Y02788D01*
X047289Y027904D02*
X047313Y02788D01*
Y022996D02*
X047337Y022972D01*
X046272Y018612D02*
X046457Y018797D01*
X044692Y018612D02*
X046272D01*
X046457Y018797D02*
Y02202D01*
X045276Y022205D02*
X046272D01*
X046457Y02202D01*
X044508Y018428D02*
X044692Y018612D01*
X044508Y017995D02*
Y018428D01*
X044323Y01781D02*
X044508Y017995D01*
X043676Y01781D02*
X044323D01*
X043602Y017884D02*
X043676Y01781D01*
X038819Y021132D02*
X038937Y021014D01*
X045394D01*
X045579Y020829D01*
Y020128D02*
Y020829D01*
D70*
X03125Y022185D02*
X031265Y02217D01*
X042805Y041492D02*
X042897Y041585D01*
X046266D01*
X041348Y040748D02*
X042713D01*
X042805Y04084D01*
Y041492D01*
X045484Y046061D02*
X045496Y046073D01*
X045484Y04515D02*
Y046061D01*
X045472Y045138D02*
X045484Y04515D01*
X047274Y04377D02*
X047283Y04376D01*
Y038031D02*
X047844Y03747D01*
X047283Y038031D02*
Y04376D01*
X047844Y03747D02*
X049606D01*
X046358Y041677D02*
Y04311D01*
X042638Y041998D02*
X044404D01*
X044496Y04209D02*
Y046073D01*
X044404Y041998D02*
X044496Y04209D01*
X042411Y041772D02*
X042638Y041998D01*
X046266Y041585D02*
X046358Y041677D01*
X043404Y042772D02*
X043496Y042864D01*
X041325Y042772D02*
X043404D01*
X043496Y042864D02*
Y046073D01*
X041325Y041772D02*
X042411D01*
X039695Y046073D02*
X042496D01*
X039429Y045807D02*
X039695Y046073D01*
X039429Y041884D02*
X039521Y041791D01*
X039429Y041884D02*
Y045807D01*
X039521Y041791D02*
X040305D01*
X040325Y041772D01*
X041325Y040772D02*
X041348Y040748D01*
X036062Y03568D02*
Y037519D01*
X036061Y035679D02*
X036062Y03568D01*
Y037519D02*
X036063Y03752D01*
D71*
X045463Y04373D02*
Y044194D01*
X045578Y04431D01*
X046445D01*
X048258Y040197D02*
Y041161D01*
X04811Y041309D02*
X048258Y041161D01*
X04811Y041309D02*
Y042362D01*
X049337Y02233D02*
Y022972D01*
X049221Y022215D02*
X049337Y02233D01*
X046407Y022894D02*
X047087Y022215D01*
X049221D01*
X049311Y022998D02*
X049337Y022972D01*
X045965Y023366D02*
X046407Y022923D01*
Y022894D02*
Y022923D01*
X042106Y023366D02*
X045965D01*
X049523Y026053D02*
Y029858D01*
X049537Y029872D01*
X049311Y022998D02*
Y024419D01*
X049523Y024632D01*
Y026053D01*
D72*
X050571Y022067D02*
Y024409D01*
X049665Y021161D02*
X050571Y022067D01*
X049665Y017392D02*
Y021161D01*
X049419Y017146D02*
X049665Y017392D01*
X048596Y017146D02*
X049419D01*
X048579Y017128D02*
X048596Y017146D01*
X046161Y024419D02*
Y024966D01*
X044577Y025197D02*
X045931D01*
X046161Y024966D01*
X044272Y025502D02*
X044577Y025197D01*
X044272Y025502D02*
Y026185D01*
X045348Y015522D02*
X045579Y015752D01*
X042416Y015522D02*
X045348D01*
X045579Y015752D02*
Y017128D01*
X042185Y015752D02*
Y01909D01*
Y015752D02*
X042416Y015522D01*
X041008Y019321D02*
X041954D01*
X042185Y01909D01*
X041004Y019317D02*
X041008Y019321D01*
D73*
X039754Y037963D02*
X040325Y038533D01*
Y039772D01*
X039754Y033085D02*
Y037963D01*
X046949Y037589D02*
Y043278D01*
Y037589D02*
X047785Y036752D01*
Y035512D02*
Y036752D01*
X046445Y043781D02*
X046949Y043278D01*
X046445Y043781D02*
Y04431D01*
Y044363D02*
X046496Y044414D01*
Y046073D01*
X046445Y04431D02*
Y044363D01*
X042687Y035522D02*
Y03998D01*
X043848Y041142D02*
X045974D01*
X042687Y03998D02*
X043848Y041142D01*
X039915Y032923D02*
X045837D01*
X039754Y033085D02*
X039915Y032923D01*
X041325Y037614D02*
Y039772D01*
X040718Y037008D02*
X041325Y037614D01*
X040718Y035522D02*
Y037008D01*
D74*
X042687Y035522D02*
D03*
D75*
X040718D02*
D03*
D76*
X045837Y033923D02*
D03*
D77*
Y032923D02*
D03*
D78*
X044327Y029823D02*
D03*
X049537Y029872D02*
D03*
X044285Y035512D02*
D03*
D79*
X040827Y029823D02*
D03*
X046037Y029872D02*
D03*
X047785Y035512D02*
D03*
X050522Y020409D02*
D03*
D80*
X046289Y027904D02*
D03*
D81*
X047289D02*
D03*
D82*
X044272Y027185D02*
D03*
Y026185D02*
D03*
X041272D02*
D03*
D83*
Y027185D02*
D03*
D84*
X049337Y022972D02*
D03*
X038907Y035846D02*
D03*
D85*
X047337Y022972D02*
D03*
X041004Y019317D02*
D03*
X037907Y035846D02*
D03*
X040325Y042772D02*
D03*
X041325D02*
D03*
X040325Y041772D02*
D03*
X041325D02*
D03*
X040325Y040772D02*
D03*
X041325D02*
D03*
X040325Y039772D02*
D03*
D86*
X045276Y022205D02*
D03*
X041276D02*
D03*
D87*
X045579Y020128D02*
D03*
X047579D02*
D03*
X045579Y017128D02*
D03*
X046579D02*
D03*
X047579D02*
D03*
X048579D02*
D03*
D88*
Y020128D02*
D03*
D89*
X043602Y019884D02*
D03*
Y017884D02*
D03*
X037124Y021466D02*
D03*
X030124D02*
D03*
D90*
X041004Y017317D02*
D03*
X041325Y039772D02*
D03*
D91*
X030827Y014705D02*
D03*
X050295Y046004D02*
D03*
X031378Y046112D02*
D03*
X049783Y014774D02*
D03*
D92*
X03125Y024754D02*
D03*
D93*
X032825D02*
D03*
X0344D02*
D03*
X035974D02*
D03*
X037549D02*
D03*
Y029872D02*
D03*
X035974D02*
D03*
X0344D02*
D03*
X032825D02*
D03*
X03125D02*
D03*
D94*
X049523Y026053D02*
D03*
X046323D02*
D03*
D95*
X03128Y017356D02*
D03*
Y019356D02*
D03*
D96*
X042496Y046073D02*
D03*
X044496D02*
D03*
X045496D02*
D03*
X046496D02*
D03*
X043496D02*
D03*
X036061Y035679D02*
D03*
X034061D02*
D03*
X033061D02*
D03*
X032061D02*
D03*
X035061D02*
D03*
D97*
X047496Y046073D02*
D03*
X031061Y035679D02*
D03*
D98*
X050098Y042673D02*
D03*
Y040673D02*
D03*
X049606Y03547D02*
D03*
Y03747D02*
D03*
D99*
X050522Y016909D02*
D03*
D100*
X049213Y03937D02*
D03*
X048228Y045276D02*
D03*
X045276Y035433D02*
D03*
X043307Y031496D02*
D03*
X041339D02*
D03*
X03937D02*
D03*
X037402D02*
D03*
X036417Y033465D02*
D03*
X035433Y031496D02*
D03*
X034449Y033465D02*
D03*
X033465Y031496D02*
D03*
X03248Y033465D02*
D03*
X031496Y031496D02*
D03*
D101*
X039596Y029843D02*
D03*
X046445Y04431D02*
D03*
X045463Y04373D02*
D03*
X048258Y040197D02*
D03*
X04811Y042362D02*
D03*
X045974Y041142D02*
D03*
X048799Y030965D02*
D03*
X047943Y028661D02*
D03*
X050571Y024409D02*
D03*
X046161Y024419D02*
D03*
X043927D02*
D03*
X033366Y015591D02*
D03*
D102*
X045472Y045138D02*
D03*
X047274Y04377D02*
D03*
X046358Y04311D02*
D03*
X036063Y03752D02*
D03*
X042106Y023366D02*
D03*
M02*
