M48
;Layer_Color=9474304
;FILE_FORMAT=2:4
INCH,LZ
;TYPE=PLATED
T1F00S00C0.0157
T2F00S00C0.0236
T3F00S00C0.0310
T4F00S00C0.0315
T5F00S00C0.0339
T6F00S00C0.0340
T7F00S00C0.0350
T8F00S00C0.0354
T9F00S00C0.0472
T10F00S00C0.0591
T11F00S00C0.1181
%
T01
X031496Y031496
X033465
X035433
X037402
X03937
X041339
X043307
X045276Y035433
X036417Y033465
X034449
X03248
X049213Y03937
X048228Y045276
T02
X042106Y023366
X036063Y03752
X046358Y04311
X045472Y045138
X047274Y04377
T03
X037124Y021466
X041276Y022205
X041272Y026185
Y027185
X044272
Y026185
X045276Y022205
X043602Y019884
Y017884
X030124Y021466
X049606Y03547
Y03747
T04
X033366Y015591
X047337Y022972
X049337
X050571Y024409
X047289Y027904
X047943Y028661
X048799Y030965
X046289Y027904
X046161Y024419
X043927
X041004Y019317
Y017317
X039596Y029843
X045837Y032923
Y033923
X045974Y041142
X045463Y04373
X046445Y04431
X04811Y042362
X048258Y040197
T05
X047579Y017128
X048579
Y020128
X047579
X045579
Y017128
X046579
T06
X031061Y035679
X032061
X033061
X034061
X035061
X036061
X042496Y046073
X043496
X044496
X045496
X046496
X047496
X050098Y042673
Y040673
T07
X050522Y016909
Y020409
X049537Y029872
X046037
X044327Y029823
X040827
X044285Y035512
X047785
T08
X037907Y035846
X038907
X040325Y039772
Y040772
Y041772
Y042772
X041325
Y041772
Y040772
Y039772
T09
X049523Y026053
X046323
X037549Y024754
X035974
X0344
X032825
X03125
Y029872
X032825
X0344
X035974
X037549
X03128Y019356
Y017356
T10
X040718Y035522
X042687
T11
X030827Y014705
X049783Y014774
X031378Y046112
X050295Y046004
M30
