G04*
G04 #@! TF.GenerationSoftware,Altium Limited,Altium Designer,21.0.9 (235)*
G04*
G04 Layer_Color=128*
%FSTAX24Y24*%
%MOIN*%
G70*
G04*
G04 #@! TF.SameCoordinates,7FC3A568-097F-4849-A274-7F7CC5E3089F*
G04*
G04*
G04 #@! TF.FilePolarity,Positive*
G04*
G01*
G75*
%ADD105C,0.0020*%
D105*
X042392Y035522D02*
X042982D01*
X042687Y035226D02*
Y035817D01*
X040423Y035522D02*
X041014D01*
X040718Y035226D02*
Y035817D01*
X045679Y033923D02*
X045994D01*
X045837Y033766D02*
Y034081D01*
X045679Y032923D02*
X045994D01*
X045837Y032766D02*
Y033081D01*
X044152Y029823D02*
X044502D01*
X044327Y029648D02*
Y029998D01*
X040652Y029823D02*
X041002D01*
X040827Y029648D02*
Y029998D01*
X049362Y029872D02*
X049712D01*
X049537Y029697D02*
Y030047D01*
X045862Y029872D02*
X046212D01*
X046037Y029697D02*
Y030047D01*
X046132Y027904D02*
X046447D01*
X046289Y027746D02*
Y028061D01*
X047132Y027904D02*
X047447D01*
X047289Y027746D02*
Y028061D01*
X044117Y027185D02*
X044427D01*
X044272Y02703D02*
Y02734D01*
X044117Y026185D02*
X044427D01*
X044272Y02603D02*
Y02634D01*
X041117Y026185D02*
X041427D01*
X041272Y02603D02*
Y02634D01*
X041117Y027185D02*
X041427D01*
X041272Y02703D02*
Y02734D01*
X049179Y022972D02*
X049494D01*
X049337Y022815D02*
Y02313D01*
X047179Y022972D02*
X047494D01*
X047337Y022815D02*
Y02313D01*
X045121Y022205D02*
X045431D01*
X045276Y02205D02*
Y02236D01*
X041121Y022205D02*
X041431D01*
X041276Y02205D02*
Y02236D01*
X045409Y020128D02*
X045748D01*
X045579Y019959D02*
Y020297D01*
X047409Y020128D02*
X047748D01*
X047579Y019959D02*
Y020297D01*
X048409Y020128D02*
X048748D01*
X048579Y019959D02*
Y020297D01*
X045409Y017128D02*
X045748D01*
X045579Y016959D02*
Y017297D01*
X046409Y017128D02*
X046748D01*
X046579Y016959D02*
Y017297D01*
X047409Y017128D02*
X047748D01*
X047579Y016959D02*
Y017297D01*
X048409Y017128D02*
X048748D01*
X048579Y016959D02*
Y017297D01*
X043447Y019884D02*
X043757D01*
X043602Y019729D02*
Y020039D01*
X043447Y017884D02*
X043757D01*
X043602Y017729D02*
Y018039D01*
X040846Y017317D02*
X041161D01*
X041004Y017159D02*
Y017474D01*
X040846Y019317D02*
X041161D01*
X041004Y019159D02*
Y019474D01*
X030236Y014705D02*
X031417D01*
X030827Y014114D02*
Y015295D01*
X031014Y024754D02*
X031486D01*
X03125Y024518D02*
Y02499D01*
X032589Y024754D02*
X033061D01*
X032825Y024518D02*
Y02499D01*
X034163Y024754D02*
X034636D01*
X0344Y024518D02*
Y02499D01*
X035738Y024754D02*
X036211D01*
X035974Y024518D02*
Y02499D01*
X037313Y024754D02*
X037785D01*
X037549Y024518D02*
Y02499D01*
X037313Y029872D02*
X037785D01*
X037549Y029636D02*
Y030108D01*
X035738Y029872D02*
X036211D01*
X035974Y029636D02*
Y030108D01*
X034163Y029872D02*
X034636D01*
X0344Y029636D02*
Y030108D01*
X032589Y029872D02*
X033061D01*
X032825Y029636D02*
Y030108D01*
X031014Y029872D02*
X031486D01*
X03125Y029636D02*
Y030108D01*
X049287Y026053D02*
X049759D01*
X049523Y025817D02*
Y026289D01*
X046087Y026053D02*
X046559D01*
X046323Y025817D02*
Y026289D01*
X031043Y017356D02*
X031516D01*
X03128Y01712D02*
Y017593D01*
X031043Y019356D02*
X031516D01*
X03128Y01912D02*
Y019593D01*
X049705Y046004D02*
X050886D01*
X050295Y045413D02*
Y046594D01*
X030787Y046112D02*
X031969D01*
X031378Y045522D02*
Y046703D01*
X049193Y014774D02*
X050374D01*
X049783Y014183D02*
Y015364D01*
X036969Y021466D02*
X037279D01*
X037124Y021311D02*
Y021621D01*
X029969Y021466D02*
X030279D01*
X030124Y021311D02*
Y021621D01*
X04411Y035512D02*
X04446D01*
X044285Y035337D02*
Y035687D01*
X04761Y035512D02*
X04796D01*
X047785Y035337D02*
Y035687D01*
X042326Y046073D02*
X042666D01*
X042496Y045903D02*
Y046243D01*
X044326Y046073D02*
X044666D01*
X044496Y045903D02*
Y046243D01*
X045326Y046073D02*
X045666D01*
X045496Y045903D02*
Y046243D01*
X046326Y046073D02*
X046666D01*
X046496Y045903D02*
Y046243D01*
X047326Y046073D02*
X047666D01*
X047496Y045903D02*
Y046243D01*
X043326Y046073D02*
X043666D01*
X043496Y045903D02*
Y046243D01*
X035891Y035679D02*
X036231D01*
X036061Y035509D02*
Y035849D01*
X033891Y035679D02*
X034231D01*
X034061Y035509D02*
Y035849D01*
X032891Y035679D02*
X033231D01*
X033061Y035509D02*
Y035849D01*
X031891Y035679D02*
X032231D01*
X032061Y035509D02*
Y035849D01*
X030891Y035679D02*
X031231D01*
X031061Y035509D02*
Y035849D01*
X034891Y035679D02*
X035231D01*
X035061Y035509D02*
Y035849D01*
X03773Y035846D02*
X038085D01*
X037907Y035669D02*
Y036024D01*
X03873Y035846D02*
X039085D01*
X038907Y035669D02*
Y036024D01*
X040148Y042772D02*
X040502D01*
X040325Y042594D02*
Y042949D01*
X041148Y042772D02*
X041502D01*
X041325Y042594D02*
Y042949D01*
X040148Y041772D02*
X040502D01*
X040325Y041594D02*
Y041949D01*
X041148Y041772D02*
X041502D01*
X041325Y041594D02*
Y041949D01*
X040148Y040772D02*
X040502D01*
X040325Y040594D02*
Y040949D01*
X041148Y040772D02*
X041502D01*
X041325Y040594D02*
Y040949D01*
X040148Y039772D02*
X040502D01*
X040325Y039594D02*
Y039949D01*
X041148Y039772D02*
X041502D01*
X041325Y039594D02*
Y039949D01*
X049928Y042673D02*
X050268D01*
X050098Y042503D02*
Y042843D01*
X049928Y040673D02*
X050268D01*
X050098Y040503D02*
Y040843D01*
X049451Y03547D02*
X049761D01*
X049606Y035315D02*
Y035625D01*
X049451Y03747D02*
X049761D01*
X049606Y037315D02*
Y037625D01*
X050347Y016909D02*
X050697D01*
X050522Y016734D02*
Y017084D01*
X050347Y020409D02*
X050697D01*
X050522Y020234D02*
Y020584D01*
X049134Y03937D02*
X049291D01*
X049213Y039291D02*
Y039449D01*
X04815Y045276D02*
X048307D01*
X048228Y045197D02*
Y045354D01*
X045197Y035433D02*
X045354D01*
X045276Y035354D02*
Y035512D01*
X043228Y031496D02*
X043386D01*
X043307Y031417D02*
Y031575D01*
X04126Y031496D02*
X041417D01*
X041339Y031417D02*
Y031575D01*
X039291Y031496D02*
X039449D01*
X03937Y031417D02*
Y031575D01*
X037323Y031496D02*
X03748D01*
X037402Y031417D02*
Y031575D01*
X036339Y033465D02*
X036496D01*
X036417Y033386D02*
Y033543D01*
X035354Y031496D02*
X035512D01*
X035433Y031417D02*
Y031575D01*
X03437Y033465D02*
X034528D01*
X034449Y033386D02*
Y033543D01*
X033386Y031496D02*
X033543D01*
X033465Y031417D02*
Y031575D01*
X032402Y033465D02*
X032559D01*
X03248Y033386D02*
Y033543D01*
X031417Y031496D02*
X031575D01*
X031496Y031417D02*
Y031575D01*
X039439Y029843D02*
X039754D01*
X039596Y029685D02*
Y03D01*
X045354Y045138D02*
X045591D01*
X045472Y04502D02*
Y045256D01*
X047156Y04377D02*
X047392D01*
X047274Y043652D02*
Y043888D01*
X046288Y04431D02*
X046603D01*
X046445Y044152D02*
Y044467D01*
X045305Y04373D02*
X04562D01*
X045463Y043573D02*
Y043888D01*
X04624Y04311D02*
X046476D01*
X046358Y042992D02*
Y043228D01*
X035945Y03752D02*
X036181D01*
X036063Y037402D02*
Y037638D01*
X0481Y040197D02*
X048415D01*
X048258Y040039D02*
Y040354D01*
X047953Y042362D02*
X048268D01*
X04811Y042205D02*
Y04252D01*
X045817Y041142D02*
X046132D01*
X045974Y040984D02*
Y041299D01*
X048642Y030965D02*
X048957D01*
X048799Y030807D02*
Y031122D01*
X047785Y028661D02*
X0481D01*
X047943Y028504D02*
Y028819D01*
X050413Y024409D02*
X050728D01*
X050571Y024252D02*
Y024567D01*
X046004Y024419D02*
X046319D01*
X046161Y024262D02*
Y024577D01*
X04377Y024419D02*
X044085D01*
X043927Y024262D02*
Y024577D01*
X041988Y023366D02*
X042224D01*
X042106Y023248D02*
Y023484D01*
X033209Y015591D02*
X033524D01*
X033366Y015433D02*
Y015748D01*
M02*
