G04*
G04 #@! TF.GenerationSoftware,Altium Limited,Altium Designer,21.0.9 (235)*
G04*
G04 Layer_Color=65535*
%FSTAX24Y24*%
%MOIN*%
G70*
G04*
G04 #@! TF.SameCoordinates,7FC3A568-097F-4849-A274-7F7CC5E3089F*
G04*
G04*
G04 #@! TF.FilePolarity,Positive*
G04*
G01*
G75*
%ADD10C,0.0098*%
%ADD11C,0.0100*%
%ADD12C,0.0070*%
%ADD13C,0.0150*%
%ADD14C,0.0080*%
%ADD15C,0.0118*%
%ADD16C,0.0236*%
%ADD17C,0.0050*%
%ADD18C,0.0040*%
%ADD19C,0.0079*%
%ADD20C,0.0120*%
%ADD21C,0.0039*%
%ADD22C,0.0060*%
%ADD23C,0.0030*%
%ADD24R,0.0200X0.1000*%
%ADD25R,0.1000X0.0200*%
G36*
X030656Y034184D02*
X031366D01*
X031016Y034534D01*
Y034544D01*
X030656Y034184D01*
D02*
G37*
G36*
X050498Y041558D02*
X049708D01*
Y041788D01*
X050498D01*
Y041558D01*
D02*
G37*
G36*
X047901Y047568D02*
X047191D01*
X047541Y047218D01*
Y047208D01*
X047901Y047568D01*
D02*
G37*
G36*
X031972Y034226D02*
X031979Y034225D01*
X031989Y034223D01*
X031999Y034222D01*
X03201Y03422D01*
X032022Y034217D01*
X032035Y034213D01*
X032048Y03421D01*
X032061Y034205D01*
X032075Y034198D01*
X032089Y034191D01*
X032102Y034183D01*
X032115Y034174D01*
X032116Y034173D01*
X032119Y034171D01*
X032123Y034167D01*
X032129Y034161D01*
X032135Y034153D01*
X032143Y034145D01*
X032152Y034135D01*
X03216Y034123D01*
X032168Y03411D01*
X032176Y034095D01*
X032184Y034079D01*
X032191Y034062D01*
X032197Y034043D01*
X032201Y034022D01*
X032204Y034D01*
X032205Y033977D01*
Y033971D01*
X032204Y033965D01*
X032203Y033956D01*
X032202Y033946D01*
X0322Y033933D01*
X032197Y033919D01*
X032194Y033905D01*
X032189Y03389D01*
X032184Y033874D01*
X032177Y033858D01*
X032168Y033841D01*
X032159Y033825D01*
X032147Y033809D01*
X032134Y033795D01*
X032119Y033781D01*
X032118Y03378D01*
X032116Y033779D01*
X032112Y033776D01*
X032106Y033772D01*
X0321Y033769D01*
X032092Y033763D01*
X032083Y033759D01*
X032073Y033754D01*
X032062Y033749D01*
X032049Y033744D01*
X032036Y033739D01*
X032022Y033735D01*
X032007Y033731D01*
X031991Y033728D01*
X031975Y033727D01*
X031958Y033726D01*
X031956D01*
X031953D01*
X031947Y033727D01*
X03194Y033728D01*
X031931Y033728D01*
X03192Y03373D01*
X031909Y033732D01*
X031896Y033735D01*
X031883Y033739D01*
X031869Y033744D01*
X031854Y03375D01*
X031839Y033756D01*
X031825Y033764D01*
X03181Y033774D01*
X031796Y033785D01*
X031783Y033797D01*
X031782Y033798D01*
X03178Y033801D01*
X031776Y033804D01*
X031772Y03381D01*
X031767Y033817D01*
X031761Y033825D01*
X031754Y033835D01*
X031748Y033846D01*
X031742Y033858D01*
X031736Y033871D01*
X03173Y033886D01*
X031725Y033901D01*
X031721Y033918D01*
X031718Y033936D01*
X031716Y033954D01*
Y033984D01*
X031717Y033992D01*
X031718Y034001D01*
X031718Y034012D01*
X031721Y034024D01*
X031723Y034038D01*
X031727Y034052D01*
X031731Y034067D01*
X031736Y034082D01*
X031743Y034097D01*
X031751Y034113D01*
X031759Y034128D01*
X03177Y034142D01*
X031783Y034156D01*
X031783Y034156D01*
X031786Y034159D01*
X03179Y034162D01*
X031795Y034167D01*
X031802Y034172D01*
X03181Y034178D01*
X03182Y034184D01*
X03183Y034191D01*
X031842Y034198D01*
X031856Y034204D01*
X03187Y03421D01*
X031885Y034215D01*
X031901Y03422D01*
X031919Y034223D01*
X031938Y034226D01*
X031957Y034226D01*
X031958D01*
X031961D01*
X031966D01*
X031972Y034226D01*
D02*
G37*
G36*
X031875Y033647D02*
X031874D01*
X031872Y033646D01*
X031869Y033645D01*
X031864Y033644D01*
X031859Y033642D01*
X031853Y03364D01*
X031839Y033634D01*
X031823Y033626D01*
X031807Y033616D01*
X031791Y033605D01*
X031777Y03359D01*
X031776Y033589D01*
X031775Y033588D01*
X031774Y033586D01*
X031772Y033583D01*
X031769Y033579D01*
X031766Y033574D01*
X031759Y033563D01*
X031753Y033548D01*
X031748Y033533D01*
X031744Y033515D01*
X031743Y033505D01*
Y033492D01*
X031743Y033489D01*
Y033484D01*
X031744Y03348D01*
X031745Y033469D01*
X031749Y033457D01*
X031753Y033443D01*
X031759Y033429D01*
X031768Y033415D01*
Y033414D01*
X03177Y033414D01*
X031772Y033409D01*
X031778Y033403D01*
X031786Y033395D01*
X031796Y033386D01*
X031807Y033377D01*
X031821Y033368D01*
X031835Y033361D01*
X031836D01*
X031837Y03336D01*
X03184Y033359D01*
X031845Y033358D01*
X031849Y033356D01*
X031855Y033355D01*
X031862Y033352D01*
X031869Y033351D01*
X031877Y033349D01*
X031887Y033347D01*
X031907Y033344D01*
X031928Y033341D01*
X031952Y03334D01*
X031952D01*
X031955D01*
X031958D01*
X031963D01*
X031968Y033341D01*
X031974D01*
X031982Y033341D01*
X03199Y033342D01*
X032008Y033344D01*
X032027Y033347D01*
X032047Y03335D01*
X032067Y033355D01*
X032068D01*
X032069Y033356D01*
X032072Y033357D01*
X032076Y033358D01*
X03208Y03336D01*
X032084Y033362D01*
X032096Y033368D01*
X032109Y033374D01*
X032122Y033383D01*
X032135Y033393D01*
X032146Y033405D01*
Y033406D01*
X032147Y033406D01*
X032148Y033408D01*
X03215Y033411D01*
X032154Y033419D01*
X032159Y033429D01*
X032164Y033441D01*
X032168Y033457D01*
X03217Y033474D01*
X032172Y033493D01*
Y0335D01*
X032171Y033505D01*
Y033509D01*
X03217Y03352D01*
X032168Y033532D01*
X032164Y033546D01*
X03216Y03356D01*
X032153Y033574D01*
Y033575D01*
X032152Y033575D01*
X032151Y033578D01*
X032149Y033581D01*
X032144Y033588D01*
X032137Y033598D01*
X032128Y03361D01*
X032117Y033623D01*
X032103Y033637D01*
X032086Y033653D01*
X032126D01*
X032127Y033652D01*
X032127Y033651D01*
X03213Y033649D01*
X032133Y033646D01*
X03214Y033638D01*
X032149Y033627D01*
X032159Y033615D01*
X032169Y033601D01*
X032178Y033586D01*
X032187Y03357D01*
Y033569D01*
X032187Y033567D01*
X032188Y033565D01*
X032189Y033562D01*
X032191Y033558D01*
X032192Y033554D01*
X032194Y033548D01*
X032195Y033541D01*
X032199Y033527D01*
X032202Y03351D01*
X032204Y033491D01*
X032205Y03347D01*
Y033462D01*
X032204Y033457D01*
Y033451D01*
X032203Y033443D01*
X032203Y033434D01*
X032201Y033425D01*
X032197Y033404D01*
X032192Y033381D01*
X032185Y033359D01*
X032175Y033336D01*
X032174Y033336D01*
X032173Y033334D01*
X032172Y03333D01*
X032169Y033327D01*
X032166Y033322D01*
X032162Y033316D01*
X032153Y033303D01*
X032141Y033289D01*
X032125Y033274D01*
X032108Y033259D01*
X032088Y033246D01*
X032087D01*
X032085Y033244D01*
X032082Y033243D01*
X032078Y033241D01*
X032073Y033239D01*
X032067Y033236D01*
X03206Y033234D01*
X032052Y033231D01*
X032043Y033228D01*
X032033Y033225D01*
X032013Y03322D01*
X03199Y033216D01*
X031979Y033215D01*
X031967Y033215D01*
X031966D01*
X031964D01*
X031961D01*
X031955Y033215D01*
X03195D01*
X031942Y033217D01*
X031935Y033217D01*
X031926Y033219D01*
X031907Y033223D01*
X031885Y033229D01*
X031862Y033238D01*
X031851Y033244D01*
X031839Y03325D01*
X031839Y03325D01*
X031837Y033251D01*
X031834Y033253D01*
X031829Y033256D01*
X031824Y03326D01*
X031818Y033264D01*
X031812Y033268D01*
X031805Y033274D01*
X03179Y033288D01*
X031775Y033304D01*
X031759Y033323D01*
X031745Y033344D01*
X031745Y033345D01*
X031744Y033347D01*
X031743Y03335D01*
X03174Y033355D01*
X031737Y03336D01*
X031735Y033367D01*
X031732Y033374D01*
X031729Y033383D01*
X031726Y033392D01*
X031723Y033402D01*
X031717Y033423D01*
X031713Y033446D01*
X031712Y033459D01*
Y03348D01*
X031713Y033484D01*
X031713Y03349D01*
Y033496D01*
X031715Y033503D01*
X031717Y033519D01*
X031721Y033536D01*
X031727Y033556D01*
X031734Y033576D01*
Y033577D01*
X031735Y033578D01*
X031736Y033581D01*
X031737Y033587D01*
X03174Y033594D01*
X031743Y0336D01*
X031744Y033607D01*
X031745Y033613D01*
X031746Y033617D01*
Y033619D01*
X031745Y033624D01*
X031743Y033629D01*
X031741Y033633D01*
X031738Y033636D01*
X031737Y033637D01*
X031737Y033637D01*
X031735Y033639D01*
X031732Y03364D01*
X031728Y033642D01*
X031724Y033644D01*
X031718Y033645D01*
X031712Y033647D01*
Y033661D01*
X031875D01*
Y033647D01*
D02*
G37*
G36*
X031337Y033968D02*
X031123Y033816D01*
Y033785D01*
X031256D01*
X031257D01*
X031257D01*
X031262D01*
X031268D01*
X031276Y033786D01*
X031284D01*
X031292Y033788D01*
X031299Y033788D01*
X031304Y03379D01*
X031305D01*
X031305Y03379D01*
X031309Y033793D01*
X031314Y033798D01*
X031319Y033806D01*
Y033806D01*
X03132Y033808D01*
X031321Y033812D01*
X031322Y033816D01*
X031323Y033822D01*
X031324Y03383D01*
X031325Y033839D01*
Y033851D01*
X031337D01*
Y03361D01*
X031325D01*
Y033621D01*
X031324Y033628D01*
X031323Y033642D01*
X031321Y033649D01*
X031319Y033654D01*
Y033655D01*
X031319Y033656D01*
X031315Y033661D01*
X031311Y033666D01*
X031304Y03367D01*
X031303D01*
X031302Y033671D01*
X031299Y033672D01*
X031294Y033673D01*
X031288Y033674D01*
X031279Y033675D01*
X031269Y033675D01*
X031256D01*
X030948D01*
X030947D01*
X030947D01*
X030942D01*
X030936D01*
X030929Y033675D01*
X030921Y033674D01*
X030912Y033673D01*
X030906Y033672D01*
X030902Y03367D01*
X030901D01*
X0309Y033669D01*
X030896Y033666D01*
X030891Y033661D01*
X030888Y033658D01*
X030886Y033653D01*
Y033653D01*
X030885Y033651D01*
X030883Y033648D01*
X030882Y033644D01*
X030881Y033637D01*
X03088Y03363D01*
X030879Y033621D01*
Y03361D01*
X030867D01*
Y033849D01*
X030867Y033857D01*
Y033866D01*
X030868Y033876D01*
X030869Y033896D01*
X030872Y033917D01*
X030875Y033936D01*
X030877Y033945D01*
X030879Y033953D01*
Y033954D01*
X03088Y033954D01*
X03088Y033957D01*
X030881Y03396D01*
X030884Y033967D01*
X030888Y033976D01*
X030895Y033987D01*
X030902Y033997D01*
X030912Y034008D01*
X030923Y034018D01*
X030924Y034019D01*
X030929Y034022D01*
X030935Y034026D01*
X030944Y034031D01*
X030955Y034035D01*
X030967Y03404D01*
X030982Y034043D01*
X030997Y034043D01*
X030998D01*
X030999D01*
X031002D01*
X031006Y034043D01*
X03101Y034042D01*
X031015Y034041D01*
X031027Y034039D01*
X031041Y034034D01*
X031055Y034027D01*
X031063Y034023D01*
X031069Y034018D01*
X031077Y034012D01*
X031083Y034005D01*
X031084Y034004D01*
X031087Y034001D01*
X03109Y033995D01*
X031095Y033988D01*
X031101Y033979D01*
X031106Y033967D01*
X031112Y033954D01*
X031116Y033938D01*
X031275Y034051D01*
X031276Y034052D01*
X03128Y034055D01*
X031285Y034059D01*
X031291Y034064D01*
X031297Y034069D01*
X031304Y034074D01*
X03131Y034078D01*
X031313Y034083D01*
X031314Y034083D01*
X031315Y034086D01*
X031316Y034089D01*
X031319Y034092D01*
X031321Y034097D01*
X031322Y034103D01*
X031324Y03411D01*
X031324Y034116D01*
X031337D01*
Y033968D01*
D02*
G37*
G36*
Y03336D02*
X031325D01*
Y033373D01*
X031324Y033379D01*
Y033384D01*
X031322Y033397D01*
X03132Y033403D01*
X031318Y033408D01*
Y033408D01*
X031316Y033409D01*
X031313Y033412D01*
X031308Y033414D01*
X031305Y033416D01*
X031302D01*
X0313D01*
X031297D01*
X031294Y033415D01*
X031289Y033414D01*
X031288D01*
X031286Y033413D01*
X031284Y033412D01*
X031281Y033411D01*
X031276Y033408D01*
X03127Y033406D01*
X031262Y033403D01*
X031203Y033377D01*
Y033212D01*
X031249Y033192D01*
X03125Y033191D01*
X031253Y03319D01*
X031257Y033189D01*
X031263Y033188D01*
X031276Y033184D01*
X031282Y033183D01*
X031288Y033182D01*
X031289D01*
X031291D01*
X031294Y033183D01*
X031299Y033185D01*
X031304Y033186D01*
X031308Y033189D01*
X031313Y033193D01*
X031317Y033198D01*
Y033199D01*
X031318Y033201D01*
X031319Y033204D01*
X03132Y033208D01*
X031321Y033214D01*
X031323Y033222D01*
X031324Y033232D01*
X031325Y033244D01*
X031337D01*
Y033088D01*
X031325D01*
Y033089D01*
X031324Y033092D01*
X031323Y033096D01*
X031321Y033102D01*
X031319Y033109D01*
X031315Y033116D01*
X031311Y033123D01*
X031305Y033129D01*
X031304Y03313D01*
X031301Y033132D01*
X031296Y033136D01*
X031289Y033141D01*
X031279Y033147D01*
X031273Y03315D01*
X031267Y033153D01*
X031259Y033158D01*
X031251Y033161D01*
X031243Y033166D01*
X031233Y03317D01*
X030857Y033338D01*
Y033345D01*
X031243Y033514D01*
X031244D01*
X031246Y033515D01*
X031249Y033516D01*
X031252Y033519D01*
X031257Y03352D01*
X031262Y033523D01*
X031273Y033528D01*
X031285Y033535D01*
X031296Y033541D01*
X031305Y033548D01*
X03131Y033551D01*
X031313Y033554D01*
X031313Y033555D01*
X031314Y033556D01*
X031316Y033559D01*
X031319Y033563D01*
X031321Y033567D01*
X031322Y033573D01*
X031324Y03358D01*
X031325Y033588D01*
X031337D01*
Y03336D01*
D02*
G37*
G36*
X030879Y033074D02*
X03088Y033071D01*
X030882Y033066D01*
X030884Y03306D01*
X030888Y033053D01*
X030893Y033045D01*
X030899Y033037D01*
X030907Y033029D01*
X030907Y033029D01*
X03091Y033026D01*
X030915Y033024D01*
X030919Y033021D01*
X030923Y033018D01*
X030929Y033015D01*
X030934Y033013D01*
X030941Y033009D01*
X030949Y033005D01*
X030957Y033001D01*
X030967Y032997D01*
X030977Y032991D01*
X030989Y032986D01*
X031348Y032824D01*
Y032812D01*
X030974Y032652D01*
X030974D01*
X030972Y03265D01*
X030968Y032649D01*
X030964Y032647D01*
X030958Y032644D01*
X030952Y032642D01*
X030939Y032636D01*
X030925Y032629D01*
X030912Y032623D01*
X030906Y03262D01*
X030901Y032617D01*
X030897Y032615D01*
X030894Y032612D01*
X030894Y032612D01*
X030892Y03261D01*
X030891Y032608D01*
X030888Y032604D01*
X030886Y032599D01*
X030883Y032593D01*
X03088Y032585D01*
X030879Y032575D01*
X030867D01*
Y0328D01*
X030879D01*
Y032788D01*
X03088Y032783D01*
Y032776D01*
X030883Y032763D01*
X030884Y032757D01*
X030887Y032752D01*
X030888Y03275D01*
X030891Y032748D01*
X030896Y032745D01*
X030899Y032744D01*
X030902Y032744D01*
X030904D01*
X030907D01*
X030912Y032744D01*
X030918Y032746D01*
X030918D01*
X03092Y032746D01*
X030922Y032747D01*
X030926Y032749D01*
X030932Y032752D01*
X03094Y032755D01*
X03095Y03276D01*
X030963Y032765D01*
X031198Y032865D01*
X030989Y032958D01*
X030988D01*
X030988Y032959D01*
X030983Y032961D01*
X030977Y032964D01*
X030969Y032967D01*
X03096Y032971D01*
X030951Y032974D01*
X030944Y032977D01*
X030938Y032979D01*
X030937D01*
X030936Y03298D01*
X030934Y03298D01*
X03093Y032981D01*
X030923Y032982D01*
X030916Y032983D01*
X030915D01*
X030914D01*
X03091Y032982D01*
X030904Y03298D01*
X030897Y032977D01*
X030896D01*
X030896Y032976D01*
X030893Y032973D01*
X030889Y032968D01*
X030886Y032961D01*
Y03296D01*
X030885Y032958D01*
X030883Y032955D01*
X030882Y032951D01*
X030881Y032945D01*
X03088Y032938D01*
X030879Y03293D01*
Y032921D01*
X030867D01*
Y033075D01*
X030879D01*
Y033074D01*
D02*
G37*
G36*
X038802Y03455D02*
X038803Y034548D01*
X038805Y034542D01*
X038807Y034537D01*
X038811Y034529D01*
X038816Y034522D01*
X038822Y034514D01*
X03883Y034506D01*
X038831Y034505D01*
X038834Y034503D01*
X038839Y0345D01*
X038842Y034498D01*
X038847Y034495D01*
X038852Y034492D01*
X038858Y034489D01*
X038864Y034486D01*
X038872Y034482D01*
X03888Y034478D01*
X03889Y034473D01*
X038901Y034468D01*
X038912Y034463D01*
X039272Y034301D01*
Y034289D01*
X038898Y034128D01*
X038897D01*
X038895Y034127D01*
X038891Y034125D01*
X038887Y034124D01*
X038882Y034121D01*
X038875Y034119D01*
X038862Y034112D01*
X038848Y034106D01*
X038835Y034099D01*
X038829Y034096D01*
X038824Y034093D01*
X03882Y034091D01*
X038817Y034089D01*
X038817Y034088D01*
X038815Y034087D01*
X038814Y034085D01*
X038811Y034081D01*
X038809Y034076D01*
X038806Y034069D01*
X038804Y034061D01*
X038802Y034052D01*
X03879D01*
Y034277D01*
X038802D01*
Y034265D01*
X038803Y03426D01*
Y034253D01*
X038806Y034239D01*
X038807Y034233D01*
X03881Y034228D01*
X038811Y034227D01*
X038814Y034225D01*
X038819Y034222D01*
X038822Y034221D01*
X038826Y03422D01*
X038827D01*
X03883D01*
X038835Y034221D01*
X038841Y034222D01*
X038842D01*
X038843Y034223D01*
X038845Y034224D01*
X03885Y034226D01*
X038855Y034228D01*
X038863Y034232D01*
X038874Y034236D01*
X038886Y034241D01*
X039121Y034342D01*
X038912Y034435D01*
X038912D01*
X038911Y034435D01*
X038906Y034437D01*
X0389Y03444D01*
X038892Y034444D01*
X038883Y034448D01*
X038874Y034451D01*
X038867Y034454D01*
X038861Y034456D01*
X03886D01*
X038859Y034456D01*
X038857Y034457D01*
X038853Y034458D01*
X038847Y034459D01*
X038839Y034459D01*
X038839D01*
X038837D01*
X038833Y034459D01*
X038827Y034457D01*
X03882Y034454D01*
X03882D01*
X038819Y034453D01*
X038816Y03445D01*
X038812Y034445D01*
X038809Y034437D01*
Y034437D01*
X038808Y034435D01*
X038807Y034432D01*
X038805Y034427D01*
X038804Y034421D01*
X038803Y034415D01*
X038802Y034407D01*
Y034398D01*
X03879D01*
Y034552D01*
X038802D01*
Y03455D01*
D02*
G37*
G36*
X039043Y034019D02*
X039051D01*
X039059Y034018D01*
X039068Y034018D01*
X039089Y034015D01*
X039111Y034011D01*
X039134Y034006D01*
X039157Y033999D01*
X039158D01*
X039159Y033999D01*
X039163Y033997D01*
X03917Y033994D01*
X039179Y033991D01*
X039189Y033986D01*
X039199Y033981D01*
X039209Y033975D01*
X039218Y033967D01*
X039219Y033967D01*
X039222Y033964D01*
X039226Y03396D01*
X039232Y033954D01*
X039238Y033948D01*
X039245Y03394D01*
X039251Y033932D01*
X039256Y033922D01*
X039257Y033921D01*
X039259Y033918D01*
X039261Y033913D01*
X039263Y033906D01*
X039266Y033898D01*
X039268Y033889D01*
X039269Y033878D01*
X03927Y033867D01*
Y033862D01*
X039269Y033855D01*
X039268Y033847D01*
X039266Y033838D01*
X039263Y033827D01*
X039259Y033816D01*
X039253Y033805D01*
X039253Y033804D01*
X039251Y033801D01*
X039246Y033796D01*
X03924Y033789D01*
X039234Y033782D01*
X039225Y033774D01*
X039216Y033765D01*
X039204Y033757D01*
X039202Y033757D01*
X039199Y033755D01*
X039194Y033752D01*
X039187Y033749D01*
X039178Y033744D01*
X039167Y03374D01*
X039154Y033735D01*
X03914Y03373D01*
X03914D01*
X039138Y03373D01*
X039135Y033729D01*
X039131Y033728D01*
X039127Y033727D01*
X039121Y033726D01*
X039114Y033725D01*
X039107Y033723D01*
X039091Y03372D01*
X039072Y033718D01*
X039052Y033717D01*
X039031Y033716D01*
X03903D01*
X039027D01*
X039024D01*
X039018D01*
X039011Y033717D01*
X039003Y033717D01*
X038995D01*
X038984Y033719D01*
X038974Y033719D01*
X038963Y033721D01*
X038939Y033725D01*
X038915Y03373D01*
X03889Y033737D01*
X03889D01*
X038888Y033738D01*
X038885Y033739D01*
X038882Y033741D01*
X038877Y033742D01*
X038872Y033744D01*
X03886Y03375D01*
X038847Y033757D01*
X038834Y033767D01*
X03882Y033778D01*
X038809Y03379D01*
Y033791D01*
X038807Y033792D01*
X038806Y033794D01*
X038804Y033797D01*
X0388Y033804D01*
X038794Y033813D01*
X038789Y033825D01*
X038785Y033838D01*
X038782Y033852D01*
X03878Y033867D01*
Y033872D01*
X038781Y033875D01*
X038782Y033882D01*
X038784Y033892D01*
X038787Y033904D01*
X038792Y033917D01*
X038799Y03393D01*
X038809Y033944D01*
Y033945D01*
X03881Y033945D01*
X038814Y03395D01*
X03882Y033956D01*
X038828Y033964D01*
X038839Y033972D01*
X038852Y033981D01*
X038867Y033989D01*
X038884Y033996D01*
X038885D01*
X038887Y033997D01*
X03889Y033999D01*
X038895Y034D01*
X038901Y034002D01*
X038909Y034004D01*
X038917Y034006D01*
X038926Y034008D01*
X038936Y03401D01*
X038947Y034012D01*
X038958Y034015D01*
X038971Y034016D01*
X038997Y034019D01*
X039025Y03402D01*
X039026D01*
X039028D01*
X039032D01*
X039037D01*
X039043Y034019D01*
D02*
G37*
G36*
X035423Y034278D02*
X035209Y034126D01*
Y034096D01*
X035342D01*
X035342D01*
X035343D01*
X035347D01*
X035354D01*
X035362Y034096D01*
X03537D01*
X035378Y034098D01*
X035385Y034099D01*
X03539Y0341D01*
X03539D01*
X035391Y034101D01*
X035395Y034104D01*
X0354Y034109D01*
X035405Y034116D01*
Y034117D01*
X035406Y034118D01*
X035406Y034122D01*
X035408Y034126D01*
X035409Y034133D01*
X03541Y03414D01*
X035411Y03415D01*
Y034161D01*
X035423D01*
Y03392D01*
X035411D01*
Y033931D01*
X03541Y033938D01*
X035409Y033953D01*
X035407Y033959D01*
X035405Y033964D01*
Y033965D01*
X035404Y033967D01*
X035401Y033971D01*
X035396Y033976D01*
X03539Y03398D01*
X035389D01*
X035387Y033981D01*
X035385Y033982D01*
X035379Y033983D01*
X035374Y033984D01*
X035365Y033985D01*
X035355Y033986D01*
X035342D01*
X035034D01*
X035033D01*
X035032D01*
X035028D01*
X035022D01*
X035014Y033985D01*
X035006Y033984D01*
X034998Y033983D01*
X034992Y033982D01*
X034987Y03398D01*
X034987D01*
X034986Y03398D01*
X034981Y033977D01*
X034976Y033972D01*
X034973Y033968D01*
X034971Y033964D01*
Y033963D01*
X034971Y033961D01*
X034969Y033959D01*
X034968Y033954D01*
X034967Y033948D01*
X034965Y03394D01*
X034965Y033931D01*
Y03392D01*
X034952D01*
Y03416D01*
X034953Y034168D01*
Y034177D01*
X034954Y034186D01*
X034955Y034206D01*
X034957Y034228D01*
X03496Y034246D01*
X034962Y034255D01*
X034965Y034263D01*
Y034264D01*
X034965Y034265D01*
X034966Y034267D01*
X034967Y03427D01*
X03497Y034277D01*
X034974Y034287D01*
X034981Y034297D01*
X034988Y034308D01*
X034997Y034318D01*
X035008Y034328D01*
X03501Y03433D01*
X035014Y034333D01*
X035021Y034336D01*
X03503Y034341D01*
X035041Y034346D01*
X035053Y03435D01*
X035067Y034353D01*
X035083Y034354D01*
X035084D01*
X035085D01*
X035088D01*
X035092Y034353D01*
X035096Y034352D01*
X035101Y034351D01*
X035113Y034349D01*
X035127Y034344D01*
X035141Y034338D01*
X035148Y034333D01*
X035155Y034328D01*
X035162Y034322D01*
X035169Y034316D01*
X03517Y034314D01*
X035172Y034311D01*
X035176Y034306D01*
X035181Y034298D01*
X035186Y034289D01*
X035192Y034277D01*
X035197Y034264D01*
X035202Y034249D01*
X035361Y034362D01*
X035362Y034362D01*
X035366Y034365D01*
X035371Y034369D01*
X035377Y034374D01*
X035383Y034379D01*
X03539Y034384D01*
X035396Y034389D01*
X035399Y034393D01*
X0354Y034394D01*
X035401Y034396D01*
X035402Y034399D01*
X035404Y034403D01*
X035406Y034408D01*
X035408Y034413D01*
X035409Y03442D01*
X03541Y034427D01*
X035423D01*
Y034278D01*
D02*
G37*
G36*
X034357Y03437D02*
X034362Y034369D01*
X034368Y034368D01*
X034379Y034365D01*
X034394Y03436D01*
X034401Y034357D01*
X034408Y034352D01*
X034416Y034347D01*
X034423Y034342D01*
X03443Y034335D01*
X034437Y034327D01*
X034438Y034327D01*
X034438Y034325D01*
X03444Y034322D01*
X034443Y034318D01*
X034446Y034312D01*
X03445Y034306D01*
X034454Y034298D01*
X034457Y034289D01*
X034462Y034279D01*
X034465Y034267D01*
X034469Y034255D01*
X034472Y034241D01*
X034475Y034226D01*
X034477Y03421D01*
X034478Y034193D01*
X034478Y034175D01*
Y033935D01*
X034466D01*
Y033946D01*
X034465Y033953D01*
X034464Y033968D01*
X034462Y033975D01*
X03446Y03398D01*
Y03398D01*
X034459Y033982D01*
X034456Y033986D01*
X034451Y033991D01*
X034445Y033996D01*
X034444D01*
X034443Y033996D01*
X03444Y033997D01*
X034435Y033999D01*
X034428Y033999D01*
X03442Y034D01*
X034409Y034001D01*
X034396D01*
X03409D01*
X034089D01*
X034088D01*
X034084D01*
X034077D01*
X034069Y034D01*
X034061Y033999D01*
X034054Y033999D01*
X034047Y033997D01*
X034042Y033996D01*
X034042D01*
X034041Y033995D01*
X034037Y033992D01*
X034031Y033987D01*
X034026Y03398D01*
Y033979D01*
X034026Y033977D01*
X034024Y033975D01*
X034023Y033969D01*
X034022Y033964D01*
X034021Y033956D01*
X03402Y033947D01*
Y033935D01*
X034007D01*
Y034174D01*
X034008Y034181D01*
Y034189D01*
X034009Y034197D01*
Y034206D01*
X034011Y034225D01*
X034013Y034244D01*
X034015Y034252D01*
X034017Y034261D01*
X034019Y034269D01*
X034022Y034276D01*
Y034276D01*
X034023Y034277D01*
X034025Y034281D01*
X034028Y034287D01*
X034033Y034295D01*
X034039Y034303D01*
X034047Y034312D01*
X034056Y034321D01*
X034066Y034329D01*
X034067Y03433D01*
X034071Y034332D01*
X034077Y034335D01*
X034084Y034339D01*
X034093Y034342D01*
X034103Y034346D01*
X034115Y034348D01*
X034126Y034349D01*
X034127D01*
X034128D01*
X034132Y034348D01*
X034139Y034347D01*
X034147Y034346D01*
X034156Y034342D01*
X034166Y034338D01*
X034177Y034332D01*
X034187Y034323D01*
X034189Y034322D01*
X034192Y034318D01*
X034196Y034312D01*
X034199Y034308D01*
X034203Y034303D01*
X034206Y034298D01*
X034209Y034291D01*
X034212Y034284D01*
X034216Y034276D01*
X03422Y034267D01*
X034222Y034257D01*
X034226Y034247D01*
X034229Y034236D01*
Y034236D01*
X03423Y034238D01*
X03423Y034242D01*
X034232Y034246D01*
X034233Y034252D01*
X034236Y034258D01*
X03424Y034273D01*
X034245Y034289D01*
X034252Y034305D01*
X034259Y034319D01*
X034263Y034325D01*
X034267Y034331D01*
Y034332D01*
X034268Y034333D01*
X034273Y034337D01*
X034279Y034343D01*
X034289Y034351D01*
X0343Y034358D01*
X034314Y034365D01*
X03433Y034369D01*
X034339Y03437D01*
X034349Y03437D01*
X034349D01*
X034351D01*
X034354D01*
X034357Y03437D01*
D02*
G37*
G36*
X036251Y034479D02*
X036251Y034476D01*
Y034471D01*
X036252Y034466D01*
X036255Y034453D01*
X036257Y034448D01*
X036259Y034443D01*
Y034442D01*
X036259Y034442D01*
X036263Y034437D01*
X036268Y034432D01*
X036276Y034428D01*
X036278Y034427D01*
X03628D01*
X036283Y034426D01*
X036287Y034425D01*
X036292D01*
X0363Y034425D01*
X036308D01*
X036407D01*
Y034424D01*
X036407Y034423D01*
X036409Y03442D01*
X03641Y034417D01*
X036412Y034413D01*
X036413Y034408D01*
X036418Y034396D01*
X036423Y034382D01*
X036428Y034366D01*
X036432Y034349D01*
X036437Y034331D01*
Y03433D01*
X036437Y034329D01*
Y034326D01*
X036438Y034322D01*
X036439Y034318D01*
X03644Y034312D01*
X036441Y034307D01*
X036442Y0343D01*
X036444Y034285D01*
X036445Y034267D01*
X036446Y034249D01*
X036447Y034229D01*
Y034218D01*
X036446Y034213D01*
Y034206D01*
X036445Y034199D01*
X036445Y034191D01*
X036442Y034173D01*
X03644Y034155D01*
X036435Y034136D01*
X036429Y034119D01*
Y034118D01*
X036429Y034116D01*
X036427Y034114D01*
X036426Y034111D01*
X036422Y034103D01*
X036416Y034092D01*
X03641Y03408D01*
X036402Y034067D01*
X036392Y034054D01*
X036381Y034041D01*
X036381D01*
X03638Y034039D01*
X036376Y034035D01*
X03637Y034029D01*
X036362Y034022D01*
X036351Y034013D01*
X03634Y034004D01*
X036328Y033995D01*
X036314Y033987D01*
X036313D01*
X036312Y033987D01*
X036309Y033985D01*
X036305Y033984D01*
X036301Y033982D01*
X036296Y03398D01*
X036289Y033978D01*
X036283Y033976D01*
X036267Y033971D01*
X036249Y033967D01*
X036229Y033964D01*
X036207Y033963D01*
X036206D01*
X036202D01*
X036197Y033964D01*
X03619Y033965D01*
X03618Y033965D01*
X036169Y033967D01*
X036157Y03397D01*
X036144Y033973D01*
X036131Y033976D01*
X036117Y033982D01*
X036101Y033987D01*
X036087Y033995D01*
X036071Y034003D01*
X036056Y034013D01*
X036042Y034025D01*
X036028Y034038D01*
X036027Y034038D01*
X036025Y034041D01*
X036021Y034046D01*
X036016Y034051D01*
X036011Y034059D01*
X036004Y034068D01*
X035998Y034078D01*
X03599Y034089D01*
X035984Y034103D01*
X035977Y034116D01*
X035971Y034132D01*
X035966Y034148D01*
X035961Y034167D01*
X035957Y034185D01*
X035955Y034205D01*
X035954Y034226D01*
Y034238D01*
X035955Y034247D01*
X035956Y034256D01*
X035956Y034267D01*
X03596Y034289D01*
Y03429D01*
X035961Y034292D01*
X035961Y034296D01*
X035963Y034301D01*
X035965Y034308D01*
X035968Y034316D01*
X035972Y034326D01*
X035976Y034338D01*
Y034339D01*
X035977Y034339D01*
X035978Y034344D01*
X03598Y034349D01*
X035982Y034356D01*
X035985Y034363D01*
X035986Y034369D01*
X035988Y034375D01*
X035988Y034379D01*
Y03438D01*
X035988Y034385D01*
X035985Y03439D01*
X035982Y034396D01*
X035981Y034397D01*
X03598Y034398D01*
X035978Y034399D01*
X035975Y034401D01*
X035972Y034404D01*
X035967Y034407D01*
X035961Y034409D01*
X035954Y034412D01*
Y034425D01*
X03612D01*
Y034412D01*
X03612D01*
X036117Y034412D01*
X036114Y03441D01*
X036109Y034408D01*
X036103Y034406D01*
X036097Y034403D01*
X036082Y034395D01*
X036066Y034385D01*
X036048Y034373D01*
X036032Y034359D01*
X036024Y034351D01*
X036017Y034342D01*
X036017Y034342D01*
X036016Y03434D01*
X036014Y034338D01*
X036012Y034334D01*
X036009Y03433D01*
X036006Y034325D01*
X036003Y034319D01*
X035999Y034312D01*
X035993Y034297D01*
X035988Y03428D01*
X035983Y034261D01*
X035982Y034251D01*
X035982Y034241D01*
Y034236D01*
X035982Y034232D01*
Y034228D01*
X035983Y034222D01*
X035985Y03421D01*
X035989Y034196D01*
X035994Y034181D01*
X036001Y034167D01*
X036012Y034153D01*
Y034152D01*
X036013Y034151D01*
X036017Y034147D01*
X036024Y034141D01*
X036033Y034134D01*
X036045Y034125D01*
X036059Y034117D01*
X036076Y03411D01*
X036095Y034103D01*
X036095D01*
X036097Y034103D01*
X0361Y034102D01*
X036103Y034101D01*
X036109Y0341D01*
X036114Y034099D01*
X036121Y034097D01*
X036128Y034096D01*
X036144Y034093D01*
X036163Y034091D01*
X036182Y034089D01*
X036203Y034089D01*
X036204D01*
X036206D01*
X03621D01*
X036215D01*
X036221Y034089D01*
X036227D01*
X036235Y03409D01*
X036243Y034091D01*
X036262Y034092D01*
X036282Y034095D01*
X036302Y0341D01*
X036322Y034105D01*
X036323D01*
X036324Y034105D01*
X036327Y034106D01*
X03633Y034108D01*
X036335Y03411D01*
X03634Y034112D01*
X036351Y034117D01*
X036363Y034124D01*
X036375Y034133D01*
X036387Y034143D01*
X036397Y034156D01*
Y034156D01*
X036398Y034157D01*
X036399Y034159D01*
X036401Y034162D01*
X036405Y03417D01*
X036409Y03418D01*
X036413Y034192D01*
X036417Y034207D01*
X03642Y034223D01*
X036421Y03424D01*
Y034247D01*
X03642Y034251D01*
Y034256D01*
X036419Y034262D01*
X036417Y034275D01*
Y034275D01*
X036416Y034277D01*
X036416Y034281D01*
X036414Y034286D01*
X036413Y034291D01*
X036411Y034298D01*
X036407Y034312D01*
X036308D01*
X036307D01*
X036304D01*
X036299D01*
X036294Y034311D01*
X036287D01*
X036281Y03431D01*
X036276Y034309D01*
X036273Y034307D01*
X036272D01*
X036271Y034307D01*
X036268Y034304D01*
X036263Y034299D01*
X03626Y034296D01*
X036258Y034291D01*
Y034291D01*
X036257Y034289D01*
X036256Y034287D01*
X036254Y034283D01*
X036253Y034279D01*
X036252Y034275D01*
X036251Y034263D01*
Y034251D01*
X036238D01*
Y03448D01*
X036251D01*
Y034479D01*
D02*
G37*
G36*
X037759Y034541D02*
X03776Y034538D01*
X037762Y034533D01*
X037764Y034528D01*
X037768Y03452D01*
X037773Y034513D01*
X037779Y034505D01*
X037787Y034497D01*
X037787Y034496D01*
X03779Y034494D01*
X037795Y034491D01*
X037799Y034489D01*
X037803Y034486D01*
X037808Y034483D01*
X037814Y03448D01*
X037821Y034476D01*
X037829Y034473D01*
X037837Y034468D01*
X037847Y034464D01*
X037857Y034459D01*
X037869Y034454D01*
X038228Y034292D01*
Y03428D01*
X037854Y034119D01*
X037854D01*
X037851Y034118D01*
X037848Y034116D01*
X037843Y034115D01*
X037838Y034112D01*
X037832Y03411D01*
X037819Y034103D01*
X037805Y034097D01*
X037792Y03409D01*
X037786Y034087D01*
X037781Y034084D01*
X037777Y034082D01*
X037774Y03408D01*
X037773Y034079D01*
X037772Y034078D01*
X037771Y034076D01*
X037768Y034072D01*
X037765Y034067D01*
X037763Y03406D01*
X03776Y034052D01*
X037759Y034043D01*
X037746D01*
Y034268D01*
X037759D01*
Y034256D01*
X03776Y034251D01*
Y034244D01*
X037763Y03423D01*
X037764Y034224D01*
X037767Y034219D01*
X037768Y034218D01*
X037771Y034216D01*
X037776Y034213D01*
X037779Y034212D01*
X037782Y034211D01*
X037784D01*
X037787D01*
X037792Y034212D01*
X037798Y034213D01*
X037798D01*
X0378Y034214D01*
X037802Y034215D01*
X037806Y034217D01*
X037812Y034219D01*
X03782Y034223D01*
X03783Y034227D01*
X037843Y034232D01*
X038077Y034333D01*
X037869Y034425D01*
X037868D01*
X037867Y034426D01*
X037863Y034428D01*
X037857Y034431D01*
X037849Y034435D01*
X03784Y034439D01*
X037831Y034441D01*
X037824Y034444D01*
X037818Y034447D01*
X037817D01*
X037816Y034447D01*
X037814Y034448D01*
X03781Y034449D01*
X037803Y03445D01*
X037796Y03445D01*
X037795D01*
X037794D01*
X037789Y03445D01*
X037784Y034448D01*
X037777Y034444D01*
X037776D01*
X037776Y034444D01*
X037773Y034441D01*
X037769Y034436D01*
X037765Y034428D01*
Y034428D01*
X037765Y034425D01*
X037763Y034423D01*
X037762Y034418D01*
X037761Y034412D01*
X03776Y034406D01*
X037759Y034398D01*
Y034389D01*
X037746D01*
Y034543D01*
X037759D01*
Y034541D01*
D02*
G37*
G36*
X037836Y033975D02*
Y033789D01*
X037883Y033772D01*
Y033777D01*
X037884Y033784D01*
X037884Y033792D01*
X037886Y033802D01*
X037887Y033813D01*
X037889Y033826D01*
X037892Y03384D01*
X037895Y033855D01*
X0379Y033869D01*
X037905Y033885D01*
X03791Y0339D01*
X037917Y033915D01*
X037924Y03393D01*
X037933Y033944D01*
X037943Y033956D01*
X037943Y033957D01*
X037945Y033958D01*
X037947Y033961D01*
X037951Y033964D01*
X037955Y033968D01*
X037961Y033973D01*
X037967Y033978D01*
X037974Y033983D01*
X037982Y033987D01*
X037991Y033992D01*
X03801Y034001D01*
X038021Y034004D01*
X038032Y034007D01*
X038044Y034008D01*
X038056Y034009D01*
X038057D01*
X038058D01*
X038061D01*
X038064D01*
X038067Y034008D01*
X038072Y034008D01*
X038083Y034006D01*
X038096Y034003D01*
X03811Y033999D01*
X038126Y033992D01*
X038141Y033984D01*
X038142D01*
X038142Y033983D01*
X038145Y033981D01*
X038147Y03398D01*
X038155Y033974D01*
X038164Y033966D01*
X038175Y033957D01*
X038185Y033944D01*
X038196Y03393D01*
X038205Y033914D01*
Y033914D01*
X038206Y033912D01*
X038207Y03391D01*
X038209Y033906D01*
X03821Y033903D01*
X038212Y033898D01*
X038216Y033885D01*
X03822Y033871D01*
X038223Y033855D01*
X038226Y033836D01*
X038227Y033817D01*
Y033807D01*
X038226Y033802D01*
X038225Y033797D01*
X038224Y033784D01*
X038222Y03377D01*
X038218Y033755D01*
X038213Y033741D01*
X038206Y033728D01*
X038205Y033727D01*
X038203Y033725D01*
X0382Y033721D01*
X038196Y033718D01*
X03819Y033713D01*
X038185Y03371D01*
X038178Y033707D01*
X038171Y033707D01*
X03817D01*
X038169D01*
X038166Y033707D01*
X038162Y033708D01*
X038158Y03371D01*
X038153Y033711D01*
X038149Y033714D01*
X038145Y033718D01*
X038144Y033718D01*
X038142Y03372D01*
X038141Y033722D01*
X038139Y033726D01*
X038134Y033734D01*
X038134Y033739D01*
X038133Y033744D01*
Y033749D01*
X038134Y033753D01*
X038135Y033761D01*
X038139Y033772D01*
Y033772D01*
X03814Y033774D01*
X038142Y033777D01*
X038145Y033782D01*
X038148Y033789D01*
X038153Y033797D01*
X03816Y033807D01*
X038168Y033819D01*
X038169Y03382D01*
X03817Y033823D01*
X038173Y033826D01*
X038176Y033831D01*
X038182Y033843D01*
X038185Y03385D01*
X038188Y033855D01*
Y033856D01*
X038189Y033858D01*
X03819Y03386D01*
Y033863D01*
X038191Y033871D01*
X038192Y03388D01*
Y033885D01*
X03819Y03389D01*
X038189Y033897D01*
X038187Y033904D01*
X038183Y033912D01*
X038178Y03392D01*
X038171Y033928D01*
X038171Y033929D01*
X038168Y033931D01*
X038163Y033935D01*
X038157Y033938D01*
X03815Y033942D01*
X038142Y033946D01*
X038131Y033948D01*
X038121Y033949D01*
X03812D01*
X038118D01*
X038115Y033948D01*
X038111D01*
X038106Y033947D01*
X0381Y033946D01*
X038086Y033941D01*
X038078Y033938D01*
X038071Y033934D01*
X038062Y033929D01*
X038054Y033923D01*
X038046Y033916D01*
X038038Y033908D01*
X03803Y033898D01*
X038023Y033887D01*
X038022Y033887D01*
X038021Y033885D01*
X038019Y033881D01*
X038017Y033877D01*
X038014Y033871D01*
X03801Y033863D01*
X038007Y033855D01*
X038003Y033845D01*
X038Y033834D01*
X037997Y033823D01*
X037993Y03381D01*
X03799Y033796D01*
X037988Y033782D01*
X037986Y033766D01*
X037985Y03375D01*
X037984Y033733D01*
Y033705D01*
X037746Y03379D01*
Y03401D01*
X037836Y033975D01*
D02*
G37*
G36*
X033395Y034085D02*
X033382D01*
Y034104D01*
X033381Y034107D01*
Y034112D01*
X033379Y034123D01*
X033377Y034128D01*
X033375Y034133D01*
Y034134D01*
X033374Y034135D01*
X033371Y034139D01*
X033366Y034143D01*
X033359Y034147D01*
X033358D01*
X033357Y034148D01*
X033354Y034149D01*
X03335Y03415D01*
X033344Y03415D01*
X033336Y034151D01*
X033327Y034152D01*
X033314D01*
X033168D01*
Y033985D01*
X033314D01*
X033315D01*
X033316D01*
X03332D01*
X033326D01*
X033334Y033986D01*
X033341D01*
X033349Y033987D01*
X033356Y033988D01*
X03336Y033989D01*
X033361D01*
X033362Y03399D01*
X033365Y033993D01*
X033371Y033997D01*
X033373Y034001D01*
X033376Y034004D01*
Y034005D01*
X033376Y034007D01*
X033378Y03401D01*
X033379Y034012D01*
X03338Y034018D01*
X033381Y034023D01*
X033382Y034028D01*
Y034052D01*
X033395D01*
Y033806D01*
X033382D01*
Y033825D01*
X033381Y033829D01*
Y033833D01*
X033379Y033844D01*
X033377Y033849D01*
X033375Y033854D01*
Y033855D01*
X033374Y033856D01*
X033371Y033859D01*
X033366Y033864D01*
X033359Y033868D01*
X033358D01*
X033357Y033869D01*
X033354Y03387D01*
X03335Y03387D01*
X033344Y033871D01*
X033336Y033872D01*
X033327Y033872D01*
X033314D01*
X033004D01*
X033003D01*
X033002D01*
X032998D01*
X032992D01*
X032985Y033872D01*
X032978D01*
X03297Y033871D01*
X032964Y03387D01*
X032959Y033868D01*
X032959D01*
X032958Y033867D01*
X032954Y033865D01*
X032948Y03386D01*
X032946Y033857D01*
X032943Y033853D01*
Y033852D01*
X032942Y033851D01*
X032941Y033848D01*
X03294Y033845D01*
X032938Y03384D01*
X032937Y033835D01*
X032936Y033829D01*
Y033806D01*
X032924D01*
Y034052D01*
X032936D01*
Y034032D01*
X032937Y034028D01*
Y034024D01*
X03294Y034013D01*
X032941Y034008D01*
X032944Y034003D01*
X032945Y034002D01*
X032948Y033998D01*
X032953Y033993D01*
X03296Y033989D01*
X032961D01*
X032962Y033988D01*
X032964Y033988D01*
X032969D01*
X032975Y033987D01*
X032982Y033986D01*
X032992Y033985D01*
X033004D01*
X033137D01*
Y034152D01*
X033004D01*
X033003D01*
X033002D01*
X032998D01*
X032992D01*
X032985Y034151D01*
X032978D01*
X03297Y03415D01*
X032964Y034149D01*
X032959Y034147D01*
X032959D01*
X032958Y034147D01*
X032954Y034144D01*
X032948Y034139D01*
X032946Y034136D01*
X032943Y034132D01*
Y034131D01*
X032942Y03413D01*
X032941Y034127D01*
X03294Y034124D01*
X032938Y034119D01*
X032937Y034114D01*
X032936Y034107D01*
Y034085D01*
X032924D01*
Y034331D01*
X032936D01*
Y034312D01*
X032937Y034308D01*
Y034303D01*
X03294Y034292D01*
X032941Y034287D01*
X032944Y034282D01*
X032945Y034281D01*
X032948Y034277D01*
X032953Y034273D01*
X03296Y034268D01*
X032961D01*
X032962Y034268D01*
X032964Y034267D01*
X032969D01*
X032975Y034266D01*
X032982Y034265D01*
X032992Y034265D01*
X033004D01*
X033314D01*
X033315D01*
X033316D01*
X03332D01*
X033326D01*
X033334Y034265D01*
X033341D01*
X033349Y034266D01*
X033356Y034267D01*
X03336Y034268D01*
X033361D01*
X033362Y034269D01*
X033365Y034272D01*
X033371Y034276D01*
X033373Y03428D01*
X033376Y034284D01*
Y034284D01*
X033376Y034286D01*
X033378Y034289D01*
X033379Y034292D01*
X03338Y034297D01*
X033381Y034302D01*
X033382Y034308D01*
Y034331D01*
X033395D01*
Y034085D01*
D02*
G37*
G36*
X033076Y033739D02*
X033075D01*
X033073Y033738D01*
X03307Y033738D01*
X033065Y033736D01*
X03306Y033734D01*
X033054Y033732D01*
X03304Y033726D01*
X033024Y033719D01*
X033007Y033708D01*
X032991Y033697D01*
X032978Y033682D01*
X032977Y033681D01*
X032976Y03368D01*
X032975Y033678D01*
X032972Y033675D01*
X03297Y033671D01*
X032967Y033666D01*
X03296Y033655D01*
X032954Y033641D01*
X032948Y033625D01*
X032945Y033607D01*
X032943Y033598D01*
Y033584D01*
X032944Y033581D01*
Y033577D01*
X032945Y033572D01*
X032946Y033561D01*
X03295Y033549D01*
X032954Y033535D01*
X03296Y033521D01*
X032969Y033507D01*
Y033507D01*
X03297Y033506D01*
X032973Y033501D01*
X032979Y033495D01*
X032987Y033487D01*
X032997Y033478D01*
X033008Y033469D01*
X033021Y033461D01*
X033036Y033453D01*
X033037D01*
X033038Y033453D01*
X033041Y033451D01*
X033045Y03345D01*
X03305Y033448D01*
X033056Y033447D01*
X033063Y033445D01*
X03307Y033443D01*
X033078Y033441D01*
X033088Y033439D01*
X033107Y033436D01*
X033129Y033433D01*
X033153Y033432D01*
X033153D01*
X033155D01*
X033158D01*
X033163D01*
X033169Y033433D01*
X033175D01*
X033182Y033434D01*
X03319Y033434D01*
X033209Y033436D01*
X033228Y033439D01*
X033248Y033442D01*
X033268Y033447D01*
X033268D01*
X03327Y033448D01*
X033273Y033449D01*
X033276Y03345D01*
X033281Y033453D01*
X033285Y033454D01*
X033297Y03346D01*
X03331Y033466D01*
X033322Y033475D01*
X033336Y033485D01*
X033346Y033497D01*
Y033498D01*
X033348Y033499D01*
X033349Y033501D01*
X033351Y033504D01*
X033354Y033511D01*
X03336Y033521D01*
X033365Y033533D01*
X033368Y033549D01*
X033371Y033566D01*
X033373Y033585D01*
Y033593D01*
X033372Y033597D01*
Y033601D01*
X033371Y033612D01*
X033368Y033625D01*
X033365Y033638D01*
X03336Y033652D01*
X033354Y033666D01*
Y033667D01*
X033353Y033668D01*
X033352Y03367D01*
X03335Y033673D01*
X033345Y03368D01*
X033338Y03369D01*
X033329Y033702D01*
X033317Y033715D01*
X033303Y03373D01*
X033287Y033745D01*
X033327D01*
X033328Y033744D01*
X033328Y033743D01*
X03333Y033741D01*
X033333Y033738D01*
X033341Y03373D01*
X03335Y033719D01*
X03336Y033707D01*
X03337Y033693D01*
X033379Y033678D01*
X033387Y033662D01*
Y033661D01*
X033388Y03366D01*
X033389Y033657D01*
X03339Y033655D01*
X033392Y03365D01*
X033393Y033646D01*
X033395Y03364D01*
X033396Y033633D01*
X0334Y033619D01*
X033403Y033602D01*
X033405Y033583D01*
X033406Y033562D01*
Y033555D01*
X033405Y03355D01*
Y033543D01*
X033404Y033535D01*
X033403Y033526D01*
X033402Y033517D01*
X033398Y033496D01*
X033393Y033474D01*
X033386Y033451D01*
X033376Y033429D01*
X033375Y033428D01*
X033374Y033426D01*
X033373Y033423D01*
X03337Y033419D01*
X033367Y033414D01*
X033363Y033408D01*
X033354Y033396D01*
X033341Y033381D01*
X033326Y033366D01*
X033309Y033351D01*
X033289Y033338D01*
X033288D01*
X033286Y033337D01*
X033283Y033335D01*
X033279Y033333D01*
X033274Y033331D01*
X033268Y033328D01*
X03326Y033326D01*
X033252Y033323D01*
X033244Y03332D01*
X033234Y033317D01*
X033214Y033312D01*
X033191Y033308D01*
X03318Y033308D01*
X033168Y033307D01*
X033167D01*
X033165D01*
X033161D01*
X033156Y033308D01*
X03315D01*
X033143Y033309D01*
X033136Y03331D01*
X033127Y033311D01*
X033107Y033316D01*
X033085Y033321D01*
X033063Y03333D01*
X033052Y033336D01*
X03304Y033342D01*
X03304Y033342D01*
X033037Y033343D01*
X033034Y033345D01*
X03303Y033348D01*
X033025Y033352D01*
X033019Y033356D01*
X033013Y033361D01*
X033006Y033367D01*
X032991Y03338D01*
X032975Y033396D01*
X03296Y033415D01*
X032946Y033437D01*
X032946Y033437D01*
X032945Y033439D01*
X032943Y033442D01*
X032941Y033447D01*
X032938Y033453D01*
X032935Y033459D01*
X032932Y033466D01*
X032929Y033475D01*
X032927Y033484D01*
X032924Y033494D01*
X032918Y033515D01*
X032914Y033539D01*
X032913Y033551D01*
Y033572D01*
X032913Y033577D01*
X032914Y033582D01*
Y033588D01*
X032916Y033595D01*
X032918Y033611D01*
X032922Y033628D01*
X032927Y033648D01*
X032935Y033668D01*
Y033669D01*
X032935Y03367D01*
X032937Y033673D01*
X032938Y033679D01*
X03294Y033686D01*
X032943Y033692D01*
X032945Y033699D01*
X032946Y033705D01*
X032947Y033709D01*
Y033711D01*
X032946Y033716D01*
X032943Y033722D01*
X032942Y033725D01*
X032939Y033728D01*
X032938Y033729D01*
X032937Y03373D01*
X032935Y033731D01*
X032932Y033733D01*
X032929Y033735D01*
X032924Y033736D01*
X032919Y033738D01*
X032913Y033739D01*
Y033753D01*
X033076D01*
Y033739D01*
D02*
G37*
%LPC*%
G36*
X031977Y034101D02*
X031963D01*
X031962D01*
X031958D01*
X031954D01*
X031947D01*
X031939Y0341D01*
X031931D01*
X031921Y0341D01*
X03191Y034099D01*
X031888Y034097D01*
X031864Y034094D01*
X031842Y034089D01*
X031832Y034086D01*
X031823Y034084D01*
X031823D01*
X031821Y034083D01*
X031819Y034082D01*
X031816Y034081D01*
X031807Y034076D01*
X031798Y034071D01*
X031787Y034065D01*
X031776Y034057D01*
X031766Y034049D01*
X031758Y034039D01*
X031757Y034038D01*
X031755Y034035D01*
X031751Y034029D01*
X031748Y034022D01*
X031745Y034012D01*
X031741Y034002D01*
X031739Y033989D01*
X031738Y033977D01*
Y033974D01*
X031739Y033971D01*
Y033966D01*
X03174Y033961D01*
X031742Y033954D01*
X031744Y033948D01*
X031746Y033941D01*
X03175Y033933D01*
X031754Y033925D01*
X03176Y033917D01*
X031766Y033909D01*
X031774Y033901D01*
X031783Y033893D01*
X031793Y033885D01*
X031804Y033879D01*
X031805D01*
X031807Y033877D01*
X03181Y033876D01*
X031815Y033874D01*
X03182Y033872D01*
X031827Y03387D01*
X031835Y033868D01*
X031844Y033866D01*
X031855Y033863D01*
X031866Y03386D01*
X031879Y033858D01*
X031893Y033856D01*
X031908Y033854D01*
X031925Y033853D01*
X031942Y033852D01*
X031961D01*
X031962D01*
X031966D01*
X031972D01*
X03198Y033852D01*
X03199Y033853D01*
X032001Y033854D01*
X032014Y033855D01*
X032028Y033857D01*
X032057Y033862D01*
X032071Y033866D01*
X032087Y03387D01*
X0321Y033874D01*
X032114Y03388D01*
X032127Y033887D01*
X032138Y033894D01*
X032139D01*
X03214Y033895D01*
X032145Y033899D01*
X032151Y033906D01*
X032158Y033915D01*
X032166Y033927D01*
X032172Y033941D01*
X032177Y033957D01*
X032178Y033967D01*
X032178Y033976D01*
Y033982D01*
X032178Y033989D01*
X032176Y033997D01*
X032174Y034007D01*
X032171Y034016D01*
X032168Y034027D01*
X032162Y034036D01*
X032161Y034038D01*
X032157Y034041D01*
X032152Y034047D01*
X032144Y034054D01*
X032134Y034061D01*
X032122Y034069D01*
X032107Y034077D01*
X03209Y034084D01*
X03209D01*
X032088Y034084D01*
X032085Y034085D01*
X032082Y034086D01*
X032076Y034088D01*
X032071Y034089D01*
X032064Y034091D01*
X032056Y034092D01*
X032047Y034094D01*
X032038Y034095D01*
X032027Y034097D01*
X032016Y034098D01*
X032004Y0341D01*
X03199Y0341D01*
X031977Y034101D01*
D02*
G37*
G36*
X030998Y033929D02*
X030997D01*
X030996D01*
X030993D01*
X030989Y033928D01*
X030985D01*
X03098Y033927D01*
X030968Y033926D01*
X030956Y033922D01*
X030942Y033918D01*
X03093Y033912D01*
X030919Y033903D01*
X030918Y033902D01*
X030915Y033898D01*
X030911Y033892D01*
X030906Y033884D01*
X030901Y033873D01*
X030897Y033858D01*
X030894Y033842D01*
X030893Y033822D01*
Y033785D01*
X031098D01*
Y033813D01*
X031098Y033822D01*
X031097Y033832D01*
X031096Y033844D01*
X031095Y033856D01*
X031093Y033867D01*
X03109Y033877D01*
X031089Y033878D01*
X031088Y033881D01*
X031086Y033885D01*
X031082Y033891D01*
X031078Y033897D01*
X031073Y033903D01*
X031066Y033909D01*
X031058Y033915D01*
X031057Y033916D01*
X031054Y033917D01*
X031049Y033919D01*
X031042Y033922D01*
X031033Y033925D01*
X031023Y033927D01*
X031011Y033928D01*
X030998Y033929D01*
D02*
G37*
G36*
X031178Y033366D02*
X031017Y033296D01*
X031178Y033224D01*
Y033366D01*
D02*
G37*
G36*
X039025Y033913D02*
X039023D01*
X039019D01*
X039013D01*
X039005D01*
X038995D01*
X038984D01*
X038973D01*
X03896D01*
X038936D01*
X038923Y033912D01*
X038912D01*
X038902D01*
X038893D01*
X038886Y033911D01*
X038881D01*
X03888D01*
X038879D01*
X038877Y03391D01*
X038873D01*
X038865Y03391D01*
X038855Y033908D01*
X038844Y033905D01*
X038834Y033902D01*
X038823Y033899D01*
X03882Y033897D01*
X038816Y033894D01*
X038815Y033894D01*
X038814Y033893D01*
X038812Y033891D01*
X03881Y033888D01*
X038808Y033883D01*
X038806Y033879D01*
X038805Y033873D01*
X038804Y033866D01*
Y033864D01*
X038805Y033861D01*
Y033858D01*
X038808Y03385D01*
X03881Y033846D01*
X038813Y033843D01*
X038814Y033842D01*
X038815Y03384D01*
X038819Y033838D01*
X038823Y033835D01*
X038829Y033832D01*
X038836Y03383D01*
X038845Y033827D01*
X038856Y033825D01*
X038857D01*
X038858D01*
X03886Y033824D01*
X038863D01*
X038869D01*
X038875Y033824D01*
X038884D01*
X038894Y033823D01*
X038907Y033822D01*
X038922D01*
X038939Y033821D01*
X038959D01*
X038971D01*
X038982D01*
X038995Y033821D01*
X039008D01*
X039022D01*
X039037D01*
X039053D01*
X03907D01*
X039071D01*
X039074D01*
X039079D01*
X039086D01*
X039094D01*
X039103Y033821D01*
X039113D01*
X039124D01*
X039146Y033822D01*
X039168Y033824D01*
X039179Y033824D01*
X039189Y033825D01*
X039197Y033826D01*
X039204Y033827D01*
X039205D01*
X039207Y033828D01*
X039212Y03383D01*
X039217Y033831D01*
X039228Y033835D01*
X039233Y033838D01*
X039237Y033842D01*
Y033843D01*
X039238Y033844D01*
X039239Y033846D01*
X03924Y033849D01*
X039242Y033853D01*
X039243Y033857D01*
X039244Y033862D01*
X039245Y033868D01*
Y033871D01*
X039244Y033874D01*
X039243Y033878D01*
X039242Y033882D01*
X03924Y033886D01*
X039237Y033891D01*
X039234Y033894D01*
X039233Y033895D01*
X03923Y033897D01*
X039226Y033899D01*
X039219Y033902D01*
X039211Y033905D01*
X0392Y033908D01*
X039189Y03391D01*
X039174Y033911D01*
X039025Y033913D01*
D02*
G37*
G36*
X035084Y034239D02*
X035083D01*
X035081D01*
X035078D01*
X035075Y034238D01*
X03507D01*
X035065Y034238D01*
X035054Y034236D01*
X035041Y034233D01*
X035028Y034228D01*
X035016Y034222D01*
X035005Y034214D01*
X035003Y034212D01*
X035Y034209D01*
X034997Y034203D01*
X034992Y034194D01*
X034987Y034183D01*
X034983Y034169D01*
X03498Y034152D01*
X034979Y034133D01*
Y034096D01*
X035184D01*
Y034123D01*
X035183Y034132D01*
X035183Y034142D01*
X035182Y034154D01*
X03518Y034166D01*
X035178Y034177D01*
X035175Y034187D01*
X035175Y034188D01*
X035174Y034191D01*
X035172Y034195D01*
X035168Y034201D01*
X035164Y034207D01*
X035159Y034214D01*
X035152Y03422D01*
X035144Y034225D01*
X035143Y034226D01*
X03514Y034228D01*
X035135Y03423D01*
X035128Y034233D01*
X035119Y034235D01*
X035108Y034237D01*
X035097Y034238D01*
X035084Y034239D01*
D02*
G37*
G36*
X034352Y034245D02*
X034351D01*
X034351D01*
X034346D01*
X034341Y034244D01*
X034333Y034244D01*
X034323Y034241D01*
X034314Y034239D01*
X034303Y034236D01*
X034293Y03423D01*
X034292Y03423D01*
X034289Y034228D01*
X034284Y034225D01*
X034279Y03422D01*
X034273Y034214D01*
X034267Y034207D01*
X034261Y034199D01*
X034257Y03419D01*
X034256Y034188D01*
X034255Y034185D01*
X034254Y034179D01*
X034252Y03417D01*
X034249Y034158D01*
X034248Y034144D01*
X034247Y034128D01*
X034247Y034109D01*
X034397D01*
X034415D01*
X034416D01*
X034418D01*
X034421Y03411D01*
X034425Y034111D01*
X034435Y034114D01*
X034439Y034116D01*
X034443Y034119D01*
X034443Y03412D01*
X034444Y03412D01*
X034446Y034123D01*
X034447Y034126D01*
X034449Y03413D01*
X034451Y034135D01*
X034451Y03414D01*
X034452Y034147D01*
Y034151D01*
X034451Y034157D01*
X034451Y034163D01*
X034449Y034171D01*
X034447Y034179D01*
X034444Y034188D01*
X03444Y034197D01*
X03444Y034198D01*
X034438Y034201D01*
X034435Y034205D01*
X034431Y03421D01*
X034427Y034216D01*
X03442Y034222D01*
X034413Y034228D01*
X034405Y034233D01*
X034404Y034233D01*
X0344Y034235D01*
X034396Y034236D01*
X034389Y034239D01*
X034381Y034241D01*
X034373Y034243D01*
X034363Y034244D01*
X034352Y034245D01*
D02*
G37*
G36*
X034126Y034232D02*
X034125D01*
X034125D01*
X034121D01*
X034115Y034231D01*
X034108Y03423D01*
X0341Y034229D01*
X034091Y034226D01*
X034083Y034223D01*
X034075Y034219D01*
X034074Y034218D01*
X034072Y034217D01*
X034068Y034214D01*
X034064Y03421D01*
X034058Y034205D01*
X034053Y034198D01*
X034049Y034191D01*
X034045Y034183D01*
X034044Y034182D01*
X034043Y034179D01*
X034041Y034174D01*
X034039Y034166D01*
X034037Y034155D01*
X034035Y034142D01*
X034034Y034127D01*
X034034Y034109D01*
X03422D01*
Y034117D01*
X034219Y034126D01*
X034218Y034137D01*
X034217Y034149D01*
X034215Y034161D01*
X034212Y034173D01*
X034209Y034182D01*
X034208Y034183D01*
X034206Y034186D01*
X034204Y03419D01*
X034201Y034196D01*
X034196Y034202D01*
X034191Y034208D01*
X034185Y034214D01*
X034178Y034219D01*
X034177Y03422D01*
X034174Y034221D01*
X03417Y034223D01*
X034164Y034225D01*
X034156Y034228D01*
X034147Y03423D01*
X034137Y034231D01*
X034126Y034232D01*
D02*
G37*
%LPD*%
D10*
X047982Y03435D02*
G03*
X047982Y03435I-000049J0D01*
G01*
X04753Y039242D02*
G03*
X04753Y039242I-000049J0D01*
G01*
D11*
X046827Y033423D02*
G03*
X046827Y033423I-00099J0D01*
G01*
X047779Y027904D02*
G03*
X047779Y027904I-00099J0D01*
G01*
X046923Y026553D02*
X048923D01*
X046923Y025453D02*
Y026553D01*
Y025453D02*
X048923D01*
Y026553D01*
X02995Y018351D02*
X030565D01*
X030365Y018151D02*
X030565Y018351D01*
X030365Y018551D02*
X030565Y018351D01*
X02993Y016356D02*
Y020356D01*
X032885D01*
X02993Y016356D02*
X032885D01*
Y020356D01*
X04527Y032873D02*
Y033188D01*
X045113Y033031D02*
X045428D01*
X046239Y02847D02*
X046554D01*
X046397Y028627D02*
Y028312D01*
X049537Y022273D02*
X049137D01*
X049337Y022073D02*
Y022472D01*
X040304Y017117D02*
Y017517D01*
X040104Y017317D02*
X040504D01*
X02984Y04865D02*
X03024D01*
X03004D01*
Y04805D01*
X03044D02*
Y04865D01*
X03074D01*
X03084Y04855D01*
Y04835D01*
X03074Y04825D01*
X03044D01*
X031439Y04805D02*
X03104D01*
X031439Y04845D01*
Y04855D01*
X03134Y04865D01*
X03114D01*
X03104Y04855D01*
X048791Y029158D02*
X049191D01*
Y029058D01*
X048791Y028658D01*
Y028558D01*
X049191D01*
X049791D02*
X049391D01*
X049791Y028958D01*
Y029058D01*
X049691Y029158D01*
X049491D01*
X049391Y029058D01*
X041775Y031058D02*
X042175D01*
Y030958D01*
X041775Y030558D01*
Y030458D01*
X042175D01*
X042375D02*
X042575D01*
X042475D01*
Y031058D01*
X042375Y030958D01*
X039421Y027013D02*
Y026513D01*
X039521Y026413D01*
X039721D01*
X039821Y026513D01*
Y027013D01*
X040021Y026913D02*
X040121Y027013D01*
X040321D01*
X040421Y026913D01*
Y026813D01*
X040321Y026713D01*
X040221D01*
X040321D01*
X040421Y026613D01*
Y026513D01*
X040321Y026413D01*
X040121D01*
X040021Y026513D01*
X046734Y016068D02*
Y015568D01*
X046834Y015468D01*
X047034D01*
X047134Y015568D01*
Y016068D01*
X047734Y015468D02*
X047334D01*
X047734Y015868D01*
Y015968D01*
X047634Y016068D01*
X047434D01*
X047334Y015968D01*
X044Y04352D02*
Y04302D01*
X0441Y04292D01*
X0443D01*
X0444Y04302D01*
Y04352D01*
X0446Y04292D02*
X0448D01*
X0447D01*
Y04352D01*
X0446Y04342D01*
X0305Y0315D02*
X0309D01*
X0307D01*
Y0309D01*
X0311D02*
X0313D01*
X0312D01*
Y0315D01*
X0311Y0314D01*
X039667Y028115D02*
Y028715D01*
X039967D01*
X040067Y028615D01*
Y028415D01*
X039967Y028315D01*
X039667D01*
X039867D02*
X040067Y028115D01*
X040267Y028715D02*
X040667D01*
Y028615D01*
X040267Y028215D01*
Y028115D01*
X044618Y028145D02*
Y028745D01*
X044918D01*
X045018Y028645D01*
Y028445D01*
X044918Y028345D01*
X044618D01*
X044818D02*
X045018Y028145D01*
X045618Y028745D02*
X045418Y028645D01*
X045218Y028445D01*
Y028245D01*
X045318Y028145D01*
X045518D01*
X045618Y028245D01*
Y028345D01*
X045518Y028445D01*
X045218D01*
X04438Y02499D02*
Y02559D01*
X04468D01*
X04478Y02549D01*
Y02529D01*
X04468Y02519D01*
X04438D01*
X04458D02*
X04478Y02499D01*
X04538Y02559D02*
X04498D01*
Y02529D01*
X04518Y02539D01*
X04528D01*
X04538Y02529D01*
Y02509D01*
X04528Y02499D01*
X04508D01*
X04498Y02509D01*
X02983Y0225D02*
Y0231D01*
X03013D01*
X03023Y023D01*
Y0228D01*
X03013Y0227D01*
X02983D01*
X03003D02*
X03023Y0225D01*
X03073D02*
Y0231D01*
X03043Y0228D01*
X03083D01*
X043555Y015547D02*
Y016146D01*
X043855D01*
X043955Y016046D01*
Y015846D01*
X043855Y015746D01*
X043555D01*
X043755D02*
X043955Y015547D01*
X044155Y016046D02*
X044255Y016146D01*
X044455D01*
X044555Y016046D01*
Y015946D01*
X044455Y015846D01*
X044355D01*
X044455D01*
X044555Y015746D01*
Y015647D01*
X044455Y015547D01*
X044255D01*
X044155Y015647D01*
X046882Y037436D02*
Y038036D01*
X047182D01*
X047282Y037936D01*
Y037736D01*
X047182Y037636D01*
X046882D01*
X047082D02*
X047282Y037436D01*
X047882D02*
X047482D01*
X047882Y037836D01*
Y037936D01*
X047782Y038036D01*
X047582D01*
X047482Y037936D01*
X046923Y031049D02*
Y031648D01*
X047223D01*
X047323Y031548D01*
Y031348D01*
X047223Y031248D01*
X046923D01*
X047123D02*
X047323Y031049D01*
X047523D02*
X047723D01*
X047623D01*
Y031648D01*
X047523Y031548D01*
X02998Y02071D02*
Y02131D01*
X03028D01*
X03038Y02121D01*
Y02101D01*
X03028Y02091D01*
X02998D01*
X03058Y02071D02*
X03078D01*
X03068D01*
Y02131D01*
X03058Y02121D01*
X04599Y0275D02*
Y0269D01*
X04639D01*
X04659D02*
X04679D01*
X04669D01*
Y0275D01*
X04659Y0274D01*
X03053Y03801D02*
X03033D01*
X03043D01*
Y03751D01*
X03033Y03741D01*
X03023D01*
X03013Y03751D01*
X03113Y03741D02*
X03073D01*
X03113Y03781D01*
Y03791D01*
X03103Y03801D01*
X03083D01*
X03073Y03791D01*
X05009Y02175D02*
Y02115D01*
X05039D01*
X05049Y02125D01*
Y02165D01*
X05039Y02175D01*
X05009D01*
X05099Y02115D02*
Y02175D01*
X05069Y02145D01*
X05109D01*
X039441Y024827D02*
Y024228D01*
X039741D01*
X039841Y024328D01*
Y024727D01*
X039741Y024827D01*
X039441D01*
X040041Y024727D02*
X040141Y024827D01*
X040341D01*
X040441Y024727D01*
Y024628D01*
X040341Y024528D01*
X040241D01*
X040341D01*
X040441Y024428D01*
Y024328D01*
X040341Y024228D01*
X040141D01*
X040041Y024328D01*
X035278Y016127D02*
Y015527D01*
X035578D01*
X035678Y015627D01*
Y016027D01*
X035578Y016127D01*
X035278D01*
X036277Y015527D02*
X035878D01*
X036277Y015927D01*
Y016027D01*
X036177Y016127D01*
X035977D01*
X035878Y016027D01*
X04395Y03695D02*
Y03635D01*
X04425D01*
X04435Y03645D01*
Y03685D01*
X04425Y03695D01*
X04395D01*
X04455Y03635D02*
X04475D01*
X04465D01*
Y03695D01*
X04455Y03685D01*
X039542Y021027D02*
X039442Y021127D01*
X039242D01*
X039142Y021027D01*
Y020627D01*
X039242Y020527D01*
X039442D01*
X039542Y020627D01*
X039742Y020527D02*
X039942D01*
X039842D01*
Y021127D01*
X039742Y021027D01*
X040641Y020527D02*
X040242D01*
X040641Y020927D01*
Y021027D01*
X040542Y021127D01*
X040342D01*
X040242Y021027D01*
X048717Y028005D02*
X048617Y028105D01*
X048417D01*
X048317Y028005D01*
Y027605D01*
X048417Y027505D01*
X048617D01*
X048717Y027605D01*
X048917Y027505D02*
X049116D01*
X049017D01*
Y028105D01*
X048917Y028005D01*
X049416Y027505D02*
X049616D01*
X049516D01*
Y028105D01*
X049416Y028005D01*
X049591Y025377D02*
X049491Y025477D01*
X049291D01*
X049191Y025377D01*
Y024977D01*
X049291Y024877D01*
X049491D01*
X049591Y024977D01*
X049791Y024877D02*
X049991D01*
X049891D01*
Y025477D01*
X049791Y025377D01*
X050291D02*
X050391Y025477D01*
X050591D01*
X050691Y025377D01*
Y024977D01*
X050591Y024877D01*
X050391D01*
X050291Y024977D01*
Y025377D01*
X040619Y016007D02*
X040519Y016107D01*
X040319D01*
X040219Y016007D01*
Y015607D01*
X040319Y015507D01*
X040519D01*
X040619Y015607D01*
X040818D02*
X040918Y015507D01*
X041118D01*
X041218Y015607D01*
Y016007D01*
X041118Y016107D01*
X040918D01*
X040818Y016007D01*
Y015907D01*
X040918Y015807D01*
X041218D01*
X043542Y020997D02*
X043442Y021097D01*
X043242D01*
X043142Y020997D01*
Y020597D01*
X043242Y020497D01*
X043442D01*
X043542Y020597D01*
X043742Y020997D02*
X043842Y021097D01*
X044042D01*
X044142Y020997D01*
Y020897D01*
X044042Y020797D01*
X044142Y020697D01*
Y020597D01*
X044042Y020497D01*
X043842D01*
X043742Y020597D01*
Y020697D01*
X043842Y020797D01*
X043742Y020897D01*
Y020997D01*
X043842Y020797D02*
X044042D01*
X039733Y022405D02*
X039633Y022505D01*
X039433D01*
X039333Y022405D01*
Y022005D01*
X039433Y021905D01*
X039633D01*
X039733Y022005D01*
X039933Y022505D02*
X040333D01*
Y022405D01*
X039933Y022005D01*
Y021905D01*
X040884Y032523D02*
X040784Y032623D01*
X040584D01*
X040484Y032523D01*
Y032123D01*
X040584Y032023D01*
X040784D01*
X040884Y032123D01*
X041084Y032523D02*
X041184Y032623D01*
X041384D01*
X041484Y032523D01*
Y032423D01*
X041384Y032323D01*
X041284D01*
X041384D01*
X041484Y032223D01*
Y032123D01*
X041384Y032023D01*
X041184D01*
X041084Y032123D01*
X043079Y032572D02*
X042979Y032672D01*
X042779D01*
X042679Y032572D01*
Y032172D01*
X042779Y032072D01*
X042979D01*
X043079Y032172D01*
X043679Y032072D02*
X043279D01*
X043679Y032472D01*
Y032572D01*
X043579Y032672D01*
X043379D01*
X043279Y032572D01*
X044459Y034629D02*
X044359Y034729D01*
X044159D01*
X044059Y034629D01*
Y034229D01*
X044159Y034129D01*
X044359D01*
X044459Y034229D01*
X044659Y034129D02*
X044859D01*
X044759D01*
Y034729D01*
X044659Y034629D01*
X050192Y031954D02*
X050592D01*
X050792Y031754D01*
X050592Y031555D01*
X050192D01*
X050492D01*
Y031954D01*
X050192Y031355D02*
X050792D01*
X050592Y031155D01*
X050792Y030955D01*
X050192D01*
X050692Y030355D02*
X050792Y030455D01*
Y030655D01*
X050692Y030755D01*
X050592D01*
X050492Y030655D01*
Y030455D01*
X050392Y030355D01*
X050292D01*
X050192Y030455D01*
Y030655D01*
X050292Y030755D01*
X050192Y030155D02*
Y029955D01*
Y030055D01*
X050792D01*
X050692Y030155D01*
D12*
X042272Y027689D02*
G03*
X043272Y027685I0005J-000017D01*
G01*
X045276Y021455D02*
G03*
X045276Y022955I0J00075D01*
G01*
X041276D02*
G03*
X041276Y021455I0J-00075D01*
G01*
X044002Y019884D02*
G03*
X043202Y019884I-0004J0D01*
G01*
Y017884D02*
G03*
X044002Y017884I0004J0D01*
G01*
X049266Y040365D02*
G03*
X050998Y040373I000866J000006D01*
G01*
Y042973D02*
G03*
X049268Y042973I-000865J-000035D01*
G01*
X049689Y035834D02*
G03*
X049606Y035829I-000083J000645D01*
G01*
X043577Y029823D02*
Y029983D01*
Y029613D02*
Y029823D01*
X043167Y029353D02*
Y030323D01*
X043577Y029823D02*
X043877D01*
X041277D02*
X041577D01*
X043577D02*
Y030323D01*
X041577D02*
X043577D01*
X041577Y029323D02*
Y030323D01*
Y029323D02*
X043577D01*
Y029823D01*
X048787Y029872D02*
Y030032D01*
Y029662D02*
Y029872D01*
X048377Y029402D02*
Y030372D01*
X048787Y029872D02*
X049087D01*
X046487D02*
X046787D01*
X048787D02*
Y030372D01*
X046787D02*
X048787D01*
X046787Y029372D02*
Y030372D01*
Y029372D02*
X048787D01*
Y029872D01*
X040772Y027685D02*
X042272D01*
X043282D02*
X044772D01*
X040772Y025685D02*
Y027685D01*
Y025685D02*
X044772D01*
Y027685D01*
X043456Y022205D02*
X044836D01*
X043456Y021905D02*
Y022455D01*
X043046Y021915D02*
Y022465D01*
X041676Y022215D02*
X043046D01*
X041286Y021455D02*
X045276D01*
X041276Y022955D02*
X045276D01*
X044002Y017884D02*
Y019884D01*
X043202Y017884D02*
Y019884D01*
X043352Y019134D02*
X043902D01*
X043352Y018684D02*
X043902D01*
X043602Y019134D02*
Y019434D01*
Y018384D02*
Y018684D01*
X031724Y020766D02*
Y022166D01*
X035624Y020766D02*
Y022166D01*
X031724Y020766D02*
X035624D01*
Y021476D02*
X036634D01*
X031724Y022166D02*
X035624D01*
X030394Y021476D02*
X031724D01*
X045035Y035352D02*
Y035512D01*
Y035722D01*
X045445Y035012D02*
Y035982D01*
X044735Y035512D02*
X045035D01*
X047035D02*
X047335D01*
X045035Y035012D02*
Y035512D01*
Y035012D02*
X047035D01*
Y036012D01*
X045035D02*
X047035D01*
X045035Y035512D02*
Y036012D01*
X042756Y046753D02*
Y047053D01*
Y046753D02*
X043256D01*
Y047053D01*
X046746Y046743D02*
Y047043D01*
Y046743D02*
X047246D01*
Y047043D01*
X041496Y044673D02*
Y046073D01*
X048496Y044673D02*
Y047073D01*
X041496D02*
X048496D01*
X041496Y046073D02*
Y047073D01*
Y044673D02*
X048496D01*
X035801Y034699D02*
Y034999D01*
X035301D02*
X035801D01*
X035301Y034699D02*
Y034999D01*
X031811Y034709D02*
Y035009D01*
X031311D02*
X031811D01*
X031311Y034709D02*
Y035009D01*
X037061Y035679D02*
Y037079D01*
X030061Y034679D02*
Y037079D01*
Y034679D02*
X037061D01*
Y035679D01*
X030061Y037079D02*
X037061D01*
X049268Y040373D02*
Y043023D01*
X050998Y040373D02*
Y042973D01*
X049728Y041473D02*
X050478D01*
X050088Y041173D02*
Y041473D01*
X049738Y041883D02*
X050478D01*
X050088D02*
Y042193D01*
X048356Y03772D02*
X050856D01*
X048356Y03522D02*
Y03772D01*
Y03522D02*
X050856D01*
Y03772D01*
X050522Y017659D02*
X050682D01*
X050312D02*
X050522D01*
X050052Y018069D02*
X051022D01*
X050522Y017359D02*
Y017659D01*
Y019659D02*
Y019959D01*
Y017659D02*
X051022D01*
Y019659D01*
X050022D02*
X051022D01*
X050022Y017659D02*
Y019659D01*
Y017659D02*
X050522D01*
D13*
X042122Y027175D02*
G03*
X042122Y027175I-00008J0D01*
G01*
D14*
X046923Y021648D02*
G03*
X04691Y021662I001417J001333D01*
G01*
X039679Y019731D02*
G03*
X039693Y019743I001333J-001417D01*
G01*
X040525Y039105D02*
Y038772D01*
X040192Y039105D01*
X040108D01*
X040025Y039022D01*
Y038855D01*
X040108Y038772D01*
X041525Y038972D02*
Y039138D01*
Y039055D01*
X041025D01*
X041108Y038972D01*
X041025Y043372D02*
Y043705D01*
X041108D01*
X041441Y043372D01*
X041525D01*
X040108D02*
X040025Y043455D01*
Y043622D01*
X040108Y043705D01*
X040192D01*
X040275Y043622D01*
X040358Y043705D01*
X040441D01*
X040525Y043622D01*
Y043455D01*
X040441Y043372D01*
X040358D01*
X040275Y043455D01*
X040192Y043372D01*
X040108D01*
X040275Y043455D02*
Y043622D01*
D15*
X031777Y015338D02*
G03*
X029877Y015338I-00095J-000633D01*
G01*
X031941Y015447D02*
G03*
X029713Y015447I-001114J-000743D01*
G01*
X031973Y015469D02*
G03*
X02968Y015469I-001147J-000764D01*
G01*
X032006Y015491D02*
G03*
X029647Y015491I-001179J-000786D01*
G01*
X032039Y015513D02*
G03*
X029615Y015513I-001212J-000808D01*
G01*
X032072Y015535D02*
G03*
X029582Y015535I-001245J-00083D01*
G01*
X032402Y014705D02*
G03*
X032402Y014705I-001575J0D01*
G01*
X031908Y015425D02*
G03*
X029746Y015425I-001081J-000721D01*
G01*
X031875Y015404D02*
G03*
X029779Y015404I-001048J-000699D01*
G01*
X031842Y015382D02*
G03*
X029811Y015382I-001015J-000677D01*
G01*
X03181Y01536D02*
G03*
X029844Y01536I-000983J-000655D01*
G01*
X031777Y015338D02*
G03*
X029877Y015338I-00095J-000633D01*
G01*
X031744Y015316D02*
G03*
X02991Y015316I-000917J-000611D01*
G01*
X031711Y015294D02*
G03*
X029942Y015294I-000884J-00059D01*
G01*
X031678Y015273D02*
G03*
X029975Y015273I-000852J-000568D01*
G01*
X031646Y015251D02*
G03*
X030008Y015251I-000819J-000546D01*
G01*
X031646D02*
G03*
X030008Y015251I-000819J-000546D01*
G01*
X031613Y015229D02*
G03*
X030041Y015229I-000786J-000524D01*
G01*
X03158Y015207D02*
G03*
X030073Y015207I-000753J-000502D01*
G01*
X03158D02*
G03*
X030073Y015207I-000753J-000502D01*
G01*
X031547Y015185D02*
G03*
X030106Y015185I-000721J-00048D01*
G01*
X031515Y015163D02*
G03*
X030139Y015163I-000688J-000459D01*
G01*
X031482Y015142D02*
G03*
X030172Y015142I-000655J-000437D01*
G01*
X031449Y01512D02*
G03*
X030204Y01512I-000622J-000415D01*
G01*
Y01429D02*
G03*
X031449Y01429I000622J000415D01*
G01*
X030172Y014268D02*
G03*
X031482Y014268I000655J000437D01*
G01*
X030139Y014246D02*
G03*
X031515Y014246I000688J000459D01*
G01*
X030106Y014224D02*
G03*
X031547Y014224I000721J00048D01*
G01*
X030073Y014202D02*
G03*
X03158Y014202I000753J000502D01*
G01*
X030073D02*
G03*
X03158Y014202I000753J000502D01*
G01*
X030041Y014181D02*
G03*
X031613Y014181I000786J000524D01*
G01*
X030008Y014159D02*
G03*
X031646Y014159I000819J000546D01*
G01*
X030008D02*
G03*
X031646Y014159I000819J000546D01*
G01*
X029975Y014137D02*
G03*
X031678Y014137I000852J000568D01*
G01*
X029942Y014115D02*
G03*
X031711Y014115I000884J00059D01*
G01*
X02991Y014093D02*
G03*
X031744Y014093I000917J000611D01*
G01*
X029877Y014071D02*
G03*
X031777Y014071I00095J000633D01*
G01*
X029844Y01405D02*
G03*
X03181Y01405I000983J000655D01*
G01*
X029811Y014028D02*
G03*
X031842Y014028I001015J000677D01*
G01*
X029779Y014006D02*
G03*
X031875Y014006I001048J000699D01*
G01*
X029746Y013984D02*
G03*
X031908Y013984I001081J000721D01*
G01*
X029582Y013875D02*
G03*
X032072Y013875I001245J00083D01*
G01*
X029615Y013897D02*
G03*
X032039Y013897I001212J000808D01*
G01*
X029647Y013919D02*
G03*
X032006Y013919I001179J000786D01*
G01*
X02968Y01394D02*
G03*
X031973Y01394I001147J000764D01*
G01*
X029713Y013962D02*
G03*
X031941Y013962I001114J000743D01*
G01*
X029877Y014071D02*
G03*
X031777Y014071I00095J000633D01*
G01*
X049345Y045371D02*
G03*
X051245Y045371I00095J000633D01*
G01*
X049182Y045261D02*
G03*
X051409Y045261I001114J000743D01*
G01*
X049149Y04524D02*
G03*
X051442Y04524I001147J000764D01*
G01*
X049116Y045218D02*
G03*
X051475Y045218I001179J000786D01*
G01*
X049083Y045196D02*
G03*
X051507Y045196I001212J000808D01*
G01*
X04905Y045174D02*
G03*
X05154Y045174I001245J00083D01*
G01*
X049214Y045283D02*
G03*
X051376Y045283I001081J000721D01*
G01*
X049247Y045305D02*
G03*
X051344Y045305I001048J000699D01*
G01*
X04928Y045327D02*
G03*
X051311Y045327I001015J000677D01*
G01*
X049313Y045349D02*
G03*
X051278Y045349I000983J000655D01*
G01*
X049345Y045371D02*
G03*
X051245Y045371I00095J000633D01*
G01*
X049378Y045392D02*
G03*
X051213Y045392I000917J000611D01*
G01*
X049411Y045414D02*
G03*
X05118Y045414I000884J00059D01*
G01*
X049444Y045436D02*
G03*
X051147Y045436I000852J000568D01*
G01*
X049476Y045458D02*
G03*
X051114Y045458I000819J000546D01*
G01*
X049476D02*
G03*
X051114Y045458I000819J000546D01*
G01*
X049509Y04548D02*
G03*
X051081Y04548I000786J000524D01*
G01*
X049542Y045502D02*
G03*
X051049Y045502I000753J000502D01*
G01*
X049542D02*
G03*
X051049Y045502I000753J000502D01*
G01*
X049575Y045523D02*
G03*
X051016Y045523I000721J00048D01*
G01*
X049607Y045545D02*
G03*
X050983Y045545I000688J000459D01*
G01*
X04964Y045567D02*
G03*
X05095Y045567I000655J000437D01*
G01*
X049673Y045589D02*
G03*
X050918Y045589I000622J000415D01*
G01*
Y046419D02*
G03*
X049673Y046419I-000622J-000415D01*
G01*
X05095Y046441D02*
G03*
X04964Y046441I-000655J-000437D01*
G01*
X050983Y046463D02*
G03*
X049607Y046463I-000688J-000459D01*
G01*
X051016Y046484D02*
G03*
X049575Y046484I-000721J-00048D01*
G01*
X051049Y046506D02*
G03*
X049542Y046506I-000753J-000502D01*
G01*
X051049D02*
G03*
X049542Y046506I-000753J-000502D01*
G01*
X051081Y046528D02*
G03*
X049509Y046528I-000786J-000524D01*
G01*
X051114Y04655D02*
G03*
X049476Y04655I-000819J-000546D01*
G01*
X051114D02*
G03*
X049476Y04655I-000819J-000546D01*
G01*
X051147Y046572D02*
G03*
X049444Y046572I-000852J-000568D01*
G01*
X05118Y046594D02*
G03*
X049411Y046594I-000884J-00059D01*
G01*
X051213Y046615D02*
G03*
X049378Y046615I-000917J-000611D01*
G01*
X051245Y046637D02*
G03*
X049345Y046637I-00095J-000633D01*
G01*
X051278Y046659D02*
G03*
X049313Y046659I-000983J-000655D01*
G01*
X051311Y046681D02*
G03*
X04928Y046681I-001015J-000677D01*
G01*
X051344Y046703D02*
G03*
X049247Y046703I-001048J-000699D01*
G01*
X051376Y046725D02*
G03*
X049214Y046725I-001081J-000721D01*
G01*
X05187Y046004D02*
G03*
X05187Y046004I-001575J0D01*
G01*
X05154Y046834D02*
G03*
X04905Y046834I-001245J-00083D01*
G01*
X051507Y046812D02*
G03*
X049083Y046812I-001212J-000808D01*
G01*
X051475Y04679D02*
G03*
X049116Y04679I-001179J-000786D01*
G01*
X051442Y046768D02*
G03*
X049149Y046768I-001147J-000764D01*
G01*
X051409Y046746D02*
G03*
X049182Y046746I-001114J-000743D01*
G01*
X051245Y046637D02*
G03*
X049345Y046637I-00095J-000633D01*
G01*
X030428Y045479D02*
G03*
X032328Y045479I00095J000633D01*
G01*
X030264Y04537D02*
G03*
X032492Y04537I001114J000743D01*
G01*
X030231Y045348D02*
G03*
X032524Y045348I001147J000764D01*
G01*
X030199Y045326D02*
G03*
X032557Y045326I001179J000786D01*
G01*
X030166Y045304D02*
G03*
X03259Y045304I001212J000808D01*
G01*
X030133Y045282D02*
G03*
X032623Y045282I001245J00083D01*
G01*
X030297Y045392D02*
G03*
X032459Y045392I001081J000721D01*
G01*
X03033Y045413D02*
G03*
X032426Y045413I001048J000699D01*
G01*
X030362Y045435D02*
G03*
X032393Y045435I001015J000677D01*
G01*
X030395Y045457D02*
G03*
X032361Y045457I000983J000655D01*
G01*
X030428Y045479D02*
G03*
X032328Y045479I00095J000633D01*
G01*
X030461Y045501D02*
G03*
X032295Y045501I000917J000611D01*
G01*
X030493Y045523D02*
G03*
X032262Y045523I000884J00059D01*
G01*
X030526Y045544D02*
G03*
X03223Y045544I000852J000568D01*
G01*
X030559Y045566D02*
G03*
X032197Y045566I000819J000546D01*
G01*
X030559D02*
G03*
X032197Y045566I000819J000546D01*
G01*
X030592Y045588D02*
G03*
X032164Y045588I000786J000524D01*
G01*
X030625Y04561D02*
G03*
X032131Y04561I000753J000502D01*
G01*
X030625D02*
G03*
X032131Y04561I000753J000502D01*
G01*
X030657Y045632D02*
G03*
X032099Y045632I000721J00048D01*
G01*
X03069Y045654D02*
G03*
X032066Y045654I000688J000459D01*
G01*
X030723Y045675D02*
G03*
X032033Y045675I000655J000437D01*
G01*
X030756Y045697D02*
G03*
X032Y045697I000622J000415D01*
G01*
Y046527D02*
G03*
X030756Y046527I-000622J-000415D01*
G01*
X032033Y046549D02*
G03*
X030723Y046549I-000655J-000437D01*
G01*
X032066Y046571D02*
G03*
X03069Y046571I-000688J-000459D01*
G01*
X032099Y046593D02*
G03*
X030657Y046593I-000721J-00048D01*
G01*
X032131Y046614D02*
G03*
X030625Y046614I-000753J-000502D01*
G01*
X032131D02*
G03*
X030625Y046614I-000753J-000502D01*
G01*
X032164Y046636D02*
G03*
X030592Y046636I-000786J-000524D01*
G01*
X032197Y046658D02*
G03*
X030559Y046658I-000819J-000546D01*
G01*
X032197D02*
G03*
X030559Y046658I-000819J-000546D01*
G01*
X03223Y04668D02*
G03*
X030526Y04668I-000852J-000568D01*
G01*
X032262Y046702D02*
G03*
X030493Y046702I-000884J-00059D01*
G01*
X032295Y046724D02*
G03*
X030461Y046724I-000917J-000611D01*
G01*
X032328Y046746D02*
G03*
X030428Y046746I-00095J-000633D01*
G01*
X032361Y046767D02*
G03*
X030395Y046767I-000983J-000655D01*
G01*
X032393Y046789D02*
G03*
X030362Y046789I-001015J-000677D01*
G01*
X032426Y046811D02*
G03*
X03033Y046811I-001048J-000699D01*
G01*
X032459Y046833D02*
G03*
X030297Y046833I-001081J-000721D01*
G01*
X032953Y046112D02*
G03*
X032953Y046112I-001575J0D01*
G01*
X032623Y046942D02*
G03*
X030133Y046942I-001245J-00083D01*
G01*
X03259Y04692D02*
G03*
X030166Y04692I-001212J-000808D01*
G01*
X032557Y046898D02*
G03*
X030199Y046898I-001179J-000786D01*
G01*
X032524Y046877D02*
G03*
X030231Y046877I-001147J-000764D01*
G01*
X032492Y046855D02*
G03*
X030264Y046855I-001114J-000743D01*
G01*
X032328Y046746D02*
G03*
X030428Y046746I-00095J-000633D01*
G01*
X050417Y013824D02*
G03*
X050417Y015724I-000633J00095D01*
G01*
X050526Y01366D02*
G03*
X050526Y015887I-000743J001114D01*
G01*
X050548Y013627D02*
G03*
X050548Y01592I-000764J001147D01*
G01*
X05057Y013594D02*
G03*
X05057Y015953I-000786J001179D01*
G01*
X050591Y013562D02*
G03*
X050591Y015986I-000808J001212D01*
G01*
X050613Y013529D02*
G03*
X050613Y016018I-00083J001245D01*
G01*
X050504Y013693D02*
G03*
X050504Y015855I-000721J001081D01*
G01*
X050482Y013725D02*
G03*
X050482Y015822I-000699J001048D01*
G01*
X05046Y013758D02*
G03*
X05046Y015789I-000677J001015D01*
G01*
X050439Y013791D02*
G03*
X050439Y015756I-000655J000983D01*
G01*
X050417Y013824D02*
G03*
X050417Y015724I-000633J00095D01*
G01*
X050395Y013856D02*
G03*
X050395Y015691I-000611J000917D01*
G01*
X050373Y013889D02*
G03*
X050373Y015658I-00059J000884D01*
G01*
X050351Y013922D02*
G03*
X050351Y015625I-000568J000852D01*
G01*
X050329Y013955D02*
G03*
X050329Y015593I-000546J000819D01*
G01*
Y013955D02*
G03*
X050329Y015593I-000546J000819D01*
G01*
X050308Y013987D02*
G03*
X050308Y01556I-000524J000786D01*
G01*
X050286Y01402D02*
G03*
X050286Y015527I-000502J000753D01*
G01*
Y01402D02*
G03*
X050286Y015527I-000502J000753D01*
G01*
X050264Y014053D02*
G03*
X050264Y015494I-00048J000721D01*
G01*
X050242Y014086D02*
G03*
X050242Y015462I-000459J000688D01*
G01*
X05022Y014118D02*
G03*
X05022Y015429I-000437J000655D01*
G01*
X050198Y014151D02*
G03*
X050198Y015396I-000415J000622D01*
G01*
X049369D02*
G03*
X049369Y014151I000415J-000622D01*
G01*
X049347Y015429D02*
G03*
X049347Y014118I000437J-000655D01*
G01*
X049325Y015462D02*
G03*
X049325Y014086I000459J-000688D01*
G01*
X049303Y015494D02*
G03*
X049303Y014053I00048J-000721D01*
G01*
X049281Y015527D02*
G03*
X049281Y01402I000502J-000753D01*
G01*
Y015527D02*
G03*
X049281Y01402I000502J-000753D01*
G01*
X049259Y01556D02*
G03*
X049259Y013987I000524J-000786D01*
G01*
X049237Y015593D02*
G03*
X049237Y013955I000546J-000819D01*
G01*
Y015593D02*
G03*
X049237Y013955I000546J-000819D01*
G01*
X049216Y015625D02*
G03*
X049216Y013922I000568J-000852D01*
G01*
X049194Y015658D02*
G03*
X049194Y013889I00059J-000884D01*
G01*
X049172Y015691D02*
G03*
X049172Y013856I000611J-000917D01*
G01*
X04915Y015724D02*
G03*
X04915Y013824I000633J-00095D01*
G01*
X049128Y015756D02*
G03*
X049128Y013791I000655J-000983D01*
G01*
X049106Y015789D02*
G03*
X049106Y013758I000677J-001015D01*
G01*
X049085Y015822D02*
G03*
X049085Y013725I000699J-001048D01*
G01*
X049063Y015855D02*
G03*
X049063Y013693I000721J-001081D01*
G01*
X051358Y014774D02*
G03*
X051358Y014774I-001575J0D01*
G01*
X048954Y016018D02*
G03*
X048954Y013529I00083J-001245D01*
G01*
X048975Y015986D02*
G03*
X048975Y013562I000808J-001212D01*
G01*
X048997Y015953D02*
G03*
X048997Y013594I000786J-001179D01*
G01*
X049019Y01592D02*
G03*
X049019Y013627I000764J-001147D01*
G01*
X049041Y015887D02*
G03*
X049041Y01366I000743J-001114D01*
G01*
X04915Y015724D02*
G03*
X04915Y013824I000633J-00095D01*
G01*
X043474Y032963D02*
Y038081D01*
X039931D02*
X043474D01*
X039931Y032963D02*
Y038081D01*
Y032963D02*
X043474D01*
X042726Y036191D02*
Y036506D01*
X042569Y036348D02*
X042884D01*
X044879Y020778D02*
X049379D01*
X044879Y016578D02*
X049429D01*
X049129Y017778D02*
Y019578D01*
X044879Y016578D02*
Y020778D01*
X049129Y019578D02*
X049379Y019828D01*
Y020778D01*
X049129Y017778D02*
X049429Y017478D01*
Y016578D02*
Y017478D01*
X030463Y024085D02*
Y030541D01*
Y024085D02*
X038337D01*
Y030541D01*
X030463D02*
X038337D01*
X030856Y025935D02*
X03125Y025443D01*
X030856Y025935D02*
X031644D01*
X03125Y025443D02*
X031644Y025935D01*
D16*
X046772Y039862D02*
G03*
X046772Y039862I-000118J0D01*
G01*
D17*
X048441Y042161D02*
X049039D01*
X048441D02*
Y04335D01*
X049039D01*
Y042161D02*
Y04335D01*
X048441Y040488D02*
X049039D01*
X048441D02*
Y041677D01*
X049039D01*
Y040488D02*
Y041677D01*
X048006Y036394D02*
Y036992D01*
X046817Y036394D02*
X048006D01*
X046817D02*
Y036992D01*
X048006D01*
X043943Y033872D02*
X044541D01*
Y032683D02*
Y033872D01*
X043943Y032683D02*
X044541D01*
X043943D02*
Y033872D01*
X041039Y028754D02*
X042228D01*
X041039Y028156D02*
Y028754D01*
Y028156D02*
X042228D01*
Y028754D01*
X042978Y028136D02*
X044167D01*
Y028734D01*
X042978D02*
X044167D01*
X042978Y028136D02*
Y028734D01*
X037585Y020567D02*
X038774D01*
Y021165D01*
X037585D02*
X038774D01*
X037585Y020567D02*
Y021165D01*
X043362Y017002D02*
X044551D01*
X043362Y016404D02*
Y017002D01*
Y016404D02*
X044551D01*
Y017002D01*
X044307Y024071D02*
Y024669D01*
X045496D01*
Y024071D02*
Y024669D01*
X044307Y024071D02*
X045496D01*
D18*
X048504Y042665D02*
Y042846D01*
X048976Y042665D02*
Y042846D01*
X048504Y040992D02*
Y041173D01*
X048976Y040992D02*
Y041173D01*
X047321Y036457D02*
X047502D01*
X047321Y036929D02*
X047502D01*
X044478Y033187D02*
Y033368D01*
X044006Y033187D02*
Y033368D01*
X041543Y028691D02*
X041724D01*
X041543Y028219D02*
X041724D01*
X043482Y028199D02*
X043663D01*
X043482Y028671D02*
X043663D01*
X038089Y02063D02*
X03827D01*
X038089Y021102D02*
X03827D01*
X043866Y016939D02*
X044047D01*
X043866Y016467D02*
X044047D01*
X044811Y024606D02*
X044992D01*
X044811Y024134D02*
X044992D01*
D19*
X048524Y031713D02*
X049626D01*
X048524Y03435D02*
X049626D01*
Y031713D02*
Y03435D01*
X048524Y031713D02*
Y03435D01*
X037457Y034756D02*
X039357D01*
Y036946D01*
X037457D02*
X039357D01*
X037457Y034756D02*
Y036946D01*
X047047Y039469D02*
Y04187D01*
X044646Y039469D02*
Y04187D01*
Y039469D02*
X047047D01*
X044646Y04187D02*
X047047D01*
X041825Y039272D02*
Y043272D01*
X039825Y039272D02*
Y043272D01*
Y039272D02*
X041825D01*
X039825Y043272D02*
X041825D01*
D20*
X046294Y030841D02*
Y031841D01*
X043944Y030841D02*
Y031841D01*
X045544D02*
X046294D01*
X045544Y030841D02*
X046294D01*
X043944D02*
X044694D01*
X043944Y031841D02*
X044694D01*
D21*
X041782Y024016D02*
Y025155D01*
X041662Y024016D02*
Y025153D01*
X041541Y024016D02*
Y025137D01*
X041093Y024016D02*
Y024213D01*
Y024961D02*
Y025157D01*
X042943Y024961D02*
Y025157D01*
Y024016D02*
Y024213D01*
X041093Y025157D02*
X042943D01*
X041093Y024016D02*
X042943D01*
D22*
X034718Y017687D02*
Y018986D01*
X037368Y019687D02*
Y020022D01*
Y017687D02*
Y018986D01*
Y016652D02*
Y016986D01*
X034718Y016652D02*
X037368D01*
X034718Y019687D02*
Y020022D01*
X037368D01*
X034718Y016652D02*
Y016986D01*
D23*
X038039Y01653D02*
X037706Y016864D01*
X038039D02*
X037706Y01653D01*
X038039Y016697D02*
X037706D01*
X037872Y016864D02*
Y01653D01*
D24*
X043477Y029823D02*
D03*
X048688Y029872D02*
D03*
X045135Y035512D02*
D03*
D25*
X050522Y01776D02*
D03*
M02*
