G04*
G04 #@! TF.GenerationSoftware,Altium Limited,Altium Designer,21.0.9 (235)*
G04*
G04 Layer_Color=65535*
%FSTAX24Y24*%
%MOIN*%
G70*
G04*
G04 #@! TF.SameCoordinates,45A28FA0-0FE0-41DF-BFDA-37982D4B71EE*
G04*
G04*
G04 #@! TF.FilePolarity,Positive*
G04*
G01*
G75*
%ADD10C,0.0070*%
%ADD11C,0.0079*%
%ADD12C,0.0039*%
%ADD13C,0.0050*%
%ADD14C,0.0040*%
%ADD15C,0.0100*%
G36*
X039061Y022954D02*
X039045D01*
X039041Y022954D01*
X039037Y022952D01*
X039031Y022951D01*
X039027Y022949D01*
X039022Y022946D01*
X039017Y022942D01*
X039017Y022941D01*
X039016Y02294D01*
X039015Y022937D01*
X039014Y022933D01*
X039013Y022928D01*
X039012Y022921D01*
X039011Y022913D01*
Y022907D01*
Y022902D01*
Y022673D01*
Y022673D01*
Y022672D01*
Y022669D01*
Y022665D01*
X039011Y022659D01*
X039012Y022653D01*
X039012Y022648D01*
X039013Y022642D01*
X039014Y022639D01*
Y022638D01*
X039015Y022637D01*
X039017Y022635D01*
X03902Y022631D01*
X039022Y022629D01*
X039025Y022628D01*
X039025Y022627D01*
X039027Y022627D01*
X039029Y022625D01*
X039032Y022624D01*
X039036Y022623D01*
X03904Y022622D01*
X039044Y022621D01*
X039061D01*
Y022611D01*
X038911D01*
Y022621D01*
X038927D01*
X038931Y022622D01*
X038936Y022623D01*
X038941Y022624D01*
X038946Y022627D01*
X038951Y02263D01*
X038955Y022634D01*
Y022635D01*
X038956Y022636D01*
X038957Y022639D01*
X038958Y022642D01*
X038959Y022647D01*
X03896Y022654D01*
X03896Y022663D01*
X038961Y022673D01*
Y022902D01*
Y022902D01*
Y022903D01*
Y022906D01*
Y02291D01*
X03896Y022916D01*
Y022922D01*
X038959Y022928D01*
X038959Y022933D01*
X038958Y022937D01*
X038957Y022938D01*
X038956Y022941D01*
X038952Y022944D01*
X03895Y022946D01*
X038947Y022948D01*
X038947D01*
X038945Y022949D01*
X038943Y02295D01*
X03894Y022951D01*
X038936Y022952D01*
X038933Y022953D01*
X038928Y022954D01*
X038924Y022954D01*
X038911D01*
Y022964D01*
X039061D01*
Y022954D01*
D02*
G37*
G36*
X042616Y023081D02*
X042621Y023081D01*
X042628Y02308D01*
X042635Y023079D01*
X042643Y023078D01*
X042652Y023075D01*
X042661Y023073D01*
X042671Y023069D01*
X042681Y023065D01*
X042691Y02306D01*
X042702Y023055D01*
X042712Y023048D01*
X042721Y02304D01*
X042731Y023031D01*
X042732Y02303D01*
X042733Y023029D01*
X042736Y023025D01*
X042739Y023021D01*
X042743Y023016D01*
X042747Y02301D01*
X042751Y023003D01*
X042756Y022995D01*
X04276Y022985D01*
X042765Y022975D01*
X042769Y022964D01*
X042773Y022952D01*
X042776Y02294D01*
X042778Y022926D01*
X04278Y022912D01*
X04278Y022896D01*
Y022895D01*
Y022893D01*
X04278Y022888D01*
X042779Y022882D01*
X042779Y022875D01*
X042777Y022867D01*
X042776Y022858D01*
X042773Y022848D01*
X04277Y022837D01*
X042767Y022826D01*
X042762Y022815D01*
X042756Y022803D01*
X04275Y022792D01*
X042742Y022781D01*
X042733Y02277D01*
X042724Y022759D01*
X042723Y022759D01*
X042721Y022757D01*
X042719Y022755D01*
X042715Y022752D01*
X04271Y022748D01*
X042704Y022745D01*
X042697Y02274D01*
X04269Y022736D01*
X042682Y022732D01*
X042673Y022728D01*
X042663Y022724D01*
X042653Y02272D01*
X042641Y022717D01*
X04263Y022715D01*
X042617Y022713D01*
X042605Y022713D01*
X042601D01*
X042598Y022713D01*
X042593D01*
X042587Y022715D01*
X042581Y022716D01*
X042572Y022717D01*
X042564Y022719D01*
X042555Y022722D01*
X042546Y022726D01*
X042536Y02273D01*
X042526Y022735D01*
X042516Y022741D01*
X042506Y022748D01*
X042496Y022756D01*
X042486Y022765D01*
X042486Y022766D01*
X042484Y022768D01*
X042481Y022771D01*
X042478Y022775D01*
X042474Y02278D01*
X04247Y022786D01*
X042465Y022793D01*
X04246Y022801D01*
X042456Y02281D01*
X042451Y02282D01*
X042447Y022831D01*
X042443Y022842D01*
X04244Y022855D01*
X042438Y022868D01*
X042436Y022882D01*
X042435Y022896D01*
Y022897D01*
Y022899D01*
X042436Y022903D01*
Y022909D01*
X042437Y022916D01*
X042438Y022924D01*
X04244Y022933D01*
X042442Y022943D01*
X042445Y022953D01*
X042448Y022964D01*
X042452Y022974D01*
X042457Y022986D01*
X042463Y022997D01*
X042469Y023008D01*
X042477Y023019D01*
X042486Y023029D01*
X042487Y02303D01*
X042488Y023031D01*
X042491Y023034D01*
X042495Y023037D01*
X0425Y023041D01*
X042506Y023046D01*
X042513Y02305D01*
X042521Y023055D01*
X042529Y023061D01*
X042539Y023065D01*
X042548Y023069D01*
X042559Y023074D01*
X042571Y023077D01*
X042583Y02308D01*
X042596Y023081D01*
X042609Y023082D01*
X042612D01*
X042616Y023081D01*
D02*
G37*
G36*
X046959Y033901D02*
X046958D01*
X046956Y033901D01*
X046952Y033899D01*
X046949Y033898D01*
X046939Y033895D01*
X046934Y033892D01*
X046931Y033889D01*
X04693Y033889D01*
X046928Y033887D01*
X046926Y033884D01*
X046922Y033879D01*
X046919Y033874D01*
X046915Y033867D01*
X04691Y033859D01*
X046907Y03385D01*
X046784Y03355D01*
X046774D01*
X046642Y033854D01*
Y033854D01*
X046641Y033855D01*
X04664Y033857D01*
X046639Y033861D01*
X046636Y033866D01*
X046634Y033871D01*
X046631Y033876D01*
X046629Y03388D01*
X046628Y033883D01*
X046627Y033883D01*
X046627Y033884D01*
X046623Y033887D01*
X046618Y033891D01*
X046611Y033895D01*
X046611D01*
X04661Y033895D01*
X046607Y033896D01*
X046605Y033897D01*
X046601Y033898D01*
X046596Y033899D01*
X046592Y033901D01*
X046586Y033901D01*
Y033911D01*
X04673D01*
Y033901D01*
X046729D01*
X046726Y033901D01*
X046722Y0339D01*
X046717Y033899D01*
X046712Y033898D01*
X046707Y033896D01*
X046702Y033895D01*
X046699Y033892D01*
X046698D01*
X046698Y033891D01*
X046695Y033888D01*
X046693Y033884D01*
X046692Y03388D01*
X046691Y033877D01*
Y033877D01*
Y033875D01*
X046692Y033872D01*
X046693Y033867D01*
X046694Y033861D01*
X046696Y033855D01*
X0467Y033846D01*
X046704Y033837D01*
X046793Y03363D01*
X046877Y033834D01*
Y033834D01*
X046877Y033835D01*
X046878Y033837D01*
X046878Y033839D01*
X04688Y033844D01*
X046883Y03385D01*
X046885Y033857D01*
X046887Y033865D01*
X046888Y03387D01*
X046889Y033876D01*
Y033877D01*
Y033877D01*
X046888Y033881D01*
X046885Y033885D01*
X046884Y033887D01*
X046881Y03389D01*
X04688Y033891D01*
X046879Y033891D01*
X046878Y033892D01*
X046875Y033894D01*
X046871Y033896D01*
X046867Y033897D01*
X046862Y033899D01*
X046855Y0339D01*
X046854Y033901D01*
X046853D01*
X046851Y033901D01*
Y033911D01*
X046959D01*
Y033901D01*
D02*
G37*
G36*
X046526Y033867D02*
X046419D01*
X046396Y033819D01*
X046397D01*
X046399Y033819D01*
X046403Y033818D01*
X046408Y033817D01*
X046414Y033815D01*
X04642Y033814D01*
X046428Y033812D01*
X046436Y033809D01*
X046453Y033802D01*
X046463Y033798D01*
X046471Y033793D01*
X046481Y033788D01*
X046489Y033782D01*
X046498Y033775D01*
X046506Y033768D01*
X046506Y033767D01*
X046507Y033766D01*
X046509Y033764D01*
X046511Y033762D01*
X046514Y033758D01*
X046517Y033754D01*
X04652Y033749D01*
X046523Y033744D01*
X046527Y033738D01*
X04653Y033732D01*
X046535Y033718D01*
X046538Y03371D01*
X046539Y033702D01*
X04654Y033694D01*
X046541Y033685D01*
Y033684D01*
Y033684D01*
Y033682D01*
Y03368D01*
X04654Y033675D01*
X046539Y033668D01*
X046538Y03366D01*
X046536Y033651D01*
X046533Y033642D01*
X046529Y033633D01*
X046529Y033632D01*
X046527Y033629D01*
X046525Y033625D01*
X046522Y033619D01*
X046517Y033613D01*
X046512Y033606D01*
X046506Y033599D01*
X0465Y033593D01*
X0465Y033592D01*
X046498Y03359D01*
X046494Y033587D01*
X046489Y033583D01*
X046484Y033579D01*
X046477Y033575D01*
X04647Y03357D01*
X046463Y033566D01*
X046462D01*
X046462Y033566D01*
X04646Y033565D01*
X046458Y033564D01*
X046452Y033562D01*
X046444Y033559D01*
X046434Y033557D01*
X046424Y033554D01*
X046413Y033553D01*
X046401Y033552D01*
X046396D01*
X04639Y033553D01*
X046384Y033553D01*
X046376Y033555D01*
X046368Y033557D01*
X046361Y033559D01*
X046355Y033563D01*
X046355Y033563D01*
X046353Y033565D01*
X046351Y033567D01*
X046348Y03357D01*
X046345Y033573D01*
X046343Y033577D01*
X046342Y033582D01*
X046341Y033587D01*
Y033587D01*
Y033588D01*
X046342Y033591D01*
X046343Y033595D01*
X046346Y033599D01*
X046347D01*
X046348Y0336D01*
X046351Y033602D01*
X046355Y033604D01*
X046362Y033605D01*
X046366D01*
X04637Y033604D01*
X046374Y033602D01*
X046375Y033602D01*
X046376Y033601D01*
X046378Y033601D01*
X04638Y033599D01*
X046383Y033598D01*
X046387Y033595D01*
X046391Y033592D01*
X046392Y033591D01*
X046394Y03359D01*
X046398Y033588D01*
X046403Y033585D01*
X046409Y033583D01*
X046416Y033581D01*
X046423Y033579D01*
X046431Y033579D01*
X046433D01*
X046435Y033579D01*
X046441Y03358D01*
X046449Y033582D01*
X046457Y033584D01*
X046465Y033589D01*
X046475Y033594D01*
X046483Y033602D01*
X046484Y033602D01*
X046485Y033603D01*
X046487Y033606D01*
X046491Y033611D01*
X046495Y033618D01*
X046499Y033625D01*
X046503Y033635D01*
X046506Y033646D01*
X046507Y033652D01*
Y033658D01*
Y033658D01*
Y033659D01*
Y033661D01*
X046506Y033663D01*
X046506Y033669D01*
X046504Y033677D01*
X046502Y033686D01*
X046498Y033696D01*
X046493Y033707D01*
X046486Y033717D01*
Y033718D01*
X046485Y033718D01*
X046482Y033721D01*
X046478Y033727D01*
X046471Y033733D01*
X046463Y03374D01*
X046453Y033747D01*
X046442Y033754D01*
X046429Y03376D01*
X046429D01*
X046428Y033761D01*
X046427Y033761D01*
X046424Y033762D01*
X046421Y033763D01*
X046418Y033764D01*
X046414Y033765D01*
X046409Y033766D01*
X046404Y033767D01*
X046398Y033768D01*
X046385Y033771D01*
X04637Y033773D01*
X046352Y033774D01*
X04642Y033911D01*
X046546D01*
X046526Y033867D01*
D02*
G37*
G36*
X047012Y035001D02*
X047012D01*
X047009Y035001D01*
X047006Y034999D01*
X047002Y034998D01*
X046993Y034995D01*
X046988Y034992D01*
X046984Y034989D01*
X046983Y034989D01*
X046982Y034987D01*
X046979Y034984D01*
X046976Y034979D01*
X046972Y034974D01*
X046968Y034967D01*
X046964Y034959D01*
X04696Y03495D01*
X046837Y03465D01*
X046827D01*
X046695Y034954D01*
Y034954D01*
X046695Y034955D01*
X046693Y034957D01*
X046692Y034961D01*
X04669Y034966D01*
X046687Y034971D01*
X046685Y034976D01*
X046683Y03498D01*
X046681Y034983D01*
X04668Y034983D01*
X04668Y034984D01*
X046677Y034987D01*
X046671Y034991D01*
X046665Y034995D01*
X046664D01*
X046663Y034995D01*
X046661Y034996D01*
X046658Y034997D01*
X046654Y034998D01*
X04665Y034999D01*
X046645Y035001D01*
X046639Y035001D01*
Y035011D01*
X046784D01*
Y035001D01*
X046782D01*
X04678Y035001D01*
X046775Y035D01*
X04677Y034999D01*
X046765Y034998D01*
X04676Y034996D01*
X046755Y034995D01*
X046752Y034992D01*
X046751D01*
X046751Y034991D01*
X046749Y034988D01*
X046746Y034984D01*
X046745Y03498D01*
X046745Y034977D01*
Y034977D01*
Y034975D01*
X046745Y034972D01*
X046746Y034967D01*
X046747Y034961D01*
X04675Y034955D01*
X046753Y034946D01*
X046757Y034937D01*
X046846Y03473D01*
X04693Y034934D01*
Y034934D01*
X04693Y034935D01*
X046931Y034937D01*
X046932Y034939D01*
X046934Y034944D01*
X046936Y03495D01*
X046938Y034957D01*
X04694Y034964D01*
X046941Y034971D01*
X046942Y034976D01*
Y034977D01*
Y034977D01*
X046941Y034981D01*
X046939Y034985D01*
X046937Y034987D01*
X046934Y03499D01*
X046934Y034991D01*
X046933Y034991D01*
X046931Y034992D01*
X046928Y034994D01*
X046924Y034996D01*
X04692Y034997D01*
X046915Y034999D01*
X046909Y035D01*
X046907Y035001D01*
X046906D01*
X046904Y035001D01*
Y035011D01*
X047012D01*
Y035001D01*
D02*
G37*
G36*
X046509Y035017D02*
X046513Y035017D01*
X046517Y035016D01*
X046527Y035013D01*
X046532Y035011D01*
X046538Y035008D01*
X046544Y035004D01*
X04655Y035001D01*
X046557Y034996D01*
X046563Y03499D01*
X04657Y034984D01*
X046576Y034977D01*
X046576Y034976D01*
X046577Y034974D01*
X046579Y034971D01*
X046582Y034967D01*
X046585Y034962D01*
X046588Y034956D01*
X046592Y034948D01*
X046596Y03494D01*
X0466Y034931D01*
X046603Y03492D01*
X046607Y034909D01*
X046609Y034896D01*
X046612Y034883D01*
X046614Y034869D01*
X046615Y034854D01*
X046616Y034838D01*
Y034837D01*
Y034835D01*
Y034832D01*
Y034827D01*
X046615Y034822D01*
X046615Y034816D01*
X046614Y034809D01*
X046614Y034802D01*
X046612Y034785D01*
X046608Y034767D01*
X046604Y03475D01*
X046598Y034733D01*
Y034732D01*
X046597Y034731D01*
X046596Y034729D01*
X046595Y034726D01*
X046593Y034723D01*
X046591Y034719D01*
X046586Y03471D01*
X046579Y034699D01*
X046572Y034689D01*
X046562Y034679D01*
X046557Y034675D01*
X046553Y034671D01*
X046552D01*
X046551Y034671D01*
X04655Y03467D01*
X046548Y034669D01*
X046543Y034665D01*
X046536Y034662D01*
X046527Y034658D01*
X046519Y034655D01*
X046509Y034653D01*
X0465Y034652D01*
X046497D01*
X046495Y034653D01*
X046491Y034653D01*
X046487Y034654D01*
X046482Y034655D01*
X046476Y034657D01*
X04647Y03466D01*
X046464Y034663D01*
X046457Y034666D01*
X04645Y034671D01*
X046443Y034677D01*
X046436Y034684D01*
X046429Y034692D01*
X046422Y034701D01*
X046416Y034711D01*
X046415Y034712D01*
X046414Y034713D01*
X046413Y034716D01*
X046411Y03472D01*
X046409Y034725D01*
X046407Y034731D01*
X046404Y034737D01*
X046402Y034745D01*
X046399Y034754D01*
X046396Y034763D01*
X046394Y034773D01*
X046392Y034784D01*
X04639Y034795D01*
X046389Y034807D01*
X046388Y034819D01*
X046388Y034832D01*
Y034833D01*
Y034835D01*
Y034838D01*
X046388Y034842D01*
Y034848D01*
X046389Y034854D01*
X046389Y03486D01*
X04639Y034868D01*
X046392Y034884D01*
X046395Y034902D01*
X0464Y034919D01*
X046406Y034936D01*
Y034937D01*
X046407Y034938D01*
X046407Y03494D01*
X046409Y034943D01*
X046411Y034947D01*
X046413Y034951D01*
X046419Y034961D01*
X046425Y034971D01*
X046434Y034982D01*
X046443Y034992D01*
X046454Y035001D01*
X046455Y035002D01*
X046458Y035004D01*
X046463Y035007D01*
X046469Y03501D01*
X046476Y035013D01*
X046484Y035015D01*
X046493Y035017D01*
X046502Y035018D01*
X046506D01*
X046509Y035017D01*
D02*
G37*
G36*
X040131Y021501D02*
X04013D01*
X040127Y021501D01*
X040124Y021499D01*
X04012Y021498D01*
X040111Y021495D01*
X040106Y021492D01*
X040102Y021489D01*
X040102Y021489D01*
X0401Y021487D01*
X040097Y021484D01*
X040094Y021479D01*
X04009Y021474D01*
X040086Y021467D01*
X040082Y021459D01*
X040078Y02145D01*
X039955Y02115D01*
X039945D01*
X039813Y021454D01*
Y021454D01*
X039813Y021455D01*
X039812Y021457D01*
X03981Y021461D01*
X039808Y021466D01*
X039805Y021471D01*
X039803Y021476D01*
X039801Y02148D01*
X039799Y021483D01*
X039799Y021483D01*
X039798Y021484D01*
X039795Y021487D01*
X039789Y021491D01*
X039783Y021495D01*
X039782D01*
X039781Y021495D01*
X039779Y021496D01*
X039776Y021497D01*
X039772Y021498D01*
X039768Y021499D01*
X039763Y021501D01*
X039757Y021501D01*
Y021511D01*
X039902D01*
Y021501D01*
X039901D01*
X039898Y021501D01*
X039894Y0215D01*
X039889Y021499D01*
X039883Y021498D01*
X039878Y021496D01*
X039873Y021495D01*
X03987Y021492D01*
X03987D01*
X039869Y021491D01*
X039867Y021488D01*
X039864Y021484D01*
X039864Y02148D01*
X039863Y021477D01*
Y021477D01*
Y021475D01*
X039864Y021472D01*
X039865Y021467D01*
X039866Y021461D01*
X039868Y021455D01*
X039871Y021446D01*
X039875Y021437D01*
X039965Y02123D01*
X040048Y021434D01*
Y021434D01*
X040049Y021435D01*
X040049Y021437D01*
X04005Y021439D01*
X040052Y021444D01*
X040054Y02145D01*
X040056Y021457D01*
X040058Y021465D01*
X04006Y02147D01*
X04006Y021476D01*
Y021477D01*
Y021477D01*
X040059Y021481D01*
X040057Y021485D01*
X040055Y021487D01*
X040052Y02149D01*
X040052Y021491D01*
X040051Y021491D01*
X040049Y021492D01*
X040046Y021494D01*
X040043Y021496D01*
X040038Y021497D01*
X040033Y021499D01*
X040027Y0215D01*
X040026Y021501D01*
X040025D01*
X040022Y021501D01*
Y021511D01*
X040131D01*
Y021501D01*
D02*
G37*
G36*
X040435D02*
X040418D01*
X040414Y021501D01*
X04041Y021499D01*
X040405Y021498D01*
X0404Y021496D01*
X040395Y021492D01*
X04039Y021488D01*
Y021487D01*
X040389Y021486D01*
X040389Y021484D01*
X040388Y02148D01*
X040387Y021475D01*
X040385Y021468D01*
X040385Y021459D01*
X040384Y021449D01*
Y02122D01*
Y02122D01*
Y021219D01*
Y021216D01*
Y021212D01*
X040385Y021206D01*
Y0212D01*
X040386Y021194D01*
X040387Y021189D01*
X040388Y021185D01*
X040388Y021184D01*
X04039Y021181D01*
X040393Y021178D01*
X040395Y021176D01*
X040398Y021174D01*
X040399D01*
X0404Y021173D01*
X040402Y021172D01*
X040405Y021171D01*
X040409Y02117D01*
X040413Y021169D01*
X040417Y021169D01*
X040422Y021168D01*
X040435D01*
Y021158D01*
X040284D01*
Y021168D01*
X0403D01*
X040304Y021169D01*
X040309Y02117D01*
X040314Y021171D01*
X040319Y021173D01*
X040324Y021176D01*
X040328Y021181D01*
X040329Y021181D01*
X040329Y021182D01*
X04033Y021185D01*
X040331Y021189D01*
X040333Y021194D01*
X040334Y021201D01*
X040335Y02121D01*
Y021215D01*
Y02122D01*
Y021449D01*
Y021449D01*
Y02145D01*
Y021453D01*
Y021457D01*
X040334Y021463D01*
X040334Y021469D01*
X040333Y021474D01*
X040332Y02148D01*
X040331Y021484D01*
Y021484D01*
X04033Y021485D01*
X040329Y021487D01*
X040325Y021491D01*
X040323Y021493D01*
X040321Y021495D01*
X04032Y021495D01*
X040318Y021496D01*
X040316Y021497D01*
X040313Y021498D01*
X04031Y021499D01*
X040306Y0215D01*
X040301Y021501D01*
X040284D01*
Y021511D01*
X040435D01*
Y021501D01*
D02*
G37*
G36*
X03935Y021517D02*
X039354Y021517D01*
X039358Y021516D01*
X039368Y021515D01*
X039379Y021511D01*
X039391Y021507D01*
X039397Y021503D01*
X039403Y021499D01*
X039409Y021495D01*
X039415Y02149D01*
X039415Y02149D01*
X039416Y021489D01*
X039417Y021487D01*
X039419Y021485D01*
X039424Y02148D01*
X039429Y021472D01*
X039434Y021462D01*
X039439Y021451D01*
X039443Y021439D01*
X039443Y021432D01*
X039444Y021425D01*
Y021425D01*
Y021424D01*
Y021422D01*
Y021421D01*
X039443Y021415D01*
X039442Y021408D01*
X03944Y021401D01*
X039438Y021391D01*
X039435Y021381D01*
X039431Y021372D01*
Y021371D01*
X039429Y02137D01*
X039428Y021367D01*
X039427Y021365D01*
X039425Y021361D01*
X039422Y021356D01*
X039419Y021351D01*
X039416Y021345D01*
X039411Y021338D01*
X039407Y021331D01*
X039396Y021317D01*
X03939Y021308D01*
X039383Y0213D01*
X039376Y021291D01*
X039368Y021283D01*
X039367Y021282D01*
X039365Y021279D01*
X039362Y021276D01*
X039357Y021271D01*
X039352Y021266D01*
X039346Y02126D01*
X039333Y021246D01*
X03932Y021231D01*
X039313Y021224D01*
X039307Y021217D01*
X039301Y021211D01*
X039295Y021206D01*
X039291Y021201D01*
X039288Y021198D01*
X039395D01*
X039401Y021199D01*
X039407D01*
X039413Y021199D01*
X039418Y0212D01*
X039419D01*
X03942Y0212D01*
X039422Y021201D01*
X039425Y021201D01*
X039432Y021204D01*
X039438Y021208D01*
X039439Y021208D01*
X03944Y021209D01*
X039441Y021211D01*
X039444Y021213D01*
X039446Y021216D01*
X039449Y021218D01*
X039455Y021226D01*
X039465D01*
X03944Y021158D01*
X039232D01*
Y021167D01*
X039233Y021169D01*
X039236Y021171D01*
X039241Y021176D01*
X039247Y021182D01*
X039254Y021189D01*
X039263Y021197D01*
X039273Y021206D01*
X039283Y021216D01*
X039293Y021227D01*
X039304Y021238D01*
X039326Y021261D01*
X039336Y021272D01*
X039345Y021283D01*
X039354Y021294D01*
X039362Y021305D01*
X039362Y021305D01*
X039363Y021307D01*
X039365Y02131D01*
X039368Y021313D01*
X03937Y021318D01*
X039374Y021324D01*
X039377Y02133D01*
X039381Y021337D01*
X039387Y021351D01*
X039393Y021368D01*
X039396Y021376D01*
X039398Y021384D01*
X039399Y021393D01*
X039399Y021401D01*
Y021402D01*
Y021403D01*
Y021404D01*
X039399Y021407D01*
X039398Y021413D01*
X039397Y021421D01*
X039395Y02143D01*
X039391Y021439D01*
X039386Y021448D01*
X039379Y021456D01*
X039378Y021457D01*
X039375Y02146D01*
X03937Y021463D01*
X039364Y021467D01*
X039357Y021471D01*
X039349Y021475D01*
X039339Y021477D01*
X039329Y021478D01*
X039325D01*
X03932Y021478D01*
X039313Y021477D01*
X039306Y021474D01*
X039298Y021472D01*
X03929Y021468D01*
X039282Y021463D01*
X039281Y021462D01*
X039279Y02146D01*
X039275Y021456D01*
X039271Y021451D01*
X039266Y021445D01*
X03926Y021438D01*
X039256Y021429D01*
X039251Y021419D01*
X039242D01*
Y021419D01*
X039243Y021421D01*
Y021423D01*
X039244Y021426D01*
X039244Y021431D01*
X039245Y021435D01*
X039249Y021445D01*
X039253Y021457D01*
X039259Y021469D01*
X039266Y021481D01*
X039275Y021492D01*
X039275Y021492D01*
X039276Y021493D01*
X039278Y021494D01*
X03928Y021496D01*
X039283Y021498D01*
X039286Y0215D01*
X039293Y021505D01*
X039303Y02151D01*
X039315Y021514D01*
X039328Y021517D01*
X039335Y021517D01*
X039343Y021518D01*
X039347D01*
X03935Y021517D01*
D02*
G37*
G36*
X039083D02*
X039087Y021517D01*
X039091Y021516D01*
X039101Y021515D01*
X039113Y021511D01*
X039125Y021507D01*
X039131Y021503D01*
X039137Y021499D01*
X039143Y021495D01*
X039148Y02149D01*
X039149Y02149D01*
X039149Y021489D01*
X039151Y021487D01*
X039153Y021485D01*
X039158Y02148D01*
X039163Y021472D01*
X039168Y021462D01*
X039173Y021451D01*
X039176Y021439D01*
X039177Y021432D01*
X039177Y021425D01*
Y021425D01*
Y021424D01*
Y021422D01*
Y021421D01*
X039177Y021415D01*
X039176Y021408D01*
X039174Y021401D01*
X039172Y021391D01*
X039168Y021381D01*
X039164Y021372D01*
Y021371D01*
X039163Y02137D01*
X039162Y021367D01*
X03916Y021365D01*
X039158Y021361D01*
X039156Y021356D01*
X039153Y021351D01*
X039149Y021345D01*
X039145Y021338D01*
X039141Y021331D01*
X03913Y021317D01*
X039123Y021308D01*
X039117Y0213D01*
X039109Y021291D01*
X039101Y021283D01*
X039101Y021282D01*
X039099Y021279D01*
X039095Y021276D01*
X039091Y021271D01*
X039086Y021266D01*
X03908Y02126D01*
X039067Y021246D01*
X039053Y021231D01*
X039047Y021224D01*
X03904Y021217D01*
X039034Y021211D01*
X039029Y021206D01*
X039024Y021201D01*
X039021Y021198D01*
X039128D01*
X039134Y021199D01*
X039141D01*
X039147Y021199D01*
X039152Y0212D01*
X039152D01*
X039154Y0212D01*
X039156Y021201D01*
X039159Y021201D01*
X039165Y021204D01*
X039172Y021208D01*
X039172Y021208D01*
X039173Y021209D01*
X039175Y021211D01*
X039177Y021213D01*
X03918Y021216D01*
X039183Y021218D01*
X039188Y021226D01*
X039199D01*
X039173Y021158D01*
X038965D01*
Y021167D01*
X038966Y021169D01*
X038969Y021171D01*
X038974Y021176D01*
X038981Y021182D01*
X038988Y021189D01*
X038996Y021197D01*
X039006Y021206D01*
X039016Y021216D01*
X039027Y021227D01*
X039037Y021238D01*
X039059Y021261D01*
X039069Y021272D01*
X039079Y021283D01*
X039088Y021294D01*
X039095Y021305D01*
X039096Y021305D01*
X039097Y021307D01*
X039099Y02131D01*
X039101Y021313D01*
X039104Y021318D01*
X039107Y021324D01*
X039111Y02133D01*
X039114Y021337D01*
X039121Y021351D01*
X039127Y021368D01*
X03913Y021376D01*
X039131Y021384D01*
X039132Y021393D01*
X039133Y021401D01*
Y021402D01*
Y021403D01*
Y021404D01*
X039132Y021407D01*
X039132Y021413D01*
X03913Y021421D01*
X039128Y02143D01*
X039124Y021439D01*
X039119Y021448D01*
X039112Y021456D01*
X039111Y021457D01*
X039108Y02146D01*
X039104Y021463D01*
X039098Y021467D01*
X039091Y021471D01*
X039083Y021475D01*
X039073Y021477D01*
X039063Y021478D01*
X039058D01*
X039053Y021478D01*
X039047Y021477D01*
X03904Y021474D01*
X039032Y021472D01*
X039024Y021468D01*
X039016Y021463D01*
X039014Y021462D01*
X039012Y02146D01*
X039008Y021456D01*
X039004Y021451D01*
X038999Y021445D01*
X038994Y021438D01*
X038989Y021429D01*
X038985Y021419D01*
X038976D01*
Y021419D01*
X038976Y021421D01*
Y021423D01*
X038977Y021426D01*
X038978Y021431D01*
X038979Y021435D01*
X038982Y021445D01*
X038987Y021457D01*
X038992Y021469D01*
X038999Y021481D01*
X039008Y021492D01*
X039009Y021492D01*
X03901Y021493D01*
X039011Y021494D01*
X039013Y021496D01*
X039016Y021498D01*
X039019Y0215D01*
X039027Y021505D01*
X039037Y02151D01*
X039048Y021514D01*
X039061Y021517D01*
X039069Y021517D01*
X039076Y021518D01*
X039081D01*
X039083Y021517D01*
D02*
G37*
G36*
X039628D02*
X039631Y021517D01*
X039635Y021516D01*
X039645Y021513D01*
X039651Y021511D01*
X039657Y021508D01*
X039663Y021504D01*
X039669Y021501D01*
X039675Y021496D01*
X039681Y02149D01*
X039688Y021484D01*
X039694Y021477D01*
X039694Y021476D01*
X039695Y021474D01*
X039698Y021471D01*
X0397Y021467D01*
X039703Y021462D01*
X039706Y021456D01*
X03971Y021448D01*
X039714Y02144D01*
X039718Y021431D01*
X039722Y02142D01*
X039725Y021409D01*
X039728Y021396D01*
X03973Y021383D01*
X039732Y021369D01*
X039734Y021354D01*
X039734Y021338D01*
Y021337D01*
Y021335D01*
Y021332D01*
Y021327D01*
X039734Y021322D01*
X039733Y021316D01*
X039732Y021309D01*
X039732Y021302D01*
X03973Y021285D01*
X039726Y021267D01*
X039722Y02125D01*
X039716Y021233D01*
Y021232D01*
X039716Y021231D01*
X039714Y021229D01*
X039713Y021226D01*
X039711Y021223D01*
X039709Y021219D01*
X039704Y02121D01*
X039698Y021199D01*
X03969Y021189D01*
X039681Y021179D01*
X039676Y021175D01*
X039671Y021171D01*
X03967D01*
X03967Y021171D01*
X039668Y02117D01*
X039666Y021169D01*
X039661Y021165D01*
X039654Y021162D01*
X039646Y021158D01*
X039637Y021155D01*
X039628Y021153D01*
X039618Y021152D01*
X039616D01*
X039613Y021153D01*
X03961Y021153D01*
X039605Y021154D01*
X0396Y021155D01*
X039594Y021157D01*
X039588Y02116D01*
X039582Y021163D01*
X039575Y021166D01*
X039568Y021171D01*
X039561Y021177D01*
X039554Y021184D01*
X039547Y021191D01*
X03954Y021201D01*
X039534Y021211D01*
X039533Y021212D01*
X039533Y021213D01*
X039531Y021216D01*
X039529Y02122D01*
X039527Y021225D01*
X039525Y021231D01*
X039522Y021237D01*
X03952Y021245D01*
X039517Y021254D01*
X039515Y021263D01*
X039512Y021273D01*
X03951Y021284D01*
X039509Y021295D01*
X039507Y021307D01*
X039506Y021319D01*
X039506Y021332D01*
Y021333D01*
Y021335D01*
Y021338D01*
X039506Y021342D01*
Y021348D01*
X039507Y021354D01*
X039508Y02136D01*
X039508Y021368D01*
X03951Y021384D01*
X039514Y021402D01*
X039518Y021419D01*
X039524Y021436D01*
Y021437D01*
X039525Y021438D01*
X039526Y02144D01*
X039527Y021443D01*
X039529Y021447D01*
X039531Y021451D01*
X039537Y021461D01*
X039544Y021471D01*
X039552Y021482D01*
X039562Y021492D01*
X039573Y021501D01*
X039574Y021502D01*
X039576Y021504D01*
X039581Y021507D01*
X039587Y02151D01*
X039594Y021513D01*
X039603Y021515D01*
X039611Y021517D01*
X039621Y021518D01*
X039624D01*
X039628Y021517D01*
D02*
G37*
G36*
X042181Y021501D02*
X04218D01*
X042177Y021501D01*
X042174Y021499D01*
X04217Y021498D01*
X042161Y021495D01*
X042156Y021492D01*
X042152Y021489D01*
X042152Y021489D01*
X04215Y021487D01*
X042147Y021484D01*
X042144Y021479D01*
X04214Y021474D01*
X042136Y021467D01*
X042132Y021459D01*
X042128Y02145D01*
X042005Y02115D01*
X041996D01*
X041863Y021454D01*
Y021454D01*
X041863Y021455D01*
X041862Y021457D01*
X04186Y021461D01*
X041858Y021466D01*
X041855Y021471D01*
X041853Y021476D01*
X041851Y02148D01*
X041849Y021483D01*
X041849Y021483D01*
X041848Y021484D01*
X041845Y021487D01*
X041839Y021491D01*
X041833Y021495D01*
X041832D01*
X041831Y021495D01*
X041829Y021496D01*
X041826Y021497D01*
X041822Y021498D01*
X041818Y021499D01*
X041813Y021501D01*
X041807Y021501D01*
Y021511D01*
X041952D01*
Y021501D01*
X041951D01*
X041948Y021501D01*
X041944Y0215D01*
X041939Y021499D01*
X041933Y021498D01*
X041928Y021496D01*
X041923Y021495D01*
X04192Y021492D01*
X04192D01*
X041919Y021491D01*
X041917Y021488D01*
X041914Y021484D01*
X041914Y02148D01*
X041913Y021477D01*
Y021477D01*
Y021475D01*
X041914Y021472D01*
X041915Y021467D01*
X041916Y021461D01*
X041918Y021455D01*
X041921Y021446D01*
X041925Y021437D01*
X042015Y02123D01*
X042098Y021434D01*
Y021434D01*
X042099Y021435D01*
X042099Y021437D01*
X0421Y021439D01*
X042102Y021444D01*
X042104Y02145D01*
X042106Y021457D01*
X042109Y021465D01*
X04211Y02147D01*
X04211Y021476D01*
Y021477D01*
Y021477D01*
X042109Y021481D01*
X042107Y021485D01*
X042105Y021487D01*
X042103Y02149D01*
X042102Y021491D01*
X042101Y021491D01*
X042099Y021492D01*
X042097Y021494D01*
X042093Y021496D01*
X042088Y021497D01*
X042083Y021499D01*
X042077Y0215D01*
X042076Y021501D01*
X042075D01*
X042072Y021501D01*
Y021511D01*
X042181D01*
Y021501D01*
D02*
G37*
G36*
X0414Y021517D02*
X041404Y021517D01*
X041408Y021516D01*
X041418Y021515D01*
X041429Y021511D01*
X041441Y021507D01*
X041447Y021503D01*
X041453Y021499D01*
X041459Y021495D01*
X041465Y02149D01*
X041465Y02149D01*
X041466Y021489D01*
X041468Y021487D01*
X041469Y021485D01*
X041474Y02148D01*
X04148Y021472D01*
X041484Y021462D01*
X041489Y021451D01*
X041493Y021439D01*
X041493Y021432D01*
X041494Y021425D01*
Y021425D01*
Y021424D01*
Y021422D01*
Y021421D01*
X041493Y021415D01*
X041492Y021408D01*
X04149Y021401D01*
X041488Y021391D01*
X041485Y021381D01*
X041481Y021372D01*
Y021371D01*
X04148Y02137D01*
X041478Y021367D01*
X041477Y021365D01*
X041475Y021361D01*
X041472Y021356D01*
X041469Y021351D01*
X041466Y021345D01*
X041462Y021338D01*
X041457Y021331D01*
X041446Y021317D01*
X04144Y021308D01*
X041433Y0213D01*
X041426Y021291D01*
X041418Y021283D01*
X041417Y021282D01*
X041415Y021279D01*
X041412Y021276D01*
X041407Y021271D01*
X041403Y021266D01*
X041397Y02126D01*
X041383Y021246D01*
X04137Y021231D01*
X041363Y021224D01*
X041357Y021217D01*
X041351Y021211D01*
X041345Y021206D01*
X041341Y021201D01*
X041338Y021198D01*
X041445D01*
X041451Y021199D01*
X041457D01*
X041463Y021199D01*
X041468Y0212D01*
X041469D01*
X04147Y0212D01*
X041472Y021201D01*
X041475Y021201D01*
X041482Y021204D01*
X041488Y021208D01*
X041489Y021208D01*
X04149Y021209D01*
X041492Y021211D01*
X041494Y021213D01*
X041496Y021216D01*
X041499Y021218D01*
X041505Y021226D01*
X041515D01*
X04149Y021158D01*
X041282D01*
Y021167D01*
X041283Y021169D01*
X041286Y021171D01*
X041291Y021176D01*
X041297Y021182D01*
X041304Y021189D01*
X041313Y021197D01*
X041323Y021206D01*
X041333Y021216D01*
X041344Y021227D01*
X041354Y021238D01*
X041376Y021261D01*
X041386Y021272D01*
X041395Y021283D01*
X041404Y021294D01*
X041412Y021305D01*
X041412Y021305D01*
X041413Y021307D01*
X041415Y02131D01*
X041418Y021313D01*
X041421Y021318D01*
X041424Y021324D01*
X041427Y02133D01*
X041431Y021337D01*
X041438Y021351D01*
X041444Y021368D01*
X041446Y021376D01*
X041448Y021384D01*
X041449Y021393D01*
X04145Y021401D01*
Y021402D01*
Y021403D01*
Y021404D01*
X041449Y021407D01*
X041448Y021413D01*
X041447Y021421D01*
X041445Y02143D01*
X041441Y021439D01*
X041436Y021448D01*
X041429Y021456D01*
X041428Y021457D01*
X041425Y02146D01*
X041421Y021463D01*
X041415Y021467D01*
X041407Y021471D01*
X041399Y021475D01*
X041389Y021477D01*
X041379Y021478D01*
X041375D01*
X04137Y021478D01*
X041363Y021477D01*
X041356Y021474D01*
X041349Y021472D01*
X04134Y021468D01*
X041332Y021463D01*
X041331Y021462D01*
X041329Y02146D01*
X041325Y021456D01*
X041321Y021451D01*
X041316Y021445D01*
X04131Y021438D01*
X041306Y021429D01*
X041302Y021419D01*
X041292D01*
Y021419D01*
X041293Y021421D01*
Y021423D01*
X041294Y021426D01*
X041294Y021431D01*
X041296Y021435D01*
X041299Y021445D01*
X041303Y021457D01*
X041309Y021469D01*
X041316Y021481D01*
X041325Y021492D01*
X041326Y021492D01*
X041326Y021493D01*
X041328Y021494D01*
X04133Y021496D01*
X041333Y021498D01*
X041336Y0215D01*
X041344Y021505D01*
X041353Y02151D01*
X041365Y021514D01*
X041378Y021517D01*
X041385Y021517D01*
X041393Y021518D01*
X041397D01*
X0414Y021517D01*
D02*
G37*
G36*
X041133D02*
X041137Y021517D01*
X041142Y021516D01*
X041151Y021515D01*
X041163Y021511D01*
X041175Y021507D01*
X041181Y021503D01*
X041187Y021499D01*
X041193Y021495D01*
X041198Y02149D01*
X041199Y02149D01*
X041199Y021489D01*
X041201Y021487D01*
X041203Y021485D01*
X041208Y02148D01*
X041213Y021472D01*
X041218Y021462D01*
X041223Y021451D01*
X041226Y021439D01*
X041227Y021432D01*
X041227Y021425D01*
Y021425D01*
Y021424D01*
Y021422D01*
Y021421D01*
X041227Y021415D01*
X041226Y021408D01*
X041224Y021401D01*
X041222Y021391D01*
X041219Y021381D01*
X041214Y021372D01*
Y021371D01*
X041213Y02137D01*
X041212Y021367D01*
X04121Y021365D01*
X041208Y021361D01*
X041206Y021356D01*
X041203Y021351D01*
X041199Y021345D01*
X041195Y021338D01*
X041191Y021331D01*
X04118Y021317D01*
X041173Y021308D01*
X041167Y0213D01*
X04116Y021291D01*
X041151Y021283D01*
X041151Y021282D01*
X041149Y021279D01*
X041145Y021276D01*
X041141Y021271D01*
X041136Y021266D01*
X04113Y02126D01*
X041117Y021246D01*
X041103Y021231D01*
X041097Y021224D01*
X04109Y021217D01*
X041084Y021211D01*
X041079Y021206D01*
X041074Y021201D01*
X041071Y021198D01*
X041178D01*
X041184Y021199D01*
X041191D01*
X041197Y021199D01*
X041202Y0212D01*
X041202D01*
X041204Y0212D01*
X041206Y021201D01*
X041209Y021201D01*
X041215Y021204D01*
X041222Y021208D01*
X041222Y021208D01*
X041223Y021209D01*
X041225Y021211D01*
X041227Y021213D01*
X04123Y021216D01*
X041233Y021218D01*
X041238Y021226D01*
X041249D01*
X041223Y021158D01*
X041015D01*
Y021167D01*
X041017Y021169D01*
X041019Y021171D01*
X041024Y021176D01*
X041031Y021182D01*
X041038Y021189D01*
X041047Y021197D01*
X041056Y021206D01*
X041066Y021216D01*
X041077Y021227D01*
X041088Y021238D01*
X041109Y021261D01*
X041119Y021272D01*
X041129Y021283D01*
X041138Y021294D01*
X041145Y021305D01*
X041146Y021305D01*
X041147Y021307D01*
X041149Y02131D01*
X041151Y021313D01*
X041154Y021318D01*
X041157Y021324D01*
X041161Y02133D01*
X041164Y021337D01*
X041171Y021351D01*
X041177Y021368D01*
X04118Y021376D01*
X041181Y021384D01*
X041183Y021393D01*
X041183Y021401D01*
Y021402D01*
Y021403D01*
Y021404D01*
X041183Y021407D01*
X041182Y021413D01*
X04118Y021421D01*
X041178Y02143D01*
X041174Y021439D01*
X041169Y021448D01*
X041162Y021456D01*
X041161Y021457D01*
X041158Y02146D01*
X041154Y021463D01*
X041148Y021467D01*
X041141Y021471D01*
X041133Y021475D01*
X041123Y021477D01*
X041113Y021478D01*
X041108D01*
X041103Y021478D01*
X041097Y021477D01*
X04109Y021474D01*
X041082Y021472D01*
X041074Y021468D01*
X041066Y021463D01*
X041065Y021462D01*
X041062Y02146D01*
X041059Y021456D01*
X041054Y021451D01*
X041049Y021445D01*
X041044Y021438D01*
X041039Y021429D01*
X041035Y021419D01*
X041026D01*
Y021419D01*
X041026Y021421D01*
Y021423D01*
X041027Y021426D01*
X041028Y021431D01*
X041029Y021435D01*
X041032Y021445D01*
X041037Y021457D01*
X041042Y021469D01*
X041049Y021481D01*
X041059Y021492D01*
X041059Y021492D01*
X04106Y021493D01*
X041061Y021494D01*
X041063Y021496D01*
X041066Y021498D01*
X041069Y0215D01*
X041077Y021505D01*
X041087Y02151D01*
X041098Y021514D01*
X041112Y021517D01*
X041119Y021517D01*
X041126Y021518D01*
X041131D01*
X041133Y021517D01*
D02*
G37*
G36*
X041678D02*
X041681Y021517D01*
X041685Y021516D01*
X041695Y021513D01*
X041701Y021511D01*
X041707Y021508D01*
X041713Y021504D01*
X041719Y021501D01*
X041725Y021496D01*
X041731Y02149D01*
X041738Y021484D01*
X041744Y021477D01*
X041744Y021476D01*
X041745Y021474D01*
X041748Y021471D01*
X04175Y021467D01*
X041753Y021462D01*
X041756Y021456D01*
X04176Y021448D01*
X041764Y02144D01*
X041768Y021431D01*
X041772Y02142D01*
X041775Y021409D01*
X041778Y021396D01*
X04178Y021383D01*
X041783Y021369D01*
X041784Y021354D01*
X041784Y021338D01*
Y021337D01*
Y021335D01*
Y021332D01*
Y021327D01*
X041784Y021322D01*
X041783Y021316D01*
X041783Y021309D01*
X041782Y021302D01*
X04178Y021285D01*
X041777Y021267D01*
X041772Y02125D01*
X041766Y021233D01*
Y021232D01*
X041766Y021231D01*
X041765Y021229D01*
X041763Y021226D01*
X041761Y021223D01*
X041759Y021219D01*
X041754Y02121D01*
X041748Y021199D01*
X04174Y021189D01*
X041731Y021179D01*
X041726Y021175D01*
X041721Y021171D01*
X04172D01*
X04172Y021171D01*
X041718Y02117D01*
X041716Y021169D01*
X041711Y021165D01*
X041704Y021162D01*
X041696Y021158D01*
X041687Y021155D01*
X041678Y021153D01*
X041668Y021152D01*
X041666D01*
X041663Y021153D01*
X04166Y021153D01*
X041655Y021154D01*
X04165Y021155D01*
X041644Y021157D01*
X041638Y02116D01*
X041632Y021163D01*
X041625Y021166D01*
X041618Y021171D01*
X041611Y021177D01*
X041604Y021184D01*
X041597Y021191D01*
X04159Y021201D01*
X041584Y021211D01*
X041583Y021212D01*
X041583Y021213D01*
X041581Y021216D01*
X041579Y02122D01*
X041577Y021225D01*
X041575Y021231D01*
X041572Y021237D01*
X04157Y021245D01*
X041567Y021254D01*
X041565Y021263D01*
X041563Y021273D01*
X04156Y021284D01*
X041559Y021295D01*
X041557Y021307D01*
X041557Y021319D01*
X041556Y021332D01*
Y021333D01*
Y021335D01*
Y021338D01*
X041557Y021342D01*
Y021348D01*
X041557Y021354D01*
X041558Y02136D01*
X041558Y021368D01*
X04156Y021384D01*
X041564Y021402D01*
X041568Y021419D01*
X041574Y021436D01*
Y021437D01*
X041575Y021438D01*
X041576Y02144D01*
X041577Y021443D01*
X041579Y021447D01*
X041581Y021451D01*
X041587Y021461D01*
X041594Y021471D01*
X041602Y021482D01*
X041612Y021492D01*
X041623Y021501D01*
X041624Y021502D01*
X041626Y021504D01*
X041631Y021507D01*
X041637Y02151D01*
X041644Y021513D01*
X041653Y021515D01*
X041661Y021517D01*
X041671Y021518D01*
X041674D01*
X041678Y021517D01*
D02*
G37*
G36*
X042522Y021519D02*
X042527D01*
X042533Y021517D01*
X042539Y021516D01*
X042548Y021515D01*
X042556Y021513D01*
X042565Y02151D01*
X042574Y021507D01*
X042584Y021502D01*
X042594Y021497D01*
X042604Y021491D01*
X042614Y021484D01*
X042624Y021476D01*
X042634Y021467D01*
X042634Y021466D01*
X042636Y021465D01*
X042639Y021461D01*
X042642Y021457D01*
X042646Y021452D01*
X04265Y021446D01*
X042655Y021439D01*
X042659Y021431D01*
X042664Y021422D01*
X042669Y021412D01*
X042673Y021401D01*
X042677Y02139D01*
X04268Y021377D01*
X042682Y021364D01*
X042684Y02135D01*
X042685Y021336D01*
Y021335D01*
Y021333D01*
X042684Y021329D01*
Y021323D01*
X042683Y021316D01*
X042682Y021308D01*
X04268Y021299D01*
X042678Y021289D01*
X042675Y021279D01*
X042672Y021268D01*
X042668Y021258D01*
X042663Y021246D01*
X042657Y021235D01*
X042651Y021224D01*
X042643Y021213D01*
X042634Y021203D01*
X042633Y021202D01*
X042632Y021201D01*
X042629Y021198D01*
X042625Y021195D01*
X04262Y021191D01*
X042614Y021186D01*
X042607Y021182D01*
X042599Y021177D01*
X042591Y021171D01*
X042581Y021167D01*
X042572Y021163D01*
X042561Y021158D01*
X042549Y021155D01*
X042537Y021152D01*
X042524Y021151D01*
X042511Y02115D01*
X042508D01*
X042504Y021151D01*
X042499Y021151D01*
X042492Y021152D01*
X042485Y021153D01*
X042477Y021154D01*
X042468Y021157D01*
X042459Y021159D01*
X042449Y021163D01*
X042439Y021167D01*
X042428Y021172D01*
X042418Y021177D01*
X042408Y021184D01*
X042398Y021192D01*
X042389Y021201D01*
X042388Y021202D01*
X042386Y021204D01*
X042384Y021207D01*
X042381Y021211D01*
X042377Y021216D01*
X042373Y021222D01*
X042368Y021229D01*
X042364Y021237D01*
X04236Y021247D01*
X042355Y021257D01*
X042351Y021268D01*
X042347Y02128D01*
X042344Y021293D01*
X042342Y021306D01*
X04234Y02132D01*
X042339Y021336D01*
Y021337D01*
Y021339D01*
X04234Y021344D01*
X042341Y02135D01*
X042341Y021357D01*
X042343Y021365D01*
X042344Y021374D01*
X042347Y021384D01*
X04235Y021395D01*
X042353Y021406D01*
X042358Y021418D01*
X042364Y021429D01*
X04237Y02144D01*
X042378Y021451D01*
X042386Y021462D01*
X042396Y021473D01*
X042397Y021473D01*
X042398Y021475D01*
X042401Y021477D01*
X042405Y02148D01*
X04241Y021484D01*
X042416Y021487D01*
X042422Y021492D01*
X04243Y021496D01*
X042438Y0215D01*
X042447Y021504D01*
X042457Y021508D01*
X042467Y021512D01*
X042479Y021515D01*
X04249Y021517D01*
X042503Y021519D01*
X042515Y021519D01*
X042519D01*
X042522Y021519D01*
D02*
G37*
G36*
X046155Y0213D02*
X046147D01*
Y0213D01*
X046146Y021302D01*
X046145Y021304D01*
X046143Y021308D01*
X046142Y021313D01*
X04614Y021318D01*
X046135Y021329D01*
X046128Y021342D01*
X046121Y021355D01*
X046111Y021367D01*
X046106Y021372D01*
X0461Y021377D01*
X0461Y021377D01*
X046099Y021378D01*
X046098Y021379D01*
X046095Y02138D01*
X046092Y021382D01*
X046089Y021384D01*
X046081Y021389D01*
X04607Y021393D01*
X046058Y021397D01*
X046044Y021399D01*
X046037Y021401D01*
X046023D01*
X046021Y0214D01*
X046017Y021399D01*
X046009Y021398D01*
X045999Y021396D01*
X045988Y021393D01*
X045977Y021389D01*
X045966Y021383D01*
X045965D01*
X045965Y021381D01*
X045962Y021379D01*
X045956Y021375D01*
X04595Y021369D01*
X045943Y021361D01*
X045935Y021351D01*
X045928Y021339D01*
X045922Y021325D01*
Y021325D01*
X045921Y021324D01*
X04592Y021321D01*
X04592Y021318D01*
X045918Y021314D01*
X045917Y02131D01*
X045915Y021304D01*
X045914Y021298D01*
X045912Y021292D01*
X045911Y021285D01*
X04591Y021277D01*
X045909Y021268D01*
X045908Y021259D01*
X045906Y021249D01*
X045906Y021229D01*
Y021228D01*
Y021226D01*
Y021224D01*
Y02122D01*
X045906Y021217D01*
Y021212D01*
X045907Y021206D01*
X045908Y0212D01*
X04591Y021187D01*
X045912Y021173D01*
X045916Y021159D01*
X045921Y021145D01*
Y021144D01*
X045921Y021143D01*
X045922Y021142D01*
X045923Y02114D01*
X045927Y021133D01*
X045932Y021125D01*
X045939Y021117D01*
X045946Y021108D01*
X045956Y021099D01*
X045967Y021091D01*
X045967D01*
X045968Y021091D01*
X04597Y02109D01*
X045972Y021089D01*
X045975Y021087D01*
X045979Y021085D01*
X045987Y021082D01*
X045998Y021079D01*
X04601Y021076D01*
X046023Y021073D01*
X046037Y021073D01*
X046043D01*
X046046Y021073D01*
X046049D01*
X046057Y021075D01*
X046067Y021076D01*
X046077Y021079D01*
X046087Y021082D01*
X046097Y021087D01*
X046098D01*
X046098Y021088D01*
X0461Y021089D01*
X046101Y02109D01*
X046107Y021094D01*
X046114Y0211D01*
X046118Y021104D01*
X046123Y021108D01*
X046128Y021113D01*
X046133Y021118D01*
X046138Y021124D01*
X046143Y021131D01*
X046149Y021138D01*
X046155Y021146D01*
X046163Y021141D01*
X046163Y02114D01*
X046162Y021138D01*
X04616Y021136D01*
X046158Y021133D01*
X046156Y021129D01*
X046153Y021124D01*
X046145Y021114D01*
X046136Y021103D01*
X046125Y021091D01*
X046114Y021081D01*
X046107Y021076D01*
X046101Y021071D01*
X0461D01*
X046099Y02107D01*
X046098Y021069D01*
X046095Y021068D01*
X046091Y021066D01*
X046087Y021065D01*
X046083Y021063D01*
X046077Y021061D01*
X046071Y021059D01*
X046065Y021057D01*
X046051Y021053D01*
X046035Y021051D01*
X046017Y02105D01*
X046013D01*
X046009Y021051D01*
X046003Y021051D01*
X045995Y021052D01*
X045987Y021053D01*
X045978Y021055D01*
X045968Y021058D01*
X045957Y021061D01*
X045946Y021066D01*
X045935Y021071D01*
X045923Y021077D01*
X045912Y021085D01*
X045902Y021094D01*
X045891Y021104D01*
X045882Y021115D01*
X045881Y021116D01*
X04588Y021117D01*
X045879Y02112D01*
X045876Y021124D01*
X045874Y021128D01*
X04587Y021134D01*
X045868Y02114D01*
X045864Y021147D01*
X045861Y021155D01*
X045858Y021164D01*
X045855Y021173D01*
X045852Y021183D01*
X04585Y021194D01*
X045848Y021205D01*
X045847Y021217D01*
X045846Y021229D01*
Y021229D01*
Y021231D01*
Y021234D01*
X045847Y021237D01*
Y021242D01*
X045848Y021248D01*
X045849Y021254D01*
X045849Y021261D01*
X045852Y021275D01*
X045856Y021292D01*
X045862Y021309D01*
X045866Y021318D01*
X04587Y021326D01*
X04587Y021326D01*
X045871Y021328D01*
X045872Y02133D01*
X045874Y021333D01*
X045876Y021337D01*
X04588Y021341D01*
X045887Y021351D01*
X045896Y021362D01*
X045907Y021373D01*
X04592Y021385D01*
X045934Y021395D01*
X045935Y021395D01*
X045936Y021396D01*
X045939Y021397D01*
X045941Y021398D01*
X045945Y0214D01*
X04595Y021402D01*
X045955Y021404D01*
X045961Y021407D01*
X045968Y021409D01*
X045975Y021411D01*
X04599Y021415D01*
X046006Y021418D01*
X046016Y021419D01*
X046028D01*
X046031Y021419D01*
X046034D01*
X046039Y021418D01*
X046048Y021417D01*
X046059Y021414D01*
X046072Y021411D01*
X046086Y021407D01*
X046099Y0214D01*
X0461D01*
X046101Y021399D01*
X046103Y021398D01*
X046105Y021397D01*
X046111Y021396D01*
X046113Y021395D01*
X046116D01*
X046119Y021395D01*
X046123Y021397D01*
X046127Y021399D01*
X046128Y0214D01*
X046128Y021401D01*
X046129Y021402D01*
X046131Y021404D01*
X046133Y021408D01*
X046134Y021411D01*
X046136Y021415D01*
X046137Y021419D01*
X046147D01*
X046155Y0213D01*
D02*
G37*
G36*
X045302Y021401D02*
X045302D01*
X045299Y021401D01*
X045296Y021399D01*
X045292Y021398D01*
X045282Y021395D01*
X045277Y021392D01*
X045274Y021389D01*
X045273Y021389D01*
X045271Y021387D01*
X045269Y021384D01*
X045265Y021379D01*
X045262Y021374D01*
X045258Y021367D01*
X045253Y021359D01*
X04525Y02135D01*
X045127Y02105D01*
X045117D01*
X044985Y021354D01*
Y021354D01*
X044984Y021355D01*
X044983Y021357D01*
X044982Y021361D01*
X044979Y021366D01*
X044977Y021371D01*
X044974Y021376D01*
X044972Y02138D01*
X044971Y021383D01*
X04497Y021383D01*
X04497Y021384D01*
X044966Y021387D01*
X044961Y021391D01*
X044954Y021395D01*
X044954D01*
X044953Y021395D01*
X04495Y021396D01*
X044948Y021397D01*
X044944Y021398D01*
X04494Y021399D01*
X044935Y021401D01*
X044929Y021401D01*
Y021411D01*
X045073D01*
Y021401D01*
X045072D01*
X045069Y021401D01*
X045065Y0214D01*
X04506Y021399D01*
X045055Y021398D01*
X04505Y021396D01*
X045045Y021395D01*
X045042Y021392D01*
X045041D01*
X045041Y021391D01*
X045038Y021388D01*
X045036Y021384D01*
X045035Y02138D01*
X045035Y021377D01*
Y021377D01*
Y021375D01*
X045035Y021372D01*
X045036Y021367D01*
X045037Y021361D01*
X045039Y021355D01*
X045043Y021346D01*
X045047Y021337D01*
X045136Y02113D01*
X04522Y021334D01*
Y021334D01*
X04522Y021335D01*
X045221Y021337D01*
X045221Y021339D01*
X045223Y021344D01*
X045226Y02135D01*
X045228Y021357D01*
X04523Y021365D01*
X045231Y02137D01*
X045232Y021376D01*
Y021377D01*
Y021377D01*
X045231Y021381D01*
X045228Y021385D01*
X045227Y021387D01*
X045224Y02139D01*
X045223Y021391D01*
X045222Y021391D01*
X045221Y021392D01*
X045218Y021394D01*
X045214Y021396D01*
X04521Y021397D01*
X045205Y021399D01*
X045198Y0214D01*
X045197Y021401D01*
X045196D01*
X045194Y021401D01*
Y021411D01*
X045302D01*
Y021401D01*
D02*
G37*
G36*
X04576Y021125D02*
Y021125D01*
X045761Y021124D01*
X045762Y021122D01*
X045763Y02112D01*
X045766Y021113D01*
X045769Y021106D01*
X045773Y021099D01*
X045778Y021091D01*
X045783Y021084D01*
X045785Y021082D01*
X045787Y021079D01*
X045787Y021079D01*
X045789Y021078D01*
X045792Y021076D01*
X045796Y021074D01*
X045801Y021072D01*
X045806Y02107D01*
X045813Y021069D01*
X04582Y021068D01*
Y021058D01*
X045682D01*
Y021068D01*
X045685D01*
X045689Y021069D01*
X045693Y021069D01*
X045702Y021071D01*
X045706Y021072D01*
X045709Y021075D01*
X04571Y021075D01*
X04571Y021076D01*
X045713Y021079D01*
X045716Y021083D01*
X045716Y021086D01*
X045717Y021089D01*
Y02109D01*
Y021091D01*
X045716Y021094D01*
X045716Y021098D01*
X045714Y021103D01*
X045713Y02111D01*
X04571Y021117D01*
X045707Y021125D01*
X045686Y021176D01*
X045549D01*
X045526Y02112D01*
X045525Y021119D01*
X045524Y021117D01*
X045523Y021113D01*
X045522Y021109D01*
X045518Y021099D01*
X045517Y021094D01*
X045517Y02109D01*
Y021089D01*
Y021089D01*
X045518Y021085D01*
X04552Y021081D01*
X045522Y021078D01*
X045524Y021076D01*
X045525D01*
X045526Y021075D01*
X045528Y021073D01*
X045531Y021072D01*
X045536Y021071D01*
X045542Y02107D01*
X045549Y021069D01*
X045558Y021068D01*
Y021058D01*
X045446D01*
Y021068D01*
X045447D01*
X04545Y021069D01*
X045454Y02107D01*
X045458Y021071D01*
X045463Y021072D01*
X045468Y021074D01*
X045472Y021076D01*
X045475Y021078D01*
X045475Y021078D01*
X045477Y021081D01*
X04548Y021084D01*
X045483Y021089D01*
X045488Y021096D01*
X045493Y021105D01*
X045495Y02111D01*
X045498Y021116D01*
X045501Y021122D01*
X045504Y021129D01*
X045629Y021419D01*
X045637D01*
X04576Y021125D01*
D02*
G37*
G36*
X044521Y021417D02*
X044525Y021417D01*
X044529Y021416D01*
X044539Y021415D01*
X044551Y021411D01*
X044563Y021407D01*
X044569Y021403D01*
X044575Y021399D01*
X044581Y021395D01*
X044586Y02139D01*
X044587Y02139D01*
X044587Y021389D01*
X044589Y021387D01*
X044591Y021385D01*
X044596Y02138D01*
X044601Y021372D01*
X044606Y021362D01*
X044611Y021351D01*
X044614Y021339D01*
X044615Y021332D01*
X044615Y021325D01*
Y021325D01*
Y021324D01*
Y021322D01*
Y021321D01*
X044615Y021315D01*
X044614Y021308D01*
X044612Y021301D01*
X04461Y021291D01*
X044606Y021281D01*
X044602Y021272D01*
Y021271D01*
X044601Y02127D01*
X0446Y021267D01*
X044598Y021265D01*
X044596Y021261D01*
X044594Y021256D01*
X044591Y021251D01*
X044587Y021245D01*
X044583Y021238D01*
X044579Y021231D01*
X044568Y021217D01*
X044561Y021208D01*
X044555Y0212D01*
X044547Y021191D01*
X044539Y021183D01*
X044539Y021182D01*
X044537Y021179D01*
X044533Y021176D01*
X044529Y021171D01*
X044524Y021166D01*
X044518Y02116D01*
X044505Y021146D01*
X044491Y021131D01*
X044485Y021124D01*
X044478Y021117D01*
X044472Y021111D01*
X044467Y021106D01*
X044462Y021101D01*
X044459Y021098D01*
X044566D01*
X044572Y021099D01*
X044579D01*
X044585Y021099D01*
X04459Y0211D01*
X04459D01*
X044592Y0211D01*
X044594Y021101D01*
X044597Y021101D01*
X044603Y021104D01*
X04461Y021108D01*
X04461Y021108D01*
X044611Y021109D01*
X044613Y021111D01*
X044615Y021113D01*
X044618Y021116D01*
X044621Y021118D01*
X044626Y021126D01*
X044636D01*
X044611Y021058D01*
X044403D01*
Y021067D01*
X044404Y021069D01*
X044407Y021071D01*
X044412Y021076D01*
X044419Y021082D01*
X044426Y021089D01*
X044434Y021097D01*
X044444Y021106D01*
X044454Y021116D01*
X044465Y021127D01*
X044475Y021138D01*
X044497Y021161D01*
X044507Y021172D01*
X044517Y021183D01*
X044526Y021194D01*
X044533Y021205D01*
X044534Y021205D01*
X044535Y021207D01*
X044537Y02121D01*
X044539Y021213D01*
X044542Y021218D01*
X044545Y021224D01*
X044549Y02123D01*
X044552Y021237D01*
X044559Y021251D01*
X044565Y021268D01*
X044568Y021276D01*
X044569Y021284D01*
X04457Y021293D01*
X044571Y021301D01*
Y021302D01*
Y021303D01*
Y021304D01*
X04457Y021307D01*
X04457Y021313D01*
X044568Y021321D01*
X044566Y02133D01*
X044562Y021339D01*
X044557Y021348D01*
X04455Y021356D01*
X044549Y021357D01*
X044546Y02136D01*
X044542Y021363D01*
X044536Y021367D01*
X044529Y021371D01*
X044521Y021375D01*
X044511Y021377D01*
X044501Y021378D01*
X044496D01*
X044491Y021378D01*
X044485Y021377D01*
X044478Y021374D01*
X04447Y021372D01*
X044462Y021368D01*
X044454Y021363D01*
X044452Y021362D01*
X04445Y02136D01*
X044446Y021356D01*
X044442Y021351D01*
X044437Y021345D01*
X044432Y021338D01*
X044427Y021329D01*
X044423Y021319D01*
X044414D01*
Y021319D01*
X044414Y021321D01*
Y021323D01*
X044415Y021326D01*
X044416Y021331D01*
X044417Y021335D01*
X04442Y021345D01*
X044425Y021357D01*
X04443Y021369D01*
X044437Y021381D01*
X044446Y021392D01*
X044447Y021392D01*
X044448Y021393D01*
X044449Y021394D01*
X044451Y021396D01*
X044454Y021398D01*
X044457Y0214D01*
X044465Y021405D01*
X044475Y02141D01*
X044486Y021414D01*
X044499Y021417D01*
X044507Y021417D01*
X044514Y021418D01*
X044519D01*
X044521Y021417D01*
D02*
G37*
G36*
X044255D02*
X044259Y021417D01*
X044263Y021416D01*
X044273Y021415D01*
X044284Y021411D01*
X044296Y021407D01*
X044302Y021403D01*
X044308Y021399D01*
X044314Y021395D01*
X04432Y02139D01*
X04432Y02139D01*
X044321Y021389D01*
X044323Y021387D01*
X044324Y021385D01*
X044329Y02138D01*
X044335Y021372D01*
X044339Y021362D01*
X044344Y021351D01*
X044348Y021339D01*
X044348Y021332D01*
X044349Y021325D01*
Y021325D01*
Y021324D01*
Y021322D01*
Y021321D01*
X044348Y021315D01*
X044347Y021308D01*
X044345Y021301D01*
X044343Y021291D01*
X04434Y021281D01*
X044336Y021272D01*
Y021271D01*
X044335Y02127D01*
X044333Y021267D01*
X044332Y021265D01*
X04433Y021261D01*
X044327Y021256D01*
X044324Y021251D01*
X044321Y021245D01*
X044317Y021238D01*
X044312Y021231D01*
X044301Y021217D01*
X044295Y021208D01*
X044288Y0212D01*
X044281Y021191D01*
X044273Y021183D01*
X044272Y021182D01*
X04427Y021179D01*
X044267Y021176D01*
X044262Y021171D01*
X044258Y021166D01*
X044252Y02116D01*
X044238Y021146D01*
X044225Y021131D01*
X044218Y021124D01*
X044212Y021117D01*
X044206Y021111D01*
X0442Y021106D01*
X044196Y021101D01*
X044193Y021098D01*
X0443D01*
X044306Y021099D01*
X044312D01*
X044318Y021099D01*
X044323Y0211D01*
X044324D01*
X044325Y0211D01*
X044327Y021101D01*
X04433Y021101D01*
X044337Y021104D01*
X044343Y021108D01*
X044344Y021108D01*
X044345Y021109D01*
X044347Y021111D01*
X044349Y021113D01*
X044351Y021116D01*
X044354Y021118D01*
X04436Y021126D01*
X04437D01*
X044345Y021058D01*
X044137D01*
Y021067D01*
X044138Y021069D01*
X044141Y021071D01*
X044146Y021076D01*
X044152Y021082D01*
X044159Y021089D01*
X044168Y021097D01*
X044178Y021106D01*
X044188Y021116D01*
X044199Y021127D01*
X044209Y021138D01*
X044231Y021161D01*
X044241Y021172D01*
X04425Y021183D01*
X044259Y021194D01*
X044267Y021205D01*
X044267Y021205D01*
X044268Y021207D01*
X04427Y02121D01*
X044273Y021213D01*
X044276Y021218D01*
X044279Y021224D01*
X044282Y02123D01*
X044286Y021237D01*
X044293Y021251D01*
X044299Y021268D01*
X044301Y021276D01*
X044303Y021284D01*
X044304Y021293D01*
X044305Y021301D01*
Y021302D01*
Y021303D01*
Y021304D01*
X044304Y021307D01*
X044303Y021313D01*
X044302Y021321D01*
X0443Y02133D01*
X044296Y021339D01*
X044291Y021348D01*
X044284Y021356D01*
X044283Y021357D01*
X04428Y02136D01*
X044276Y021363D01*
X04427Y021367D01*
X044262Y021371D01*
X044254Y021375D01*
X044244Y021377D01*
X044234Y021378D01*
X04423D01*
X044225Y021378D01*
X044218Y021377D01*
X044211Y021374D01*
X044204Y021372D01*
X044195Y021368D01*
X044187Y021363D01*
X044186Y021362D01*
X044184Y02136D01*
X04418Y021356D01*
X044176Y021351D01*
X044171Y021345D01*
X044165Y021338D01*
X044161Y021329D01*
X044157Y021319D01*
X044147D01*
Y021319D01*
X044148Y021321D01*
Y021323D01*
X044149Y021326D01*
X044149Y021331D01*
X044151Y021335D01*
X044154Y021345D01*
X044158Y021357D01*
X044164Y021369D01*
X044171Y021381D01*
X04418Y021392D01*
X044181Y021392D01*
X044181Y021393D01*
X044183Y021394D01*
X044185Y021396D01*
X044188Y021398D01*
X044191Y0214D01*
X044199Y021405D01*
X044208Y02141D01*
X04422Y021414D01*
X044233Y021417D01*
X04424Y021417D01*
X044248Y021418D01*
X044252D01*
X044255Y021417D01*
D02*
G37*
G36*
X044799D02*
X044802Y021417D01*
X044807Y021416D01*
X044817Y021413D01*
X044822Y021411D01*
X044828Y021408D01*
X044834Y021404D01*
X04484Y021401D01*
X044847Y021396D01*
X044853Y02139D01*
X044859Y021384D01*
X044865Y021377D01*
X044866Y021376D01*
X044867Y021374D01*
X044869Y021371D01*
X044872Y021367D01*
X044875Y021362D01*
X044878Y021356D01*
X044882Y021348D01*
X044885Y02134D01*
X044889Y021331D01*
X044893Y02132D01*
X044896Y021309D01*
X044899Y021296D01*
X044902Y021283D01*
X044904Y021269D01*
X044905Y021254D01*
X044906Y021238D01*
Y021237D01*
Y021235D01*
Y021232D01*
Y021227D01*
X044905Y021222D01*
X044905Y021216D01*
X044904Y021209D01*
X044903Y021202D01*
X044901Y021185D01*
X044898Y021167D01*
X044894Y02115D01*
X044888Y021133D01*
Y021132D01*
X044887Y021131D01*
X044886Y021129D01*
X044884Y021126D01*
X044883Y021123D01*
X044881Y021119D01*
X044876Y02111D01*
X044869Y021099D01*
X044861Y021089D01*
X044852Y021079D01*
X044847Y021075D01*
X044842Y021071D01*
X044842D01*
X044841Y021071D01*
X04484Y02107D01*
X044837Y021069D01*
X044833Y021065D01*
X044825Y021062D01*
X044817Y021058D01*
X044808Y021055D01*
X044799Y021053D01*
X044789Y021052D01*
X044787D01*
X044784Y021053D01*
X044781Y021053D01*
X044777Y021054D01*
X044772Y021055D01*
X044766Y021057D01*
X04476Y02106D01*
X044753Y021063D01*
X044747Y021066D01*
X04474Y021071D01*
X044733Y021077D01*
X044725Y021084D01*
X044718Y021091D01*
X044712Y021101D01*
X044705Y021111D01*
X044705Y021112D01*
X044704Y021113D01*
X044703Y021116D01*
X044701Y02112D01*
X044699Y021125D01*
X044697Y021131D01*
X044694Y021137D01*
X044692Y021145D01*
X044689Y021154D01*
X044686Y021163D01*
X044684Y021173D01*
X044682Y021184D01*
X04468Y021195D01*
X044679Y021207D01*
X044678Y021219D01*
X044677Y021232D01*
Y021233D01*
Y021235D01*
Y021238D01*
X044678Y021242D01*
Y021248D01*
X044679Y021254D01*
X044679Y02126D01*
X04468Y021268D01*
X044682Y021284D01*
X044685Y021302D01*
X044689Y021319D01*
X044695Y021336D01*
Y021337D01*
X044697Y021338D01*
X044697Y02134D01*
X044699Y021343D01*
X0447Y021347D01*
X044703Y021351D01*
X044709Y021361D01*
X044715Y021371D01*
X044724Y021382D01*
X044733Y021392D01*
X044744Y021401D01*
X044745Y021402D01*
X044748Y021404D01*
X044753Y021407D01*
X044759Y02141D01*
X044766Y021413D01*
X044774Y021415D01*
X044783Y021417D01*
X044792Y021418D01*
X044796D01*
X044799Y021417D01*
D02*
G37*
G36*
X046085Y02335D02*
X046076D01*
Y02335D01*
X046076Y023352D01*
X046075Y023354D01*
X046073Y023358D01*
X046072Y023363D01*
X04607Y023368D01*
X046064Y023379D01*
X046058Y023392D01*
X04605Y023405D01*
X04604Y023417D01*
X046035Y023422D01*
X04603Y023427D01*
X04603Y023427D01*
X046029Y023428D01*
X046027Y023429D01*
X046025Y02343D01*
X046022Y023432D01*
X046019Y023434D01*
X04601Y023439D01*
X046Y023443D01*
X045987Y023447D01*
X045974Y023449D01*
X045967Y023451D01*
X045953D01*
X04595Y02345D01*
X045946Y023449D01*
X045938Y023448D01*
X045928Y023446D01*
X045918Y023443D01*
X045907Y023439D01*
X045896Y023433D01*
X045895D01*
X045895Y023431D01*
X045891Y023429D01*
X045886Y023425D01*
X04588Y023419D01*
X045873Y023411D01*
X045865Y023401D01*
X045858Y023389D01*
X045851Y023375D01*
Y023375D01*
X045851Y023374D01*
X04585Y023371D01*
X045849Y023368D01*
X045848Y023364D01*
X045847Y02336D01*
X045845Y023354D01*
X045844Y023348D01*
X045842Y023342D01*
X045841Y023335D01*
X045839Y023327D01*
X045838Y023318D01*
X045837Y023309D01*
X045836Y023299D01*
X045836Y023279D01*
Y023278D01*
Y023276D01*
Y023274D01*
Y02327D01*
X045836Y023267D01*
Y023262D01*
X045837Y023256D01*
X045837Y02325D01*
X045839Y023237D01*
X045842Y023223D01*
X045845Y023209D01*
X04585Y023195D01*
Y023194D01*
X045851Y023193D01*
X045852Y023192D01*
X045853Y02319D01*
X045857Y023183D01*
X045862Y023175D01*
X045868Y023167D01*
X045876Y023158D01*
X045885Y023149D01*
X045896Y023142D01*
X045897D01*
X045898Y023141D01*
X0459Y02314D01*
X045902Y023139D01*
X045904Y023137D01*
X045908Y023135D01*
X045917Y023132D01*
X045927Y023129D01*
X045939Y023126D01*
X045953Y023123D01*
X045967Y023123D01*
X045973D01*
X045975Y023123D01*
X045979D01*
X045987Y023125D01*
X045997Y023126D01*
X046007Y023129D01*
X046017Y023132D01*
X046027Y023137D01*
X046027D01*
X046028Y023138D01*
X04603Y023139D01*
X046031Y02314D01*
X046037Y023144D01*
X046044Y02315D01*
X046048Y023154D01*
X046052Y023158D01*
X046057Y023163D01*
X046062Y023168D01*
X046068Y023174D01*
X046073Y023181D01*
X046079Y023188D01*
X046085Y023196D01*
X046093Y023191D01*
X046092Y02319D01*
X046092Y023188D01*
X04609Y023186D01*
X046088Y023183D01*
X046086Y023179D01*
X046082Y023174D01*
X046075Y023164D01*
X046066Y023153D01*
X046055Y023142D01*
X046044Y023131D01*
X046037Y023126D01*
X046031Y023121D01*
X04603D01*
X046029Y02312D01*
X046027Y023119D01*
X046025Y023118D01*
X046021Y023116D01*
X046017Y023115D01*
X046013Y023113D01*
X046007Y023111D01*
X046001Y023109D01*
X045995Y023107D01*
X04598Y023103D01*
X045965Y023101D01*
X045947Y0231D01*
X045943D01*
X045939Y023101D01*
X045933Y023101D01*
X045925Y023102D01*
X045917Y023103D01*
X045908Y023105D01*
X045897Y023108D01*
X045886Y023111D01*
X045876Y023116D01*
X045865Y023121D01*
X045853Y023127D01*
X045842Y023135D01*
X045831Y023144D01*
X045821Y023154D01*
X045812Y023165D01*
X045811Y023166D01*
X04581Y023167D01*
X045808Y02317D01*
X045806Y023174D01*
X045803Y023178D01*
X0458Y023184D01*
X045797Y02319D01*
X045794Y023197D01*
X04579Y023205D01*
X045788Y023214D01*
X045784Y023223D01*
X045782Y023233D01*
X045779Y023244D01*
X045778Y023255D01*
X045777Y023267D01*
X045776Y023279D01*
Y023279D01*
Y023281D01*
Y023284D01*
X045777Y023287D01*
Y023292D01*
X045777Y023298D01*
X045778Y023304D01*
X045779Y023311D01*
X045782Y023326D01*
X045786Y023342D01*
X045792Y023359D01*
X045795Y023368D01*
X0458Y023376D01*
X0458Y023376D01*
X045801Y023378D01*
X045802Y02338D01*
X045804Y023383D01*
X045806Y023387D01*
X045809Y023391D01*
X045817Y023401D01*
X045826Y023412D01*
X045837Y023423D01*
X045849Y023435D01*
X045864Y023445D01*
X045865Y023445D01*
X045866Y023446D01*
X045868Y023447D01*
X045871Y023448D01*
X045875Y02345D01*
X04588Y023452D01*
X045885Y023454D01*
X045891Y023457D01*
X045897Y023459D01*
X045904Y023461D01*
X04592Y023465D01*
X045936Y023468D01*
X045945Y023469D01*
X045958D01*
X045961Y023469D01*
X045964D01*
X045968Y023468D01*
X045978Y023467D01*
X045989Y023464D01*
X046002Y023461D01*
X046015Y023457D01*
X046029Y02345D01*
X04603D01*
X046031Y023449D01*
X046033Y023448D01*
X046035Y023447D01*
X04604Y023446D01*
X046043Y023445D01*
X046046D01*
X046049Y023445D01*
X046053Y023447D01*
X046057Y023449D01*
X046057Y02345D01*
X046058Y023451D01*
X046059Y023452D01*
X046061Y023454D01*
X046062Y023458D01*
X046064Y023461D01*
X046066Y023465D01*
X046067Y023469D01*
X046076D01*
X046085Y02335D01*
D02*
G37*
G36*
X045232Y023451D02*
X045231D01*
X045229Y023451D01*
X045225Y023449D01*
X045221Y023448D01*
X045212Y023445D01*
X045207Y023442D01*
X045203Y023439D01*
X045203Y023439D01*
X045201Y023437D01*
X045198Y023434D01*
X045195Y023429D01*
X045191Y023424D01*
X045188Y023417D01*
X045183Y023409D01*
X045179Y0234D01*
X045057Y0231D01*
X045047D01*
X044915Y023404D01*
Y023404D01*
X044914Y023405D01*
X044913Y023407D01*
X044911Y023411D01*
X044909Y023416D01*
X044906Y023421D01*
X044904Y023426D01*
X044902Y02343D01*
X0449Y023433D01*
X0449Y023433D01*
X044899Y023434D01*
X044896Y023437D01*
X044891Y023441D01*
X044884Y023445D01*
X044883D01*
X044882Y023445D01*
X04488Y023446D01*
X044877Y023447D01*
X044874Y023448D01*
X044869Y023449D01*
X044864Y023451D01*
X044858Y023451D01*
Y023461D01*
X045003D01*
Y023451D01*
X045002D01*
X044999Y023451D01*
X044995Y02345D01*
X04499Y023449D01*
X044984Y023448D01*
X04498Y023446D01*
X044975Y023445D01*
X044971Y023442D01*
X044971D01*
X04497Y023441D01*
X044968Y023438D01*
X044965Y023434D01*
X044965Y02343D01*
X044964Y023427D01*
Y023427D01*
Y023425D01*
X044965Y023422D01*
X044966Y023417D01*
X044967Y023411D01*
X044969Y023405D01*
X044972Y023396D01*
X044976Y023387D01*
X045066Y02318D01*
X045149Y023384D01*
Y023384D01*
X04515Y023385D01*
X04515Y023387D01*
X045151Y023389D01*
X045153Y023394D01*
X045155Y0234D01*
X045158Y023407D01*
X04516Y023414D01*
X045161Y023421D01*
X045161Y023426D01*
Y023427D01*
Y023427D01*
X04516Y023431D01*
X045158Y023435D01*
X045156Y023437D01*
X045154Y02344D01*
X045153Y023441D01*
X045152Y023441D01*
X04515Y023442D01*
X045148Y023444D01*
X045144Y023446D01*
X04514Y023447D01*
X045135Y023449D01*
X045128Y02345D01*
X045127Y023451D01*
X045126D01*
X045124Y023451D01*
Y023461D01*
X045232D01*
Y023451D01*
D02*
G37*
G36*
X04569Y023175D02*
Y023175D01*
X04569Y023174D01*
X045692Y023172D01*
X045693Y02317D01*
X045695Y023163D01*
X045699Y023156D01*
X045703Y023149D01*
X045707Y023141D01*
X045712Y023134D01*
X045714Y023132D01*
X045717Y023129D01*
X045717Y023129D01*
X045719Y023128D01*
X045722Y023126D01*
X045725Y023124D01*
X04573Y023122D01*
X045736Y02312D01*
X045742Y023119D01*
X04575Y023118D01*
Y023108D01*
X045611D01*
Y023118D01*
X045615D01*
X045618Y023119D01*
X045623Y023119D01*
X045632Y023121D01*
X045636Y023122D01*
X045639Y023125D01*
X04564Y023125D01*
X04564Y023126D01*
X045643Y023129D01*
X045646Y023133D01*
X045646Y023136D01*
X045647Y023139D01*
Y02314D01*
Y023142D01*
X045646Y023144D01*
X045646Y023148D01*
X045644Y023153D01*
X045642Y02316D01*
X04564Y023167D01*
X045636Y023175D01*
X045616Y023226D01*
X045479D01*
X045456Y02317D01*
X045455Y023169D01*
X045454Y023167D01*
X045453Y023163D01*
X045451Y023159D01*
X045448Y023149D01*
X045447Y023144D01*
X045446Y02314D01*
Y023139D01*
Y023139D01*
X045447Y023135D01*
X04545Y023131D01*
X045451Y023128D01*
X045454Y023126D01*
X045455D01*
X045456Y023125D01*
X045458Y023123D01*
X045461Y023122D01*
X045465Y023121D01*
X045471Y02312D01*
X045479Y023119D01*
X045487Y023118D01*
Y023108D01*
X045376D01*
Y023118D01*
X045377D01*
X04538Y023119D01*
X045384Y02312D01*
X045388Y023121D01*
X045393Y023122D01*
X045397Y023124D01*
X045402Y023126D01*
X045404Y023128D01*
X045405Y023128D01*
X045407Y023131D01*
X045409Y023134D01*
X045413Y023139D01*
X045417Y023146D01*
X045422Y023155D01*
X045425Y02316D01*
X045428Y023166D01*
X045431Y023172D01*
X045434Y023179D01*
X045558Y023469D01*
X045567D01*
X04569Y023175D01*
D02*
G37*
G36*
X044729Y023467D02*
X044732Y023467D01*
X044737Y023466D01*
X044746Y023463D01*
X044752Y023461D01*
X044758Y023458D01*
X044764Y023454D01*
X04477Y023451D01*
X044776Y023446D01*
X044782Y02344D01*
X044789Y023434D01*
X044795Y023427D01*
X044796Y023426D01*
X044797Y023424D01*
X044799Y023421D01*
X044802Y023417D01*
X044804Y023412D01*
X044808Y023406D01*
X044811Y023398D01*
X044815Y02339D01*
X044819Y023381D01*
X044823Y02337D01*
X044826Y023359D01*
X044829Y023346D01*
X044832Y023333D01*
X044834Y023319D01*
X044835Y023304D01*
X044835Y023288D01*
Y023287D01*
Y023285D01*
Y023282D01*
Y023277D01*
X044835Y023272D01*
X044834Y023266D01*
X044834Y023259D01*
X044833Y023252D01*
X044831Y023235D01*
X044828Y023217D01*
X044823Y0232D01*
X044817Y023183D01*
Y023182D01*
X044817Y023181D01*
X044816Y023179D01*
X044814Y023176D01*
X044812Y023173D01*
X04481Y023169D01*
X044805Y02316D01*
X044799Y023149D01*
X044791Y023139D01*
X044782Y023129D01*
X044777Y023125D01*
X044772Y023121D01*
X044772D01*
X044771Y023121D01*
X044769Y02312D01*
X044767Y023119D01*
X044762Y023115D01*
X044755Y023112D01*
X044747Y023108D01*
X044738Y023105D01*
X044729Y023103D01*
X044719Y023102D01*
X044717D01*
X044714Y023103D01*
X044711Y023103D01*
X044707Y023104D01*
X044702Y023105D01*
X044696Y023107D01*
X04469Y02311D01*
X044683Y023113D01*
X044677Y023116D01*
X044669Y023121D01*
X044662Y023127D01*
X044655Y023134D01*
X044648Y023142D01*
X044642Y023151D01*
X044635Y023161D01*
X044634Y023162D01*
X044634Y023163D01*
X044632Y023166D01*
X044631Y02317D01*
X044628Y023175D01*
X044626Y023181D01*
X044624Y023187D01*
X044621Y023195D01*
X044619Y023204D01*
X044616Y023213D01*
X044614Y023223D01*
X044612Y023234D01*
X04461Y023245D01*
X044608Y023257D01*
X044608Y023269D01*
X044607Y023282D01*
Y023283D01*
Y023285D01*
Y023288D01*
X044608Y023292D01*
Y023298D01*
X044608Y023304D01*
X044609Y02331D01*
X044609Y023318D01*
X044612Y023334D01*
X044615Y023352D01*
X044619Y023369D01*
X044625Y023386D01*
Y023387D01*
X044626Y023388D01*
X044627Y02339D01*
X044628Y023393D01*
X04463Y023397D01*
X044632Y023401D01*
X044638Y023411D01*
X044645Y023421D01*
X044654Y023432D01*
X044663Y023442D01*
X044674Y023451D01*
X044675Y023452D01*
X044678Y023454D01*
X044683Y023457D01*
X044689Y02346D01*
X044696Y023463D01*
X044704Y023465D01*
X044713Y023467D01*
X044722Y023468D01*
X044726D01*
X044729Y023467D01*
D02*
G37*
G36*
X045961Y026401D02*
X045961D01*
X045958Y026401D01*
X045955Y026399D01*
X045951Y026398D01*
X045941Y026395D01*
X045937Y026392D01*
X045933Y026389D01*
X045932Y026389D01*
X045931Y026387D01*
X045928Y026384D01*
X045925Y026379D01*
X045921Y026374D01*
X045917Y026367D01*
X045912Y026359D01*
X045909Y02635D01*
X045786Y02605D01*
X045776D01*
X045644Y026354D01*
Y026354D01*
X045643Y026355D01*
X045642Y026357D01*
X045641Y026361D01*
X045638Y026366D01*
X045636Y026371D01*
X045633Y026376D01*
X045631Y02638D01*
X04563Y026383D01*
X045629Y026383D01*
X045629Y026384D01*
X045625Y026387D01*
X04562Y026391D01*
X045613Y026395D01*
X045613D01*
X045612Y026395D01*
X045609Y026396D01*
X045607Y026397D01*
X045603Y026398D01*
X045599Y026399D01*
X045594Y026401D01*
X045588Y026401D01*
Y026411D01*
X045732D01*
Y026401D01*
X045731D01*
X045728Y026401D01*
X045724Y0264D01*
X045719Y026399D01*
X045714Y026398D01*
X045709Y026396D01*
X045704Y026395D01*
X045701Y026392D01*
X0457D01*
X0457Y026391D01*
X045697Y026388D01*
X045695Y026384D01*
X045694Y02638D01*
X045694Y026377D01*
Y026377D01*
Y026375D01*
X045694Y026372D01*
X045695Y026367D01*
X045696Y026361D01*
X045698Y026355D01*
X045702Y026346D01*
X045706Y026337D01*
X045795Y02613D01*
X045879Y026334D01*
Y026334D01*
X045879Y026335D01*
X04588Y026337D01*
X04588Y026339D01*
X045882Y026344D01*
X045885Y02635D01*
X045887Y026357D01*
X045889Y026365D01*
X04589Y02637D01*
X045891Y026376D01*
Y026377D01*
Y026377D01*
X04589Y026381D01*
X045887Y026385D01*
X045886Y026387D01*
X045883Y02639D01*
X045882Y026391D01*
X045881Y026391D01*
X04588Y026392D01*
X045877Y026394D01*
X045873Y026396D01*
X045869Y026397D01*
X045864Y026399D01*
X045857Y0264D01*
X045856Y026401D01*
X045855D01*
X045853Y026401D01*
Y026411D01*
X045961D01*
Y026401D01*
D02*
G37*
G36*
X046509Y02641D02*
X046515D01*
X046521Y02641D01*
X046535Y026409D01*
X046549Y026407D01*
X046561Y026405D01*
X046567Y026404D01*
X046573Y026402D01*
X046573D01*
X046574Y026402D01*
X046577Y026401D01*
X046582Y026398D01*
X046588Y026396D01*
X046596Y026391D01*
X046603Y026386D01*
X046611Y02638D01*
X046618Y026372D01*
X046618Y026371D01*
X046621Y026368D01*
X046624Y026363D01*
X046627Y026357D01*
X04663Y02635D01*
X046634Y026341D01*
X046636Y026331D01*
X046636Y02632D01*
Y026319D01*
Y026318D01*
Y026316D01*
X046636Y026314D01*
X046635Y026308D01*
X046634Y026301D01*
X046632Y026292D01*
X046628Y026283D01*
X046622Y026273D01*
X046615Y026263D01*
X046614Y026262D01*
X046611Y02626D01*
X046606Y026255D01*
X046599Y02625D01*
X04659Y026245D01*
X046579Y026239D01*
X046565Y026234D01*
X04655Y02623D01*
X046623Y026129D01*
X046623Y026128D01*
X046624Y026127D01*
X046625Y026125D01*
X046627Y026123D01*
X046632Y026117D01*
X046638Y02611D01*
X046644Y026102D01*
X046651Y026094D01*
X046658Y026088D01*
X046662Y026084D01*
X046665Y026082D01*
X046667Y026082D01*
X046669Y026081D01*
X046673Y026078D01*
X046678Y026076D01*
X046685Y026073D01*
X046693Y026071D01*
X046702Y02607D01*
X046712Y026068D01*
Y026058D01*
X046618D01*
X046498Y026223D01*
X046491D01*
X046484Y026223D01*
X046465D01*
X046462Y026223D01*
Y02612D01*
Y02612D01*
Y026119D01*
Y026117D01*
Y026115D01*
X046463Y02611D01*
X046463Y026103D01*
X046464Y026096D01*
X046466Y026089D01*
X046467Y026083D01*
X046468Y026081D01*
X046469Y026079D01*
X04647Y026078D01*
X046471Y026077D01*
X046474Y026076D01*
X046477Y026073D01*
X046481Y026071D01*
X046486Y02607D01*
X046492Y026069D01*
X046499Y026068D01*
X046513D01*
Y026058D01*
X046362D01*
Y026068D01*
X046379D01*
X046383Y026069D01*
X046388Y02607D01*
X046393Y026071D01*
X046398Y026074D01*
X046403Y026077D01*
X046407Y026082D01*
Y026083D01*
X046408Y026084D01*
X046409Y026087D01*
X04641Y02609D01*
X046411Y026095D01*
X046412Y026102D01*
X046413Y02611D01*
Y02612D01*
Y026349D01*
Y026349D01*
Y02635D01*
Y026352D01*
Y026354D01*
X046412Y02636D01*
X046412Y026366D01*
X046411Y026373D01*
X046409Y02638D01*
X046408Y026386D01*
X046406Y026388D01*
X046405Y02639D01*
X046404Y02639D01*
X046403Y026391D01*
X046401Y026393D01*
X046398Y026396D01*
X046394Y026397D01*
X046389Y026399D01*
X046383Y026401D01*
X046375Y026401D01*
X046362D01*
Y026411D01*
X046504D01*
X046509Y02641D01*
D02*
G37*
G36*
X046286Y026125D02*
Y026125D01*
X046287Y026124D01*
X046288Y026122D01*
X046289Y02612D01*
X046291Y026113D01*
X046295Y026106D01*
X046299Y026099D01*
X046303Y026091D01*
X046308Y026084D01*
X046311Y026082D01*
X046313Y026079D01*
X046313Y026079D01*
X046315Y026078D01*
X046318Y026076D01*
X046321Y026074D01*
X046326Y026072D01*
X046332Y02607D01*
X046338Y026069D01*
X046346Y026068D01*
Y026058D01*
X046207D01*
Y026068D01*
X046211D01*
X046214Y026069D01*
X046219Y026069D01*
X046228Y026071D01*
X046232Y026072D01*
X046235Y026075D01*
X046236Y026075D01*
X046236Y026076D01*
X046239Y026079D01*
X046242Y026083D01*
X046242Y026086D01*
X046243Y026089D01*
Y02609D01*
Y026091D01*
X046242Y026094D01*
X046242Y026098D01*
X04624Y026103D01*
X046238Y02611D01*
X046236Y026117D01*
X046232Y026125D01*
X046212Y026176D01*
X046075D01*
X046052Y02612D01*
X046051Y026119D01*
X04605Y026117D01*
X046049Y026113D01*
X046047Y026109D01*
X046044Y026099D01*
X046043Y026094D01*
X046042Y02609D01*
Y026089D01*
Y026089D01*
X046044Y026085D01*
X046046Y026081D01*
X046047Y026078D01*
X04605Y026076D01*
X046051D01*
X046052Y026075D01*
X046054Y026073D01*
X046057Y026072D01*
X046062Y026071D01*
X046068Y02607D01*
X046075Y026069D01*
X046083Y026068D01*
Y026058D01*
X045972D01*
Y026068D01*
X045973D01*
X045976Y026069D01*
X04598Y02607D01*
X045984Y026071D01*
X045989Y026072D01*
X045993Y026074D01*
X045998Y026076D01*
X046Y026078D01*
X046001Y026078D01*
X046003Y026081D01*
X046005Y026084D01*
X046009Y026089D01*
X046013Y026096D01*
X046018Y026105D01*
X046021Y02611D01*
X046024Y026116D01*
X046027Y026122D01*
X04603Y026129D01*
X046154Y026419D01*
X046163D01*
X046286Y026125D01*
D02*
G37*
G36*
X046634Y02725D02*
X046626D01*
Y02725D01*
X046625Y027252D01*
X046624Y027254D01*
X046623Y027258D01*
X046621Y027263D01*
X046619Y027268D01*
X046614Y027279D01*
X046607Y027292D01*
X0466Y027305D01*
X04659Y027317D01*
X046585Y027322D01*
X04658Y027327D01*
X046579Y027327D01*
X046578Y027328D01*
X046577Y027329D01*
X046574Y02733D01*
X046571Y027332D01*
X046568Y027334D01*
X04656Y027339D01*
X04655Y027343D01*
X046537Y027347D01*
X046523Y027349D01*
X046516Y027351D01*
X046503D01*
X0465Y02735D01*
X046496Y027349D01*
X046488Y027348D01*
X046478Y027346D01*
X046467Y027343D01*
X046456Y027339D01*
X046445Y027333D01*
X046445D01*
X046444Y027331D01*
X046441Y027329D01*
X046435Y027325D01*
X046429Y027319D01*
X046422Y027311D01*
X046415Y027301D01*
X046408Y027289D01*
X046401Y027275D01*
Y027275D01*
X0464Y027274D01*
X046399Y027271D01*
X046399Y027268D01*
X046397Y027264D01*
X046396Y02726D01*
X046394Y027254D01*
X046393Y027248D01*
X046392Y027242D01*
X04639Y027235D01*
X046389Y027227D01*
X046388Y027218D01*
X046387Y027209D01*
X046386Y027199D01*
X046385Y027179D01*
Y027178D01*
Y027176D01*
Y027174D01*
Y02717D01*
X046386Y027167D01*
Y027162D01*
X046386Y027156D01*
X046387Y02715D01*
X046389Y027137D01*
X046391Y027123D01*
X046395Y027109D01*
X0464Y027095D01*
Y027094D01*
X0464Y027093D01*
X046402Y027092D01*
X046403Y02709D01*
X046406Y027083D01*
X046411Y027075D01*
X046418Y027067D01*
X046426Y027058D01*
X046435Y027049D01*
X046446Y027041D01*
X046446D01*
X046447Y027041D01*
X046449Y02704D01*
X046451Y027039D01*
X046454Y027037D01*
X046458Y027035D01*
X046467Y027032D01*
X046477Y027029D01*
X046489Y027026D01*
X046502Y027023D01*
X046516Y027023D01*
X046522D01*
X046525Y027023D01*
X046528D01*
X046536Y027025D01*
X046546Y027026D01*
X046556Y027029D01*
X046566Y027032D01*
X046576Y027037D01*
X046577D01*
X046577Y027038D01*
X046579Y027039D01*
X046581Y02704D01*
X046586Y027044D01*
X046593Y02705D01*
X046598Y027054D01*
X046602Y027058D01*
X046607Y027063D01*
X046612Y027068D01*
X046617Y027074D01*
X046623Y027081D01*
X046628Y027088D01*
X046634Y027096D01*
X046642Y027091D01*
X046642Y02709D01*
X046641Y027088D01*
X04664Y027086D01*
X046637Y027083D01*
X046635Y027079D01*
X046632Y027074D01*
X046624Y027064D01*
X046616Y027053D01*
X046605Y027041D01*
X046593Y027031D01*
X046587Y027026D01*
X04658Y027021D01*
X04658D01*
X046578Y02702D01*
X046577Y027019D01*
X046574Y027018D01*
X04657Y027016D01*
X046566Y027015D01*
X046562Y027013D01*
X046557Y027011D01*
X046551Y027009D01*
X046545Y027007D01*
X04653Y027003D01*
X046514Y027001D01*
X046497Y027D01*
X046493D01*
X046488Y027001D01*
X046482Y027001D01*
X046475Y027002D01*
X046467Y027003D01*
X046457Y027005D01*
X046447Y027008D01*
X046436Y027011D01*
X046425Y027016D01*
X046414Y027021D01*
X046403Y027027D01*
X046392Y027035D01*
X046381Y027044D01*
X04637Y027054D01*
X046361Y027065D01*
X046361Y027066D01*
X04636Y027067D01*
X046358Y02707D01*
X046356Y027074D01*
X046353Y027078D01*
X04635Y027084D01*
X046347Y02709D01*
X046344Y027097D01*
X04634Y027105D01*
X046337Y027114D01*
X046334Y027123D01*
X046331Y027133D01*
X046329Y027144D01*
X046327Y027155D01*
X046326Y027167D01*
X046326Y027179D01*
Y027179D01*
Y027181D01*
Y027184D01*
X046326Y027187D01*
Y027192D01*
X046327Y027198D01*
X046328Y027204D01*
X046328Y027211D01*
X046332Y027225D01*
X046336Y027242D01*
X046342Y027259D01*
X046345Y027268D01*
X046349Y027276D01*
X04635Y027276D01*
X04635Y027278D01*
X046351Y02728D01*
X046354Y027283D01*
X046356Y027287D01*
X046359Y027291D01*
X046366Y027301D01*
X046375Y027312D01*
X046386Y027323D01*
X046399Y027335D01*
X046414Y027345D01*
X046414Y027345D01*
X046415Y027346D01*
X046418Y027347D01*
X046421Y027348D01*
X046424Y02735D01*
X046429Y027352D01*
X046434Y027354D01*
X04644Y027357D01*
X046447Y027359D01*
X046454Y027361D01*
X046469Y027365D01*
X046486Y027368D01*
X046495Y027369D01*
X046507D01*
X04651Y027369D01*
X046514D01*
X046518Y027368D01*
X046527Y027367D01*
X046539Y027364D01*
X046551Y027361D01*
X046565Y027357D01*
X046578Y02735D01*
X046579D01*
X04658Y027349D01*
X046582Y027348D01*
X046584Y027347D01*
X04659Y027346D01*
X046592Y027345D01*
X046595D01*
X046599Y027345D01*
X046603Y027347D01*
X046606Y027349D01*
X046607Y02735D01*
X046607Y027351D01*
X046609Y027352D01*
X04661Y027354D01*
X046612Y027358D01*
X046613Y027361D01*
X046615Y027365D01*
X046616Y027369D01*
X046626D01*
X046634Y02725D01*
D02*
G37*
G36*
X046831Y027351D02*
X046821D01*
X046815Y027351D01*
X046802Y027349D01*
X046796Y027347D01*
X046791Y027346D01*
X04679D01*
X046789Y027345D01*
X046787Y027343D01*
X046785Y027342D01*
X04678Y027337D01*
X046778Y027335D01*
X046776Y027332D01*
Y027331D01*
X046775Y02733D01*
X046774Y027328D01*
X046774Y027324D01*
X046773Y027319D01*
X046772Y027312D01*
X046772Y027304D01*
Y027293D01*
Y027071D01*
Y02707D01*
Y027068D01*
Y027064D01*
X046772Y027059D01*
X046773Y027049D01*
X046774Y027045D01*
X046776Y027041D01*
X046776Y02704D01*
X046778Y027038D01*
X046781Y027035D01*
X046785Y027033D01*
X046786D01*
X046787Y027032D01*
X046789D01*
X046793Y027032D01*
X046798Y027031D01*
X046805D01*
X046809Y027031D01*
X046861D01*
X046865Y027031D01*
X046874D01*
X046883Y027032D01*
X046892Y027033D01*
X046901Y027034D01*
X046905Y027035D01*
X046908Y027036D01*
X046909Y027037D01*
X046911Y027037D01*
X046914Y027039D01*
X046918Y027041D01*
X046923Y027044D01*
X046928Y027048D01*
X046933Y027052D01*
X046938Y027057D01*
X046939Y027058D01*
X04694Y02706D01*
X046943Y027064D01*
X046947Y027069D01*
X046951Y027076D01*
X046956Y027084D01*
X046961Y027094D01*
X046966Y027106D01*
X046974Y027104D01*
X046944Y027008D01*
X046672D01*
Y027018D01*
X046689D01*
X046693Y027019D01*
X046697Y02702D01*
X046702Y027021D01*
X046707Y027024D01*
X046712Y027027D01*
X046717Y027032D01*
Y027033D01*
X046718Y027034D01*
X046718Y027037D01*
X046719Y02704D01*
X04672Y027045D01*
X046721Y027052D01*
X046722Y02706D01*
Y02707D01*
Y027299D01*
Y027299D01*
Y0273D01*
Y027302D01*
Y027304D01*
X046722Y02731D01*
X046721Y027316D01*
X04672Y027323D01*
X046719Y02733D01*
X046717Y027336D01*
X046716Y027338D01*
X046714Y02734D01*
X046714Y02734D01*
X046713Y027341D01*
X04671Y027343D01*
X046707Y027346D01*
X046703Y027347D01*
X046698Y027349D01*
X046692Y027351D01*
X046685Y027351D01*
X046672D01*
Y027361D01*
X046831D01*
Y027351D01*
D02*
G37*
G36*
X046554Y0283D02*
X046546D01*
Y0283D01*
X046546Y028302D01*
X046545Y028304D01*
X046543Y028308D01*
X046541Y028313D01*
X04654Y028318D01*
X046534Y028329D01*
X046528Y028342D01*
X04652Y028355D01*
X04651Y028367D01*
X046505Y028372D01*
X0465Y028377D01*
X046499Y028377D01*
X046499Y028378D01*
X046497Y028379D01*
X046494Y02838D01*
X046492Y028382D01*
X046488Y028384D01*
X04648Y028389D01*
X04647Y028393D01*
X046457Y028397D01*
X046444Y028399D01*
X046436Y028401D01*
X046423D01*
X04642Y0284D01*
X046416Y028399D01*
X046408Y028398D01*
X046398Y028396D01*
X046387Y028393D01*
X046376Y028389D01*
X046365Y028383D01*
X046365D01*
X046364Y028381D01*
X046361Y028379D01*
X046356Y028375D01*
X04635Y028369D01*
X046343Y028361D01*
X046335Y028351D01*
X046328Y028339D01*
X046321Y028325D01*
Y028325D01*
X046321Y028324D01*
X04632Y028321D01*
X046319Y028318D01*
X046317Y028314D01*
X046316Y02831D01*
X046315Y028304D01*
X046314Y028298D01*
X046312Y028292D01*
X04631Y028285D01*
X046309Y028277D01*
X046308Y028268D01*
X046307Y028259D01*
X046306Y028249D01*
X046305Y028229D01*
Y028228D01*
Y028226D01*
Y028224D01*
Y02822D01*
X046306Y028217D01*
Y028212D01*
X046307Y028206D01*
X046307Y0282D01*
X046309Y028187D01*
X046311Y028173D01*
X046315Y028159D01*
X04632Y028145D01*
Y028144D01*
X046321Y028143D01*
X046322Y028142D01*
X046323Y02814D01*
X046327Y028133D01*
X046332Y028125D01*
X046338Y028117D01*
X046346Y028108D01*
X046355Y028099D01*
X046366Y028091D01*
X046367D01*
X046368Y028091D01*
X046369Y02809D01*
X046371Y028089D01*
X046374Y028087D01*
X046378Y028085D01*
X046387Y028082D01*
X046397Y028079D01*
X046409Y028076D01*
X046422Y028073D01*
X046436Y028073D01*
X046442D01*
X046445Y028073D01*
X046448D01*
X046457Y028075D01*
X046466Y028076D01*
X046476Y028079D01*
X046487Y028082D01*
X046497Y028087D01*
X046497D01*
X046498Y028088D01*
X046499Y028089D01*
X046501Y02809D01*
X046506Y028094D01*
X046513Y0281D01*
X046518Y028104D01*
X046522Y028108D01*
X046527Y028113D01*
X046532Y028118D01*
X046537Y028124D01*
X046543Y028131D01*
X046548Y028138D01*
X046554Y028146D01*
X046563Y028141D01*
X046562Y02814D01*
X046562Y028138D01*
X04656Y028136D01*
X046558Y028133D01*
X046556Y028129D01*
X046552Y028124D01*
X046545Y028114D01*
X046536Y028103D01*
X046525Y028091D01*
X046513Y028081D01*
X046507Y028076D01*
X0465Y028071D01*
X0465D01*
X046499Y02807D01*
X046497Y028069D01*
X046494Y028068D01*
X046491Y028066D01*
X046487Y028065D01*
X046482Y028063D01*
X046477Y028061D01*
X046471Y028059D01*
X046465Y028057D01*
X04645Y028053D01*
X046434Y028051D01*
X046417Y02805D01*
X046413D01*
X046409Y028051D01*
X046403Y028051D01*
X046395Y028052D01*
X046387Y028053D01*
X046378Y028055D01*
X046367Y028058D01*
X046356Y028061D01*
X046345Y028066D01*
X046334Y028071D01*
X046323Y028077D01*
X046312Y028085D01*
X046301Y028094D01*
X046291Y028104D01*
X046281Y028115D01*
X046281Y028116D01*
X04628Y028117D01*
X046278Y02812D01*
X046276Y028124D01*
X046273Y028128D01*
X04627Y028134D01*
X046267Y02814D01*
X046264Y028147D01*
X04626Y028155D01*
X046257Y028164D01*
X046254Y028173D01*
X046251Y028183D01*
X046249Y028194D01*
X046248Y028205D01*
X046246Y028217D01*
X046246Y028229D01*
Y028229D01*
Y028231D01*
Y028234D01*
X046246Y028237D01*
Y028242D01*
X046247Y028248D01*
X046248Y028254D01*
X046249Y028261D01*
X046252Y028275D01*
X046256Y028292D01*
X046262Y028309D01*
X046265Y028318D01*
X046269Y028326D01*
X04627Y028326D01*
X04627Y028328D01*
X046272Y02833D01*
X046274Y028333D01*
X046276Y028337D01*
X046279Y028341D01*
X046286Y028351D01*
X046296Y028362D01*
X046307Y028373D01*
X046319Y028385D01*
X046334Y028395D01*
X046334Y028395D01*
X046335Y028396D01*
X046338Y028397D01*
X046341Y028398D01*
X046345Y0284D01*
X04635Y028402D01*
X046355Y028404D01*
X046361Y028407D01*
X046367Y028409D01*
X046374Y028411D01*
X04639Y028415D01*
X046406Y028418D01*
X046415Y028419D01*
X046428D01*
X04643Y028419D01*
X046434D01*
X046438Y028418D01*
X046447Y028417D01*
X046459Y028414D01*
X046471Y028411D01*
X046485Y028407D01*
X046499Y0284D01*
X046499D01*
X0465Y028399D01*
X046503Y028398D01*
X046505Y028397D01*
X04651Y028396D01*
X046512Y028395D01*
X046516D01*
X046519Y028395D01*
X046523Y028397D01*
X046527Y028399D01*
X046527Y0284D01*
X046528Y028401D01*
X046529Y028402D01*
X04653Y028404D01*
X046532Y028408D01*
X046534Y028411D01*
X046535Y028415D01*
X046536Y028419D01*
X046546D01*
X046554Y0283D01*
D02*
G37*
G36*
X046954Y028401D02*
X046939D01*
X046937Y028401D01*
X046934D01*
X046926Y028398D01*
X046922Y028397D01*
X046918Y028395D01*
X046918D01*
X046916Y028395D01*
X046913Y028392D01*
X046909Y028388D01*
X046908Y028385D01*
X046907Y028383D01*
Y028382D01*
X046906Y028381D01*
X046905Y028379D01*
Y028375D01*
X046905Y02837D01*
X046904Y028365D01*
X046904Y028357D01*
Y028349D01*
Y02812D01*
Y02812D01*
Y028119D01*
Y028116D01*
Y028112D01*
X046904Y028106D01*
Y0281D01*
X046905Y028094D01*
X046906Y028089D01*
X046907Y028085D01*
X046908Y028084D01*
X046909Y028081D01*
X046913Y028078D01*
X046915Y028076D01*
X046918Y028074D01*
X046918D01*
X04692Y028073D01*
X046922Y028072D01*
X046925Y028071D01*
X046928Y02807D01*
X046932Y028069D01*
X046937Y028069D01*
X046942Y028068D01*
X046954D01*
Y028058D01*
X046804D01*
Y028068D01*
X04682D01*
X046824Y028069D01*
X046828Y02807D01*
X046833Y028071D01*
X046838Y028073D01*
X046843Y028076D01*
X046848Y028081D01*
X046848Y028081D01*
X046849Y028082D01*
X04685Y028085D01*
X046851Y028089D01*
X046852Y028094D01*
X046853Y028101D01*
X046854Y02811D01*
Y028115D01*
Y02812D01*
Y028228D01*
X04669D01*
Y02812D01*
Y02812D01*
Y028119D01*
Y028116D01*
Y028112D01*
X046691Y028106D01*
Y0281D01*
X046692Y028094D01*
X046693Y028089D01*
X046694Y028085D01*
X046694Y028084D01*
X046696Y028081D01*
X046699Y028078D01*
X046701Y028076D01*
X046704Y028074D01*
X046705D01*
X046706Y028073D01*
X046708Y028072D01*
X046711Y028071D01*
X046715Y02807D01*
X046719Y028069D01*
X046723Y028069D01*
X046727Y028068D01*
X046741D01*
Y028058D01*
X04659D01*
Y028068D01*
X046606D01*
X04661Y028069D01*
X046614Y02807D01*
X04662Y028071D01*
X046625Y028073D01*
X04663Y028076D01*
X046634Y028081D01*
X046635Y028081D01*
X046635Y028082D01*
X046636Y028085D01*
X046637Y028089D01*
X046638Y028094D01*
X04664Y028101D01*
X046641Y02811D01*
Y028115D01*
Y02812D01*
Y028349D01*
Y028349D01*
Y02835D01*
Y028353D01*
Y028357D01*
X04664Y028363D01*
X04664Y028369D01*
X046639Y028374D01*
X046638Y02838D01*
X046637Y028384D01*
Y028384D01*
X046636Y028385D01*
X046635Y028387D01*
X046631Y028391D01*
X046629Y028393D01*
X046626Y028395D01*
X046626Y028395D01*
X046624Y028396D01*
X046622Y028397D01*
X046619Y028398D01*
X046616Y028399D01*
X046612Y0284D01*
X046607Y028401D01*
X04659D01*
Y028411D01*
X046741D01*
Y028401D01*
X046725D01*
X046723Y028401D01*
X04672D01*
X046713Y028398D01*
X046708Y028397D01*
X046704Y028395D01*
X046703D01*
X046703Y028395D01*
X0467Y028392D01*
X046696Y028388D01*
X046693Y028383D01*
Y028382D01*
X046693Y028381D01*
X046692Y028379D01*
Y028375D01*
X046691Y02837D01*
X046691Y028365D01*
X04669Y028357D01*
Y028349D01*
Y028247D01*
X046854D01*
Y028349D01*
Y028349D01*
Y02835D01*
Y028353D01*
Y028357D01*
X046854Y028363D01*
X046853Y028369D01*
X046853Y028374D01*
X046851Y02838D01*
X04685Y028384D01*
Y028384D01*
X04685Y028385D01*
X046848Y028387D01*
X046845Y028391D01*
X046842Y028393D01*
X046839Y028395D01*
X046839Y028395D01*
X046838Y028396D01*
X046835Y028397D01*
X046832Y028398D01*
X046829Y028399D01*
X046825Y0284D01*
X04682Y028401D01*
X046804D01*
Y028411D01*
X046954D01*
Y028401D01*
D02*
G37*
G36*
X046558Y029402D02*
X046568D01*
X046579Y029401D01*
X04659Y0294D01*
X046601Y029398D01*
X046612Y029396D01*
X046612D01*
X046613Y029396D01*
X046616Y029395D01*
X046618Y029395D01*
X046622Y029393D01*
X046625Y029392D01*
X046634Y029389D01*
X046643Y029384D01*
X046653Y029378D01*
X046662Y029371D01*
X046671Y029363D01*
X046672Y029362D01*
X046674Y029358D01*
X046678Y029354D01*
X046682Y029347D01*
X046685Y029339D01*
X046689Y02933D01*
X046691Y02932D01*
X046692Y029308D01*
Y029308D01*
Y029307D01*
Y029304D01*
X046691Y029299D01*
X04669Y029292D01*
X046688Y029285D01*
X046685Y029277D01*
X046681Y029269D01*
X046676Y029261D01*
X046675Y02926D01*
X046672Y029257D01*
X046669Y029254D01*
X046664Y029249D01*
X046657Y029244D01*
X046649Y029239D01*
X046639Y029235D01*
X046628Y02923D01*
X046629D01*
X04663Y02923D01*
X046631Y029229D01*
X046634Y029229D01*
X046641Y029227D01*
X046649Y029224D01*
X046658Y02922D01*
X046666Y029216D01*
X046675Y029211D01*
X046683Y029205D01*
X046683D01*
X046684Y029204D01*
X046687Y029201D01*
X046691Y029196D01*
X046696Y029189D01*
X0467Y02918D01*
X046705Y02917D01*
X046707Y029159D01*
X046708Y029153D01*
Y029147D01*
Y029146D01*
Y029146D01*
Y029142D01*
X046707Y029137D01*
X046706Y02913D01*
X046704Y029123D01*
X046701Y029114D01*
X046697Y029105D01*
X046691Y029096D01*
X046691Y029095D01*
X046689Y029092D01*
X046685Y029088D01*
X046679Y029083D01*
X046673Y029077D01*
X046665Y029071D01*
X046656Y029066D01*
X046646Y029061D01*
X046646D01*
X046645Y02906D01*
X046643Y02906D01*
X046641Y029059D01*
X046637Y029058D01*
X046634Y029058D01*
X046629Y029057D01*
X046624Y029055D01*
X046618Y029054D01*
X046612Y029053D01*
X046605Y029053D01*
X046596Y029052D01*
X046588Y029051D01*
X046578Y029051D01*
X046569Y02905D01*
X046392D01*
Y02906D01*
X046408D01*
X046412Y02906D01*
X046416Y029061D01*
X046422Y029063D01*
X046427Y029066D01*
X046432Y029069D01*
X046436Y029073D01*
X046436Y029074D01*
X046437Y029076D01*
X046438Y029078D01*
X046439Y029082D01*
X04644Y029087D01*
X046441Y029094D01*
X046442Y029102D01*
Y029112D01*
Y02934D01*
Y029341D01*
Y029342D01*
Y029344D01*
Y029346D01*
X046441Y029351D01*
X046441Y029358D01*
X04644Y029365D01*
X046439Y029372D01*
X046437Y029377D01*
X046435Y02938D01*
X046434Y029381D01*
X046434Y029382D01*
X046433Y029383D01*
X04643Y029385D01*
X046427Y029387D01*
X046423Y029389D01*
X046417Y029391D01*
X046411Y029392D01*
X046404Y029393D01*
X046392D01*
Y029403D01*
X046554D01*
X046558Y029402D01*
D02*
G37*
G36*
X046522Y030402D02*
X046528D01*
X046534Y030402D01*
X046548Y030401D01*
X046561Y030399D01*
X046574Y030397D01*
X04658Y030396D01*
X046585Y030394D01*
X046586D01*
X046586Y030393D01*
X04659Y030392D01*
X046595Y03039D01*
X046601Y030387D01*
X046608Y030383D01*
X046616Y030378D01*
X046623Y030372D01*
X046631Y030364D01*
X046631Y030363D01*
X046633Y03036D01*
X046637Y030355D01*
X04664Y030349D01*
X046643Y030342D01*
X046646Y030333D01*
X046649Y030322D01*
X046649Y030312D01*
Y030311D01*
Y03031D01*
Y030308D01*
X046649Y030306D01*
X046648Y0303D01*
X046646Y030292D01*
X046644Y030284D01*
X04664Y030274D01*
X046635Y030265D01*
X046628Y030255D01*
X046627Y030254D01*
X046624Y030251D01*
X046619Y030247D01*
X046611Y030242D01*
X046603Y030237D01*
X046591Y030231D01*
X046578Y030226D01*
X046562Y030221D01*
X046635Y03012D01*
X046636Y03012D01*
X046637Y030119D01*
X046638Y030117D01*
X04664Y030115D01*
X046644Y030109D01*
X04665Y030101D01*
X046657Y030094D01*
X046664Y030086D01*
X046671Y030079D01*
X046675Y030076D01*
X046678Y030074D01*
X046679Y030073D01*
X046681Y030072D01*
X046685Y03007D01*
X046691Y030068D01*
X046698Y030065D01*
X046705Y030063D01*
X046715Y030061D01*
X046725Y03006D01*
Y03005D01*
X046631D01*
X046511Y030215D01*
X046503D01*
X046496Y030214D01*
X046478D01*
X046475Y030215D01*
Y030112D01*
Y030112D01*
Y030111D01*
Y030109D01*
Y030107D01*
X046475Y030101D01*
X046476Y030095D01*
X046477Y030088D01*
X046478Y030081D01*
X04648Y030075D01*
X046481Y030072D01*
X046482Y030071D01*
X046483Y03007D01*
X046484Y030069D01*
X046486Y030067D01*
X04649Y030065D01*
X046493Y030063D01*
X046498Y030061D01*
X046504Y03006D01*
X046512Y03006D01*
X046525D01*
Y03005D01*
X046375D01*
Y03006D01*
X046392D01*
X046396Y03006D01*
X0464Y030061D01*
X046406Y030063D01*
X04641Y030066D01*
X046415Y030069D01*
X04642Y030074D01*
Y030075D01*
X046421Y030076D01*
X046421Y030078D01*
X046423Y030082D01*
X046424Y030087D01*
X046424Y030094D01*
X046425Y030102D01*
Y030112D01*
Y03034D01*
Y030341D01*
Y030342D01*
Y030344D01*
Y030346D01*
X046425Y030351D01*
X046424Y030358D01*
X046424Y030365D01*
X046422Y030372D01*
X04642Y030378D01*
X046419Y03038D01*
X046418Y030381D01*
X046417Y030382D01*
X046416Y030383D01*
X046413Y030385D01*
X04641Y030387D01*
X046406Y030389D01*
X046401Y030391D01*
X046395Y030392D01*
X046388Y030393D01*
X046375D01*
Y030403D01*
X046516D01*
X046522Y030402D01*
D02*
G37*
G36*
X046688Y031308D02*
X046678D01*
Y031308D01*
X046677Y031309D01*
X046676Y031312D01*
X046675Y031314D01*
X046674Y031318D01*
X046673Y031322D01*
X046668Y031331D01*
X046663Y031341D01*
X046657Y031351D01*
X04665Y031361D01*
X046643Y03137D01*
X046642Y03137D01*
X046641Y031371D01*
X046639Y031373D01*
X046637Y031375D01*
X046634Y031377D01*
X04663Y03138D01*
X046626Y031383D01*
X046621Y031385D01*
X046615Y031388D01*
X046609Y031391D01*
X046595Y031396D01*
X046579Y031399D01*
X046571Y0314D01*
X046562Y031401D01*
X046559D01*
X046555Y0314D01*
X046551D01*
X046545Y031399D01*
X046539Y031398D01*
X046532Y031396D01*
X046524Y031394D01*
X046516Y031391D01*
X046507Y031387D01*
X046499Y031383D01*
X04649Y031378D01*
X046482Y031372D01*
X046474Y031365D01*
X046467Y031356D01*
X04646Y031347D01*
X046459Y031346D01*
X046459Y031345D01*
X046457Y031343D01*
X046455Y031339D01*
X046453Y031334D01*
X04645Y03133D01*
X046448Y031324D01*
X046445Y031316D01*
X046443Y031309D01*
X04644Y031301D01*
X046437Y031292D01*
X046435Y031283D01*
X046433Y031273D01*
X046432Y031262D01*
X046431Y031251D01*
X046431Y031239D01*
Y031239D01*
Y031237D01*
Y031235D01*
X046431Y031231D01*
Y031226D01*
X046432Y031221D01*
X046432Y031215D01*
X046433Y031209D01*
X046436Y031195D01*
X046439Y031179D01*
X046443Y031164D01*
X04645Y031148D01*
Y031147D01*
X046451Y031146D01*
X046452Y031144D01*
X046454Y031141D01*
X046455Y031137D01*
X046457Y031134D01*
X046463Y031125D01*
X046471Y031114D01*
X046479Y031105D01*
X04649Y031095D01*
X046501Y031087D01*
X046501D01*
X046502Y031086D01*
X046504Y031085D01*
X046506Y031084D01*
X046509Y031082D01*
X046513Y031081D01*
X046521Y031077D01*
X046531Y031073D01*
X046542Y031071D01*
X046553Y031069D01*
X046566Y031067D01*
X046569D01*
X046573Y031068D01*
X046578D01*
X046584Y031069D01*
X04659Y03107D01*
X046603Y031072D01*
X046604D01*
X046607Y031073D01*
X04661Y031075D01*
X046615Y031076D01*
X04662Y031078D01*
X046626Y031081D01*
X046639Y031087D01*
Y03119D01*
Y03119D01*
Y031191D01*
Y031194D01*
Y031199D01*
X046638Y031204D01*
X046638Y03121D01*
X046637Y031215D01*
X046636Y03122D01*
X046634Y031224D01*
Y031225D01*
X046634Y031226D01*
X046632Y031229D01*
X046627Y031233D01*
X046622Y031237D01*
X046621D01*
X04662Y031237D01*
X046618Y031238D01*
X046615Y031239D01*
X046611Y03124D01*
X046606Y031241D01*
X0466Y031241D01*
X046592D01*
Y031251D01*
X046729D01*
Y031241D01*
X046719D01*
X046716Y031241D01*
X046711Y031239D01*
X046706Y031238D01*
X046702Y031235D01*
X046698Y031232D01*
X046694Y031227D01*
Y031227D01*
X046694Y031225D01*
X046693Y031223D01*
X046692Y031219D01*
X046691Y031214D01*
X04669Y031207D01*
X04669Y0312D01*
Y03119D01*
Y031081D01*
X046689D01*
X046688Y031081D01*
X046687Y031079D01*
X046685Y031078D01*
X046679Y031076D01*
X046671Y031072D01*
X046662Y031068D01*
X046652Y031064D01*
X046641Y031061D01*
X04663Y031058D01*
X046629D01*
X046629Y031057D01*
X046627D01*
X046625Y031057D01*
X046622Y031056D01*
X046619Y031055D01*
X046611Y031054D01*
X046602Y031052D01*
X046591Y031051D01*
X046579Y031051D01*
X046566Y03105D01*
X046561D01*
X046556Y031051D01*
X046549Y031051D01*
X04654Y031052D01*
X046531Y031053D01*
X04652Y031055D01*
X046508Y031058D01*
X046496Y031061D01*
X046483Y031066D01*
X04647Y031071D01*
X046457Y031078D01*
X046444Y031085D01*
X046432Y031094D01*
X046421Y031104D01*
X04641Y031116D01*
X04641Y031116D01*
X046409Y031118D01*
X046407Y03112D01*
X046404Y031124D01*
X046401Y031129D01*
X046398Y031135D01*
X046395Y031141D01*
X046391Y031148D01*
X046387Y031156D01*
X046384Y031165D01*
X04638Y031174D01*
X046377Y031184D01*
X046375Y031194D01*
X046373Y031206D01*
X046372Y031217D01*
X046371Y031229D01*
Y031229D01*
Y031231D01*
Y031233D01*
X046372Y031237D01*
Y031241D01*
X046372Y031245D01*
X046373Y031251D01*
X046374Y031257D01*
X046377Y031271D01*
X04638Y031286D01*
X046386Y031302D01*
X046393Y031318D01*
X046394Y031319D01*
X046394Y03132D01*
X046396Y031323D01*
X046398Y031326D01*
X046401Y031331D01*
X046404Y031336D01*
X046408Y031341D01*
X046412Y031347D01*
X046423Y03136D01*
X046435Y031373D01*
X046449Y031385D01*
X046457Y031391D01*
X046466Y031396D01*
X046466Y031397D01*
X046467Y031397D01*
X046469Y031398D01*
X046473Y0314D01*
X046476Y031402D01*
X046481Y031403D01*
X046486Y031405D01*
X046492Y031408D01*
X046498Y03141D01*
X046505Y031412D01*
X04652Y031415D01*
X046538Y031418D01*
X046557Y031419D01*
X046564D01*
X046569Y031419D01*
X046574D01*
X04658Y031418D01*
X046592Y031416D01*
X046592D01*
X046595Y031415D01*
X046598Y031414D01*
X046603Y031413D01*
X04661Y031411D01*
X046617Y031409D01*
X046626Y031406D01*
X046637Y031402D01*
X046637D01*
X046639Y031401D01*
X046641Y031401D01*
X046644Y031399D01*
X046651Y031398D01*
X046653Y031397D01*
X046657D01*
X046658Y031397D01*
X046661Y031398D01*
X046664Y031401D01*
X046664Y031402D01*
X046665Y031403D01*
X046666Y031405D01*
X046667Y031408D01*
X046668Y03141D01*
X046668Y031414D01*
X046669Y031419D01*
X046679D01*
X046688Y031308D01*
D02*
G37*
%LPC*%
G36*
X04261Y023063D02*
X042605D01*
X042601Y023063D01*
X042597Y023062D01*
X042592Y023061D01*
X042587Y02306D01*
X042581Y023059D01*
X042574Y023056D01*
X042567Y023054D01*
X042561Y023051D01*
X042554Y023047D01*
X042547Y023043D01*
X04254Y023037D01*
X042534Y023031D01*
X042528Y023025D01*
X042527Y023024D01*
X042526Y023023D01*
X042524Y02302D01*
X042523Y023017D01*
X04252Y023013D01*
X042517Y023008D01*
X042515Y023002D01*
X042511Y022995D01*
X042508Y022987D01*
X042505Y022978D01*
X042502Y022968D01*
X0425Y022957D01*
X042498Y022944D01*
X042496Y022932D01*
X042495Y022918D01*
X042495Y022902D01*
Y022901D01*
Y022899D01*
Y022894D01*
X042495Y022888D01*
X042496Y02288D01*
X042496Y022871D01*
X042498Y022862D01*
X042499Y022852D01*
X042504Y022829D01*
X042506Y022818D01*
X04251Y022807D01*
X042514Y022796D01*
X042519Y022786D01*
X042524Y022776D01*
X042531Y022767D01*
X042531Y022766D01*
X042532Y022765D01*
X042534Y022764D01*
X042536Y022762D01*
X042539Y022759D01*
X042542Y022756D01*
X042547Y022753D01*
X042551Y022749D01*
X042557Y022746D01*
X042563Y022743D01*
X042569Y02274D01*
X042576Y022737D01*
X042584Y022735D01*
X042591Y022733D01*
X0426Y022732D01*
X04261Y022732D01*
X042614D01*
X042617Y022732D01*
X042622Y022733D01*
X042626Y022733D01*
X042637Y022736D01*
X042649Y02274D01*
X042655Y022743D01*
X042661Y022746D01*
X042668Y022751D01*
X042674Y022756D01*
X04268Y022761D01*
X042685Y022767D01*
X042686Y022768D01*
X042687Y022769D01*
X042689Y022771D01*
X042691Y022775D01*
X042694Y02278D01*
X042697Y022785D01*
X0427Y022792D01*
X042703Y022799D01*
X042707Y022808D01*
X042709Y022817D01*
X042713Y022828D01*
X042715Y02284D01*
X042718Y022852D01*
X042719Y022865D01*
X04272Y02288D01*
X042721Y022895D01*
Y022896D01*
Y022899D01*
Y022903D01*
X04272Y02291D01*
X04272Y022917D01*
X042719Y022925D01*
X042718Y022934D01*
X042717Y022944D01*
X042714Y022955D01*
X042712Y022966D01*
X042709Y022977D01*
X042706Y022988D01*
X042701Y022999D01*
X042696Y023009D01*
X042691Y023019D01*
X042684Y023029D01*
X042684Y023029D01*
X042683Y02303D01*
X042682Y023032D01*
X042679Y023034D01*
X042676Y023037D01*
X042673Y023039D01*
X042669Y023043D01*
X042664Y023046D01*
X042654Y023053D01*
X042641Y023058D01*
X042634Y02306D01*
X042626Y023062D01*
X042618Y023063D01*
X04261Y023063D01*
D02*
G37*
G36*
X046502Y035001D02*
X046499D01*
X046496Y035D01*
X046491Y034999D01*
X046487Y034997D01*
X046482Y034994D01*
X046476Y03499D01*
X046471Y034985D01*
X04647Y034984D01*
X046467Y034981D01*
X046464Y034975D01*
X04646Y034968D01*
X046458Y034964D01*
X046456Y034959D01*
X046454Y034953D01*
X046452Y034947D01*
X04645Y03494D01*
X046448Y034933D01*
X046447Y034925D01*
X046445Y034917D01*
Y034916D01*
Y034915D01*
X046444Y034913D01*
X046444Y034909D01*
X046443Y034905D01*
X046443Y0349D01*
X046442Y034895D01*
X046442Y034888D01*
X046441Y034874D01*
X04644Y034859D01*
X046439Y034843D01*
X046438Y034826D01*
Y034825D01*
Y034823D01*
Y034819D01*
X046439Y034814D01*
Y034808D01*
X04644Y0348D01*
X04644Y034793D01*
X046441Y034784D01*
X046443Y034765D01*
X046446Y034745D01*
X04645Y034725D01*
X046453Y034716D01*
X046456Y034707D01*
Y034706D01*
X046457Y034705D01*
X046458Y034704D01*
X046459Y034701D01*
X046462Y034695D01*
X046467Y034688D01*
X046474Y034681D01*
X046482Y034675D01*
X046486Y034672D01*
X04649Y03467D01*
X046495Y034669D01*
X046501Y034669D01*
X046503D01*
X046506Y034669D01*
X046509Y03467D01*
X046514Y034672D01*
X046519Y034674D01*
X046524Y034677D01*
X04653Y034681D01*
X04653Y034682D01*
X046532Y034683D01*
X046535Y034687D01*
X046538Y034691D01*
X046542Y034697D01*
X046546Y034704D01*
X04655Y034713D01*
X046553Y034723D01*
Y034724D01*
X046554Y034725D01*
X046554Y034728D01*
X046555Y034731D01*
X046556Y034736D01*
X046557Y034742D01*
X046558Y034748D01*
X046559Y034756D01*
X04656Y034764D01*
X046561Y034773D01*
X046562Y034784D01*
X046564Y034795D01*
X046564Y034807D01*
X046565Y03482D01*
X046565Y034835D01*
Y034849D01*
Y03485D01*
Y034852D01*
Y034855D01*
Y034859D01*
X046565Y034865D01*
Y034871D01*
X046564Y034877D01*
X046564Y034884D01*
X046562Y0349D01*
X04656Y034917D01*
X046557Y034934D01*
X046553Y03495D01*
Y03495D01*
X046552Y034951D01*
X046551Y034952D01*
X046551Y034955D01*
X046549Y03496D01*
X046546Y034966D01*
X046542Y034973D01*
X046538Y03498D01*
X046533Y034987D01*
X046528Y034992D01*
X046527Y034993D01*
X046526Y034994D01*
X046524Y034995D01*
X046521Y034997D01*
X046517Y034998D01*
X046513Y035D01*
X046508Y035001D01*
X046502Y035001D01*
D02*
G37*
G36*
X039621Y021501D02*
X039617D01*
X039614Y0215D01*
X03961Y021499D01*
X039605Y021497D01*
X0396Y021494D01*
X039594Y02149D01*
X039589Y021485D01*
X039588Y021484D01*
X039586Y021481D01*
X039582Y021475D01*
X039579Y021468D01*
X039576Y021464D01*
X039574Y021459D01*
X039572Y021453D01*
X03957Y021447D01*
X039568Y02144D01*
X039566Y021433D01*
X039565Y021425D01*
X039563Y021417D01*
Y021416D01*
Y021415D01*
X039563Y021413D01*
X039562Y021409D01*
X039562Y021405D01*
X039561Y0214D01*
X03956Y021395D01*
X03956Y021388D01*
X039559Y021374D01*
X039558Y021359D01*
X039557Y021343D01*
X039557Y021326D01*
Y021325D01*
Y021323D01*
Y021319D01*
X039557Y021314D01*
Y021308D01*
X039558Y0213D01*
X039558Y021293D01*
X039559Y021284D01*
X039561Y021265D01*
X039564Y021245D01*
X039569Y021225D01*
X039571Y021216D01*
X039575Y021207D01*
Y021206D01*
X039575Y021205D01*
X039576Y021204D01*
X039577Y021201D01*
X039581Y021195D01*
X039586Y021188D01*
X039592Y021181D01*
X0396Y021175D01*
X039604Y021172D01*
X039609Y02117D01*
X039613Y021169D01*
X039619Y021169D01*
X039622D01*
X039624Y021169D01*
X039628Y02117D01*
X039632Y021172D01*
X039637Y021174D01*
X039642Y021177D01*
X039648Y021181D01*
X039648Y021182D01*
X039651Y021183D01*
X039653Y021187D01*
X039657Y021191D01*
X03966Y021197D01*
X039664Y021204D01*
X039668Y021213D01*
X039671Y021223D01*
Y021224D01*
X039672Y021225D01*
X039672Y021228D01*
X039673Y021231D01*
X039674Y021236D01*
X039675Y021242D01*
X039676Y021248D01*
X039677Y021256D01*
X039678Y021264D01*
X03968Y021273D01*
X039681Y021284D01*
X039682Y021295D01*
X039682Y021307D01*
X039683Y02132D01*
X039683Y021335D01*
Y021349D01*
Y02135D01*
Y021352D01*
Y021355D01*
Y021359D01*
X039683Y021365D01*
Y021371D01*
X039682Y021377D01*
X039682Y021384D01*
X03968Y0214D01*
X039678Y021417D01*
X039675Y021434D01*
X039671Y02145D01*
Y02145D01*
X03967Y021451D01*
X03967Y021452D01*
X039669Y021455D01*
X039667Y02146D01*
X039664Y021466D01*
X03966Y021473D01*
X039656Y02148D01*
X039652Y021487D01*
X039646Y021492D01*
X039646Y021493D01*
X039644Y021494D01*
X039642Y021495D01*
X039639Y021497D01*
X039635Y021498D01*
X039631Y0215D01*
X039626Y021501D01*
X039621Y021501D01*
D02*
G37*
G36*
X041671D02*
X041667D01*
X041664Y0215D01*
X04166Y021499D01*
X041655Y021497D01*
X04165Y021494D01*
X041644Y02149D01*
X041639Y021485D01*
X041638Y021484D01*
X041636Y021481D01*
X041632Y021475D01*
X041629Y021468D01*
X041626Y021464D01*
X041624Y021459D01*
X041622Y021453D01*
X04162Y021447D01*
X041618Y02144D01*
X041616Y021433D01*
X041615Y021425D01*
X041613Y021417D01*
Y021416D01*
Y021415D01*
X041613Y021413D01*
X041612Y021409D01*
X041612Y021405D01*
X041611Y0214D01*
X041611Y021395D01*
X04161Y021388D01*
X041609Y021374D01*
X041608Y021359D01*
X041607Y021343D01*
X041607Y021326D01*
Y021325D01*
Y021323D01*
Y021319D01*
X041607Y021314D01*
Y021308D01*
X041608Y0213D01*
X041608Y021293D01*
X041609Y021284D01*
X041611Y021265D01*
X041614Y021245D01*
X041619Y021225D01*
X041621Y021216D01*
X041625Y021207D01*
Y021206D01*
X041625Y021205D01*
X041626Y021204D01*
X041628Y021201D01*
X041631Y021195D01*
X041636Y021188D01*
X041642Y021181D01*
X04165Y021175D01*
X041654Y021172D01*
X041659Y02117D01*
X041664Y021169D01*
X041669Y021169D01*
X041672D01*
X041674Y021169D01*
X041678Y02117D01*
X041682Y021172D01*
X041687Y021174D01*
X041692Y021177D01*
X041698Y021181D01*
X041698Y021182D01*
X041701Y021183D01*
X041703Y021187D01*
X041707Y021191D01*
X041711Y021197D01*
X041714Y021204D01*
X041718Y021213D01*
X041721Y021223D01*
Y021224D01*
X041722Y021225D01*
X041723Y021228D01*
X041723Y021231D01*
X041724Y021236D01*
X041725Y021242D01*
X041726Y021248D01*
X041727Y021256D01*
X041729Y021264D01*
X04173Y021273D01*
X041731Y021284D01*
X041732Y021295D01*
X041732Y021307D01*
X041733Y02132D01*
X041733Y021335D01*
Y021349D01*
Y02135D01*
Y021352D01*
Y021355D01*
Y021359D01*
X041733Y021365D01*
Y021371D01*
X041732Y021377D01*
X041732Y021384D01*
X04173Y0214D01*
X041728Y021417D01*
X041725Y021434D01*
X041721Y02145D01*
Y02145D01*
X04172Y021451D01*
X04172Y021452D01*
X041719Y021455D01*
X041717Y02146D01*
X041714Y021466D01*
X041711Y021473D01*
X041706Y02148D01*
X041702Y021487D01*
X041696Y021492D01*
X041696Y021493D01*
X041694Y021494D01*
X041692Y021495D01*
X041689Y021497D01*
X041685Y021498D01*
X041681Y0215D01*
X041676Y021501D01*
X041671Y021501D01*
D02*
G37*
G36*
X04251Y021501D02*
X042506D01*
X042503Y0215D01*
X042498Y021499D01*
X042494Y021499D01*
X042483Y021496D01*
X042471Y021492D01*
X042465Y021489D01*
X042459Y021486D01*
X042452Y021481D01*
X042446Y021477D01*
X04244Y021471D01*
X042434Y021465D01*
X042434Y021465D01*
X042433Y021463D01*
X042431Y021461D01*
X042429Y021457D01*
X042426Y021452D01*
X042423Y021447D01*
X04242Y02144D01*
X042417Y021433D01*
X042413Y021424D01*
X04241Y021415D01*
X042407Y021404D01*
X042404Y021392D01*
X042402Y02138D01*
X042401Y021367D01*
X0424Y021352D01*
X042399Y021337D01*
Y021336D01*
Y021333D01*
Y021329D01*
X0424Y021323D01*
X0424Y021315D01*
X042401Y021307D01*
X042402Y021298D01*
X042403Y021288D01*
X042406Y021277D01*
X042408Y021266D01*
X042411Y021255D01*
X042414Y021244D01*
X042419Y021233D01*
X042424Y021223D01*
X042429Y021213D01*
X042436Y021204D01*
X042436Y021203D01*
X042437Y021202D01*
X042438Y0212D01*
X042441Y021198D01*
X042444Y021195D01*
X042447Y021193D01*
X042451Y021189D01*
X042456Y021186D01*
X042466Y021179D01*
X042479Y021174D01*
X042486Y021172D01*
X042494Y02117D01*
X042502Y021169D01*
X04251Y021169D01*
X042515D01*
X042519Y021169D01*
X042523Y02117D01*
X042528Y021171D01*
X042533Y021172D01*
X042539Y021173D01*
X042546Y021176D01*
X042552Y021178D01*
X042559Y021181D01*
X042566Y021185D01*
X042573Y021189D01*
X04258Y021195D01*
X042586Y021201D01*
X042592Y021207D01*
X042593Y021208D01*
X042594Y021209D01*
X042596Y021212D01*
X042597Y021215D01*
X0426Y021219D01*
X042603Y021224D01*
X042605Y02123D01*
X042609Y021237D01*
X042612Y021245D01*
X042615Y021254D01*
X042617Y021264D01*
X04262Y021275D01*
X042622Y021288D01*
X042623Y0213D01*
X042625Y021314D01*
X042625Y02133D01*
Y021331D01*
Y021333D01*
Y021338D01*
X042625Y021344D01*
X042624Y021352D01*
X042623Y021361D01*
X042622Y02137D01*
X042621Y02138D01*
X042616Y021403D01*
X042614Y021414D01*
X04261Y021425D01*
X042606Y021436D01*
X042601Y021446D01*
X042596Y021456D01*
X042589Y021465D01*
X042588Y021466D01*
X042588Y021467D01*
X042586Y021468D01*
X042584Y02147D01*
X042581Y021473D01*
X042578Y021477D01*
X042573Y021479D01*
X042569Y021483D01*
X042563Y021486D01*
X042557Y021489D01*
X042551Y021492D01*
X042544Y021495D01*
X042536Y021497D01*
X042528Y021499D01*
X04252Y0215D01*
X04251Y021501D01*
D02*
G37*
G36*
X045619Y021337D02*
X045558Y021195D01*
X045678D01*
X045619Y021337D01*
D02*
G37*
G36*
X044792Y021401D02*
X044789D01*
X044786Y0214D01*
X044781Y021399D01*
X044776Y021397D01*
X044771Y021394D01*
X044766Y02139D01*
X04476Y021385D01*
X04476Y021384D01*
X044757Y021381D01*
X044754Y021375D01*
X04475Y021368D01*
X044748Y021364D01*
X044746Y021359D01*
X044743Y021353D01*
X044741Y021347D01*
X04474Y02134D01*
X044738Y021333D01*
X044736Y021325D01*
X044735Y021317D01*
Y021316D01*
Y021315D01*
X044734Y021313D01*
X044734Y021309D01*
X044733Y021305D01*
X044733Y0213D01*
X044732Y021295D01*
X044731Y021288D01*
X04473Y021274D01*
X044729Y021259D01*
X044729Y021243D01*
X044728Y021226D01*
Y021225D01*
Y021223D01*
Y021219D01*
X044729Y021214D01*
Y021208D01*
X044729Y0212D01*
X04473Y021193D01*
X04473Y021184D01*
X044733Y021165D01*
X044736Y021145D01*
X04474Y021125D01*
X044743Y021116D01*
X044746Y021107D01*
Y021106D01*
X044747Y021105D01*
X044748Y021104D01*
X044749Y021101D01*
X044752Y021095D01*
X044757Y021088D01*
X044764Y021081D01*
X044771Y021075D01*
X044776Y021072D01*
X04478Y02107D01*
X044785Y021069D01*
X04479Y021069D01*
X044793D01*
X044796Y021069D01*
X044799Y02107D01*
X044804Y021072D01*
X044808Y021074D01*
X044814Y021077D01*
X044819Y021081D01*
X04482Y021082D01*
X044822Y021083D01*
X044825Y021087D01*
X044828Y021091D01*
X044832Y021097D01*
X044836Y021104D01*
X04484Y021113D01*
X044843Y021123D01*
Y021124D01*
X044843Y021125D01*
X044844Y021128D01*
X044845Y021131D01*
X044846Y021136D01*
X044847Y021142D01*
X044848Y021148D01*
X044849Y021156D01*
X04485Y021164D01*
X044851Y021173D01*
X044852Y021184D01*
X044853Y021195D01*
X044854Y021207D01*
X044854Y02122D01*
X044855Y021235D01*
Y021249D01*
Y02125D01*
Y021252D01*
Y021255D01*
Y021259D01*
X044854Y021265D01*
Y021271D01*
X044854Y021277D01*
X044853Y021284D01*
X044852Y0213D01*
X044849Y021317D01*
X044847Y021334D01*
X044842Y02135D01*
Y02135D01*
X044842Y021351D01*
X044841Y021352D01*
X044841Y021355D01*
X044839Y02136D01*
X044836Y021366D01*
X044832Y021373D01*
X044828Y02138D01*
X044823Y021387D01*
X044818Y021392D01*
X044817Y021393D01*
X044816Y021394D01*
X044813Y021395D01*
X044811Y021397D01*
X044807Y021398D01*
X044802Y0214D01*
X044798Y021401D01*
X044792Y021401D01*
D02*
G37*
G36*
X045548Y023387D02*
X045487Y023245D01*
X045607D01*
X045548Y023387D01*
D02*
G37*
G36*
X044722Y023451D02*
X044719D01*
X044715Y02345D01*
X044711Y023449D01*
X044706Y023447D01*
X044701Y023444D01*
X044696Y02344D01*
X04469Y023435D01*
X04469Y023434D01*
X044687Y023431D01*
X044684Y023425D01*
X04468Y023418D01*
X044678Y023414D01*
X044675Y023409D01*
X044673Y023403D01*
X044671Y023397D01*
X044669Y02339D01*
X044667Y023383D01*
X044666Y023375D01*
X044665Y023367D01*
Y023366D01*
Y023365D01*
X044664Y023363D01*
X044663Y023359D01*
X044663Y023355D01*
X044662Y02335D01*
X044662Y023345D01*
X044661Y023338D01*
X04466Y023324D01*
X044659Y023309D01*
X044658Y023293D01*
X044658Y023276D01*
Y023275D01*
Y023273D01*
Y023269D01*
X044658Y023264D01*
Y023258D01*
X044659Y02325D01*
X04466Y023243D01*
X04466Y023234D01*
X044662Y023215D01*
X044666Y023195D01*
X04467Y023175D01*
X044673Y023166D01*
X044676Y023157D01*
Y023156D01*
X044677Y023155D01*
X044678Y023154D01*
X044679Y023151D01*
X044682Y023145D01*
X044687Y023138D01*
X044693Y023131D01*
X044701Y023125D01*
X044705Y023122D01*
X04471Y02312D01*
X044715Y023119D01*
X04472Y023119D01*
X044723D01*
X044726Y023119D01*
X044729Y02312D01*
X044733Y023122D01*
X044738Y023124D01*
X044744Y023127D01*
X044749Y023131D01*
X04475Y023132D01*
X044752Y023133D01*
X044755Y023137D01*
X044758Y023141D01*
X044762Y023147D01*
X044766Y023154D01*
X044769Y023163D01*
X044773Y023173D01*
Y023174D01*
X044773Y023175D01*
X044774Y023178D01*
X044774Y023181D01*
X044775Y023186D01*
X044776Y023192D01*
X044778Y023198D01*
X044779Y023206D01*
X04478Y023214D01*
X044781Y023223D01*
X044782Y023234D01*
X044783Y023245D01*
X044784Y023257D01*
X044784Y02327D01*
X044785Y023285D01*
Y023299D01*
Y0233D01*
Y023302D01*
Y023305D01*
Y023309D01*
X044784Y023315D01*
Y023321D01*
X044784Y023327D01*
X044783Y023334D01*
X044781Y02335D01*
X044779Y023367D01*
X044776Y023384D01*
X044772Y0234D01*
Y0234D01*
X044772Y023401D01*
X044771Y023402D01*
X04477Y023405D01*
X044768Y02341D01*
X044766Y023416D01*
X044762Y023423D01*
X044757Y02343D01*
X044753Y023437D01*
X044747Y023442D01*
X044747Y023443D01*
X044745Y023444D01*
X044743Y023445D01*
X04474Y023447D01*
X044737Y023448D01*
X044732Y02345D01*
X044727Y023451D01*
X044722Y023451D01*
D02*
G37*
G36*
X046502Y026391D02*
X046496D01*
X046492Y026391D01*
X046486Y02639D01*
X046479Y026389D01*
X046471Y026388D01*
X046462Y026386D01*
Y026239D01*
X046468D01*
X04647Y026239D01*
X046481D01*
X046485Y026239D01*
X046489D01*
X046493Y02624D01*
X046504Y026242D01*
X046516Y026244D01*
X046529Y026248D01*
X046541Y026254D01*
X046546Y026257D01*
X046551Y026261D01*
X046552D01*
X046552Y026262D01*
X046555Y026265D01*
X04656Y026269D01*
X046564Y026276D01*
X046569Y026284D01*
X046573Y026294D01*
X046576Y026304D01*
X046577Y02631D01*
Y026316D01*
Y026317D01*
Y026318D01*
Y02632D01*
X046576Y026322D01*
X046576Y026328D01*
X046574Y026336D01*
X046572Y026344D01*
X046568Y026354D01*
X046563Y026362D01*
X046556Y02637D01*
X046555Y026372D01*
X046552Y026374D01*
X046548Y026377D01*
X046542Y026381D01*
X046534Y026385D01*
X046525Y026388D01*
X046514Y02639D01*
X046502Y026391D01*
D02*
G37*
G36*
X046145Y026337D02*
X046083Y026195D01*
X046204D01*
X046145Y026337D01*
D02*
G37*
G36*
X046547Y029385D02*
X046534D01*
X046529Y029385D01*
X046523D01*
X046516Y029384D01*
X046507Y029383D01*
X0465Y029381D01*
X046492Y029379D01*
Y029244D01*
X046493D01*
X046495Y029244D01*
X046498Y029243D01*
X046501Y029243D01*
X046505D01*
X046513Y029242D01*
X046521D01*
X046525Y029241D01*
X04655D01*
X046554Y029242D01*
X046562Y029242D01*
X046571Y029243D01*
X046581Y029244D01*
X04659Y029246D01*
X046597Y029249D01*
X046599Y029249D01*
X046601Y02925D01*
X046604Y029252D01*
X046608Y029255D01*
X046613Y029259D01*
X046618Y029263D01*
X046623Y029268D01*
X046627Y029274D01*
X046628Y029274D01*
X046629Y029277D01*
X04663Y02928D01*
X046632Y029285D01*
X046634Y02929D01*
X046636Y029296D01*
X046637Y029303D01*
X046637Y02931D01*
Y029311D01*
Y029312D01*
Y029314D01*
X046637Y029316D01*
X046636Y029321D01*
X046634Y029329D01*
X046631Y029337D01*
X046626Y029346D01*
X04662Y029355D01*
X046616Y029359D01*
X046612Y029363D01*
X046611D01*
X046611Y029365D01*
X046609Y029366D01*
X046607Y029367D01*
X046605Y029368D01*
X046601Y029371D01*
X046597Y029372D01*
X046593Y029374D01*
X046588Y029377D01*
X046583Y029378D01*
X046577Y02938D01*
X04657Y029382D01*
X046563Y029383D01*
X046555Y029384D01*
X046547Y029385D01*
D02*
G37*
G36*
X046537Y029223D02*
X046519D01*
X04651Y029222D01*
X046506D01*
X046503Y029221D01*
X046497Y029221D01*
X046492Y02922D01*
Y029075D01*
X046493D01*
X046494Y029075D01*
X046496Y029074D01*
X046502Y029073D01*
X04651Y029072D01*
X046519Y029071D01*
X046529Y02907D01*
X04654Y029069D01*
X046551Y029069D01*
X046555D01*
X046559Y029069D01*
X046563D01*
X046567Y02907D01*
X046578Y029071D01*
X04659Y029073D01*
X046602Y029077D01*
X046613Y029082D01*
X046624Y029089D01*
X046624D01*
X046625Y02909D01*
X046628Y029093D01*
X046632Y029097D01*
X046636Y029104D01*
X046641Y029112D01*
X046645Y02912D01*
X046648Y029131D01*
X046649Y029136D01*
Y029142D01*
Y029143D01*
Y029146D01*
X046648Y029149D01*
X046647Y029154D01*
X046646Y02916D01*
X046644Y029167D01*
X046641Y029174D01*
X046637Y029181D01*
X046636Y029182D01*
X046635Y029184D01*
X046632Y029188D01*
X046628Y029192D01*
X046623Y029197D01*
X046616Y029202D01*
X046608Y029207D01*
X0466Y029211D01*
X046599D01*
X046599Y029212D01*
X046597Y029212D01*
X046595Y029213D01*
X04659Y029215D01*
X046583Y029217D01*
X046573Y029219D01*
X046563Y029221D01*
X046551Y029222D01*
X046537Y029223D01*
D02*
G37*
G36*
X046515Y030383D02*
X046509D01*
X046504Y030383D01*
X046498Y030382D01*
X046492Y030381D01*
X046484Y03038D01*
X046475Y030378D01*
Y030231D01*
X04648D01*
X046483Y030231D01*
X046494D01*
X046497Y030231D01*
X046502D01*
X046506Y030232D01*
X046517Y030233D01*
X046529Y030236D01*
X046542Y03024D01*
X046554Y030245D01*
X046559Y030249D01*
X046564Y030253D01*
X046564D01*
X046565Y030254D01*
X046568Y030256D01*
X046572Y030261D01*
X046577Y030268D01*
X046581Y030276D01*
X046586Y030285D01*
X046588Y030296D01*
X04659Y030302D01*
Y030308D01*
Y030309D01*
Y03031D01*
Y030312D01*
X046589Y030314D01*
X046588Y03032D01*
X046587Y030327D01*
X046585Y030336D01*
X046581Y030345D01*
X046576Y030354D01*
X046569Y030362D01*
X046568Y030363D01*
X046565Y030366D01*
X046561Y030369D01*
X046555Y030373D01*
X046547Y030377D01*
X046538Y03038D01*
X046527Y030382D01*
X046515Y030383D01*
D02*
G37*
%LPD*%
D10*
X048686Y042433D02*
G03*
X048692Y04235I-000645J-000083D01*
G01*
X039764Y038367D02*
G03*
X039758Y03845I000645J000083D01*
G01*
X0468Y0436D02*
X0493D01*
Y0411D02*
Y0436D01*
X0468Y0411D02*
X0493D01*
X0468D02*
Y0436D01*
X04165Y0372D02*
Y0397D01*
X03915D02*
X04165D01*
X03915Y0372D02*
Y0397D01*
Y0372D02*
X04165D01*
X03256Y02898D02*
X03273Y02881D01*
X03256Y02898D02*
Y03462D01*
X03274Y0348D01*
X03492D01*
Y02881D02*
Y0348D01*
X03273Y02881D02*
X03492D01*
Y03279D02*
X03512D01*
Y0308D02*
Y03279D01*
X03492Y0308D02*
X03512D01*
X03492Y03081D02*
X03512D01*
D11*
X039906Y043545D02*
G03*
X04022Y043545I000157J0D01*
G01*
X03905D02*
X039906D01*
X04022D02*
X04105D01*
Y0416D02*
Y043545D01*
X03905Y0416D02*
Y043545D01*
Y0416D02*
X04105D01*
D12*
X036968Y020887D02*
Y024982D01*
X042795D01*
Y020887D02*
Y024982D01*
X036968Y020887D02*
X042795D01*
D13*
X042056Y043401D02*
Y043999D01*
X043244D01*
Y043401D02*
Y043999D01*
X042056Y043401D02*
X043244D01*
X042081Y042301D02*
Y042899D01*
X04327D01*
Y042301D02*
Y042899D01*
X042081Y042301D02*
X04327D01*
X042081Y041201D02*
Y041799D01*
X04327D01*
Y041201D02*
Y041799D01*
X042081Y041201D02*
X04327D01*
D14*
X042559Y043936D02*
X042741D01*
X042559Y043464D02*
X042741D01*
X042585Y042836D02*
X042767D01*
X042585Y042364D02*
X042767D01*
X042585Y041736D02*
X042767D01*
X042585Y041264D02*
X042767D01*
D15*
X03515Y0328D02*
X04205D01*
X03512Y0308D02*
X04205D01*
X0421Y0328D02*
X04245Y03245D01*
X0421Y0308D02*
X04245Y03115D01*
X04195Y0308D02*
X0421D01*
X04045Y0316D02*
X04245D01*
X04035Y0317D02*
X04045Y0316D01*
X04035Y0317D02*
Y0318D01*
X0405Y03195D01*
X0424D01*
X04245D02*
Y03245D01*
Y03115D02*
Y0316D01*
X0352Y0328D02*
X03545Y03305D01*
X0356D01*
X0358Y03285D01*
X0359D01*
X0361Y03305D01*
X03625D01*
X03645Y03285D01*
X0366D01*
X0368Y03305D01*
X037D01*
X0372Y03285D01*
X0374Y03305D01*
X0375D01*
X0377Y03285D01*
Y0308D02*
Y03285D01*
X0372Y0308D02*
Y03285D01*
X03655Y03075D02*
Y0328D01*
X0359Y03085D02*
Y0328D01*
X0375Y03055D02*
X0377Y03075D01*
X0374Y03055D02*
X0375D01*
X0372Y03075D02*
X0374Y03055D01*
X037D02*
X0372Y03075D01*
X0368Y03055D02*
X037D01*
X0366Y03075D02*
X0368Y03055D01*
X03645Y03075D02*
X0366D01*
X03625Y03055D02*
X03645Y03075D01*
X0361Y03055D02*
X03625D01*
X0359Y03075D02*
X0361Y03055D01*
X0358Y03075D02*
X0359D01*
X0356Y03055D02*
X0358Y03075D01*
X03545Y03055D02*
X0356D01*
X0352Y0308D02*
X03545Y03055D01*
M02*
