G04*
G04 #@! TF.GenerationSoftware,Altium Limited,Altium Designer,21.0.9 (235)*
G04*
G04 Layer_Color=8388736*
%FSTAX24Y24*%
%MOIN*%
G70*
G04*
G04 #@! TF.SameCoordinates,45A28FA0-0FE0-41DF-BFDA-37982D4B71EE*
G04*
G04*
G04 #@! TF.FilePolarity,Negative*
G04*
G01*
G75*
%ADD19R,0.0434X0.0592*%
G04:AMPARAMS|DCode=20|XSize=86.7mil|YSize=43.4mil|CornerRadius=0mil|HoleSize=0mil|Usage=FLASHONLY|Rotation=0.000|XOffset=0mil|YOffset=0mil|HoleType=Round|Shape=Octagon|*
%AMOCTAGOND20*
4,1,8,0.0434,-0.0109,0.0434,0.0109,0.0325,0.0217,-0.0325,0.0217,-0.0434,0.0109,-0.0434,-0.0109,-0.0325,-0.0217,0.0325,-0.0217,0.0434,-0.0109,0.0*
%
%ADD20OCTAGOND20*%

%ADD21O,0.0867X0.0434*%
%ADD22R,0.1080X0.2080*%
%ADD23C,0.0830*%
%ADD24C,0.1180*%
%ADD25C,0.0671*%
%ADD26R,0.0671X0.0671*%
%ADD27O,0.0980X0.0830*%
%ADD28R,0.0980X0.0830*%
%ADD29O,0.0867X0.1280*%
%ADD30C,0.0580*%
D19*
X042276Y0437D02*
D03*
X043024D02*
D03*
X042302Y0426D02*
D03*
X04305D02*
D03*
X042302Y0415D02*
D03*
X04305D02*
D03*
D20*
X039Y04323D02*
D03*
D21*
Y0426D02*
D03*
Y04197D02*
D03*
X041126Y04323D02*
D03*
Y0426D02*
D03*
Y04197D02*
D03*
D22*
X04185Y022934D02*
D03*
X039881D02*
D03*
D23*
X04705Y04235D02*
D03*
X04905D02*
D03*
X0394Y03845D02*
D03*
X0414D02*
D03*
D24*
X0482Y0212D02*
D03*
Y0232D02*
D03*
D25*
X04825Y03375D02*
D03*
D26*
Y03475D02*
D03*
D27*
X0482Y0312D02*
D03*
Y0292D02*
D03*
Y0282D02*
D03*
Y0272D02*
D03*
Y0302D02*
D03*
D28*
Y0262D02*
D03*
D29*
X03435Y0338D02*
D03*
Y03179D02*
D03*
Y0298D02*
D03*
D30*
X04595Y0397D02*
D03*
X0398Y0302D02*
D03*
M02*
