G04*
G04 #@! TF.GenerationSoftware,Altium Limited,Altium Designer,21.0.9 (235)*
G04*
G04 Layer_Color=2752767*
%FSTAX24Y24*%
%MOIN*%
G70*
G04*
G04 #@! TF.SameCoordinates,45A28FA0-0FE0-41DF-BFDA-37982D4B71EE*
G04*
G04*
G04 #@! TF.FilePolarity,Positive*
G04*
G01*
G75*
%ADD43C,0.0020*%
%ADD44C,0.0027*%
D43*
X04177Y022854D02*
Y023014D01*
X04193D01*
Y022854D01*
X04177D01*
X039801D02*
Y023014D01*
X039962D01*
Y022854D01*
X039801D01*
X0482Y02112D02*
X04812Y02128D01*
X04828D01*
X0482Y02112D01*
Y02312D02*
X04812Y02328D01*
X04828D01*
X0482Y02312D01*
X04825Y03367D02*
X04829Y03371D01*
X04833D01*
X04829Y03375D01*
X04833Y03379D01*
X04829D01*
X04825Y03383D01*
X04821Y03379D01*
X04817D01*
X04821Y03375D01*
X04817Y03371D01*
X04821D01*
X04825Y03367D01*
Y03467D02*
X04829Y03471D01*
X04833D01*
X04829Y03475D01*
X04833Y03479D01*
X04829D01*
X04825Y03483D01*
X04821Y03479D01*
X04817D01*
X04821Y03475D01*
X04817Y03471D01*
X04821D01*
X04825Y03467D01*
X04812Y03112D02*
X04816Y0312D01*
X04812Y03128D01*
X0482Y03124D01*
X04828Y03128D01*
X04824Y0312D01*
X04828Y03112D01*
X0482Y03116D01*
X04812Y03112D01*
Y02912D02*
X04816Y0292D01*
X04812Y02928D01*
X0482Y02924D01*
X04828Y02928D01*
X04824Y0292D01*
X04828Y02912D01*
X0482Y02916D01*
X04812Y02912D01*
Y02812D02*
X04816Y0282D01*
X04812Y02828D01*
X0482Y02824D01*
X04828Y02828D01*
X04824Y0282D01*
X04828Y02812D01*
X0482Y02816D01*
X04812Y02812D01*
Y02712D02*
X04816Y0272D01*
X04812Y02728D01*
X0482Y02724D01*
X04828Y02728D01*
X04824Y0272D01*
X04828Y02712D01*
X0482Y02716D01*
X04812Y02712D01*
Y02612D02*
X04816Y0262D01*
X04812Y02628D01*
X0482Y02624D01*
X04828Y02628D01*
X04824Y0262D01*
X04828Y02612D01*
X0482Y02616D01*
X04812Y02612D01*
Y03012D02*
X04816Y0302D01*
X04812Y03028D01*
X0482Y03024D01*
X04828Y03028D01*
X04824Y0302D01*
X04828Y03012D01*
X0482Y03016D01*
X04812Y03012D01*
X03431Y03376D02*
Y03372D01*
X03439D01*
Y03376D01*
X03443D01*
Y03384D01*
X03439D01*
Y03388D01*
X03431D01*
Y03384D01*
X03427D01*
Y03376D01*
X03431D01*
Y03175D02*
Y03171D01*
X03439D01*
Y03175D01*
X03443D01*
Y03183D01*
X03439D01*
Y03187D01*
X03431D01*
Y03183D01*
X03427D01*
Y03175D01*
X03431D01*
Y02976D02*
Y02972D01*
X03439D01*
Y02976D01*
X03443D01*
Y02984D01*
X03439D01*
Y02988D01*
X03431D01*
Y02984D01*
X03427D01*
Y02976D01*
X03431D01*
X04587Y03962D02*
X04591D01*
X04595Y03966D01*
X04599Y03962D01*
X04603D01*
Y03966D01*
X04599Y0397D01*
X04603Y03974D01*
Y03978D01*
X04599D01*
X04595Y03974D01*
X04591Y03978D01*
X04587D01*
Y03974D01*
X04591Y0397D01*
X04587Y03966D01*
Y03962D01*
X03972Y03012D02*
X03976D01*
X0398Y03016D01*
X03984Y03012D01*
X03988D01*
Y03016D01*
X03984Y0302D01*
X03988Y03024D01*
Y03028D01*
X03984D01*
X0398Y03024D01*
X03976Y03028D01*
X03972D01*
Y03024D01*
X03976Y0302D01*
X03972Y03016D01*
Y03012D01*
D44*
X04713Y04235D02*
G03*
X04713Y04235I-00008J0D01*
G01*
X04913D02*
G03*
X04913Y04235I-00008J0D01*
G01*
X03948Y03845D02*
G03*
X03948Y03845I-00008J0D01*
G01*
X04148D02*
G03*
X04148Y03845I-00008J0D01*
G01*
M02*
