G04*
G04 #@! TF.GenerationSoftware,Altium Limited,Altium Designer,21.0.9 (235)*
G04*
G04 Layer_Physical_Order=2*
G04 Layer_Color=16711680*
%FSTAX24Y24*%
%MOIN*%
G70*
G04*
G04 #@! TF.SameCoordinates,45A28FA0-0FE0-41DF-BFDA-37982D4B71EE*
G04*
G04*
G04 #@! TF.FilePolarity,Positive*
G04*
G01*
G75*
%ADD32C,0.0197*%
%ADD33R,0.1000X0.2000*%
%ADD34C,0.0750*%
%ADD35C,0.1100*%
%ADD36C,0.0591*%
%ADD37R,0.0591X0.0591*%
%ADD38O,0.0900X0.0750*%
%ADD39R,0.0900X0.0750*%
%ADD40O,0.0787X0.1200*%
%ADD41C,0.0500*%
G36*
X049528Y042619D02*
X049482Y0426D01*
X049478Y0426D01*
X049401Y042701D01*
X049298Y04278D01*
X049178Y042829D01*
X04905Y042846D01*
X048922Y042829D01*
X048802Y04278D01*
X048699Y042701D01*
X04862Y042598D01*
X048571Y042478D01*
X048554Y04235D01*
Y041206D01*
X047544Y040196D01*
X039515D01*
X039387Y040179D01*
X039267Y04013D01*
X039164Y040051D01*
X039049Y039936D01*
X03897Y039833D01*
X038921Y039713D01*
X038904Y039585D01*
Y038946D01*
X0345D01*
X034372Y038929D01*
X034252Y03888D01*
X034149Y038801D01*
X033999Y038651D01*
X03392Y038548D01*
X033871Y038428D01*
X033854Y0383D01*
Y034018D01*
X033852Y034006D01*
Y03385D01*
X03435D01*
X034848D01*
Y034006D01*
X034846Y034018D01*
Y037954D01*
X0394D01*
X039528Y037971D01*
X039648Y03802D01*
X039751Y038099D01*
X03983Y038202D01*
X039879Y038322D01*
X039896Y03845D01*
Y039204D01*
X04108D01*
X04109Y039154D01*
X041036Y039131D01*
X04091Y039047D01*
X040803Y03894D01*
X040719Y038814D01*
X040661Y038674D01*
X040631Y038526D01*
Y038374D01*
X040661Y038226D01*
X040719Y038086D01*
X040803Y03796D01*
X04091Y037853D01*
X041036Y037769D01*
X041176Y037711D01*
X041324Y037681D01*
X041476D01*
X041624Y037711D01*
X041764Y037769D01*
X04189Y037853D01*
X041997Y03796D01*
X042081Y038086D01*
X042139Y038226D01*
X042169Y038374D01*
Y038526D01*
X042139Y038674D01*
X042081Y038814D01*
X041997Y03894D01*
X04189Y039047D01*
X041764Y039131D01*
X04171Y039154D01*
X04172Y039204D01*
X047544D01*
X047754Y038994D01*
Y03475D01*
X047771Y034622D01*
X04782Y034502D01*
X047855Y034457D01*
Y034355D01*
X047855Y034355D01*
X047855D01*
X047844Y034307D01*
X047811Y034285D01*
X047772Y034246D01*
X0379D01*
X0379Y034246D01*
X037772Y034229D01*
X037652Y03418D01*
X037549Y034101D01*
X037349Y033901D01*
X03727Y033798D01*
X037221Y033678D01*
X037204Y03355D01*
Y030296D01*
X035085D01*
X035081Y030309D01*
X035008Y030446D01*
X034909Y030566D01*
X03479Y030664D01*
X034653Y030737D01*
X034549Y030769D01*
Y030821D01*
X034653Y030853D01*
X03479Y030926D01*
X034909Y031024D01*
X035008Y031144D01*
X035081Y031281D01*
X035126Y031429D01*
X035141Y031584D01*
Y031996D01*
X035126Y032151D01*
X035081Y032299D01*
X035008Y032436D01*
X034909Y032556D01*
X03479Y032654D01*
X034653Y032727D01*
X034504Y032772D01*
X03435Y032788D01*
X034196Y032772D01*
X034047Y032727D01*
X03391Y032654D01*
X033791Y032556D01*
X033692Y032436D01*
X033619Y032299D01*
X033574Y032151D01*
X033559Y031996D01*
Y031584D01*
X033574Y031429D01*
X033619Y031281D01*
X033692Y031144D01*
X033791Y031024D01*
X03391Y030926D01*
X034047Y030853D01*
X034151Y030821D01*
Y030769D01*
X034047Y030737D01*
X03391Y030664D01*
X033791Y030566D01*
X033692Y030446D01*
X033619Y030309D01*
X033574Y030161D01*
X033559Y030006D01*
Y029594D01*
X033574Y029439D01*
X033619Y029291D01*
X033692Y029154D01*
X033791Y029034D01*
X03391Y028936D01*
X034047Y028863D01*
X034196Y028818D01*
X03435Y028802D01*
X034504Y028818D01*
X034653Y028863D01*
X03479Y028936D01*
X034909Y029034D01*
X035008Y029154D01*
X035081Y029291D01*
X035085Y029304D01*
X037585D01*
X037713Y029321D01*
X037833Y02937D01*
X037936Y029449D01*
X038051Y029564D01*
X03813Y029667D01*
X038179Y029787D01*
X038196Y029915D01*
Y033254D01*
X047772D01*
X047811Y033215D01*
X047924Y033139D01*
X048049Y033087D01*
X048182Y033061D01*
X048318D01*
X048451Y033087D01*
X048576Y033139D01*
X048689Y033215D01*
X048785Y033311D01*
X048861Y033424D01*
X048913Y033549D01*
X048939Y033682D01*
Y033818D01*
X048913Y033951D01*
X048861Y034076D01*
X048785Y034189D01*
X048689Y034285D01*
X048657Y034307D01*
X048645Y034355D01*
X048645D01*
X048645Y034355D01*
Y034457D01*
X04868Y034502D01*
X048729Y034622D01*
X048746Y03475D01*
Y0392D01*
X048746Y0392D01*
X048729Y039328D01*
X04868Y039448D01*
X048601Y039551D01*
X048452Y0397D01*
X049401Y040649D01*
X049401Y040649D01*
X049478Y04075D01*
X049482Y04075D01*
X049528Y040731D01*
X049528Y025037D01*
X049493Y025001D01*
X04015Y025025D01*
X0308Y02505D01*
X030757D01*
Y044102D01*
X049528D01*
Y042619D01*
D02*
G37*
%LPC*%
G36*
X047126Y043119D02*
X046974D01*
X046826Y043089D01*
X046686Y043031D01*
X04656Y042947D01*
X046453Y04284D01*
X046369Y042714D01*
X046311Y042574D01*
X046281Y042426D01*
Y042274D01*
X046311Y042126D01*
X046369Y041986D01*
X046453Y04186D01*
X04656Y041753D01*
X046686Y041669D01*
X046826Y041611D01*
X046974Y041581D01*
X047126D01*
X047274Y041611D01*
X047414Y041669D01*
X04754Y041753D01*
X047647Y04186D01*
X047731Y041986D01*
X047789Y042126D01*
X047819Y042274D01*
Y042426D01*
X047789Y042574D01*
X047731Y042714D01*
X047647Y04284D01*
X04754Y042947D01*
X047414Y043031D01*
X047274Y043089D01*
X047126Y043119D01*
D02*
G37*
G36*
X034848Y03375D02*
X0344D01*
Y033102D01*
X034479Y033113D01*
X034599Y033162D01*
X034702Y033242D01*
X034781Y033345D01*
X034831Y033465D01*
X034848Y033594D01*
Y03375D01*
D02*
G37*
G36*
X0343D02*
X033852D01*
Y033594D01*
X033869Y033465D01*
X033919Y033345D01*
X033998Y033242D01*
X034101Y033162D01*
X034221Y033113D01*
X0343Y033102D01*
Y03375D01*
D02*
G37*
G36*
X048275Y031972D02*
X048125D01*
X047974Y031958D01*
X047829Y031914D01*
X047696Y031842D01*
X047579Y031746D01*
X047483Y031629D01*
X047411Y031496D01*
X047367Y031351D01*
X047353Y0312D01*
X047367Y031049D01*
X047411Y030904D01*
X047483Y030771D01*
X047503Y030746D01*
X047479Y030696D01*
X040214D01*
X04021Y0307D01*
X040105Y03077D01*
X039988Y030819D01*
X039863Y030844D01*
X039737D01*
X039612Y030819D01*
X039495Y03077D01*
X03939Y0307D01*
X0393Y03061D01*
X03923Y030505D01*
X039181Y030388D01*
X039156Y030263D01*
Y030137D01*
X039181Y030012D01*
X03923Y029895D01*
X0393Y02979D01*
X03939Y0297D01*
X039495Y02963D01*
X039612Y029581D01*
X039737Y029556D01*
X039863D01*
X039988Y029581D01*
X040105Y02963D01*
X04021Y0297D01*
X040214Y029704D01*
X047479D01*
X047503Y029654D01*
X047483Y029629D01*
X047411Y029496D01*
X047367Y029351D01*
X047353Y0292D01*
X047367Y029049D01*
X047411Y028904D01*
X047483Y028771D01*
X047541Y0287D01*
X047483Y028629D01*
X047411Y028496D01*
X047367Y028351D01*
X047353Y0282D01*
X047367Y028049D01*
X047411Y027904D01*
X047483Y027771D01*
X047541Y0277D01*
X047483Y027629D01*
X047411Y027496D01*
X047367Y027351D01*
X047353Y0272D01*
X047367Y027049D01*
X047382Y027003D01*
X047356Y026969D01*
X047356D01*
Y025431D01*
X049044D01*
Y026969D01*
X049044D01*
X049018Y027003D01*
X049033Y027049D01*
X049047Y0272D01*
X049033Y027351D01*
X048989Y027496D01*
X048917Y027629D01*
X048859Y0277D01*
X048917Y027771D01*
X048989Y027904D01*
X049033Y028049D01*
X049047Y0282D01*
X049033Y028351D01*
X048989Y028496D01*
X048917Y028629D01*
X048859Y0287D01*
X048917Y028771D01*
X048989Y028904D01*
X049033Y029049D01*
X049047Y0292D01*
X049033Y029351D01*
X048989Y029496D01*
X048917Y029629D01*
X048859Y0297D01*
X048917Y029771D01*
X048989Y029904D01*
X049033Y030049D01*
X049047Y0302D01*
X049033Y030351D01*
X048989Y030496D01*
X048917Y030629D01*
X048859Y0307D01*
X048917Y030771D01*
X048989Y030904D01*
X049033Y031049D01*
X049047Y0312D01*
X049033Y031351D01*
X048989Y031496D01*
X048917Y031629D01*
X048821Y031746D01*
X048704Y031842D01*
X048571Y031914D01*
X048426Y031958D01*
X048275Y031972D01*
D02*
G37*
%LPD*%
D32*
X04825Y03475D02*
Y0392D01*
X04775Y0397D02*
X04825Y0392D01*
X04905Y041D02*
Y04235D01*
X04775Y0397D02*
X04905Y041D01*
X04595Y0397D02*
X04775D01*
X039515D02*
X04595D01*
X0394Y039585D02*
X039515Y0397D01*
X0377Y03355D02*
X0379Y03375D01*
X04825D01*
X037585Y0298D02*
X0377Y029915D01*
Y03355D01*
X03435Y0298D02*
X037585D01*
X03435Y0383D02*
X0345Y03845D01*
X03435Y0338D02*
Y0383D01*
X0345Y03845D02*
X0394D01*
Y039585D01*
X0398Y0302D02*
X0482D01*
D33*
X04185Y022934D02*
D03*
X039881D02*
D03*
D34*
X04705Y04235D02*
D03*
X04905D02*
D03*
X0394Y03845D02*
D03*
X0414D02*
D03*
D35*
X0482Y0212D02*
D03*
Y0232D02*
D03*
D36*
X04825Y03375D02*
D03*
D37*
Y03475D02*
D03*
D38*
X0482Y0312D02*
D03*
Y0292D02*
D03*
Y0282D02*
D03*
Y0272D02*
D03*
Y0302D02*
D03*
D39*
Y0262D02*
D03*
D40*
X03435Y0338D02*
D03*
Y03179D02*
D03*
Y0298D02*
D03*
D41*
X04595Y0397D02*
D03*
X0398Y0302D02*
D03*
M02*
