G04*
G04 #@! TF.GenerationSoftware,Altium Limited,Altium Designer,21.0.9 (235)*
G04*
G04 Layer_Physical_Order=1*
G04 Layer_Color=255*
%FSTAX24Y24*%
%MOIN*%
G70*
G04*
G04 #@! TF.SameCoordinates,45A28FA0-0FE0-41DF-BFDA-37982D4B71EE*
G04*
G04*
G04 #@! TF.FilePolarity,Positive*
G04*
G01*
G75*
%ADD16R,0.0354X0.0512*%
G04:AMPARAMS|DCode=17|XSize=78.7mil|YSize=35.4mil|CornerRadius=0mil|HoleSize=0mil|Usage=FLASHONLY|Rotation=0.000|XOffset=0mil|YOffset=0mil|HoleType=Round|Shape=Octagon|*
%AMOCTAGOND17*
4,1,8,0.0394,-0.0089,0.0394,0.0089,0.0305,0.0177,-0.0305,0.0177,-0.0394,0.0089,-0.0394,-0.0089,-0.0305,-0.0177,0.0305,-0.0177,0.0394,-0.0089,0.0*
%
%ADD17OCTAGOND17*%

%ADD18O,0.0787X0.0354*%
%ADD31C,0.0591*%
%ADD32C,0.0197*%
%ADD33R,0.1000X0.2000*%
%ADD34C,0.0750*%
%ADD35C,0.1100*%
%ADD36C,0.0591*%
%ADD37R,0.0591X0.0591*%
%ADD38O,0.0900X0.0750*%
%ADD39R,0.0900X0.0750*%
%ADD40O,0.0787X0.1200*%
%ADD41C,0.0500*%
G36*
X04085Y044052D02*
X040775Y043977D01*
X040696Y043874D01*
X040647Y043754D01*
X040644Y043738D01*
X040622Y043729D01*
X040502Y043637D01*
X040411Y043518D01*
X040353Y043379D01*
X040346Y04332D01*
X040298Y043304D01*
X040021Y043581D01*
X039918Y04366D01*
X039799Y043709D01*
X03967Y043726D01*
X039576D01*
X039502Y043801D01*
X038498D01*
X038213Y043515D01*
Y043096D01*
X0382D01*
X038072Y043079D01*
X037952Y04303D01*
X037849Y042951D01*
X037849Y042951D01*
X037599Y042701D01*
X03752Y042598D01*
X037471Y042478D01*
X037454Y04235D01*
Y03045D01*
X037471Y030322D01*
X03752Y030202D01*
X037599Y030099D01*
X037849Y029849D01*
X037849Y029849D01*
X037952Y02977D01*
X038072Y029721D01*
X0382Y029704D01*
X039386D01*
X03939Y0297D01*
X039495Y02963D01*
X039612Y029581D01*
X039737Y029556D01*
X039863D01*
X039988Y029581D01*
X040105Y02963D01*
X04021Y0297D01*
X0403Y02979D01*
X04037Y029895D01*
X040419Y030012D01*
X040444Y030137D01*
Y030263D01*
X040419Y030388D01*
X04037Y030505D01*
X0403Y03061D01*
X04021Y0307D01*
X040105Y03077D01*
X039988Y030819D01*
X039863Y030844D01*
X039737D01*
X039612Y030819D01*
X039495Y03077D01*
X03939Y0307D01*
X039386Y030696D01*
X038446D01*
Y041402D01*
X038496Y04143D01*
X038504Y041425D01*
Y0406D01*
X038521Y040472D01*
X03857Y040352D01*
X038649Y040249D01*
X039249Y039649D01*
X039352Y03957D01*
X039472Y039521D01*
X0396Y039504D01*
X042244D01*
X042254Y039494D01*
Y02935D01*
X042271Y029222D01*
X04232Y029102D01*
X042399Y028999D01*
X042549Y028849D01*
X042652Y02877D01*
X042772Y028721D01*
X0429Y028704D01*
X047479D01*
X047503Y028654D01*
X047483Y028629D01*
X047411Y028496D01*
X047367Y028351D01*
X047353Y0282D01*
X047367Y028049D01*
X047411Y027904D01*
X047483Y027771D01*
X047503Y027746D01*
X047479Y027696D01*
X041896D01*
Y037859D01*
X041997Y03796D01*
X042081Y038086D01*
X042139Y038226D01*
X042169Y038374D01*
Y038526D01*
X042139Y038674D01*
X042081Y038814D01*
X041997Y03894D01*
X04189Y039047D01*
X041764Y039131D01*
X041624Y039189D01*
X041476Y039219D01*
X041324D01*
X041176Y039189D01*
X041036Y039131D01*
X04091Y039047D01*
X040803Y03894D01*
X040719Y038814D01*
X040661Y038674D01*
X040631Y038526D01*
Y038374D01*
X040661Y038226D01*
X040719Y038086D01*
X040803Y03796D01*
X040904Y037859D01*
Y02745D01*
X040921Y027322D01*
X04097Y027202D01*
X041049Y027099D01*
X041299Y026849D01*
X041299Y026849D01*
X041402Y02677D01*
X041459Y026746D01*
X041449Y026696D01*
X037146D01*
Y0316D01*
X037146Y0316D01*
X037129Y031728D01*
X03708Y031848D01*
X037001Y031951D01*
X037001Y031951D01*
X036811Y032141D01*
X036708Y03222D01*
X036588Y032269D01*
X03646Y032286D01*
X035085D01*
X035081Y032299D01*
X035008Y032436D01*
X034909Y032556D01*
X03479Y032654D01*
X034653Y032727D01*
X034504Y032772D01*
X03435Y032788D01*
X034196Y032772D01*
X034047Y032727D01*
X03391Y032654D01*
X033791Y032556D01*
X033692Y032436D01*
X033619Y032299D01*
X033574Y032151D01*
X033559Y031996D01*
Y031584D01*
X033574Y031429D01*
X033619Y031281D01*
X033692Y031144D01*
X033791Y031024D01*
X03391Y030926D01*
X034047Y030853D01*
X034151Y030821D01*
Y030769D01*
X034047Y030737D01*
X03391Y030664D01*
X033791Y030566D01*
X033692Y030446D01*
X033619Y030309D01*
X033574Y030161D01*
X033559Y030006D01*
Y029594D01*
X033574Y029439D01*
X033619Y029291D01*
X033692Y029154D01*
X033791Y029034D01*
X03391Y028936D01*
X034047Y028863D01*
X034196Y028818D01*
X03435Y028802D01*
X034504Y028818D01*
X034653Y028863D01*
X03479Y028936D01*
X034909Y029034D01*
X035008Y029154D01*
X035081Y029291D01*
X035126Y029439D01*
X035141Y029594D01*
Y030006D01*
X035126Y030161D01*
X035081Y030309D01*
X035008Y030446D01*
X034909Y030566D01*
X03479Y030664D01*
X034653Y030737D01*
X034549Y030769D01*
Y030821D01*
X034653Y030853D01*
X03479Y030926D01*
X034909Y031024D01*
X035008Y031144D01*
X035081Y031281D01*
X035085Y031294D01*
X036154D01*
Y02645D01*
X036171Y026322D01*
X03622Y026202D01*
X036299Y026099D01*
X036549Y025849D01*
X036549Y025849D01*
X036652Y02577D01*
X036772Y025721D01*
X0369Y025704D01*
X047356D01*
Y025431D01*
X049044D01*
Y026969D01*
X049044D01*
X049018Y027003D01*
X049033Y027049D01*
X049047Y0272D01*
X049033Y027351D01*
X048989Y027496D01*
X048917Y027629D01*
X048897Y027654D01*
X048921Y027704D01*
X04925D01*
X049378Y027721D01*
X049478Y027762D01*
X049528Y027735D01*
Y025037D01*
X049493Y025001D01*
X030757Y025049D01*
Y044102D01*
X04083D01*
X04085Y044052D01*
D02*
G37*
G36*
X049528Y042571D02*
X049478Y042558D01*
X04943Y042642D01*
X049342Y04273D01*
X049233Y042793D01*
X049113Y042825D01*
X0491D01*
Y04235D01*
Y041875D01*
X049113D01*
X049233Y041907D01*
X049342Y04197D01*
X04943Y042058D01*
X049478Y042142D01*
X049528Y042129D01*
Y036792D01*
X049478Y036759D01*
X049428Y036779D01*
X0493Y036796D01*
X047546D01*
Y041759D01*
X047647Y04186D01*
X047731Y041986D01*
X047789Y042126D01*
X047819Y042274D01*
Y042426D01*
X047789Y042574D01*
X047731Y042714D01*
X047647Y04284D01*
X04754Y042947D01*
X047414Y043031D01*
X047274Y043089D01*
X047126Y043119D01*
X046974D01*
X046826Y043089D01*
X046686Y043031D01*
X04656Y042947D01*
X046453Y04284D01*
X046369Y042714D01*
X046311Y042574D01*
X046281Y042426D01*
Y042274D01*
X046311Y042126D01*
X046369Y041986D01*
X046453Y04186D01*
X046554Y041759D01*
Y036415D01*
X046571Y036287D01*
X04662Y036167D01*
X046699Y036064D01*
X046814Y035949D01*
X046917Y03587D01*
X047037Y035821D01*
X047165Y035804D01*
X048954D01*
Y033982D01*
X048904Y033972D01*
X048861Y034076D01*
X048785Y034189D01*
X048689Y034285D01*
X048657Y034307D01*
X048645Y034355D01*
X048645D01*
X048645Y034355D01*
Y0347D01*
X04825D01*
Y03475D01*
D01*
Y0347D01*
X047855D01*
Y034355D01*
X047855Y034355D01*
X047855D01*
X047844Y034307D01*
X047811Y034285D01*
X047715Y034189D01*
X047639Y034076D01*
X047587Y033951D01*
X047561Y033818D01*
Y033682D01*
X047587Y033549D01*
X047639Y033424D01*
X047715Y033311D01*
X047811Y033215D01*
X047924Y033139D01*
X048049Y033087D01*
X048182Y033061D01*
X048318D01*
X048451Y033087D01*
X048576Y033139D01*
X048689Y033215D01*
X048785Y033311D01*
X048861Y033424D01*
X048904Y033528D01*
X048954Y033518D01*
Y031664D01*
X048904Y031646D01*
X048821Y031746D01*
X048704Y031842D01*
X048571Y031914D01*
X048426Y031958D01*
X048275Y031972D01*
X048125D01*
X047974Y031958D01*
X047829Y031914D01*
X047696Y031842D01*
X047579Y031746D01*
X047538Y031696D01*
X044146D01*
Y040585D01*
X044129Y040713D01*
X04408Y040833D01*
X044001Y040936D01*
X043979Y040957D01*
X043998Y041004D01*
X045444D01*
X045454Y040994D01*
Y0397D01*
X045471Y039572D01*
X04552Y039452D01*
X045599Y039349D01*
X045702Y03927D01*
X045822Y039221D01*
X04595Y039204D01*
X046078Y039221D01*
X046198Y03927D01*
X046301Y039349D01*
X04638Y039452D01*
X046429Y039572D01*
X046446Y0397D01*
Y0412D01*
X046429Y041328D01*
X04638Y041448D01*
X046301Y041551D01*
X046001Y041851D01*
X045898Y04193D01*
X045778Y041979D01*
X04565Y041996D01*
X043546D01*
Y0426D01*
X043533Y042699D01*
Y043687D01*
X043533Y043687D01*
X043516Y043815D01*
X043467Y043935D01*
X043388Y044038D01*
X043388Y044038D01*
X043375Y044051D01*
X04337Y044055D01*
X043386Y044102D01*
X049528D01*
Y042571D01*
D02*
G37*
G36*
X043299Y030964D02*
X043414Y030849D01*
X043517Y03077D01*
X043637Y030721D01*
X043765Y030704D01*
X047479D01*
X047503Y030654D01*
X047483Y030629D01*
X047411Y030496D01*
X047367Y030351D01*
X047353Y0302D01*
X047367Y030049D01*
X047411Y029904D01*
X047483Y029771D01*
X047503Y029746D01*
X047479Y029696D01*
X043246D01*
Y030955D01*
X043294Y030971D01*
X043299Y030964D01*
D02*
G37*
%LPC*%
G36*
X039463Y038925D02*
X03945D01*
Y0385D01*
X039875D01*
Y038513D01*
X039843Y038633D01*
X03978Y038742D01*
X039692Y03883D01*
X039583Y038893D01*
X039463Y038925D01*
D02*
G37*
G36*
X03935D02*
X039337D01*
X039217Y038893D01*
X039108Y03883D01*
X03902Y038742D01*
X038957Y038633D01*
X038925Y038513D01*
Y0385D01*
X03935D01*
Y038925D01*
D02*
G37*
G36*
X039875Y0384D02*
X03945D01*
Y037975D01*
X039463D01*
X039583Y038007D01*
X039692Y03807D01*
X03978Y038158D01*
X039843Y038267D01*
X039875Y038387D01*
Y0384D01*
D02*
G37*
G36*
X03935D02*
X038925D01*
Y038387D01*
X038957Y038267D01*
X03902Y038158D01*
X039108Y03807D01*
X039217Y038007D01*
X039337Y037975D01*
X03935D01*
Y0384D01*
D02*
G37*
G36*
X0344Y034498D02*
Y03385D01*
X034848D01*
Y034006D01*
X034831Y034135D01*
X034781Y034255D01*
X034702Y034358D01*
X034599Y034438D01*
X034479Y034487D01*
X0344Y034498D01*
D02*
G37*
G36*
X0343D02*
X034221Y034487D01*
X034101Y034438D01*
X033998Y034358D01*
X033919Y034255D01*
X033869Y034135D01*
X033852Y034006D01*
Y03385D01*
X0343D01*
Y034498D01*
D02*
G37*
G36*
X034848Y03375D02*
X0344D01*
Y033102D01*
X034479Y033113D01*
X034599Y033162D01*
X034702Y033242D01*
X034781Y033345D01*
X034831Y033465D01*
X034848Y033594D01*
Y03375D01*
D02*
G37*
G36*
X0343D02*
X033852D01*
Y033594D01*
X033869Y033465D01*
X033919Y033345D01*
X033998Y033242D01*
X034101Y033162D01*
X034221Y033113D01*
X0343Y033102D01*
Y03375D01*
D02*
G37*
G36*
X049Y042825D02*
X048987D01*
X048867Y042793D01*
X048758Y04273D01*
X04867Y042642D01*
X048607Y042533D01*
X048575Y042413D01*
Y0424D01*
X049D01*
Y042825D01*
D02*
G37*
G36*
Y0423D02*
X048575D01*
Y042287D01*
X048607Y042167D01*
X04867Y042058D01*
X048758Y04197D01*
X048867Y041907D01*
X048987Y041875D01*
X049D01*
Y0423D01*
D02*
G37*
G36*
X048645Y035145D02*
X0483D01*
Y0348D01*
X048645D01*
Y035145D01*
D02*
G37*
G36*
X0482D02*
X047855D01*
Y0348D01*
X0482D01*
Y035145D01*
D02*
G37*
%LPD*%
D16*
X042276Y0437D02*
D03*
X043024D02*
D03*
X042302Y0426D02*
D03*
X04305D02*
D03*
X042302Y0415D02*
D03*
X04305D02*
D03*
D17*
X039Y04323D02*
D03*
D18*
Y0426D02*
D03*
Y04197D02*
D03*
X041126Y04323D02*
D03*
Y0426D02*
D03*
Y04197D02*
D03*
D31*
X044266Y022934D02*
X046Y0212D01*
X04185Y022934D02*
X044266D01*
X046Y0212D02*
X0482D01*
D32*
X04595Y0397D02*
Y0412D01*
X04565Y0415D02*
X04595Y0412D01*
X04015Y0407D02*
X043535D01*
X04365Y040585D01*
Y031315D02*
Y040585D01*
X04305Y0415D02*
X04565D01*
X04705Y036415D02*
Y04235D01*
X047165Y0363D02*
X0493D01*
X04705Y036415D02*
X047165Y0363D01*
X0493D02*
X04945Y03615D01*
X03665Y02645D02*
Y0316D01*
X0369Y0262D02*
X0482D01*
X03665Y02645D02*
X0369Y0262D01*
X03435Y03179D02*
X03646D01*
X03665Y0316D01*
X0382Y0302D02*
X0398D01*
X03795Y03045D02*
X0382Y0302D01*
X03795Y03045D02*
Y04235D01*
X0382Y0426D02*
X039D01*
X03795Y04235D02*
X0382Y0426D01*
X04945Y0284D02*
Y03615D01*
X04925Y0282D02*
X04945Y0284D01*
X0482Y0282D02*
X04925D01*
X0414Y02745D02*
Y03845D01*
Y02745D02*
X04165Y0272D01*
X0482D01*
X04275Y02935D02*
X0429Y0292D01*
X04275Y02935D02*
Y0397D01*
X0429Y0292D02*
X0482D01*
X043765Y0312D02*
X0482D01*
X04365Y031315D02*
X043765Y0312D01*
X04Y04085D02*
X04015Y0407D01*
X04Y04085D02*
Y0429D01*
X039Y04323D02*
X03967D01*
X04Y0429D01*
X038975Y042625D02*
X039Y0426D01*
X04245Y04D02*
X04275Y0397D01*
X0396Y04D02*
X04245D01*
X039Y0406D02*
X0396Y04D01*
X039Y0406D02*
Y04197D01*
X04305Y0415D02*
Y0426D01*
X043024Y0437D02*
X043037Y043687D01*
Y042613D02*
Y043687D01*
Y042613D02*
X04305Y0426D01*
X041215Y0415D02*
X042302D01*
X0411Y041615D02*
Y041944D01*
Y041615D02*
X041215Y0415D01*
X0411Y041944D02*
X041126Y04197D01*
Y0426D02*
X041126Y0426D01*
X042302D01*
X042302Y0426D01*
X042226Y04375D02*
X042276Y0437D01*
X04125Y04375D02*
X042226D01*
X041126Y043626D02*
X04125Y04375D01*
X041126Y04323D02*
Y043626D01*
D33*
X04185Y022934D02*
D03*
X039881D02*
D03*
D34*
X04705Y04235D02*
D03*
X04905D02*
D03*
X0394Y03845D02*
D03*
X0414D02*
D03*
D35*
X0482Y0212D02*
D03*
Y0232D02*
D03*
D36*
X04825Y03375D02*
D03*
D37*
Y03475D02*
D03*
D38*
X0482Y0312D02*
D03*
Y0292D02*
D03*
Y0282D02*
D03*
Y0272D02*
D03*
Y0302D02*
D03*
D39*
Y0262D02*
D03*
D40*
X03435Y0338D02*
D03*
Y03179D02*
D03*
Y0298D02*
D03*
D41*
X04595Y0397D02*
D03*
X0398Y0302D02*
D03*
M02*
