G04*
G04 #@! TF.GenerationSoftware,Altium Limited,Altium Designer,21.0.9 (235)*
G04*
G04 Layer_Color=32896*
%FSTAX24Y24*%
%MOIN*%
G70*
G04*
G04 #@! TF.SameCoordinates,45A28FA0-0FE0-41DF-BFDA-37982D4B71EE*
G04*
G04*
G04 #@! TF.FilePolarity,Positive*
G04*
G01*
G75*
%ADD10C,0.0070*%
%ADD11C,0.0079*%
G36*
X04735Y0222D02*
X0476Y02245D01*
Y0223D01*
X04785D01*
Y0221D01*
X0476D01*
Y02195D01*
X04735Y0222D01*
D02*
G37*
G36*
X046705Y025795D02*
Y026505D01*
X047055Y026155D01*
X047065D01*
X046705Y025795D01*
D02*
G37*
D10*
X047749Y022799D02*
G03*
X047738Y022812I000451J000401D01*
G01*
X046734Y02118D02*
G03*
X046734Y02118I-000064J0D01*
G01*
X046744Y0232D02*
G03*
X046744Y0232I-000064J0D01*
G01*
X047749Y020799D02*
G03*
X047737Y020813I000451J000401D01*
G01*
X0472Y02021D02*
Y02418D01*
X0477Y0242D02*
X0492D01*
X04669Y0202D02*
X0492D01*
X04669D02*
Y02025D01*
X04638D02*
X04669D01*
X04638Y0202D02*
Y02025D01*
X0462Y0202D02*
X04638D01*
X0462D02*
Y0242D01*
X0477D01*
X0464Y02426D02*
X04665D01*
X04748Y0222D02*
X04899D01*
X0492Y0202D02*
Y0242D01*
X04722Y03094D02*
X04752D01*
Y03044D02*
Y03094D01*
X04722Y03044D02*
X04752D01*
X04723Y02695D02*
X04753D01*
Y02645D02*
Y02695D01*
X04723Y02645D02*
X04753D01*
X0482Y0322D02*
X0496D01*
X0472Y0252D02*
X0496D01*
X0472D02*
Y0322D01*
X0482D01*
X0496Y0252D02*
Y0322D01*
D11*
X04716Y0333D02*
Y0352D01*
X04935D01*
Y0333D02*
Y0352D01*
X04716Y0333D02*
X04935D01*
M02*
