G04*
G04 #@! TF.GenerationSoftware,Altium Limited,Altium Designer,23.2.1 (34)*
G04*
G04 Layer_Color=16711935*
%FSTAX44Y44*%
%MOMM*%
G71*
G04*
G04 #@! TF.SameCoordinates,595AB9ED-E738-4090-B1B9-C8C706B013A9*
G04*
G04*
G04 #@! TF.FilePolarity,Negative*
G04*
G01*
G75*
%ADD16C,2.2032*%
%ADD17C,1.5842*%
%ADD18O,3.2512X2.6162*%
%ADD19C,2.2352*%
%ADD20R,2.2352X2.2352*%
%ADD21C,2.0032*%
%ADD22C,1.6132*%
%ADD23R,1.6132X1.6132*%
%ADD24C,2.7432*%
%ADD25R,2.7432X2.7432*%
%ADD26C,2.3032*%
%ADD27R,2.3032X2.3032*%
%ADD28O,1.7032X1.5032*%
%ADD29R,1.7032X1.5032*%
%ADD30C,1.9812*%
%ADD52R,2.5185X1.1168*%
%ADD54R,1.4032X1.6032*%
%ADD55R,1.6032X1.4032*%
%ADD56R,1.9032X2.7032*%
%ADD57O,2.4532X1.8032*%
D16*
X0048895Y0020066D02*
D03*
X0057023D02*
D03*
X001016Y0033257D02*
D03*
Y0015257D02*
D03*
D17*
X0033401Y0036449D02*
D03*
X0043401D02*
D03*
D18*
X004217Y0030193D02*
D03*
Y0025193D02*
D03*
Y0020193D02*
D03*
Y0015193D02*
D03*
Y0010193D02*
D03*
X002667Y0030193D02*
D03*
Y0025193D02*
D03*
Y0020193D02*
D03*
Y0015193D02*
D03*
Y0010193D02*
D03*
D19*
X0047625Y0013843D02*
D03*
D20*
X0056515D02*
D03*
D21*
X002286Y0034163D02*
D03*
Y0029083D02*
D03*
X0056515Y0003429D02*
D03*
Y0008509D02*
D03*
X000381Y0003302D02*
D03*
Y0008382D02*
D03*
D22*
X0013208Y0012065D02*
D03*
X0018288D02*
D03*
X0013208Y0004445D02*
D03*
X0015748D02*
D03*
X0018288D02*
D03*
X0020828D02*
D03*
D23*
Y0012065D02*
D03*
D24*
X0018923Y001651D02*
D03*
D25*
Y0026416D02*
D03*
D26*
X0015522Y0032258D02*
D03*
X0051534Y0026416D02*
D03*
D27*
X0019022Y0032258D02*
D03*
X0048034Y0026416D02*
D03*
D28*
X0057658Y0025146D02*
D03*
D29*
Y0027686D02*
D03*
D30*
X0019431Y0020828D02*
D03*
D52*
X00065512Y0025908D02*
D03*
Y0020828D02*
D03*
X00155468D02*
D03*
Y0025908D02*
D03*
D54*
X00144126Y00149252D02*
D03*
X00163126D02*
D03*
X00215334Y00262228D02*
D03*
X00234334D02*
D03*
D55*
X00464212Y00044588D02*
D03*
Y00063588D02*
D03*
X00443176Y000635D02*
D03*
Y000445D02*
D03*
X00099094Y00076816D02*
D03*
Y00095816D02*
D03*
D56*
X0045466Y0017812D02*
D03*
Y0021812D02*
D03*
D57*
X0030802Y0004318D02*
D03*
Y0001778D02*
D03*
X0039302D02*
D03*
Y0004318D02*
D03*
M02*
