G04*
G04 #@! TF.GenerationSoftware,Altium Limited,Altium Designer,23.2.1 (34)*
G04*
G04 Layer_Color=12632256*
%FSTAX44Y44*%
%MOMM*%
G71*
G04*
G04 #@! TF.SameCoordinates,595AB9ED-E738-4090-B1B9-C8C706B013A9*
G04*
G04*
G04 #@! TF.FilePolarity,Positive*
G04*
G01*
G75*
%ADD33C,2.0000*%
%ADD34C,1.3810*%
%ADD35O,3.0480X2.4130*%
%ADD36C,2.0320*%
%ADD37R,2.0320X2.0320*%
%ADD38C,1.8000*%
%ADD39C,1.4100*%
%ADD40R,1.4100X1.4100*%
%ADD41C,2.5400*%
%ADD42R,2.5400X2.5400*%
%ADD43C,2.1000*%
%ADD44R,2.1000X2.1000*%
%ADD45O,1.5000X1.3000*%
%ADD46R,1.5000X1.3000*%
D33*
X0048895Y0020066D02*
D03*
X0057023D02*
D03*
X001016Y0033257D02*
D03*
Y0015257D02*
D03*
D34*
X0033401Y0036449D02*
D03*
X0043401D02*
D03*
D35*
X004217Y0030193D02*
D03*
Y0025193D02*
D03*
Y0020193D02*
D03*
Y0015193D02*
D03*
Y0010193D02*
D03*
X002667Y0030193D02*
D03*
Y0025193D02*
D03*
Y0020193D02*
D03*
Y0015193D02*
D03*
Y0010193D02*
D03*
D36*
X0047625Y0013843D02*
D03*
D37*
X0056515D02*
D03*
D38*
X002286Y0034163D02*
D03*
Y0029083D02*
D03*
X0056515Y0003429D02*
D03*
Y0008509D02*
D03*
X000381Y0003302D02*
D03*
Y0008382D02*
D03*
D39*
X0013208Y0012065D02*
D03*
X0018288D02*
D03*
X0013208Y0004445D02*
D03*
X0015748D02*
D03*
X0018288D02*
D03*
X0020828D02*
D03*
D40*
Y0012065D02*
D03*
D41*
X0018923Y001651D02*
D03*
D42*
Y0026416D02*
D03*
D43*
X0015522Y0032258D02*
D03*
X0051534Y0026416D02*
D03*
D44*
X0019022Y0032258D02*
D03*
X0048034Y0026416D02*
D03*
D45*
X0057658Y0025146D02*
D03*
D46*
Y0027686D02*
D03*
M02*
