G04*
G04 #@! TF.GenerationSoftware,Altium Limited,Altium Designer,23.2.1 (34)*
G04*
G04 Layer_Color=32768*
%FSTAX44Y44*%
%MOMM*%
G71*
G04*
G04 #@! TF.SameCoordinates,595AB9ED-E738-4090-B1B9-C8C706B013A9*
G04*
G04*
G04 #@! TF.FilePolarity,Positive*
G04*
G01*
G75*
%ADD11C,0.1000*%
%ADD58C,0.2000*%
%ADD59C,0.1524*%
%ADD64C,0.0500*%
G36*
X00147955Y00197616D02*
X0017314D01*
Y00269744D01*
X00147955D01*
Y00280289D01*
X00073025D01*
Y00269744D01*
X0004784D01*
Y00197616D01*
X00073025D01*
Y00187071D01*
X00147955D01*
Y00197616D01*
D02*
G37*
D11*
X0045466Y0019312D02*
Y0020312D01*
X0044966Y0019812D02*
X0045966D01*
D58*
X0032151Y0038449D02*
X0045212D01*
Y0034449D02*
Y0038449D01*
X0032151Y0034449D02*
X0045212D01*
X0032151D02*
Y0038449D01*
D59*
X00147955Y00197616D02*
X0017314D01*
X00147955Y00187071D02*
Y00197616D01*
X00073025Y00187071D02*
X00147955D01*
X00073025D02*
Y00197616D01*
X0004784D02*
X00073025D01*
X0004784D02*
Y00269744D01*
X00073025D01*
Y00280289D01*
X00147955D01*
Y00269744D02*
Y00280289D01*
Y00269744D02*
X0017314D01*
Y00197616D02*
Y00269744D01*
D64*
X0043716Y0016256D02*
X0047216D01*
X0043716Y0023368D02*
X0047216D01*
Y0016256D02*
Y0023368D01*
X0043716Y0016256D02*
Y0023368D01*
M02*
