G04*
G04 #@! TF.GenerationSoftware,Altium Limited,Altium Designer,23.2.1 (34)*
G04*
G04 Layer_Color=2752767*
%FSTAX44Y44*%
%MOMM*%
G71*
G04*
G04 #@! TF.SameCoordinates,595AB9ED-E738-4090-B1B9-C8C706B013A9*
G04*
G04*
G04 #@! TF.FilePolarity,Positive*
G04*
G01*
G75*
%ADD65C,0.1270*%
%ADD66C,0.1693*%
D65*
X0048641Y0019812D02*
Y0019558D01*
X0049149D01*
Y0019812D01*
X0049403D01*
Y002032D01*
X0049149D01*
Y0020574D01*
X0048641D01*
Y002032D01*
X0048387D01*
Y0019812D01*
X0048641D01*
X0056769D02*
Y0019558D01*
X0057277D01*
Y0019812D01*
X0057531D01*
Y002032D01*
X0057277D01*
Y0020574D01*
X0056769D01*
Y002032D01*
X0056515D01*
Y0019812D01*
X0056769D01*
X0032893Y0035941D02*
Y0036957D01*
X0033909D01*
Y0035941D01*
X0032893D01*
X0042893D02*
Y0036957D01*
X0043909D01*
Y0035941D01*
X0042893D01*
X0047117Y0013335D02*
X0047371D01*
X0047625Y0013589D01*
X0047879Y0013335D01*
X0048133D01*
Y0013589D01*
X0047879Y0013843D01*
X0048133Y0014097D01*
Y0014351D01*
X0047879D01*
X0047625Y0014097D01*
X0047371Y0014351D01*
X0047117D01*
Y0014097D01*
X0047371Y0013843D01*
X0047117Y0013589D01*
Y0013335D01*
X0056007D02*
X0056261D01*
X0056515Y0013589D01*
X0056769Y0013335D01*
X0057023D01*
Y0013589D01*
X0056769Y0013843D01*
X0057023Y0014097D01*
Y0014351D01*
X0056769D01*
X0056515Y0014097D01*
X0056261Y0014351D01*
X0056007D01*
Y0014097D01*
X0056261Y0013843D01*
X0056007Y0013589D01*
Y0013335D01*
X002286Y0033655D02*
X0023114Y0033909D01*
X0023368D01*
X0023114Y0034163D01*
X0023368Y0034417D01*
X0023114D01*
X002286Y0034671D01*
X0022606Y0034417D01*
X0022352D01*
X0022606Y0034163D01*
X0022352Y0033909D01*
X0022606D01*
X002286Y0033655D01*
Y0028575D02*
X0023114Y0028829D01*
X0023368D01*
X0023114Y0029083D01*
X0023368Y0029337D01*
X0023114D01*
X002286Y0029591D01*
X0022606Y0029337D01*
X0022352D01*
X0022606Y0029083D01*
X0022352Y0028829D01*
X0022606D01*
X002286Y0028575D01*
X0056515Y0002921D02*
X0056007Y0003937D01*
X0057023D01*
X0056515Y0002921D01*
Y0008001D02*
X0056007Y0009017D01*
X0057023D01*
X0056515Y0008001D01*
X00127Y0012065D02*
X0013208Y0012573D01*
X0013716Y0012065D01*
X0013208Y0011557D01*
X00127Y0012065D01*
X001778D02*
X0018288Y0012573D01*
X0018796Y0012065D01*
X0018288Y0011557D01*
X001778Y0012065D01*
X002032D02*
X0020828Y0012573D01*
X0021336Y0012065D01*
X0020828Y0011557D01*
X002032Y0012065D01*
X00127Y0004445D02*
X0013208Y0004953D01*
X0013716Y0004445D01*
X0013208Y0003937D01*
X00127Y0004445D01*
X001524D02*
X0015748Y0004953D01*
X0016256Y0004445D01*
X0015748Y0003937D01*
X001524Y0004445D01*
X001778D02*
X0018288Y0004953D01*
X0018796Y0004445D01*
X0018288Y0003937D01*
X001778Y0004445D01*
X002032D02*
X0020828Y0004953D01*
X0021336Y0004445D01*
X0020828Y0003937D01*
X002032Y0004445D01*
X000381Y0002794D02*
X0003302Y000381D01*
X0004318D01*
X000381Y0002794D01*
Y0007874D02*
X0003302Y000889D01*
X0004318D01*
X000381Y0007874D01*
X0015014Y003175D02*
X0015268Y0032258D01*
X0015014Y0032766D01*
X0015522Y0032512D01*
X001603Y0032766D01*
X0015776Y0032258D01*
X001603Y003175D01*
X0015522Y0032004D01*
X0015014Y003175D01*
X0018514D02*
X0018768Y0032258D01*
X0018514Y0032766D01*
X0019022Y0032512D01*
X001953Y0032766D01*
X0019276Y0032258D01*
X001953Y003175D01*
X0019022Y0032004D01*
X0018514Y003175D01*
X0009652Y0032749D02*
X0009906Y0033257D01*
X0009652Y0033765D01*
X001016Y0033511D01*
X0010668Y0033765D01*
X0010414Y0033257D01*
X0010668Y0032749D01*
X001016Y0033003D01*
X0009652Y0032749D01*
Y0014749D02*
X0009906Y0015257D01*
X0009652Y0015765D01*
X001016Y0015511D01*
X0010668Y0015765D01*
X0010414Y0015257D01*
X0010668Y0014749D01*
X001016Y0015003D01*
X0009652Y0014749D01*
X0057658Y0024638D02*
X0057912Y0024892D01*
X0058166D01*
X0057912Y0025146D01*
X0058166Y00254D01*
X0057912D01*
X0057658Y0025654D01*
X0057404Y00254D01*
X005715D01*
X0057404Y0025146D01*
X005715Y0024892D01*
X0057404D01*
X0057658Y0024638D01*
Y0027178D02*
X0057912Y0027432D01*
X0058166D01*
X0057912Y0027686D01*
X0058166Y002794D01*
X0057912D01*
X0057658Y0028194D01*
X0057404Y002794D01*
X005715D01*
X0057404Y0027686D01*
X005715Y0027432D01*
X0057404D01*
X0057658Y0027178D01*
X0051026Y0025908D02*
X005128Y0026416D01*
X0051026Y0026924D01*
X0051534Y002667D01*
X0052042Y0026924D01*
X0051788Y0026416D01*
X0052042Y0025908D01*
X0051534Y0026162D01*
X0051026Y0025908D01*
X0047526D02*
X004778Y0026416D01*
X0047526Y0026924D01*
X0048034Y002667D01*
X0048542Y0026924D01*
X0048288Y0026416D01*
X0048542Y0025908D01*
X0048034Y0026162D01*
X0047526Y0025908D01*
X0018923Y002032D02*
X0019177D01*
X0019431Y0020574D01*
X0019685Y002032D01*
X0019939D01*
Y0020574D01*
X0019685Y0020828D01*
X0019939Y0021082D01*
Y0021336D01*
X0019685D01*
X0019431Y0021082D01*
X0019177Y0021336D01*
X0018923D01*
Y0021082D01*
X0019177Y0020828D01*
X0018923Y0020574D01*
Y002032D01*
D66*
X0042678Y0030193D02*
G03*
X0042678Y0030193I-0000508J0D01*
G01*
Y0025193D02*
G03*
X0042678Y0025193I-0000508J0D01*
G01*
Y0020193D02*
G03*
X0042678Y0020193I-0000508J0D01*
G01*
Y0015193D02*
G03*
X0042678Y0015193I-0000508J0D01*
G01*
Y0010193D02*
G03*
X0042678Y0010193I-0000508J0D01*
G01*
X0027178Y0030193D02*
G03*
X0027178Y0030193I-0000508J0D01*
G01*
Y0025193D02*
G03*
X0027178Y0025193I-0000508J0D01*
G01*
Y0020193D02*
G03*
X0027178Y0020193I-0000508J0D01*
G01*
Y0015193D02*
G03*
X0027178Y0015193I-0000508J0D01*
G01*
Y0010193D02*
G03*
X0027178Y0010193I-0000508J0D01*
G01*
X0019431Y001651D02*
G03*
X0019431Y001651I-0000508J0D01*
G01*
Y0026416D02*
G03*
X0019431Y0026416I-0000508J0D01*
G01*
M02*
