G04*
G04 #@! TF.GenerationSoftware,Altium Limited,Altium Designer,23.2.1 (34)*
G04*
G04 Layer_Color=65535*
%FSTAX44Y44*%
%MOMM*%
G71*
G04*
G04 #@! TF.SameCoordinates,595AB9ED-E738-4090-B1B9-C8C706B013A9*
G04*
G04*
G04 #@! TF.FilePolarity,Positive*
G04*
G01*
G75*
%ADD10C,0.2540*%
%ADD11C,0.1000*%
%ADD12C,0.2032*%
%ADD13C,0.1778*%
%ADD14C,0.3000*%
%ADD15R,3.1750X1.2700*%
G36*
X005461Y0012573D02*
Y0015113D01*
X0053848D01*
Y0012573D01*
X005461D01*
D02*
G37*
D10*
X0024055Y0034164D02*
G03*
X00216649Y0034164I-00011951J-0000001D01*
G01*
Y00290566D02*
G03*
X0024055Y00290566I00011951J0000001D01*
G01*
X0021272Y0032258D02*
G03*
X0021272Y0032258I-0004J0D01*
G01*
X00601726Y0026416D02*
G03*
X00601726Y0026416I-00025146J0D01*
G01*
X0053784D02*
G03*
X0053784Y0026416I-0004J0D01*
G01*
X0050419Y0018796D02*
X0055499D01*
Y002159D01*
X0050419D02*
X0055499D01*
X0050419Y0018796D02*
Y002159D01*
X002286Y00320294D02*
Y00330708D01*
Y0030226D02*
Y00312674D01*
X00220218D02*
X00237236D01*
X00220218Y00319532D02*
X00237236D01*
X00240538Y00290576D02*
Y00341884D01*
X00216662Y00290322D02*
Y00341122D01*
X00136906Y00340106D02*
X0015494Y0035814D01*
X00155448D01*
X00132842Y0032639D02*
X0016891Y00362458D01*
X00172212D01*
X00133858Y00315722D02*
X0017272Y00354584D01*
X0013589Y00307594D02*
X0017272Y00344424D01*
X00139446Y0030099D02*
X0017272Y00334264D01*
Y00336296D01*
X00144018Y00295148D02*
X0017272Y0032385D01*
Y00328422D01*
X00149606Y0029083D02*
X0017272Y00313944D01*
Y00316992D01*
X00155956Y0028702D02*
X0017272Y00303784D01*
Y00309626D01*
X00163068Y0028448D02*
X0017272Y00294132D01*
Y00296164D01*
Y0028258D02*
Y0036258D01*
X001016Y0032258D02*
Y0033401D01*
Y0015113D02*
Y0016256D01*
X001291Y0016257D02*
Y0032257D01*
X000741Y0016257D02*
X001291D01*
X000741D02*
Y0032257D01*
X001291D01*
X00552196Y00257556D02*
X00569468Y00240284D01*
X00552196Y00257556D02*
Y00259588D01*
X00552958Y0026416D02*
X00578104Y00239014D01*
X0056134Y0026416D02*
X00584962Y00240538D01*
X00561086Y0026416D02*
X0056134D01*
X0057023D02*
X00590296Y00244094D01*
X00569214Y0026416D02*
X0057023D01*
X00578612D02*
X00595122Y0024765D01*
X00586486Y0026416D02*
X0059817Y00252476D01*
X00586232Y0026416D02*
X00586486D01*
X00594106D02*
X00600202Y00258064D01*
X00589788Y0026416D02*
X00594106D01*
X00589788D02*
X00593852D01*
X00551688D02*
X00601726D01*
X0051562Y002286D02*
X00533654Y00246634D01*
X00515112Y002286D02*
X0051562D01*
X0050165Y00224282D02*
X00537718Y0026035D01*
X00498348Y00224282D02*
X0050165D01*
X0049784Y00232156D02*
X00536702Y00271018D01*
X0049784Y00242316D02*
X0053467Y00279146D01*
X0049784Y00252476D02*
X00531114Y0028575D01*
X0049784Y00250444D02*
Y00252476D01*
Y0026289D02*
X00526542Y00291592D01*
X0049784Y00258318D02*
Y0026289D01*
Y00272796D02*
X00520954Y0029591D01*
X0049784Y00269748D02*
Y00272796D01*
Y00282956D02*
X00514604Y0029972D01*
X0049784Y00277114D02*
Y00282956D01*
Y00292608D02*
X00507492Y0030226D01*
X0049784Y00290576D02*
Y00292608D01*
Y0022416D02*
Y0030416D01*
X00245364Y00346451D02*
X00255521D01*
X00250442D01*
Y00331216D01*
X00260599D02*
X00265677D01*
X00263138D01*
Y00346451D01*
X00260599Y00343912D01*
X0021844Y00386078D02*
X00215901Y00388618D01*
X00210823D01*
X00208283Y00386078D01*
Y00375922D01*
X00210823Y00373382D01*
X00215901D01*
X0021844Y00375922D01*
X00223518Y00373382D02*
X00228597D01*
X00226058D01*
Y00388618D01*
X00223518Y00386078D01*
X00088903Y00114298D02*
Y00101602D01*
X00091442Y00099062D01*
X00096521D01*
X0009906Y00101602D01*
Y00114298D01*
X00104138Y00099062D02*
X00109217D01*
X00106678D01*
Y00114298D01*
X00104138Y00111758D01*
X00074168Y00351282D02*
Y00366517D01*
X00081785D01*
X00084325Y00363978D01*
Y00358899D01*
X00081785Y0035636D01*
X00074168D01*
X00079246D02*
X00084325Y00351282D01*
X0009956D02*
X00089403D01*
X0009956Y00361439D01*
Y00363978D01*
X00097021Y00366517D01*
X00091942D01*
X00089403Y00363978D01*
X00471173Y00210818D02*
Y00195583D01*
X0048133D01*
X00486408D02*
X00491487D01*
X00488948D01*
Y00210818D01*
X00486408Y00208278D01*
X00514351Y00030477D02*
X00509272D01*
X00511812D01*
Y00017782D01*
X00509272Y00015243D01*
X00506733D01*
X00504194Y00017782D01*
X00529586Y00015243D02*
X00519429D01*
X00529586Y00025399D01*
Y00027938D01*
X00527047Y00030477D01*
X00521968D01*
X00519429Y00027938D01*
X00020317Y00137155D02*
X00015238D01*
X00017778D01*
Y00124459D01*
X00015238Y0012192D01*
X00012699D01*
X0001016Y00124459D01*
X00025395Y0012192D02*
X00030473D01*
X00027934D01*
Y00137155D01*
X00025395Y00134616D01*
X00472444Y00175257D02*
Y00160023D01*
X00480062D01*
X00482601Y00162562D01*
Y00172718D01*
X00480062Y00175257D01*
X00472444D01*
X00495297Y00160023D02*
Y00175257D01*
X00487679Y0016764D01*
X00497836D01*
X00210824Y00208277D02*
Y00193043D01*
X00218442D01*
X00220981Y00195582D01*
Y00205738D01*
X00218442Y00208277D01*
X00210824D01*
X00226059Y00205738D02*
X00228598Y00208277D01*
X00233677D01*
X00236216Y00205738D01*
Y00203199D01*
X00233677Y0020066D01*
X00231138D01*
X00233677D01*
X00236216Y00198121D01*
Y00195582D01*
X00233677Y00193043D01*
X00228598D01*
X00226059Y00195582D01*
X00557527Y00315718D02*
X00554987Y00318257D01*
X00549909D01*
X0054737Y00315718D01*
Y00305561D01*
X00549909Y00303022D01*
X00554987D01*
X00557527Y00305561D01*
X00572762Y00318257D02*
X00562605D01*
Y00310639D01*
X00567683Y00313179D01*
X00570223D01*
X00572762Y00310639D01*
Y00305561D01*
X00570223Y00303022D01*
X00565144D01*
X00562605Y00305561D01*
X00469389Y00325624D02*
X0046685Y00328163D01*
X00461771D01*
X00459232Y00325624D01*
Y00315467D01*
X00461771Y00312928D01*
X0046685D01*
X00469389Y00315467D01*
X00482085Y00312928D02*
Y00328163D01*
X00474467Y00320546D01*
X00484624D01*
X00144269Y00384044D02*
X00141729Y00386583D01*
X00136651D01*
X00134112Y00384044D01*
Y00373887D01*
X00136651Y00371348D01*
X00141729D01*
X00144269Y00373887D01*
X00149347Y00384044D02*
X00151886Y00386583D01*
X00156965D01*
X00159504Y00384044D01*
Y00381505D01*
X00156965Y00378965D01*
X00154425D01*
X00156965D01*
X00159504Y00376426D01*
Y00373887D01*
X00156965Y00371348D01*
X00151886D01*
X00149347Y00373887D01*
X00204471Y00274318D02*
X00201932Y00276857D01*
X00196853D01*
X00194314Y00274318D01*
Y00264162D01*
X00196853Y00261623D01*
X00201932D01*
X00204471Y00264162D01*
X00219706Y00261623D02*
X00209549D01*
X00219706Y00271779D01*
Y00274318D01*
X00217167Y00276857D01*
X00212088D01*
X00209549Y00274318D01*
D11*
X0032151Y0038449D02*
X0045212D01*
Y0034449D02*
Y0038449D01*
X0032151Y0034449D02*
X0045212D01*
X0032151D02*
Y0038449D01*
D12*
X0024384Y00078734D02*
X004445D01*
Y00322574D01*
X0024384Y00078734D02*
Y00322574D01*
X004445D01*
X00244221Y00314573D02*
X00251841Y00322193D01*
D13*
X004953Y0013843D02*
X0051054D01*
X0052451D02*
X0054102D01*
X005461Y0012573D02*
Y0013843D01*
X004953Y0012573D02*
X005461D01*
X004953D02*
Y0015113D01*
X005461D01*
Y0013843D02*
Y0015113D01*
X0048768Y0013843D02*
X004953D01*
X005461D02*
X0055372D01*
X005461Y00133096D02*
Y0013843D01*
Y00142494D01*
X00523494Y00131318D02*
X00529082Y0012573D01*
X00523494Y00131318D02*
Y00146558D01*
X00519049Y00151003D02*
X00523494Y00146558D01*
X0052324Y0013843D02*
Y00138684D01*
X00510794Y00125984D02*
X0052324Y0013843D01*
X00510794Y0012573D02*
Y00125984D01*
Y0012573D02*
Y0015113D01*
X00523367Y00138557D01*
X00181356Y00246126D02*
X0018923D01*
X00197358D01*
X0017272Y0024511D02*
X0020447D01*
X0018923Y00246126D02*
Y00255016D01*
X0017272Y00246126D02*
X0020447D01*
X0018923Y00171196D02*
Y0018288D01*
X0017272D02*
X0020447D01*
X0017272D02*
Y00246126D01*
X0020447Y0018288D02*
Y00246126D01*
D14*
X001143Y0013716D02*
X002286D01*
X001143Y0003048D02*
X0022987D01*
X0022225Y0006096D02*
Y0010668D01*
X001143Y0003048D02*
Y0013716D01*
X0022225Y0010668D02*
X002286Y0011303D01*
Y0013716D01*
X0022225Y0006096D02*
X0022987Y0005334D01*
Y0003048D02*
Y0005334D01*
D15*
X00188595Y0023368D02*
D03*
M02*
