M48
;Layer_Color=9474304
;FILE_FORMAT=4:2
METRIC,LZ
;TYPE=PLATED
T1F00S00C0.80
T2F00S00C0.85
T3F00S00C0.86
T4F00S00C0.89
T5F00S00C0.90
T6F00S00C1.00
T7F00S00C1.14
T8F00S00C1.20
%
T01
X004851Y011621
X008331Y011481
Y011227
X004851Y012129
T02
X005906Y012357
X006906
T03
X003886Y009157
Y009919
X004394
X004648
Y009157
X004394
X00414
T04
X004508Y010795
X007328Y010096
X008217
T05
X003581Y010238
X007369Y011354
X007719
X004468Y011938
X004118
X003581Y012038
T06
X002946Y009042
Y00955
X008217Y009563
Y009055
T07
X004458Y010363
X005232Y010232
Y010732
Y011232
Y011732
X004458Y011354
X005232Y009732
X006782
Y010232
Y010732
Y011232
Y011732
T08
X007455Y010719
X008268
M30
