G04*
G04 #@! TF.GenerationSoftware,Altium Limited,Altium Designer,23.2.1 (34)*
G04*
G04 Layer_Color=16711935*
%FSTAX44Y44*%
%MOMM*%
G71*
G04*
G04 #@! TF.SameCoordinates,595AB9ED-E738-4090-B1B9-C8C706B013A9*
G04*
G04*
G04 #@! TF.FilePolarity,Positive*
G04*
G01*
G75*
%ADD11C,0.1000*%
%ADD60C,0.0762*%
%ADD61C,0.0000*%
%ADD62C,0.0254*%
%ADD63R,2.9200X0.6187*%
D11*
X0044006Y0017512D02*
X0046926D01*
X0044006Y0022112D02*
X0046926D01*
Y0017512D02*
Y0022112D01*
X0044006Y0017512D02*
Y0022112D01*
D60*
X0014224Y00272327D02*
X00133776Y00263863D01*
X0014224D02*
X00133776Y00272327D01*
X0014224Y00268095D02*
X00133776D01*
X00138008Y00263863D02*
Y00272327D01*
D61*
X00107442Y00275209D02*
G03*
X00113538Y00275209I00003048J0D01*
G01*
D62*
X00142875Y00192151D02*
Y00275209D01*
X00078105D02*
X00142875D01*
X00078105Y00192151D02*
Y00275209D01*
Y00192151D02*
X00142875D01*
X0005842Y00264414D02*
X00078105D01*
X0005842Y00253746D02*
Y00264414D01*
Y00253746D02*
X00078105D01*
Y00264414D01*
X0005842Y00213614D02*
X00078105D01*
X0005842Y00202946D02*
Y00213614D01*
Y00202946D02*
X00078105D01*
Y00213614D01*
X00142875Y00202946D02*
X0016256D01*
Y00213614D01*
X00142875D02*
X0016256D01*
X00142875Y00202946D02*
Y00213614D01*
Y00253746D02*
X0016256D01*
Y00264414D01*
X00142875D02*
X0016256D01*
X00142875Y00253746D02*
Y00264414D01*
D63*
X0045466Y00218027D02*
D03*
M02*
