%TF.GenerationSoftware,Altium Limited,Altium Designer,23.2.1 (34)*%
G04 Layer_Physical_Order=1*
G04 Layer_Color=255*
%FSLAX45Y45*%
%MOMM*%
%TF.SameCoordinates,D98782AB-18DC-49D6-9FB6-03BAABF1E9A2*%
%TF.FilePolarity,Positive*%
%TF.FileFunction,Copper,L1,Top,Signal*%
%TF.Part,Single*%
G01*
G75*
%TA.AperFunction,Conductor*%
%ADD10C,1.39700*%
%ADD11C,0.88900*%
%TA.AperFunction,ComponentPad*%
%ADD12C,2.00000*%
%ADD13C,1.38100*%
%ADD14O,3.04800X2.41300*%
%ADD15C,2.03200*%
%ADD16R,2.03200X2.03200*%
%ADD17C,1.80000*%
%ADD18C,1.41000*%
%ADD19R,1.41000X1.41000*%
%ADD20C,2.54000*%
%ADD21R,2.54000X2.54000*%
%ADD22C,2.10000*%
%ADD23R,2.10000X2.10000*%
%ADD24O,1.50000X1.30000*%
%ADD25R,1.50000X1.30000*%
%TA.AperFunction,ViaPad*%
%ADD26C,1.77800*%
D10*
X5153400Y2641600D02*
Y3563066D01*
X5071565Y3644900D02*
X5153400Y3563066D01*
X4340100Y3644900D02*
X5071565D01*
X2647560Y2499860D02*
X2667000Y2519300D01*
X2387600Y2437466D02*
X2449995Y2499860D01*
X2387600Y1745535D02*
Y2437466D01*
X2449995Y2499860D02*
X2647560D01*
X2293066Y1651000D02*
X2387600Y1745535D01*
X1892300Y1651000D02*
X2293066D01*
X4746500Y1019300D02*
X4914900Y850900D01*
X4217000Y1019300D02*
X4746500D01*
X5153400Y2631585D02*
Y2641600D01*
X4914900Y850900D02*
X5651500D01*
X5659211Y350611D02*
X5925266D01*
X5770650Y2763750D02*
X5925266D01*
X6007100Y432445D02*
Y2681916D01*
X5925266Y350611D02*
X6007100Y432445D01*
X5925266Y2763750D02*
X6007100Y2681916D01*
X5765800Y2768600D02*
X5770650Y2763750D01*
X5153400Y2631585D02*
X5270384Y2514600D01*
X5765800D01*
X5651500Y342900D02*
X5659211Y350611D01*
X5861766Y2006600D02*
X5943600Y1924766D01*
X5702300Y2006600D02*
X5861766D01*
D11*
X5236024Y885376D02*
X5270500Y919853D01*
X5322577Y2247900D02*
X5664200D01*
X5270500Y2195823D02*
X5322577Y2247900D01*
X5270500Y919853D02*
Y2195823D01*
X5664200Y2247900D02*
X5765800Y2349500D01*
Y2514600D01*
X1320800Y1206500D02*
Y1549400D01*
X1422400Y1651000D01*
X1892300D01*
X800100Y2070100D02*
Y2946400D01*
Y496577D02*
Y2070100D01*
X1930400D01*
X1943100Y2082800D01*
X852177Y444500D02*
X1320800D01*
X800100Y496577D02*
X852177Y444500D01*
X800100Y2946400D02*
X876300Y3022600D01*
X1349000D01*
X1552200Y3225800D01*
D12*
X4889500Y2006600D02*
D03*
X5702300D02*
D03*
X1016000Y3325700D02*
D03*
Y1525700D02*
D03*
D13*
X3340100Y3644900D02*
D03*
X4340100D02*
D03*
D14*
X4217000Y3019300D02*
D03*
Y2519300D02*
D03*
Y2019300D02*
D03*
Y1519300D02*
D03*
Y1019300D02*
D03*
X2667000Y3019300D02*
D03*
Y2519300D02*
D03*
Y2019300D02*
D03*
Y1519300D02*
D03*
Y1019300D02*
D03*
D15*
X4762500Y1384300D02*
D03*
D16*
X5651500D02*
D03*
D17*
X2286000Y3416300D02*
D03*
Y2908300D02*
D03*
X5651500Y342900D02*
D03*
Y850900D02*
D03*
X381000Y330200D02*
D03*
Y838200D02*
D03*
D18*
X1320800Y1206500D02*
D03*
X1828800D02*
D03*
X1320800Y444500D02*
D03*
X1574800D02*
D03*
X1828800D02*
D03*
X2082800D02*
D03*
D19*
Y1206500D02*
D03*
D20*
X1892300Y1651000D02*
D03*
D21*
Y2641600D02*
D03*
D22*
X1552200Y3225800D02*
D03*
X5153400Y2641600D02*
D03*
D23*
X1902200Y3225800D02*
D03*
X4803400Y2641600D02*
D03*
D24*
X5765800Y2514600D02*
D03*
D25*
Y2768600D02*
D03*
D26*
X1943100Y2082800D02*
D03*
%TF.MD5,d4f1747b614550b30c5d9ff8217dda3a*%
M02*
