G04*
G04 #@! TF.GenerationSoftware,Altium Limited,Altium Designer,21.0.9 (235)*
G04*
G04 Layer_Color=8388736*
%FSTAX24Y24*%
%MOIN*%
G70*
G04*
G04 #@! TF.SameCoordinates,5F115E56-97AE-4741-9C3E-E3F8848F1E5A*
G04*
G04*
G04 #@! TF.FilePolarity,Negative*
G04*
G01*
G75*
G04:AMPARAMS|DCode=67|XSize=68mil|YSize=73mil|CornerRadius=0mil|HoleSize=0mil|Usage=FLASHONLY|Rotation=195.575|XOffset=0mil|YOffset=0mil|HoleType=Round|Shape=Rectangle|*
%AMROTATEDRECTD67*
4,1,4,0.0230,0.0443,0.0426,-0.0260,-0.0230,-0.0443,-0.0426,0.0260,0.0230,0.0443,0.0*
%
%ADD67ROTATEDRECTD67*%

G04:AMPARAMS|DCode=68|XSize=68mil|YSize=73mil|CornerRadius=0mil|HoleSize=0mil|Usage=FLASHONLY|Rotation=193.000|XOffset=0mil|YOffset=0mil|HoleType=Round|Shape=Rectangle|*
%AMROTATEDRECTD68*
4,1,4,0.0249,0.0432,0.0413,-0.0279,-0.0249,-0.0432,-0.0413,0.0279,0.0249,0.0432,0.0*
%
%ADD68ROTATEDRECTD68*%

G04:AMPARAMS|DCode=69|XSize=86.7mil|YSize=43.4mil|CornerRadius=0mil|HoleSize=0mil|Usage=FLASHONLY|Rotation=331.572|XOffset=0mil|YOffset=0mil|HoleType=Round|Shape=Octagon|*
%AMOCTAGOND69*
4,1,8,0.0330,-0.0302,0.0433,-0.0111,0.0389,0.0036,-0.0183,0.0346,-0.0330,0.0302,-0.0433,0.0111,-0.0389,-0.0036,0.0183,-0.0346,0.0330,-0.0302,0.0*
%
%ADD69OCTAGOND69*%

G04:AMPARAMS|DCode=70|XSize=86.7mil|YSize=43.4mil|CornerRadius=0mil|HoleSize=0mil|Usage=FLASHONLY|Rotation=331.572|XOffset=0mil|YOffset=0mil|HoleType=Round|Shape=Round|*
%AMOVALD70*
21,1,0.0433,0.0434,0.0000,0.0000,331.6*
1,1,0.0434,-0.0190,0.0103*
1,1,0.0434,0.0190,-0.0103*
%
%ADD70OVALD70*%

G04:AMPARAMS|DCode=71|XSize=106.4mil|YSize=100.5mil|CornerRadius=0mil|HoleSize=0mil|Usage=FLASHONLY|Rotation=168.500|XOffset=0mil|YOffset=0mil|HoleType=Round|Shape=Rectangle|*
%AMROTATEDRECTD71*
4,1,4,0.0622,0.0386,0.0421,-0.0599,-0.0622,-0.0386,-0.0421,0.0599,0.0622,0.0386,0.0*
%
%ADD71ROTATEDRECTD71*%

G04:AMPARAMS|DCode=72|XSize=100.5mil|YSize=47.4mil|CornerRadius=0mil|HoleSize=0mil|Usage=FLASHONLY|Rotation=78.500|XOffset=0mil|YOffset=0mil|HoleType=Round|Shape=Rectangle|*
%AMROTATEDRECTD72*
4,1,4,0.0132,-0.0540,-0.0332,-0.0445,-0.0132,0.0540,0.0332,0.0445,0.0132,-0.0540,0.0*
%
%ADD72ROTATEDRECTD72*%

G04:AMPARAMS|DCode=73|XSize=106.4mil|YSize=100.5mil|CornerRadius=0mil|HoleSize=0mil|Usage=FLASHONLY|Rotation=168.500|XOffset=0mil|YOffset=0mil|HoleType=Round|Shape=Rectangle|*
%AMROTATEDRECTD73*
4,1,4,0.0622,0.0386,0.0421,-0.0599,-0.0622,-0.0386,-0.0421,0.0599,0.0622,0.0386,0.0*
%
%ADD73ROTATEDRECTD73*%

G04:AMPARAMS|DCode=74|XSize=100.5mil|YSize=47.4mil|CornerRadius=0mil|HoleSize=0mil|Usage=FLASHONLY|Rotation=78.500|XOffset=0mil|YOffset=0mil|HoleType=Round|Shape=Rectangle|*
%AMROTATEDRECTD74*
4,1,4,0.0132,-0.0540,-0.0332,-0.0445,-0.0132,0.0540,0.0332,0.0445,0.0132,-0.0540,0.0*
%
%ADD74ROTATEDRECTD74*%

G04:AMPARAMS|DCode=75|XSize=106.4mil|YSize=100.5mil|CornerRadius=0mil|HoleSize=0mil|Usage=FLASHONLY|Rotation=55.099|XOffset=0mil|YOffset=0mil|HoleType=Round|Shape=Rectangle|*
%AMROTATEDRECTD75*
4,1,4,0.0108,-0.0724,-0.0717,-0.0149,-0.0108,0.0724,0.0717,0.0149,0.0108,-0.0724,0.0*
%
%ADD75ROTATEDRECTD75*%

G04:AMPARAMS|DCode=76|XSize=100.5mil|YSize=47.4mil|CornerRadius=0mil|HoleSize=0mil|Usage=FLASHONLY|Rotation=325.099|XOffset=0mil|YOffset=0mil|HoleType=Round|Shape=Rectangle|*
%AMROTATEDRECTD76*
4,1,4,-0.0548,0.0093,-0.0277,0.0482,0.0548,-0.0093,0.0277,-0.0482,-0.0548,0.0093,0.0*
%
%ADD76ROTATEDRECTD76*%

G04:AMPARAMS|DCode=77|XSize=106.4mil|YSize=100.5mil|CornerRadius=0mil|HoleSize=0mil|Usage=FLASHONLY|Rotation=55.139|XOffset=0mil|YOffset=0mil|HoleType=Round|Shape=Rectangle|*
%AMROTATEDRECTD77*
4,1,4,0.0108,-0.0724,-0.0717,-0.0149,-0.0108,0.0724,0.0717,0.0149,0.0108,-0.0724,0.0*
%
%ADD77ROTATEDRECTD77*%

G04:AMPARAMS|DCode=78|XSize=100.5mil|YSize=47.4mil|CornerRadius=0mil|HoleSize=0mil|Usage=FLASHONLY|Rotation=325.139|XOffset=0mil|YOffset=0mil|HoleType=Round|Shape=Rectangle|*
%AMROTATEDRECTD78*
4,1,4,-0.0548,0.0093,-0.0277,0.0482,0.0548,-0.0093,0.0277,-0.0482,-0.0548,0.0093,0.0*
%
%ADD78ROTATEDRECTD78*%

G04:AMPARAMS|DCode=79|XSize=106.4mil|YSize=100.5mil|CornerRadius=0mil|HoleSize=0mil|Usage=FLASHONLY|Rotation=171.031|XOffset=0mil|YOffset=0mil|HoleType=Round|Shape=Rectangle|*
%AMROTATEDRECTD79*
4,1,4,0.0604,0.0413,0.0447,-0.0579,-0.0604,-0.0413,-0.0447,0.0579,0.0604,0.0413,0.0*
%
%ADD79ROTATEDRECTD79*%

G04:AMPARAMS|DCode=80|XSize=100.5mil|YSize=47.4mil|CornerRadius=0mil|HoleSize=0mil|Usage=FLASHONLY|Rotation=81.031|XOffset=0mil|YOffset=0mil|HoleType=Round|Shape=Rectangle|*
%AMROTATEDRECTD80*
4,1,4,0.0156,-0.0533,-0.0312,-0.0460,-0.0156,0.0533,0.0312,0.0460,0.0156,-0.0533,0.0*
%
%ADD80ROTATEDRECTD80*%

G04:AMPARAMS|DCode=81|XSize=106.4mil|YSize=100.5mil|CornerRadius=0mil|HoleSize=0mil|Usage=FLASHONLY|Rotation=163.543|XOffset=0mil|YOffset=0mil|HoleType=Round|Shape=Rectangle|*
%AMROTATEDRECTD81*
4,1,4,0.0653,0.0331,0.0368,-0.0633,-0.0653,-0.0331,-0.0368,0.0633,0.0653,0.0331,0.0*
%
%ADD81ROTATEDRECTD81*%

G04:AMPARAMS|DCode=82|XSize=100.5mil|YSize=47.4mil|CornerRadius=0mil|HoleSize=0mil|Usage=FLASHONLY|Rotation=73.543|XOffset=0mil|YOffset=0mil|HoleType=Round|Shape=Rectangle|*
%AMROTATEDRECTD82*
4,1,4,0.0085,-0.0549,-0.0370,-0.0415,-0.0085,0.0549,0.0370,0.0415,0.0085,-0.0549,0.0*
%
%ADD82ROTATEDRECTD82*%

G04:AMPARAMS|DCode=83|XSize=106.4mil|YSize=100.5mil|CornerRadius=0mil|HoleSize=0mil|Usage=FLASHONLY|Rotation=164.469|XOffset=0mil|YOffset=0mil|HoleType=Round|Shape=Rectangle|*
%AMROTATEDRECTD83*
4,1,4,0.0647,0.0342,0.0378,-0.0627,-0.0647,-0.0342,-0.0378,0.0627,0.0647,0.0342,0.0*
%
%ADD83ROTATEDRECTD83*%

G04:AMPARAMS|DCode=84|XSize=100.5mil|YSize=47.4mil|CornerRadius=0mil|HoleSize=0mil|Usage=FLASHONLY|Rotation=74.469|XOffset=0mil|YOffset=0mil|HoleType=Round|Shape=Rectangle|*
%AMROTATEDRECTD84*
4,1,4,0.0094,-0.0548,-0.0363,-0.0421,-0.0094,0.0548,0.0363,0.0421,0.0094,-0.0548,0.0*
%
%ADD84ROTATEDRECTD84*%

G04:AMPARAMS|DCode=85|XSize=106.4mil|YSize=100.5mil|CornerRadius=0mil|HoleSize=0mil|Usage=FLASHONLY|Rotation=171.969|XOffset=0mil|YOffset=0mil|HoleType=Round|Shape=Rectangle|*
%AMROTATEDRECTD85*
4,1,4,0.0597,0.0423,0.0457,-0.0572,-0.0597,-0.0423,-0.0457,0.0572,0.0597,0.0423,0.0*
%
%ADD85ROTATEDRECTD85*%

G04:AMPARAMS|DCode=86|XSize=100.5mil|YSize=47.4mil|CornerRadius=0mil|HoleSize=0mil|Usage=FLASHONLY|Rotation=81.969|XOffset=0mil|YOffset=0mil|HoleType=Round|Shape=Rectangle|*
%AMROTATEDRECTD86*
4,1,4,0.0164,-0.0531,-0.0305,-0.0465,-0.0164,0.0531,0.0305,0.0465,0.0164,-0.0531,0.0*
%
%ADD86ROTATEDRECTD86*%

G04:AMPARAMS|DCode=87|XSize=106.4mil|YSize=100.5mil|CornerRadius=0mil|HoleSize=0mil|Usage=FLASHONLY|Rotation=128.500|XOffset=0mil|YOffset=0mil|HoleType=Round|Shape=Rectangle|*
%AMROTATEDRECTD87*
4,1,4,0.0725,-0.0104,-0.0062,-0.0729,-0.0725,0.0104,0.0062,0.0729,0.0725,-0.0104,0.0*
%
%ADD87ROTATEDRECTD87*%

G04:AMPARAMS|DCode=88|XSize=100.5mil|YSize=47.4mil|CornerRadius=0mil|HoleSize=0mil|Usage=FLASHONLY|Rotation=38.500|XOffset=0mil|YOffset=0mil|HoleType=Round|Shape=Rectangle|*
%AMROTATEDRECTD88*
4,1,4,-0.0246,-0.0498,-0.0541,-0.0128,0.0246,0.0498,0.0541,0.0128,-0.0246,-0.0498,0.0*
%
%ADD88ROTATEDRECTD88*%

G04:AMPARAMS|DCode=89|XSize=86.7mil|YSize=43.4mil|CornerRadius=0mil|HoleSize=0mil|Usage=FLASHONLY|Rotation=270.500|XOffset=0mil|YOffset=0mil|HoleType=Round|Shape=Round|*
%AMOVALD89*
21,1,0.0433,0.0434,0.0000,0.0000,270.5*
1,1,0.0434,-0.0002,0.0217*
1,1,0.0434,0.0002,-0.0217*
%
%ADD89OVALD89*%

G04:AMPARAMS|DCode=90|XSize=86.7mil|YSize=43.4mil|CornerRadius=0mil|HoleSize=0mil|Usage=FLASHONLY|Rotation=270.500|XOffset=0mil|YOffset=0mil|HoleType=Round|Shape=Octagon|*
%AMOCTAGOND90*
4,1,8,-0.0105,-0.0435,0.0112,-0.0433,0.0220,-0.0323,0.0214,0.0327,0.0105,0.0435,-0.0112,0.0433,-0.0220,0.0323,-0.0214,-0.0327,-0.0105,-0.0435,0.0*
%
%ADD90OCTAGOND90*%

G04:AMPARAMS|DCode=91|XSize=86.7mil|YSize=43.4mil|CornerRadius=0mil|HoleSize=0mil|Usage=FLASHONLY|Rotation=49.018|XOffset=0mil|YOffset=0mil|HoleType=Round|Shape=Round|*
%AMOVALD91*
21,1,0.0433,0.0434,0.0000,0.0000,49.0*
1,1,0.0434,-0.0142,-0.0163*
1,1,0.0434,0.0142,0.0163*
%
%ADD91OVALD91*%

G04:AMPARAMS|DCode=92|XSize=86.7mil|YSize=43.4mil|CornerRadius=0mil|HoleSize=0mil|Usage=FLASHONLY|Rotation=49.018|XOffset=0mil|YOffset=0mil|HoleType=Round|Shape=Octagon|*
%AMOCTAGOND92*
4,1,8,0.0366,0.0256,0.0202,0.0399,0.0049,0.0388,-0.0377,-0.0103,-0.0366,-0.0256,-0.0202,-0.0399,-0.0049,-0.0388,0.0377,0.0103,0.0366,0.0256,0.0*
%
%ADD92OCTAGOND92*%

G04:AMPARAMS|DCode=93|XSize=86.7mil|YSize=43.4mil|CornerRadius=0mil|HoleSize=0mil|Usage=FLASHONLY|Rotation=119.000|XOffset=0mil|YOffset=0mil|HoleType=Round|Shape=Round|*
%AMOVALD93*
21,1,0.0433,0.0434,0.0000,0.0000,119.0*
1,1,0.0434,0.0105,-0.0189*
1,1,0.0434,-0.0105,0.0189*
%
%ADD93OVALD93*%

G04:AMPARAMS|DCode=94|XSize=86.7mil|YSize=43.4mil|CornerRadius=0mil|HoleSize=0mil|Usage=FLASHONLY|Rotation=119.000|XOffset=0mil|YOffset=0mil|HoleType=Round|Shape=Octagon|*
%AMOCTAGOND94*
4,1,8,-0.0115,0.0432,-0.0305,0.0327,-0.0348,0.0179,-0.0032,-0.0390,0.0115,-0.0432,0.0305,-0.0327,0.0348,-0.0179,0.0032,0.0390,-0.0115,0.0432,0.0*
%
%ADD94OCTAGOND94*%

G04:AMPARAMS|DCode=95|XSize=86.7mil|YSize=43.4mil|CornerRadius=0mil|HoleSize=0mil|Usage=FLASHONLY|Rotation=193.444|XOffset=0mil|YOffset=0mil|HoleType=Round|Shape=Round|*
%AMOVALD95*
21,1,0.0433,0.0434,0.0000,0.0000,193.4*
1,1,0.0434,0.0211,0.0050*
1,1,0.0434,-0.0211,-0.0050*
%
%ADD95OVALD95*%

G04:AMPARAMS|DCode=96|XSize=86.7mil|YSize=43.4mil|CornerRadius=0mil|HoleSize=0mil|Usage=FLASHONLY|Rotation=193.444|XOffset=0mil|YOffset=0mil|HoleType=Round|Shape=Octagon|*
%AMOCTAGOND96*
4,1,8,-0.0447,0.0005,-0.0397,-0.0206,-0.0266,-0.0287,0.0367,-0.0136,0.0447,-0.0005,0.0397,0.0206,0.0266,0.0287,-0.0367,0.0136,-0.0447,0.0005,0.0*
%
%ADD96OCTAGOND96*%

G04:AMPARAMS|DCode=97|XSize=68mil|YSize=73mil|CornerRadius=0mil|HoleSize=0mil|Usage=FLASHONLY|Rotation=285.000|XOffset=0mil|YOffset=0mil|HoleType=Round|Shape=Rectangle|*
%AMROTATEDRECTD97*
4,1,4,-0.0441,0.0234,0.0265,0.0423,0.0441,-0.0234,-0.0265,-0.0423,-0.0441,0.0234,0.0*
%
%ADD97ROTATEDRECTD97*%

G04:AMPARAMS|DCode=98|XSize=68mil|YSize=73mil|CornerRadius=0mil|HoleSize=0mil|Usage=FLASHONLY|Rotation=68.000|XOffset=0mil|YOffset=0mil|HoleType=Round|Shape=Rectangle|*
%AMROTATEDRECTD98*
4,1,4,0.0211,-0.0452,-0.0466,-0.0179,-0.0211,0.0452,0.0466,0.0179,0.0211,-0.0452,0.0*
%
%ADD98ROTATEDRECTD98*%

G04:AMPARAMS|DCode=99|XSize=68mil|YSize=73mil|CornerRadius=0mil|HoleSize=0mil|Usage=FLASHONLY|Rotation=141.810|XOffset=0mil|YOffset=0mil|HoleType=Round|Shape=Rectangle|*
%AMROTATEDRECTD99*
4,1,4,0.0493,0.0077,0.0042,-0.0497,-0.0493,-0.0077,-0.0042,0.0497,0.0493,0.0077,0.0*
%
%ADD99ROTATEDRECTD99*%

G04:AMPARAMS|DCode=100|XSize=106.4mil|YSize=100.5mil|CornerRadius=0mil|HoleSize=0mil|Usage=FLASHONLY|Rotation=59.385|XOffset=0mil|YOffset=0mil|HoleType=Round|Shape=Rectangle|*
%AMROTATEDRECTD100*
4,1,4,0.0162,-0.0714,-0.0704,-0.0202,-0.0162,0.0714,0.0704,0.0202,0.0162,-0.0714,0.0*
%
%ADD100ROTATEDRECTD100*%

G04:AMPARAMS|DCode=101|XSize=100.5mil|YSize=47.4mil|CornerRadius=0mil|HoleSize=0mil|Usage=FLASHONLY|Rotation=329.385|XOffset=0mil|YOffset=0mil|HoleType=Round|Shape=Rectangle|*
%AMROTATEDRECTD101*
4,1,4,-0.0553,0.0052,-0.0312,0.0460,0.0553,-0.0052,0.0312,-0.0460,-0.0553,0.0052,0.0*
%
%ADD101ROTATEDRECTD101*%

G04:AMPARAMS|DCode=102|XSize=106.4mil|YSize=100.5mil|CornerRadius=0mil|HoleSize=0mil|Usage=FLASHONLY|Rotation=121.000|XOffset=0mil|YOffset=0mil|HoleType=Round|Shape=Rectangle|*
%AMROTATEDRECTD102*
4,1,4,0.0705,-0.0197,-0.0157,-0.0715,-0.0705,0.0197,0.0157,0.0715,0.0705,-0.0197,0.0*
%
%ADD102ROTATEDRECTD102*%

G04:AMPARAMS|DCode=103|XSize=100.5mil|YSize=47.4mil|CornerRadius=0mil|HoleSize=0mil|Usage=FLASHONLY|Rotation=31.000|XOffset=0mil|YOffset=0mil|HoleType=Round|Shape=Rectangle|*
%AMROTATEDRECTD103*
4,1,4,-0.0309,-0.0462,-0.0553,-0.0056,0.0309,0.0462,0.0553,0.0056,-0.0309,-0.0462,0.0*
%
%ADD103ROTATEDRECTD103*%

G04:AMPARAMS|DCode=104|XSize=68mil|YSize=73mil|CornerRadius=0mil|HoleSize=0mil|Usage=FLASHONLY|Rotation=212.241|XOffset=0mil|YOffset=0mil|HoleType=Round|Shape=Rectangle|*
%AMROTATEDRECTD104*
4,1,4,0.0093,0.0490,0.0482,-0.0127,-0.0093,-0.0490,-0.0482,0.0127,0.0093,0.0490,0.0*
%
%ADD104ROTATEDRECTD104*%

G04:AMPARAMS|DCode=105|XSize=106.4mil|YSize=100.5mil|CornerRadius=0mil|HoleSize=0mil|Usage=FLASHONLY|Rotation=93.854|XOffset=0mil|YOffset=0mil|HoleType=Round|Shape=Rectangle|*
%AMROTATEDRECTD105*
4,1,4,0.0537,-0.0497,-0.0466,-0.0565,-0.0537,0.0497,0.0466,0.0565,0.0537,-0.0497,0.0*
%
%ADD105ROTATEDRECTD105*%

G04:AMPARAMS|DCode=106|XSize=100.5mil|YSize=47.4mil|CornerRadius=0mil|HoleSize=0mil|Usage=FLASHONLY|Rotation=3.854|XOffset=0mil|YOffset=0mil|HoleType=Round|Shape=Rectangle|*
%AMROTATEDRECTD106*
4,1,4,-0.0486,-0.0270,-0.0517,0.0203,0.0486,0.0270,0.0517,-0.0203,-0.0486,-0.0270,0.0*
%
%ADD106ROTATEDRECTD106*%

G04:AMPARAMS|DCode=107|XSize=106.4mil|YSize=100.5mil|CornerRadius=0mil|HoleSize=0mil|Usage=FLASHONLY|Rotation=90.956|XOffset=0mil|YOffset=0mil|HoleType=Round|Shape=Rectangle|*
%AMROTATEDRECTD107*
4,1,4,0.0511,-0.0524,-0.0494,-0.0540,-0.0511,0.0524,0.0494,0.0540,0.0511,-0.0524,0.0*
%
%ADD107ROTATEDRECTD107*%

G04:AMPARAMS|DCode=108|XSize=100.5mil|YSize=47.4mil|CornerRadius=0mil|HoleSize=0mil|Usage=FLASHONLY|Rotation=0.956|XOffset=0mil|YOffset=0mil|HoleType=Round|Shape=Rectangle|*
%AMROTATEDRECTD108*
4,1,4,-0.0499,-0.0245,-0.0506,0.0228,0.0499,0.0245,0.0506,-0.0228,-0.0499,-0.0245,0.0*
%
%ADD108ROTATEDRECTD108*%

G04:AMPARAMS|DCode=109|XSize=106.4mil|YSize=100.5mil|CornerRadius=0mil|HoleSize=0mil|Usage=FLASHONLY|Rotation=32.085|XOffset=0mil|YOffset=0mil|HoleType=Round|Shape=Rectangle|*
%AMROTATEDRECTD109*
4,1,4,-0.0184,-0.0708,-0.0718,0.0143,0.0184,0.0708,0.0718,-0.0143,-0.0184,-0.0708,0.0*
%
%ADD109ROTATEDRECTD109*%

G04:AMPARAMS|DCode=110|XSize=100.5mil|YSize=47.4mil|CornerRadius=0mil|HoleSize=0mil|Usage=FLASHONLY|Rotation=302.085|XOffset=0mil|YOffset=0mil|HoleType=Round|Shape=Rectangle|*
%AMROTATEDRECTD110*
4,1,4,-0.0468,0.0300,-0.0066,0.0552,0.0468,-0.0300,0.0066,-0.0552,-0.0468,0.0300,0.0*
%
%ADD110ROTATEDRECTD110*%

G04:AMPARAMS|DCode=111|XSize=106.4mil|YSize=100.5mil|CornerRadius=0mil|HoleSize=0mil|Usage=FLASHONLY|Rotation=59.482|XOffset=0mil|YOffset=0mil|HoleType=Round|Shape=Rectangle|*
%AMROTATEDRECTD111*
4,1,4,0.0163,-0.0714,-0.0703,-0.0203,-0.0163,0.0714,0.0703,0.0203,0.0163,-0.0714,0.0*
%
%ADD111ROTATEDRECTD111*%

G04:AMPARAMS|DCode=112|XSize=100.5mil|YSize=47.4mil|CornerRadius=0mil|HoleSize=0mil|Usage=FLASHONLY|Rotation=329.482|XOffset=0mil|YOffset=0mil|HoleType=Round|Shape=Rectangle|*
%AMROTATEDRECTD112*
4,1,4,-0.0553,0.0051,-0.0313,0.0459,0.0553,-0.0051,0.0313,-0.0459,-0.0553,0.0051,0.0*
%
%ADD112ROTATEDRECTD112*%

G04:AMPARAMS|DCode=113|XSize=68mil|YSize=73mil|CornerRadius=0mil|HoleSize=0mil|Usage=FLASHONLY|Rotation=211.557|XOffset=0mil|YOffset=0mil|HoleType=Round|Shape=Rectangle|*
%AMROTATEDRECTD113*
4,1,4,0.0099,0.0489,0.0481,-0.0133,-0.0099,-0.0489,-0.0481,0.0133,0.0099,0.0489,0.0*
%
%ADD113ROTATEDRECTD113*%

G04:AMPARAMS|DCode=114|XSize=106.4mil|YSize=100.5mil|CornerRadius=0mil|HoleSize=0mil|Usage=FLASHONLY|Rotation=94.184|XOffset=0mil|YOffset=0mil|HoleType=Round|Shape=Rectangle|*
%AMROTATEDRECTD114*
4,1,4,0.0540,-0.0494,-0.0462,-0.0567,-0.0540,0.0494,0.0462,0.0567,0.0540,-0.0494,0.0*
%
%ADD114ROTATEDRECTD114*%

G04:AMPARAMS|DCode=115|XSize=100.5mil|YSize=47.4mil|CornerRadius=0mil|HoleSize=0mil|Usage=FLASHONLY|Rotation=4.184|XOffset=0mil|YOffset=0mil|HoleType=Round|Shape=Rectangle|*
%AMROTATEDRECTD115*
4,1,4,-0.0484,-0.0273,-0.0519,0.0200,0.0484,0.0273,0.0519,-0.0200,-0.0484,-0.0273,0.0*
%
%ADD115ROTATEDRECTD115*%

G04:AMPARAMS|DCode=116|XSize=106.4mil|YSize=100.5mil|CornerRadius=0mil|HoleSize=0mil|Usage=FLASHONLY|Rotation=90.822|XOffset=0mil|YOffset=0mil|HoleType=Round|Shape=Rectangle|*
%AMROTATEDRECTD116*
4,1,4,0.0510,-0.0525,-0.0495,-0.0539,-0.0510,0.0525,0.0495,0.0539,0.0510,-0.0525,0.0*
%
%ADD116ROTATEDRECTD116*%

G04:AMPARAMS|DCode=117|XSize=100.5mil|YSize=47.4mil|CornerRadius=0mil|HoleSize=0mil|Usage=FLASHONLY|Rotation=0.822|XOffset=0mil|YOffset=0mil|HoleType=Round|Shape=Rectangle|*
%AMROTATEDRECTD117*
4,1,4,-0.0499,-0.0244,-0.0506,0.0230,0.0499,0.0244,0.0506,-0.0230,-0.0499,-0.0244,0.0*
%
%ADD117ROTATEDRECTD117*%

G04:AMPARAMS|DCode=118|XSize=106.4mil|YSize=100.5mil|CornerRadius=0mil|HoleSize=0mil|Usage=FLASHONLY|Rotation=32.436|XOffset=0mil|YOffset=0mil|HoleType=Round|Shape=Rectangle|*
%AMROTATEDRECTD118*
4,1,4,-0.0180,-0.0710,-0.0719,0.0139,0.0180,0.0710,0.0719,-0.0139,-0.0180,-0.0710,0.0*
%
%ADD118ROTATEDRECTD118*%

G04:AMPARAMS|DCode=119|XSize=100.5mil|YSize=47.4mil|CornerRadius=0mil|HoleSize=0mil|Usage=FLASHONLY|Rotation=302.436|XOffset=0mil|YOffset=0mil|HoleType=Round|Shape=Rectangle|*
%AMROTATEDRECTD119*
4,1,4,-0.0469,0.0297,-0.0070,0.0551,0.0469,-0.0297,0.0070,-0.0551,-0.0469,0.0297,0.0*
%
%ADD119ROTATEDRECTD119*%

%ADD120C,0.0880*%
D67*
X043776Y016231D02*
D03*
X042523Y015882D02*
D03*
D68*
X042451Y014617D02*
D03*
X041185Y014325D02*
D03*
D69*
X032045Y019946D02*
D03*
D70*
X031745Y019392D02*
D03*
X031445Y018838D02*
D03*
X033914Y018934D02*
D03*
X033615Y01838D02*
D03*
X033315Y017826D02*
D03*
D71*
X035737Y014452D02*
D03*
D72*
X036624Y014272D02*
D03*
D73*
X035996Y015726D02*
D03*
D74*
X036883Y015545D02*
D03*
D75*
X027159Y038688D02*
D03*
D76*
X026641Y037946D02*
D03*
D77*
X026078Y039406D02*
D03*
D78*
X025561Y038663D02*
D03*
D79*
X041251Y045731D02*
D03*
D80*
X042145Y04559D02*
D03*
D81*
X043284Y045289D02*
D03*
D82*
X044153Y045033D02*
D03*
D83*
X042926Y04404D02*
D03*
D84*
X043798Y043798D02*
D03*
D85*
X041059Y044446D02*
D03*
D86*
X041956Y044319D02*
D03*
D87*
X026514Y020148D02*
D03*
X0275Y020932D02*
D03*
D88*
X027078Y019439D02*
D03*
X028063Y020223D02*
D03*
D89*
X025524Y02882D02*
D03*
X026154Y028826D02*
D03*
X026784Y028831D02*
D03*
X025505Y030946D02*
D03*
X026135Y030952D02*
D03*
D90*
X026765Y030957D02*
D03*
D91*
X04967Y022047D02*
D03*
X049194Y02246D02*
D03*
X048719Y022873D02*
D03*
X048276Y020442D02*
D03*
X0478Y020855D02*
D03*
D92*
X047325Y021268D02*
D03*
D93*
X050058Y0374D02*
D03*
X049507Y037095D02*
D03*
X048956Y036789D02*
D03*
X051088Y035541D02*
D03*
X050537Y035235D02*
D03*
D94*
X049987Y03493D02*
D03*
D95*
X03476Y042692D02*
D03*
X034907Y04208D02*
D03*
X035053Y041467D02*
D03*
X036828Y043187D02*
D03*
X036974Y042574D02*
D03*
D96*
X037121Y041961D02*
D03*
D97*
X026231Y025259D02*
D03*
X025894Y026515D02*
D03*
D98*
X051214Y026427D02*
D03*
X050727Y025222D02*
D03*
D99*
X045597Y040002D02*
D03*
X046619Y039199D02*
D03*
D100*
X026187Y037192D02*
D03*
D101*
X025726Y036413D02*
D03*
D102*
X026414Y022497D02*
D03*
X025334Y021849D02*
D03*
D103*
X02688Y021721D02*
D03*
X0258Y021072D02*
D03*
D104*
X030738Y042047D02*
D03*
X031838Y042741D02*
D03*
D105*
X05342Y031912D02*
D03*
D106*
X053481Y031008D02*
D03*
D107*
X053506Y03D02*
D03*
D108*
X053521Y029095D02*
D03*
D109*
X04664Y017613D02*
D03*
D110*
X045873Y017132D02*
D03*
D111*
X025057Y037832D02*
D03*
D112*
X024597Y037052D02*
D03*
D113*
X030222Y043263D02*
D03*
X031329Y043943D02*
D03*
D114*
X054708Y032081D02*
D03*
D115*
X054775Y031178D02*
D03*
D116*
X054806Y03D02*
D03*
D117*
X054819Y029095D02*
D03*
D118*
X047394Y01654D02*
D03*
D119*
X04663Y016054D02*
D03*
D120*
X03135Y02265D02*
D03*
X0283Y03015D02*
D03*
X03885Y01952D02*
D03*
X046366Y037666D02*
D03*
X03885Y04078D02*
D03*
X03135Y03765D02*
D03*
M02*
