G04*
G04 #@! TF.GenerationSoftware,Altium Limited,Altium Designer,21.0.9 (235)*
G04*
G04 Layer_Color=255*
%FSTAX24Y24*%
%MOIN*%
G70*
G04*
G04 #@! TF.SameCoordinates,5F115E56-97AE-4741-9C3E-E3F8848F1E5A*
G04*
G04*
G04 #@! TF.FilePolarity,Positive*
G04*
G01*
G75*
G04:AMPARAMS|DCode=14|XSize=60mil|YSize=65mil|CornerRadius=0mil|HoleSize=0mil|Usage=FLASHONLY|Rotation=195.575|XOffset=0mil|YOffset=0mil|HoleType=Round|Shape=Rectangle|*
%AMROTATEDRECTD14*
4,1,4,0.0202,0.0394,0.0376,-0.0233,-0.0202,-0.0394,-0.0376,0.0233,0.0202,0.0394,0.0*
%
%ADD14ROTATEDRECTD14*%

G04:AMPARAMS|DCode=15|XSize=60mil|YSize=65mil|CornerRadius=0mil|HoleSize=0mil|Usage=FLASHONLY|Rotation=193.000|XOffset=0mil|YOffset=0mil|HoleType=Round|Shape=Rectangle|*
%AMROTATEDRECTD15*
4,1,4,0.0219,0.0384,0.0365,-0.0249,-0.0219,-0.0384,-0.0365,0.0249,0.0219,0.0384,0.0*
%
%ADD15ROTATEDRECTD15*%

G04:AMPARAMS|DCode=16|XSize=78.7mil|YSize=35.4mil|CornerRadius=0mil|HoleSize=0mil|Usage=FLASHONLY|Rotation=331.572|XOffset=0mil|YOffset=0mil|HoleType=Round|Shape=Octagon|*
%AMOCTAGOND16*
4,1,8,0.0304,-0.0265,0.0388,-0.0110,0.0353,0.0011,-0.0184,0.0301,-0.0304,0.0265,-0.0388,0.0110,-0.0353,-0.0011,0.0184,-0.0301,0.0304,-0.0265,0.0*
%
%ADD16OCTAGOND16*%

G04:AMPARAMS|DCode=17|XSize=78.7mil|YSize=35.4mil|CornerRadius=0mil|HoleSize=0mil|Usage=FLASHONLY|Rotation=331.572|XOffset=0mil|YOffset=0mil|HoleType=Round|Shape=Round|*
%AMOVALD17*
21,1,0.0433,0.0354,0.0000,0.0000,331.6*
1,1,0.0354,-0.0190,0.0103*
1,1,0.0354,0.0190,-0.0103*
%
%ADD17OVALD17*%

G04:AMPARAMS|DCode=18|XSize=98.4mil|YSize=92.5mil|CornerRadius=0mil|HoleSize=0mil|Usage=FLASHONLY|Rotation=168.500|XOffset=0mil|YOffset=0mil|HoleType=Round|Shape=Rectangle|*
%AMROTATEDRECTD18*
4,1,4,0.0574,0.0355,0.0390,-0.0551,-0.0574,-0.0355,-0.0390,0.0551,0.0574,0.0355,0.0*
%
%ADD18ROTATEDRECTD18*%

G04:AMPARAMS|DCode=19|XSize=92.5mil|YSize=39.4mil|CornerRadius=0mil|HoleSize=0mil|Usage=FLASHONLY|Rotation=78.500|XOffset=0mil|YOffset=0mil|HoleType=Round|Shape=Rectangle|*
%AMROTATEDRECTD19*
4,1,4,0.0101,-0.0493,-0.0285,-0.0414,-0.0101,0.0493,0.0285,0.0414,0.0101,-0.0493,0.0*
%
%ADD19ROTATEDRECTD19*%

G04:AMPARAMS|DCode=20|XSize=98.4mil|YSize=92.5mil|CornerRadius=0mil|HoleSize=0mil|Usage=FLASHONLY|Rotation=168.500|XOffset=0mil|YOffset=0mil|HoleType=Round|Shape=Rectangle|*
%AMROTATEDRECTD20*
4,1,4,0.0574,0.0355,0.0390,-0.0551,-0.0574,-0.0355,-0.0390,0.0551,0.0574,0.0355,0.0*
%
%ADD20ROTATEDRECTD20*%

G04:AMPARAMS|DCode=21|XSize=92.5mil|YSize=39.4mil|CornerRadius=0mil|HoleSize=0mil|Usage=FLASHONLY|Rotation=78.500|XOffset=0mil|YOffset=0mil|HoleType=Round|Shape=Rectangle|*
%AMROTATEDRECTD21*
4,1,4,0.0101,-0.0493,-0.0285,-0.0414,-0.0101,0.0493,0.0285,0.0414,0.0101,-0.0493,0.0*
%
%ADD21ROTATEDRECTD21*%

G04:AMPARAMS|DCode=22|XSize=98.4mil|YSize=92.5mil|CornerRadius=0mil|HoleSize=0mil|Usage=FLASHONLY|Rotation=55.099|XOffset=0mil|YOffset=0mil|HoleType=Round|Shape=Rectangle|*
%AMROTATEDRECTD22*
4,1,4,0.0098,-0.0668,-0.0661,-0.0139,-0.0098,0.0668,0.0661,0.0139,0.0098,-0.0668,0.0*
%
%ADD22ROTATEDRECTD22*%

G04:AMPARAMS|DCode=23|XSize=92.5mil|YSize=39.4mil|CornerRadius=0mil|HoleSize=0mil|Usage=FLASHONLY|Rotation=325.099|XOffset=0mil|YOffset=0mil|HoleType=Round|Shape=Rectangle|*
%AMROTATEDRECTD23*
4,1,4,-0.0492,0.0103,-0.0267,0.0426,0.0492,-0.0103,0.0267,-0.0426,-0.0492,0.0103,0.0*
%
%ADD23ROTATEDRECTD23*%

G04:AMPARAMS|DCode=24|XSize=98.4mil|YSize=92.5mil|CornerRadius=0mil|HoleSize=0mil|Usage=FLASHONLY|Rotation=55.139|XOffset=0mil|YOffset=0mil|HoleType=Round|Shape=Rectangle|*
%AMROTATEDRECTD24*
4,1,4,0.0098,-0.0668,-0.0661,-0.0139,-0.0098,0.0668,0.0661,0.0139,0.0098,-0.0668,0.0*
%
%ADD24ROTATEDRECTD24*%

G04:AMPARAMS|DCode=25|XSize=92.5mil|YSize=39.4mil|CornerRadius=0mil|HoleSize=0mil|Usage=FLASHONLY|Rotation=325.139|XOffset=0mil|YOffset=0mil|HoleType=Round|Shape=Rectangle|*
%AMROTATEDRECTD25*
4,1,4,-0.0492,0.0103,-0.0267,0.0426,0.0492,-0.0103,0.0267,-0.0426,-0.0492,0.0103,0.0*
%
%ADD25ROTATEDRECTD25*%

G04:AMPARAMS|DCode=26|XSize=98.4mil|YSize=92.5mil|CornerRadius=0mil|HoleSize=0mil|Usage=FLASHONLY|Rotation=171.031|XOffset=0mil|YOffset=0mil|HoleType=Round|Shape=Rectangle|*
%AMROTATEDRECTD26*
4,1,4,0.0558,0.0380,0.0414,-0.0534,-0.0558,-0.0380,-0.0414,0.0534,0.0558,0.0380,0.0*
%
%ADD26ROTATEDRECTD26*%

G04:AMPARAMS|DCode=27|XSize=92.5mil|YSize=39.4mil|CornerRadius=0mil|HoleSize=0mil|Usage=FLASHONLY|Rotation=81.031|XOffset=0mil|YOffset=0mil|HoleType=Round|Shape=Rectangle|*
%AMROTATEDRECTD27*
4,1,4,0.0122,-0.0488,-0.0267,-0.0426,-0.0122,0.0488,0.0267,0.0426,0.0122,-0.0488,0.0*
%
%ADD27ROTATEDRECTD27*%

G04:AMPARAMS|DCode=28|XSize=98.4mil|YSize=92.5mil|CornerRadius=0mil|HoleSize=0mil|Usage=FLASHONLY|Rotation=163.543|XOffset=0mil|YOffset=0mil|HoleType=Round|Shape=Rectangle|*
%AMROTATEDRECTD28*
4,1,4,0.0603,0.0304,0.0341,-0.0583,-0.0603,-0.0304,-0.0341,0.0583,0.0603,0.0304,0.0*
%
%ADD28ROTATEDRECTD28*%

G04:AMPARAMS|DCode=29|XSize=92.5mil|YSize=39.4mil|CornerRadius=0mil|HoleSize=0mil|Usage=FLASHONLY|Rotation=73.543|XOffset=0mil|YOffset=0mil|HoleType=Round|Shape=Rectangle|*
%AMROTATEDRECTD29*
4,1,4,0.0058,-0.0499,-0.0320,-0.0388,-0.0058,0.0499,0.0320,0.0388,0.0058,-0.0499,0.0*
%
%ADD29ROTATEDRECTD29*%

G04:AMPARAMS|DCode=30|XSize=98.4mil|YSize=92.5mil|CornerRadius=0mil|HoleSize=0mil|Usage=FLASHONLY|Rotation=164.469|XOffset=0mil|YOffset=0mil|HoleType=Round|Shape=Rectangle|*
%AMROTATEDRECTD30*
4,1,4,0.0598,0.0314,0.0350,-0.0577,-0.0598,-0.0314,-0.0350,0.0577,0.0598,0.0314,0.0*
%
%ADD30ROTATEDRECTD30*%

G04:AMPARAMS|DCode=31|XSize=92.5mil|YSize=39.4mil|CornerRadius=0mil|HoleSize=0mil|Usage=FLASHONLY|Rotation=74.469|XOffset=0mil|YOffset=0mil|HoleType=Round|Shape=Rectangle|*
%AMROTATEDRECTD31*
4,1,4,0.0066,-0.0498,-0.0314,-0.0393,-0.0066,0.0498,0.0314,0.0393,0.0066,-0.0498,0.0*
%
%ADD31ROTATEDRECTD31*%

G04:AMPARAMS|DCode=32|XSize=98.4mil|YSize=92.5mil|CornerRadius=0mil|HoleSize=0mil|Usage=FLASHONLY|Rotation=171.969|XOffset=0mil|YOffset=0mil|HoleType=Round|Shape=Rectangle|*
%AMROTATEDRECTD32*
4,1,4,0.0552,0.0389,0.0423,-0.0527,-0.0552,-0.0389,-0.0423,0.0527,0.0552,0.0389,0.0*
%
%ADD32ROTATEDRECTD32*%

G04:AMPARAMS|DCode=33|XSize=92.5mil|YSize=39.4mil|CornerRadius=0mil|HoleSize=0mil|Usage=FLASHONLY|Rotation=81.969|XOffset=0mil|YOffset=0mil|HoleType=Round|Shape=Rectangle|*
%AMROTATEDRECTD33*
4,1,4,0.0130,-0.0486,-0.0260,-0.0431,-0.0130,0.0486,0.0260,0.0431,0.0130,-0.0486,0.0*
%
%ADD33ROTATEDRECTD33*%

G04:AMPARAMS|DCode=34|XSize=98.4mil|YSize=92.5mil|CornerRadius=0mil|HoleSize=0mil|Usage=FLASHONLY|Rotation=128.500|XOffset=0mil|YOffset=0mil|HoleType=Round|Shape=Rectangle|*
%AMROTATEDRECTD34*
4,1,4,0.0668,-0.0097,-0.0056,-0.0673,-0.0668,0.0097,0.0056,0.0673,0.0668,-0.0097,0.0*
%
%ADD34ROTATEDRECTD34*%

G04:AMPARAMS|DCode=35|XSize=92.5mil|YSize=39.4mil|CornerRadius=0mil|HoleSize=0mil|Usage=FLASHONLY|Rotation=38.500|XOffset=0mil|YOffset=0mil|HoleType=Round|Shape=Rectangle|*
%AMROTATEDRECTD35*
4,1,4,-0.0239,-0.0442,-0.0485,-0.0134,0.0239,0.0442,0.0485,0.0134,-0.0239,-0.0442,0.0*
%
%ADD35ROTATEDRECTD35*%

G04:AMPARAMS|DCode=36|XSize=78.7mil|YSize=35.4mil|CornerRadius=0mil|HoleSize=0mil|Usage=FLASHONLY|Rotation=270.500|XOffset=0mil|YOffset=0mil|HoleType=Round|Shape=Round|*
%AMOVALD36*
21,1,0.0433,0.0354,0.0000,0.0000,270.5*
1,1,0.0354,-0.0002,0.0217*
1,1,0.0354,0.0002,-0.0217*
%
%ADD36OVALD36*%

G04:AMPARAMS|DCode=37|XSize=78.7mil|YSize=35.4mil|CornerRadius=0mil|HoleSize=0mil|Usage=FLASHONLY|Rotation=270.500|XOffset=0mil|YOffset=0mil|HoleType=Round|Shape=Octagon|*
%AMOCTAGOND37*
4,1,8,-0.0085,-0.0394,0.0092,-0.0393,0.0180,-0.0304,0.0175,0.0307,0.0085,0.0394,-0.0092,0.0393,-0.0180,0.0304,-0.0175,-0.0307,-0.0085,-0.0394,0.0*
%
%ADD37OCTAGOND37*%

G04:AMPARAMS|DCode=38|XSize=78.7mil|YSize=35.4mil|CornerRadius=0mil|HoleSize=0mil|Usage=FLASHONLY|Rotation=49.018|XOffset=0mil|YOffset=0mil|HoleType=Round|Shape=Round|*
%AMOVALD38*
21,1,0.0433,0.0354,0.0000,0.0000,49.0*
1,1,0.0354,-0.0142,-0.0163*
1,1,0.0354,0.0142,0.0163*
%
%ADD38OVALD38*%

G04:AMPARAMS|DCode=39|XSize=78.7mil|YSize=35.4mil|CornerRadius=0mil|HoleSize=0mil|Usage=FLASHONLY|Rotation=49.018|XOffset=0mil|YOffset=0mil|HoleType=Round|Shape=Octagon|*
%AMOCTAGOND39*
4,1,8,0.0325,0.0239,0.0191,0.0355,0.0066,0.0347,-0.0334,-0.0114,-0.0325,-0.0239,-0.0191,-0.0355,-0.0066,-0.0347,0.0334,0.0114,0.0325,0.0239,0.0*
%
%ADD39OCTAGOND39*%

G04:AMPARAMS|DCode=40|XSize=78.7mil|YSize=35.4mil|CornerRadius=0mil|HoleSize=0mil|Usage=FLASHONLY|Rotation=119.000|XOffset=0mil|YOffset=0mil|HoleType=Round|Shape=Round|*
%AMOVALD40*
21,1,0.0433,0.0354,0.0000,0.0000,119.0*
1,1,0.0354,0.0105,-0.0189*
1,1,0.0354,-0.0105,0.0189*
%
%ADD40OVALD40*%

G04:AMPARAMS|DCode=41|XSize=78.7mil|YSize=35.4mil|CornerRadius=0mil|HoleSize=0mil|Usage=FLASHONLY|Rotation=119.000|XOffset=0mil|YOffset=0mil|HoleType=Round|Shape=Octagon|*
%AMOCTAGOND41*
4,1,8,-0.0113,0.0387,-0.0268,0.0301,-0.0303,0.0181,-0.0007,-0.0353,0.0113,-0.0387,0.0268,-0.0301,0.0303,-0.0181,0.0007,0.0353,-0.0113,0.0387,0.0*
%
%ADD41OCTAGOND41*%

G04:AMPARAMS|DCode=42|XSize=78.7mil|YSize=35.4mil|CornerRadius=0mil|HoleSize=0mil|Usage=FLASHONLY|Rotation=193.444|XOffset=0mil|YOffset=0mil|HoleType=Round|Shape=Round|*
%AMOVALD42*
21,1,0.0433,0.0354,0.0000,0.0000,193.4*
1,1,0.0354,0.0211,0.0050*
1,1,0.0354,-0.0211,-0.0050*
%
%ADD42OVALD42*%

G04:AMPARAMS|DCode=43|XSize=78.7mil|YSize=35.4mil|CornerRadius=0mil|HoleSize=0mil|Usage=FLASHONLY|Rotation=193.444|XOffset=0mil|YOffset=0mil|HoleType=Round|Shape=Octagon|*
%AMOCTAGOND43*
4,1,8,-0.0404,-0.0005,-0.0362,-0.0178,-0.0256,-0.0243,0.0338,-0.0101,0.0404,0.0005,0.0362,0.0178,0.0256,0.0243,-0.0338,0.0101,-0.0404,-0.0005,0.0*
%
%ADD43OCTAGOND43*%

G04:AMPARAMS|DCode=44|XSize=60mil|YSize=65mil|CornerRadius=0mil|HoleSize=0mil|Usage=FLASHONLY|Rotation=285.000|XOffset=0mil|YOffset=0mil|HoleType=Round|Shape=Rectangle|*
%AMROTATEDRECTD44*
4,1,4,-0.0392,0.0206,0.0236,0.0374,0.0392,-0.0206,-0.0236,-0.0374,-0.0392,0.0206,0.0*
%
%ADD44ROTATEDRECTD44*%

G04:AMPARAMS|DCode=45|XSize=60mil|YSize=65mil|CornerRadius=0mil|HoleSize=0mil|Usage=FLASHONLY|Rotation=68.000|XOffset=0mil|YOffset=0mil|HoleType=Round|Shape=Rectangle|*
%AMROTATEDRECTD45*
4,1,4,0.0189,-0.0400,-0.0414,-0.0156,-0.0189,0.0400,0.0414,0.0156,0.0189,-0.0400,0.0*
%
%ADD45ROTATEDRECTD45*%

G04:AMPARAMS|DCode=46|XSize=60mil|YSize=65mil|CornerRadius=0mil|HoleSize=0mil|Usage=FLASHONLY|Rotation=141.810|XOffset=0mil|YOffset=0mil|HoleType=Round|Shape=Rectangle|*
%AMROTATEDRECTD46*
4,1,4,0.0437,0.0070,0.0035,-0.0441,-0.0437,-0.0070,-0.0035,0.0441,0.0437,0.0070,0.0*
%
%ADD46ROTATEDRECTD46*%

G04:AMPARAMS|DCode=47|XSize=98.4mil|YSize=92.5mil|CornerRadius=0mil|HoleSize=0mil|Usage=FLASHONLY|Rotation=59.385|XOffset=0mil|YOffset=0mil|HoleType=Round|Shape=Rectangle|*
%AMROTATEDRECTD47*
4,1,4,0.0147,-0.0659,-0.0649,-0.0188,-0.0147,0.0659,0.0649,0.0188,0.0147,-0.0659,0.0*
%
%ADD47ROTATEDRECTD47*%

G04:AMPARAMS|DCode=48|XSize=92.5mil|YSize=39.4mil|CornerRadius=0mil|HoleSize=0mil|Usage=FLASHONLY|Rotation=329.385|XOffset=0mil|YOffset=0mil|HoleType=Round|Shape=Rectangle|*
%AMROTATEDRECTD48*
4,1,4,-0.0498,0.0066,-0.0298,0.0405,0.0498,-0.0066,0.0298,-0.0405,-0.0498,0.0066,0.0*
%
%ADD48ROTATEDRECTD48*%

G04:AMPARAMS|DCode=49|XSize=98.4mil|YSize=92.5mil|CornerRadius=0mil|HoleSize=0mil|Usage=FLASHONLY|Rotation=121.000|XOffset=0mil|YOffset=0mil|HoleType=Round|Shape=Rectangle|*
%AMROTATEDRECTD49*
4,1,4,0.0650,-0.0184,-0.0143,-0.0660,-0.0650,0.0184,0.0143,0.0660,0.0650,-0.0184,0.0*
%
%ADD49ROTATEDRECTD49*%

G04:AMPARAMS|DCode=50|XSize=92.5mil|YSize=39.4mil|CornerRadius=0mil|HoleSize=0mil|Usage=FLASHONLY|Rotation=31.000|XOffset=0mil|YOffset=0mil|HoleType=Round|Shape=Rectangle|*
%AMROTATEDRECTD50*
4,1,4,-0.0295,-0.0407,-0.0498,-0.0070,0.0295,0.0407,0.0498,0.0070,-0.0295,-0.0407,0.0*
%
%ADD50ROTATEDRECTD50*%

G04:AMPARAMS|DCode=51|XSize=60mil|YSize=65mil|CornerRadius=0mil|HoleSize=0mil|Usage=FLASHONLY|Rotation=212.241|XOffset=0mil|YOffset=0mil|HoleType=Round|Shape=Rectangle|*
%AMROTATEDRECTD51*
4,1,4,0.0080,0.0435,0.0427,-0.0115,-0.0080,-0.0435,-0.0427,0.0115,0.0080,0.0435,0.0*
%
%ADD51ROTATEDRECTD51*%

G04:AMPARAMS|DCode=52|XSize=98.4mil|YSize=92.5mil|CornerRadius=0mil|HoleSize=0mil|Usage=FLASHONLY|Rotation=93.854|XOffset=0mil|YOffset=0mil|HoleType=Round|Shape=Rectangle|*
%AMROTATEDRECTD52*
4,1,4,0.0495,-0.0460,-0.0428,-0.0522,-0.0495,0.0460,0.0428,0.0522,0.0495,-0.0460,0.0*
%
%ADD52ROTATEDRECTD52*%

G04:AMPARAMS|DCode=53|XSize=92.5mil|YSize=39.4mil|CornerRadius=0mil|HoleSize=0mil|Usage=FLASHONLY|Rotation=3.854|XOffset=0mil|YOffset=0mil|HoleType=Round|Shape=Rectangle|*
%AMROTATEDRECTD53*
4,1,4,-0.0448,-0.0228,-0.0475,0.0165,0.0448,0.0228,0.0475,-0.0165,-0.0448,-0.0228,0.0*
%
%ADD53ROTATEDRECTD53*%

G04:AMPARAMS|DCode=54|XSize=98.4mil|YSize=92.5mil|CornerRadius=0mil|HoleSize=0mil|Usage=FLASHONLY|Rotation=90.956|XOffset=0mil|YOffset=0mil|HoleType=Round|Shape=Rectangle|*
%AMROTATEDRECTD54*
4,1,4,0.0471,-0.0484,-0.0454,-0.0500,-0.0471,0.0484,0.0454,0.0500,0.0471,-0.0484,0.0*
%
%ADD54ROTATEDRECTD54*%

G04:AMPARAMS|DCode=55|XSize=92.5mil|YSize=39.4mil|CornerRadius=0mil|HoleSize=0mil|Usage=FLASHONLY|Rotation=0.956|XOffset=0mil|YOffset=0mil|HoleType=Round|Shape=Rectangle|*
%AMROTATEDRECTD55*
4,1,4,-0.0459,-0.0205,-0.0466,0.0189,0.0459,0.0205,0.0466,-0.0189,-0.0459,-0.0205,0.0*
%
%ADD55ROTATEDRECTD55*%

G04:AMPARAMS|DCode=56|XSize=98.4mil|YSize=92.5mil|CornerRadius=0mil|HoleSize=0mil|Usage=FLASHONLY|Rotation=32.085|XOffset=0mil|YOffset=0mil|HoleType=Round|Shape=Rectangle|*
%AMROTATEDRECTD56*
4,1,4,-0.0171,-0.0653,-0.0663,0.0131,0.0171,0.0653,0.0663,-0.0131,-0.0171,-0.0653,0.0*
%
%ADD56ROTATEDRECTD56*%

G04:AMPARAMS|DCode=57|XSize=92.5mil|YSize=39.4mil|CornerRadius=0mil|HoleSize=0mil|Usage=FLASHONLY|Rotation=302.085|XOffset=0mil|YOffset=0mil|HoleType=Round|Shape=Rectangle|*
%AMROTATEDRECTD57*
4,1,4,-0.0413,0.0287,-0.0079,0.0497,0.0413,-0.0287,0.0079,-0.0497,-0.0413,0.0287,0.0*
%
%ADD57ROTATEDRECTD57*%

G04:AMPARAMS|DCode=58|XSize=98.4mil|YSize=92.5mil|CornerRadius=0mil|HoleSize=0mil|Usage=FLASHONLY|Rotation=59.482|XOffset=0mil|YOffset=0mil|HoleType=Round|Shape=Rectangle|*
%AMROTATEDRECTD58*
4,1,4,0.0149,-0.0659,-0.0648,-0.0189,-0.0149,0.0659,0.0648,0.0189,0.0149,-0.0659,0.0*
%
%ADD58ROTATEDRECTD58*%

G04:AMPARAMS|DCode=59|XSize=92.5mil|YSize=39.4mil|CornerRadius=0mil|HoleSize=0mil|Usage=FLASHONLY|Rotation=329.482|XOffset=0mil|YOffset=0mil|HoleType=Round|Shape=Rectangle|*
%AMROTATEDRECTD59*
4,1,4,-0.0498,0.0065,-0.0299,0.0404,0.0498,-0.0065,0.0299,-0.0404,-0.0498,0.0065,0.0*
%
%ADD59ROTATEDRECTD59*%

G04:AMPARAMS|DCode=60|XSize=60mil|YSize=65mil|CornerRadius=0mil|HoleSize=0mil|Usage=FLASHONLY|Rotation=211.557|XOffset=0mil|YOffset=0mil|HoleType=Round|Shape=Rectangle|*
%AMROTATEDRECTD60*
4,1,4,0.0086,0.0434,0.0426,-0.0120,-0.0086,-0.0434,-0.0426,0.0120,0.0086,0.0434,0.0*
%
%ADD60ROTATEDRECTD60*%

G04:AMPARAMS|DCode=61|XSize=98.4mil|YSize=92.5mil|CornerRadius=0mil|HoleSize=0mil|Usage=FLASHONLY|Rotation=94.184|XOffset=0mil|YOffset=0mil|HoleType=Round|Shape=Rectangle|*
%AMROTATEDRECTD61*
4,1,4,0.0497,-0.0457,-0.0425,-0.0525,-0.0497,0.0457,0.0425,0.0525,0.0497,-0.0457,0.0*
%
%ADD61ROTATEDRECTD61*%

G04:AMPARAMS|DCode=62|XSize=92.5mil|YSize=39.4mil|CornerRadius=0mil|HoleSize=0mil|Usage=FLASHONLY|Rotation=4.184|XOffset=0mil|YOffset=0mil|HoleType=Round|Shape=Rectangle|*
%AMROTATEDRECTD62*
4,1,4,-0.0447,-0.0230,-0.0476,0.0163,0.0447,0.0230,0.0476,-0.0163,-0.0447,-0.0230,0.0*
%
%ADD62ROTATEDRECTD62*%

G04:AMPARAMS|DCode=63|XSize=98.4mil|YSize=92.5mil|CornerRadius=0mil|HoleSize=0mil|Usage=FLASHONLY|Rotation=90.822|XOffset=0mil|YOffset=0mil|HoleType=Round|Shape=Rectangle|*
%AMROTATEDRECTD63*
4,1,4,0.0470,-0.0485,-0.0455,-0.0499,-0.0470,0.0485,0.0455,0.0499,0.0470,-0.0485,0.0*
%
%ADD63ROTATEDRECTD63*%

G04:AMPARAMS|DCode=64|XSize=92.5mil|YSize=39.4mil|CornerRadius=0mil|HoleSize=0mil|Usage=FLASHONLY|Rotation=0.822|XOffset=0mil|YOffset=0mil|HoleType=Round|Shape=Rectangle|*
%AMROTATEDRECTD64*
4,1,4,-0.0460,-0.0203,-0.0465,0.0190,0.0460,0.0203,0.0465,-0.0190,-0.0460,-0.0203,0.0*
%
%ADD64ROTATEDRECTD64*%

G04:AMPARAMS|DCode=65|XSize=98.4mil|YSize=92.5mil|CornerRadius=0mil|HoleSize=0mil|Usage=FLASHONLY|Rotation=32.436|XOffset=0mil|YOffset=0mil|HoleType=Round|Shape=Rectangle|*
%AMROTATEDRECTD65*
4,1,4,-0.0167,-0.0654,-0.0663,0.0126,0.0167,0.0654,0.0663,-0.0126,-0.0167,-0.0654,0.0*
%
%ADD65ROTATEDRECTD65*%

G04:AMPARAMS|DCode=66|XSize=92.5mil|YSize=39.4mil|CornerRadius=0mil|HoleSize=0mil|Usage=FLASHONLY|Rotation=302.436|XOffset=0mil|YOffset=0mil|HoleType=Round|Shape=Rectangle|*
%AMROTATEDRECTD66*
4,1,4,-0.0414,0.0285,-0.0082,0.0496,0.0414,-0.0285,0.0082,-0.0496,-0.0414,0.0285,0.0*
%
%ADD66ROTATEDRECTD66*%

%ADD124C,0.0800*%
D14*
X043776Y016231D02*
D03*
X042523Y015882D02*
D03*
D15*
X042451Y014617D02*
D03*
X041185Y014325D02*
D03*
D16*
X032045Y019946D02*
D03*
D17*
X031745Y019392D02*
D03*
X031445Y018838D02*
D03*
X033914Y018934D02*
D03*
X033615Y01838D02*
D03*
X033315Y017826D02*
D03*
D18*
X035737Y014452D02*
D03*
D19*
X036624Y014272D02*
D03*
D20*
X035996Y015726D02*
D03*
D21*
X036883Y015545D02*
D03*
D22*
X027159Y038688D02*
D03*
D23*
X026641Y037946D02*
D03*
D24*
X026078Y039406D02*
D03*
D25*
X025561Y038663D02*
D03*
D26*
X041251Y045731D02*
D03*
D27*
X042145Y04559D02*
D03*
D28*
X043284Y045289D02*
D03*
D29*
X044153Y045033D02*
D03*
D30*
X042926Y04404D02*
D03*
D31*
X043798Y043798D02*
D03*
D32*
X041059Y044446D02*
D03*
D33*
X041956Y044319D02*
D03*
D34*
X026514Y020148D02*
D03*
X0275Y020932D02*
D03*
D35*
X027078Y019439D02*
D03*
X028063Y020223D02*
D03*
D36*
X025524Y02882D02*
D03*
X026154Y028826D02*
D03*
X026784Y028831D02*
D03*
X025505Y030946D02*
D03*
X026135Y030952D02*
D03*
D37*
X026765Y030957D02*
D03*
D38*
X04967Y022047D02*
D03*
X049194Y02246D02*
D03*
X048719Y022873D02*
D03*
X048276Y020442D02*
D03*
X0478Y020855D02*
D03*
D39*
X047325Y021268D02*
D03*
D40*
X050058Y0374D02*
D03*
X049507Y037095D02*
D03*
X048956Y036789D02*
D03*
X051088Y035541D02*
D03*
X050537Y035235D02*
D03*
D41*
X049987Y03493D02*
D03*
D42*
X03476Y042692D02*
D03*
X034907Y04208D02*
D03*
X035053Y041467D02*
D03*
X036828Y043187D02*
D03*
X036974Y042574D02*
D03*
D43*
X037121Y041961D02*
D03*
D44*
X026231Y025259D02*
D03*
X025894Y026515D02*
D03*
D45*
X051214Y026427D02*
D03*
X050727Y025222D02*
D03*
D46*
X045597Y040002D02*
D03*
X046619Y039199D02*
D03*
D47*
X026187Y037192D02*
D03*
D48*
X025726Y036413D02*
D03*
D49*
X026414Y022497D02*
D03*
X025334Y021849D02*
D03*
D50*
X02688Y021721D02*
D03*
X0258Y021072D02*
D03*
D51*
X030738Y042047D02*
D03*
X031838Y042741D02*
D03*
D52*
X05342Y031912D02*
D03*
D53*
X053481Y031008D02*
D03*
D54*
X053506Y03D02*
D03*
D55*
X053521Y029095D02*
D03*
D56*
X04664Y017613D02*
D03*
D57*
X045873Y017132D02*
D03*
D58*
X025057Y037832D02*
D03*
D59*
X024597Y037052D02*
D03*
D60*
X030222Y043263D02*
D03*
X031329Y043943D02*
D03*
D61*
X054708Y032081D02*
D03*
D62*
X054775Y031178D02*
D03*
D63*
X054806Y03D02*
D03*
D64*
X054819Y029095D02*
D03*
D65*
X047394Y01654D02*
D03*
D66*
X04663Y016054D02*
D03*
D124*
X03135Y02265D02*
D03*
X0283Y03015D02*
D03*
X03885Y01952D02*
D03*
X046366Y037666D02*
D03*
X03885Y04078D02*
D03*
X03135Y03765D02*
D03*
M02*
